#N canvas 0 1025 1916 997 10;
#X obj 201 201 cnv 15 628 348 empty empty Sequencer_1 20 12 0 14 -111517
-262144 0;
#X obj 221 232 vsl 15 60 0 127 0 0 \$0-velocity1_s \$0-velocity1_r
1 7 73 0 10 -232699 -1 -262144 3717 1;
#X obj 223 314 bng 15 250 50 0 empty empty empty 17 7 0 10 -111517
-232699 -1;
#N canvas 0 0 1916 988 random 0;
#X obj -123 -180 bng 15 250 50 0 empty \$0-bang_velocity empty 17 7
0 10 -262144 -1 -1;
#X obj -113 -121 i;
#X obj -82 -121 + 1;
#X msg -113 -68 seed \$1;
#X obj -113 -93 % 100;
#X obj -53 -180 bng 15 250 50 0 empty \$0-bang_velocity empty 17 7
0 10 -262144 -1 -1;
#X obj -43 -121 i;
#X obj -12 -121 + 1;
#X msg -43 -68 seed \$1;
#X obj -43 -93 % 100;
#X obj 17 -180 bng 15 250 50 0 empty \$0-bang_velocity empty 17 7 0
10 -262144 -1 -1;
#X obj 27 -121 i;
#X obj 58 -121 + 1;
#X msg 27 -68 seed \$1;
#X obj 27 -93 % 100;
#X obj 87 -180 bng 15 250 50 0 empty \$0-bang_velocity empty 17 7 0
10 -262144 -1 -1;
#X obj 97 -121 i;
#X obj 128 -121 + 1;
#X msg 97 -68 seed \$1;
#X obj 97 -93 % 100;
#X obj 157 -180 bng 15 250 50 0 empty \$0-bang_velocity empty 17 7
0 10 -262144 -1 -1;
#X obj 167 -121 i;
#X obj 198 -121 + 1;
#X msg 167 -68 seed \$1;
#X obj 167 -93 % 100;
#X obj 227 -180 bng 15 250 50 0 empty \$0-bang_velocity empty 17 7
0 10 -262144 -1 -1;
#X obj 237 -121 i;
#X obj 268 -121 + 1;
#X msg 237 -68 seed \$1;
#X obj 237 -93 % 100;
#X obj 297 -180 bng 15 250 50 0 empty \$0-bang_velocity empty 17 7
0 10 -262144 -1 -1;
#X obj 307 -121 i;
#X obj 338 -121 + 1;
#X msg 307 -68 seed \$1;
#X obj 307 -93 % 100;
#X obj 367 -180 bng 15 250 50 0 empty \$0-bang_velocity empty 17 7
0 10 -262144 -1 -1;
#X obj 377 -121 i;
#X obj 408 -121 + 1;
#X msg 377 -68 seed \$1;
#X obj 377 -93 % 100;
#X obj 437 -180 bng 15 250 50 0 empty \$0-bang_velocity empty 17 7
0 10 -262144 -1 -1;
#X obj 447 -121 i;
#X obj 478 -121 + 1;
#X msg 447 -68 seed \$1;
#X obj 447 -93 % 100;
#X obj 507 -180 bng 15 250 50 0 empty \$0-bang_velocity empty 17 7
0 10 -262144 -1 -1;
#X obj 517 -121 i;
#X obj 548 -121 + 1;
#X msg 517 -68 seed \$1;
#X obj 517 -93 % 100;
#X obj 577 -180 bng 15 250 50 0 empty \$0-bang_velocity empty 17 7
0 10 -262144 -1 -1;
#X obj 587 -121 i;
#X obj 618 -121 + 1;
#X msg 587 -68 seed \$1;
#X obj 587 -93 % 100;
#X obj 647 -180 bng 15 250 50 0 empty \$0-bang_velocity empty 17 7
0 10 -262144 -1 -1;
#X obj 657 -121 i;
#X obj 688 -121 + 1;
#X msg 657 -68 seed \$1;
#X obj 657 -93 % 100;
#X obj 889 -165 tgl 15 0 empty empty empty 17 7 0 10 -262144 -1 -1
1 1;
#X msg 889 -200 1;
#X obj 889 -234 loadbang;
#X obj -113 -150 metro 200;
#X obj -43 -150 metro 80;
#X obj 27 -150 metro 108;
#X obj 97 -150 metro 350;
#X obj 167 -150 metro 300;
#X obj 237 -150 metro 900;
#X obj 307 -150 metro 204;
#X obj 377 -150 metro 133;
#X obj 447 -150 metro 758;
#X obj 517 -150 metro 124;
#X obj 587 -150 metro 985;
#X obj 657 -150 metro 422;
#X floatatom -123 14 5 0 0 0 - - #0-velocity1_r;
#X floatatom -53 14 5 0 0 0 - - #0-velocity2_r;
#X floatatom 17 14 5 0 0 0 - - #0-velocity3_r;
#X floatatom 87 14 5 0 0 0 - - #0-velocity4_r;
#X floatatom 157 14 5 0 0 0 - - #0-velocity5_r;
#X floatatom 227 14 5 0 0 0 - - #0-velocity6_r;
#X floatatom 297 14 5 0 0 0 - - #0-velocity7_r;
#X floatatom 367 14 5 0 0 0 - - #0-velocity8_r;
#X floatatom 437 14 5 0 0 0 - - #0-velocity9_r;
#X floatatom 507 14 5 0 0 0 - - #0-velocity10_r;
#X floatatom 577 14 5 0 0 0 - - #0-velocity11_r;
#X floatatom 647 14 5 0 0 0 - - #0-velocity12_r;
#X obj -123 -13 * 20;
#X obj -123 -42 random 6;
#X obj -53 -42 random 6;
#X obj -53 -13 * 20;
#X obj 17 -42 random 6;
#X obj 17 -13 * 20;
#X obj 87 -42 random 6;
#X obj 157 -42 random 6;
#X obj 227 -42 random 6;
#X obj 297 -42 random 6;
#X obj 367 -42 random 6;
#X obj 437 -42 random 6;
#X obj 507 -42 random 6;
#X obj 577 -42 random 6;
#X obj 647 -42 random 6;
#X obj 87 -13 * 20;
#X obj 157 -13 * 20;
#X obj 227 -13 * 20;
#X obj 297 -13 * 20;
#X obj 367 -13 * 20;
#X obj 437 -13 * 20;
#X obj 507 -13 * 20;
#X obj 577 -13 * 20;
#X obj 647 -13 * 20;
#X obj 727 -180 bng 15 250 50 0 empty \$0-bang_velocity empty 17 7
0 10 -262144 -1 -1;
#X obj 737 -121 i;
#X obj 768 -121 + 1;
#X msg 737 -68 seed \$1;
#X obj 737 -93 % 100;
#X obj 797 -180 bng 15 250 50 0 empty \$0-bang_velocity empty 17 7
0 10 -262144 -1 -1;
#X obj 807 -121 i;
#X obj 838 -121 + 1;
#X msg 807 -68 seed \$1;
#X obj 807 -93 % 100;
#X floatatom 727 14 5 0 0 0 - - #0-velocity13_r;
#X floatatom 797 14 5 0 0 0 - - #0-velocity14_r;
#X obj 727 -42 random 6;
#X obj 797 -42 random 6;
#X obj 727 -13 * 20;
#X obj 797 -13 * 20;
#X obj 737 -150 metro 9115;
#X obj 807 -150 metro 4232;
#X connect 0 0 88 0;
#X connect 1 0 2 0;
#X connect 1 0 4 0;
#X connect 2 0 1 1;
#X connect 3 0 88 0;
#X connect 4 0 3 0;
#X connect 5 0 89 0;
#X connect 6 0 7 0;
#X connect 6 0 9 0;
#X connect 7 0 6 1;
#X connect 8 0 89 0;
#X connect 9 0 8 0;
#X connect 10 0 91 0;
#X connect 11 0 12 0;
#X connect 11 0 14 0;
#X connect 12 0 11 1;
#X connect 13 0 91 0;
#X connect 14 0 13 0;
#X connect 15 0 93 0;
#X connect 16 0 17 0;
#X connect 16 0 19 0;
#X connect 17 0 16 1;
#X connect 18 0 93 0;
#X connect 19 0 18 0;
#X connect 20 0 94 0;
#X connect 21 0 22 0;
#X connect 21 0 24 0;
#X connect 22 0 21 1;
#X connect 23 0 94 0;
#X connect 24 0 23 0;
#X connect 25 0 95 0;
#X connect 26 0 27 0;
#X connect 26 0 29 0;
#X connect 27 0 26 1;
#X connect 28 0 95 0;
#X connect 29 0 28 0;
#X connect 30 0 96 0;
#X connect 31 0 32 0;
#X connect 31 0 34 0;
#X connect 32 0 31 1;
#X connect 33 0 96 0;
#X connect 34 0 33 0;
#X connect 35 0 97 0;
#X connect 36 0 37 0;
#X connect 36 0 39 0;
#X connect 37 0 36 1;
#X connect 38 0 97 0;
#X connect 39 0 38 0;
#X connect 40 0 98 0;
#X connect 41 0 42 0;
#X connect 41 0 44 0;
#X connect 42 0 41 1;
#X connect 43 0 98 0;
#X connect 44 0 43 0;
#X connect 45 0 99 0;
#X connect 46 0 47 0;
#X connect 46 0 49 0;
#X connect 47 0 46 1;
#X connect 48 0 99 0;
#X connect 49 0 48 0;
#X connect 50 0 100 0;
#X connect 51 0 52 0;
#X connect 51 0 54 0;
#X connect 52 0 51 1;
#X connect 53 0 100 0;
#X connect 54 0 53 0;
#X connect 55 0 101 0;
#X connect 56 0 57 0;
#X connect 56 0 59 0;
#X connect 57 0 56 1;
#X connect 58 0 101 0;
#X connect 59 0 58 0;
#X connect 60 0 63 0;
#X connect 60 0 64 0;
#X connect 60 0 65 0;
#X connect 60 0 66 0;
#X connect 60 0 67 0;
#X connect 60 0 68 0;
#X connect 60 0 69 0;
#X connect 60 0 70 0;
#X connect 60 0 71 0;
#X connect 60 0 72 0;
#X connect 60 0 73 0;
#X connect 60 0 74 0;
#X connect 60 0 127 0;
#X connect 60 0 128 0;
#X connect 61 0 60 0;
#X connect 62 0 61 0;
#X connect 63 0 1 0;
#X connect 64 0 6 0;
#X connect 65 0 11 0;
#X connect 66 0 16 0;
#X connect 67 0 21 0;
#X connect 68 0 26 0;
#X connect 69 0 31 0;
#X connect 70 0 36 0;
#X connect 71 0 41 0;
#X connect 72 0 46 0;
#X connect 73 0 51 0;
#X connect 74 0 56 0;
#X connect 87 0 75 0;
#X connect 88 0 87 0;
#X connect 89 0 90 0;
#X connect 90 0 76 0;
#X connect 91 0 92 0;
#X connect 92 0 77 0;
#X connect 93 0 102 0;
#X connect 94 0 103 0;
#X connect 95 0 104 0;
#X connect 96 0 105 0;
#X connect 97 0 106 0;
#X connect 98 0 107 0;
#X connect 99 0 108 0;
#X connect 100 0 109 0;
#X connect 101 0 110 0;
#X connect 102 0 78 0;
#X connect 103 0 79 0;
#X connect 104 0 80 0;
#X connect 105 0 81 0;
#X connect 106 0 82 0;
#X connect 107 0 83 0;
#X connect 108 0 84 0;
#X connect 109 0 85 0;
#X connect 110 0 86 0;
#X connect 111 0 123 0;
#X connect 112 0 113 0;
#X connect 112 0 115 0;
#X connect 113 0 112 1;
#X connect 114 0 123 0;
#X connect 115 0 114 0;
#X connect 116 0 124 0;
#X connect 117 0 118 0;
#X connect 117 0 120 0;
#X connect 118 0 117 1;
#X connect 119 0 124 0;
#X connect 120 0 119 0;
#X connect 123 0 125 0;
#X connect 124 0 126 0;
#X connect 125 0 121 0;
#X connect 126 0 122 0;
#X connect 127 0 112 0;
#X connect 128 0 117 0;
#X restore 501 138 pd random preset;
#X obj 519 515 bng 20 250 50 0 \$0-bang_velocity empty Random -7 -7
0 10 -232699 -1 -262144;
#X floatatom 839 269 5 0 0 0 - #0-step_count -;
#X obj 217 473 vradio 15 1 0 4 \$0-step_option empty empty 0 -8 0 10
-232699 -1 -1 0;
#X text 237 471 FORWARD;
#X text 237 487 BACKWARD;
#X text 238 517 RANDOM;
#X text 238 501 F & B;
#X obj 300 480 tgl 20 0 empty empty Play 0 -7 0 10 -232699 -1 -262144
1 1;
#X obj 293 511 nbx 3 25 -1e+037 1e+037 0 0 \$0-tempo_s \$0-tempo_r
empty 0 -8 0 20 -232699 -1 -1 90 256;
#N canvas 476 21 1397 988 sequence 0;
#X obj 821 36 i;
#X obj 849 36 + 1;
#X floatatom 901 23 5 0 0 0 - - -;
#X floatatom 480 187 5 0 0 0 - - #0-step_count;
#X obj 213 -84 BPM_ME ---------;
#X floatatom 821 155 5 0 0 0 - - -;
#X floatatom 1014 171 5 0 0 0 - - -;
#X obj 981 64 i;
#X obj 1009 64 - 1;
#X obj 1131 113 UpDown;
#X msg 1153 50 0;
#X floatatom 1131 155 5 0 0 0 - - -;
#X floatatom 1185 39 5 0 0 0 - - -;
#X floatatom 1302 39 5 0 0 0 - - -;
#X floatatom 1251 155 5 0 0 0 - - -;
#X obj 1185 87 - 1;
#X obj 1251 91 random_me;
#X obj 244 -165 inlet metro;
#X obj 821 71 %;
#X floatatom 981 100 5 0 0 0 - - -;
#X obj 901 116 sel 0;
#X obj 901 143 bng 15 250 50 0 empty empty empty 17 7 0 10 -262144
-1 -1;
#X obj 901 -40 sel 0;
#X obj 996 39 - 1;
#X obj 1153 12 loadbang;
#X obj 213 -113 tgl 15 0 empty empty empty 17 7 0 10 -262144 -1 -1
1 1;
#X obj 108 -130 inlet metro_triger;
#X floatatom 306 -47 5 0 0 0 - - -;
#X obj 854 -143 tgl 15 0 empty empty empty 17 7 0 10 -262144 -1 -1
1 1;
#X obj 1014 -143 tgl 15 0 empty empty empty 17 7 0 10 -262144 -1 -1
0 1;
#X obj 1073 -198 hradio 15 1 0 4 empty \$0-step_option empty 0 -8 0
10 -262144 -1 -1 0;
#X obj 1073 -177 sel 0 1 2 3;
#X msg 839 -160 0;
#X msg 869 -160 1;
#X msg 999 -160 0;
#X msg 1029 -160 1;
#X obj 1164 -143 tgl 15 0 empty empty empty 17 7 0 10 -262144 -1 -1
0 1;
#X msg 1159 -160 0;
#X msg 1189 -160 1;
#X obj 1284 -143 tgl 15 0 empty empty empty 17 7 0 10 -262144 -1 -1
0 1;
#X msg 1279 -160 0;
#X msg 1309 -160 1;
#X obj 669 6 inlet steps;
#X obj 821 -20 bng 15 250 50 0 empty empty empty 17 7 0 10 -262144
-1 -1;
#X obj 821 -52 spigot;
#X obj 756 -67 bng 15 250 50 0 empty empty empty 17 7 0 10 -262144
-1 -1;
#X obj 981 -20 bng 15 250 50 0 empty empty empty 17 7 0 10 -262144
-1 -1;
#X obj 981 -52 spigot;
#X obj 1131 -20 bng 15 250 50 0 empty empty empty 17 7 0 10 -262144
-1 -1;
#X obj 1131 -52 spigot;
#X obj 1251 -20 bng 15 250 50 0 empty empty empty 17 7 0 10 -262144
-1 -1;
#X obj 1251 -52 spigot;
#X obj 735 -95 inlet legato;
#X floatatom 735 -26 5 0 0 0 - - -;
#X obj 306 -10 *;
#X floatatom 306 22 5 0 0 0 - - -;
#X obj 1093 -98 sel 0;
#X msg 836 -81 0;
#X obj 1093 8 bng 15 250 50 0 empty empty empty 17 7 0 10 -262144 -1
-1;
#X obj 228 529 noteout 10;
#X obj 331 93 bng 15 250 50 0 empty empty empty 17 7 0 10 -262144 -1
-1;
#X obj 220 494 makenote 50 500;
#X floatatom 256 434 5 0 0 0 - #0-velocity_count -;
#X floatatom 319 513 5 0 0 0 - #0-channel_Out -;
#X obj 34 303 i;
#X obj 74 303 i;
#X obj 114 303 i;
#X obj 154 303 i;
#X obj 194 303 i;
#X obj 234 303 i;
#X obj 274 303 i;
#X obj 314 303 i;
#X obj 354 303 i;
#X obj 394 303 i;
#X obj 434 303 i;
#X obj 474 303 i;
#X obj 514 303 i;
#X floatatom 398 320 5 0 0 0 - - #0-velocity_count;
#X floatatom 49 269 5 0 0 0 - #0-velocity1_s -;
#X floatatom 89 269 5 0 0 0 - #0-velocity2_s -;
#X floatatom 129 269 5 0 0 0 - #0-velocity3_s -;
#X floatatom 169 269 5 0 0 0 - #0-velocity4_s -;
#X floatatom 209 269 5 0 0 0 - #0-velocity5_s -;
#X floatatom 249 269 5 0 0 0 - #0-velocity6_s -;
#X floatatom 289 269 5 0 0 0 - #0-velocity7_s -;
#X floatatom 329 269 5 0 0 0 - #0-velocity8_s -;
#X floatatom 369 269 5 0 0 0 - #0-velocity9_s -;
#X floatatom 409 269 5 0 0 0 - #0-velocity10_s -;
#X floatatom 449 269 5 0 0 0 - #0-velocity11_s -;
#X floatatom 489 269 5 0 0 0 - #0-velocity12_s -;
#X floatatom 529 269 5 0 0 0 - #0-velocity13_s -;
#X obj 554 303 i;
#X obj 594 303 i;
#X floatatom 569 269 5 0 0 0 - #0-velocity14_s -;
#X floatatom 609 269 5 0 0 0 - #0-velocity15_s -;
#X obj 1014 286 sel 0 1 2 3 4 5 6 7 8 9 10 11 12 13 14 15 16 17 18
19;
#X obj 634 303 i;
#X obj 674 303 i;
#X obj 714 303 i;
#X floatatom 649 269 5 0 0 0 - #0-velocity16_s -;
#X floatatom 689 269 5 0 0 0 - #0-velocity17_s -;
#X floatatom 729 269 5 0 0 0 - #0-velocity18_s -;
#X obj 754 303 i;
#X obj 794 303 i;
#X floatatom 769 269 5 0 0 0 - #0-velocity19_s -;
#X floatatom 809 269 5 0 0 0 - #0-velocity20_s -;
#X floatatom 165 517 5 0 0 0 - - #0-showNote;
#X floatatom 210 436 5 0 0 0 - #0-NoteIn1 -;
#X connect 0 0 1 0;
#X connect 0 0 18 0;
#X connect 1 0 0 1;
#X connect 2 0 18 1;
#X connect 2 0 23 0;
#X connect 2 0 12 0;
#X connect 2 0 13 0;
#X connect 4 0 45 0;
#X connect 4 1 27 0;
#X connect 5 0 6 0;
#X connect 6 0 3 0;
#X connect 6 0 95 0;
#X connect 7 0 8 0;
#X connect 7 0 19 0;
#X connect 8 0 7 1;
#X connect 9 0 11 0;
#X connect 10 0 9 2;
#X connect 11 0 6 0;
#X connect 12 0 15 0;
#X connect 13 0 16 1;
#X connect 14 0 6 0;
#X connect 15 0 9 3;
#X connect 16 0 14 0;
#X connect 17 0 4 1;
#X connect 18 0 5 0;
#X connect 19 0 20 0;
#X connect 19 0 6 0;
#X connect 20 0 21 0;
#X connect 21 0 2 0;
#X connect 23 0 7 1;
#X connect 24 0 10 0;
#X connect 25 0 4 0;
#X connect 25 0 56 0;
#X connect 26 0 25 0;
#X connect 27 0 54 0;
#X connect 28 0 44 1;
#X connect 29 0 22 0;
#X connect 29 0 47 1;
#X connect 30 0 31 0;
#X connect 31 0 33 0;
#X connect 31 0 34 0;
#X connect 31 0 37 0;
#X connect 31 0 40 0;
#X connect 31 1 32 0;
#X connect 31 1 35 0;
#X connect 31 1 37 0;
#X connect 31 1 40 0;
#X connect 31 2 38 0;
#X connect 31 2 34 0;
#X connect 31 2 32 0;
#X connect 31 2 40 0;
#X connect 31 3 41 0;
#X connect 31 3 37 0;
#X connect 31 3 34 0;
#X connect 31 3 32 0;
#X connect 32 0 28 0;
#X connect 33 0 28 0;
#X connect 34 0 29 0;
#X connect 35 0 29 0;
#X connect 36 0 49 1;
#X connect 37 0 36 0;
#X connect 38 0 36 0;
#X connect 39 0 51 1;
#X connect 40 0 39 0;
#X connect 41 0 39 0;
#X connect 42 0 2 0;
#X connect 43 0 0 0;
#X connect 44 0 43 0;
#X connect 45 0 44 0;
#X connect 45 0 47 0;
#X connect 45 0 49 0;
#X connect 45 0 51 0;
#X connect 46 0 7 0;
#X connect 47 0 46 0;
#X connect 48 0 9 0;
#X connect 49 0 48 0;
#X connect 50 0 16 0;
#X connect 51 0 50 0;
#X connect 52 0 53 0;
#X connect 53 0 54 1;
#X connect 54 0 55 0;
#X connect 55 0 60 0;
#X connect 55 0 61 2;
#X connect 56 0 57 0;
#X connect 56 0 58 0;
#X connect 57 0 0 1;
#X connect 58 0 2 0;
#X connect 58 0 9 1;
#X connect 61 0 59 0;
#X connect 61 1 59 1;
#X connect 62 0 61 1;
#X connect 63 0 59 2;
#X connect 64 0 77 0;
#X connect 65 0 77 0;
#X connect 66 0 77 0;
#X connect 67 0 77 0;
#X connect 68 0 77 0;
#X connect 69 0 77 0;
#X connect 70 0 77 0;
#X connect 71 0 77 0;
#X connect 72 0 77 0;
#X connect 73 0 77 0;
#X connect 74 0 77 0;
#X connect 75 0 77 0;
#X connect 76 0 77 0;
#X connect 78 0 64 1;
#X connect 79 0 65 1;
#X connect 80 0 66 1;
#X connect 81 0 67 1;
#X connect 82 0 68 1;
#X connect 83 0 69 1;
#X connect 84 0 70 1;
#X connect 85 0 71 1;
#X connect 86 0 72 1;
#X connect 87 0 73 1;
#X connect 88 0 74 1;
#X connect 89 0 75 1;
#X connect 90 0 76 1;
#X connect 91 0 77 0;
#X connect 92 0 77 0;
#X connect 93 0 91 1;
#X connect 94 0 92 1;
#X connect 95 0 64 0;
#X connect 95 1 65 0;
#X connect 95 2 66 0;
#X connect 95 3 67 0;
#X connect 95 4 68 0;
#X connect 95 5 69 0;
#X connect 95 6 70 0;
#X connect 95 7 71 0;
#X connect 95 8 72 0;
#X connect 95 9 73 0;
#X connect 95 10 74 0;
#X connect 95 11 75 0;
#X connect 95 12 76 0;
#X connect 95 13 91 0;
#X connect 95 14 92 0;
#X connect 95 15 96 0;
#X connect 95 16 97 0;
#X connect 95 17 98 0;
#X connect 95 18 102 0;
#X connect 95 19 103 0;
#X connect 96 0 77 0;
#X connect 97 0 77 0;
#X connect 98 0 77 0;
#X connect 99 0 96 1;
#X connect 100 0 97 1;
#X connect 101 0 98 1;
#X connect 102 0 77 0;
#X connect 103 0 77 0;
#X connect 104 0 102 1;
#X connect 105 0 103 1;
#X connect 107 0 61 0;
#X connect 107 0 106 0;
#X restore 283 598 pd sequence;
#X obj 333 479 nbx 2 20 0 20 0 0 \$0-stepsC1_s \$0-stepsC1_r empty
0 -8 0 15 -232699 -1 -1 19 256;
#X obj 86 407 loadbang;
#X obj 394 520 hsl 100 15 0.1 3 0 0 empty empty Staccato/Legato 5 7
0 10 -232699 -1 -1 1500 1;
#X msg 40 470 1;
#X obj 556 476 vradio 15 1 0 4 empty empty empty 0 -8 0 10 -232699
-1 -1 1;
#X text 576 474 FORWARD;
#X text 576 490 BACKWARD;
#X text 577 520 RANDOM;
#X text 577 504 F & B;
#X obj 392 480 hradio 17 1 0 4 \$0-tempoX1_s \$0-tempoX1_r Tempo_x1/x2/x3/x4
-20 25 0 10 -232699 -1 -262144 3;
#X obj 573 725 i;
#X obj 600 725 + 1;
#X obj 573 758 % 4;
#X obj 783 748 i;
#X obj 810 748 - 1;
#X floatatom 783 888 5 0 0 0 - - -;
#X floatatom 552 888 5 0 0 0 - - -;
#X floatatom 1282 888 5 0 0 0 - - -;
#X obj 843 612 sel 0;
#X obj 606 597 tgl 15 0 empty empty empty 17 7 0 10 -262144 -1 -1 0
1;
#X obj 816 597 tgl 15 0 empty empty empty 17 7 0 10 -262144 -1 -1 1
1;
#X obj 895 537 hradio 15 1 0 4 empty empty empty 0 -8 0 10 -262144
-1 -1 1;
#X obj 895 563 sel 0 1 2 3;
#X msg 591 580 0;
#X msg 621 580 1;
#X msg 801 580 0;
#X msg 831 580 1;
#X obj 1015 597 tgl 15 0 empty empty empty 17 7 0 10 -262144 -1 -1
0 1;
#X msg 1010 580 0;
#X msg 1040 580 1;
#X obj 1276 597 tgl 15 0 empty empty empty 17 7 0 10 -262144 -1 -1
0 1;
#X msg 1271 580 0;
#X msg 1301 580 1;
#X obj 573 690 bng 15 250 50 0 empty empty empty 17 7 0 10 -262144
-1 -1;
#X obj 573 658 spigot;
#X obj 783 720 bng 15 250 50 0 empty empty empty 17 7 0 10 -262144
-1 -1;
#X obj 783 658 spigot;
#X obj 982 690 bng 15 250 50 0 empty empty empty 17 7 0 10 -262144
-1 -1;
#X obj 982 658 spigot;
#X obj 1243 690 bng 15 250 50 0 empty empty empty 17 7 0 10 -262144
-1 -1;
#X obj 1243 658 spigot;
#X obj 982 770 UpDown;
#X msg 1064 753 0;
#X floatatom 1021 888 5 0 0 0 - - -;
#X floatatom 1341 904 5 0 0 0 - - -;
#X obj 533 643 bng 15 250 50 0 empty empty empty 17 7 0 10 -262144
-1 -1;
#X msg 160 448 0;
#X obj 519 477 bng 20 250 50 0 \$0-reset empty Reset -5 -7 0 10 -232699
-1 -262144;
#X obj 85 374 bng 15 250 50 0 empty \$0-reset empty 17 7 0 10 -262144
-1 -1;
#N canvas 681 582 450 300 tempo 0;
#X obj 166 186 *;
#X obj 161 104 t b f;
#X msg 135 149 1;
#X msg 165 149 2;
#X msg 195 149 3;
#X msg 225 149 4;
#X floatatom 166 211 5 0 0 0 - - -;
#X floatatom 73 170 5 0 0 0 - - -;
#X obj 161 67 inlet multi;
#X obj 73 89 inlet tempo;
#X obj 166 237 outlet;
#X obj 135 132 sel 0 1 2 3;
#X connect 0 0 6 0;
#X connect 1 0 0 0;
#X connect 1 1 11 0;
#X connect 2 0 0 1;
#X connect 3 0 0 1;
#X connect 4 0 0 1;
#X connect 5 0 0 1;
#X connect 6 0 10 0;
#X connect 7 0 0 0;
#X connect 8 0 1 0;
#X connect 9 0 7 0;
#X connect 11 0 2 0;
#X connect 11 1 3 0;
#X connect 11 2 4 0;
#X connect 11 3 5 0;
#X restore 295 569 pd tempo;
#X floatatom 640 693 5 0 0 0 - #0-poly -;
#X obj 1064 612 sel 0;
#N canvas 0 0 1916 997 arpeggiator 0;
#X msg 223 672 set;
#X obj 183 644 t b b b;
#X obj 118 726 t b a;
#X obj 118 689 prepent;
#X obj 112 629 bng 15 250 50 0 empty empty empty 17 7 0 10 -262144
-1 -1;
#X obj 193 517 sel 0;
#X obj 55 629 sel 0;
#X msg 118 758;
#X floatatom 228 501 5 0 0 0 - - -;
#X msg 183 672 add2;
#X floatatom 487 819 5 0 0 0 - - -;
#X floatatom 527 819 5 0 0 0 - - -;
#X floatatom 607 819 5 0 0 0 - - -;
#X floatatom 567 819 5 0 0 0 - - -;
#X obj 487 856 outlet;
#X obj 527 856 outlet;
#X obj 567 856 outlet;
#X obj 607 856 outlet;
#X floatatom 156 852 5 0 0 0 - - #0-poly;
#X msg 497 568 0;
#X floatatom 497 596 5 0 0 0 - - #0-showNote;
#X obj 194 -34 notein;
#X floatatom 43 42 5 0 0 0 - - -;
#X floatatom 312 -17 5 0 0 0 - - -;
#X obj 43 68 sel 200;
#X obj 194 12 expr if($f3 == $f4 \, $f1 \, 200) \; if ($f3 == $f4 \,
$f2 \, 200) \;;
#X floatatom 253 -17 5 0 0 0 - - -;
#X floatatom 103 42 5 0 0 0 - - -;
#X obj 103 68 sel 200;
#X floatatom 371 -15 5 0 0 0 - #0-channel_In -;
#X obj 122 798 bng 15 250 50 0 \$0-MIDI_TEST empty empty 17 7 0 10
-262144 -1 -1;
#X obj 98 127 pack f f f;
#N canvas 1019 134 450 569 note 0;
#X obj 181 61 unpack f f;
#X floatatom 158 89 5 0 0 0 - - -;
#X floatatom 237 89 5 0 0 0 - - -;
#X obj 238 118 sel 0;
#X obj 158 121 stripnote;
#X obj 179 425 f;
#X msg 238 369 0;
#X obj 181 29 inlet;
#X obj 158 386 t b f;
#X obj 284 78 outlet;
#X obj 270 325 * 12;
#X obj 321 218 * 2;
#X obj 270 298 -;
#X obj 321 244 + 1;
#X obj 270 246 bng 15 250 50 0 empty empty empty 17 7 0 10 -262144
-1 -1;
#X obj 258 170 r \$0-octave;
#X obj 258 201 t f f;
#X obj 270 270 random_me;
#X floatatom 179 458 5 0 0 0 - - -;
#X obj 179 491 outlet;
#X obj 158 229 t f b;
#X obj 158 342 +;
#X connect 0 0 1 0;
#X connect 0 1 2 0;
#X connect 0 1 9 0;
#X connect 1 0 4 0;
#X connect 2 0 3 0;
#X connect 2 0 4 1;
#X connect 3 0 6 0;
#X connect 4 0 20 0;
#X connect 5 0 18 0;
#X connect 6 0 8 0;
#X connect 7 0 0 0;
#X connect 8 0 5 0;
#X connect 8 1 5 1;
#X connect 10 0 21 1;
#X connect 11 0 13 0;
#X connect 12 0 10 0;
#X connect 13 0 17 1;
#X connect 14 0 17 0;
#X connect 15 0 16 0;
#X connect 16 0 11 0;
#X connect 16 1 12 1;
#X connect 17 0 12 0;
#X connect 18 0 19 0;
#X connect 20 0 21 0;
#X connect 20 1 14 0;
#X connect 21 0 8 0;
#X restore 98 276 pd note;
#X obj 55 293 f;
#X obj 55 319 f;
#X obj 55 345 f;
#X obj 55 369 f;
#X obj 55 456 f;
#X obj 55 247 t b b;
#X msg 193 55 clear;
#X obj 156 794 length;
#X msg 314 777 bang;
#X floatatom 436 293 5 0 0 0 - - -;
#X floatatom 417 319 5 0 0 0 - - -;
#X floatatom 398 345 5 0 0 0 - - -;
#X floatatom 380 369 5 0 0 0 - - -;
#X obj 607 551 loadbang;
#X obj 640 85 stripnote;
#X obj 824 101 tgl 15 0 empty \$0-hold empty 17 7 0 10 -262144 -1 -1
0 1;
#X obj 685 612 t f b;
#X obj 640 212 sel 2000;
#X text 665 185 pedal on;
#X text 326 92 pedal off;
#X obj 184 629 bng 15 250 50 0 empty empty empty 17 7 0 10 -262144
-1 -1;
#X obj 640 144 expr if( $f3 == 1 \, $f1 \, 2000) \;;
#X obj 228 144 bng 15 250 50 0 empty empty empty 17 7 0 10 -262144
-1 -1;
#X obj 239 232 bng 15 250 50 0 empty empty empty 17 7 0 10 -262144
-1 -1;
#X obj 239 170 spigot 0;
#X obj 293 116 sel 0 1;
#X msg 329 142 0;
#X msg 293 142 1;
#X obj 193 553 bng 15 250 50 0 empty empty empty 17 7 0 10 -262144
-1 -1;
#X obj 240 553 tgl 15 0 empty \$0-hold empty 17 7 0 10 -262144 -1 -1
0 1;
#X obj 195 599 spigot 0;
#X obj 314 622 spigot 0;
#X obj 368 568 sel 0 1;
#X msg 404 594 0;
#X msg 368 594 1;
#X obj 314 743 bng 15 250 50 0 empty empty empty 17 7 0 10 -262144
-1 -1;
#X obj 499 775 unpack f f f f f f;
#X floatatom 687 819 5 0 0 0 - - -;
#X floatatom 647 819 5 0 0 0 - - -;
#X obj 647 856 outlet;
#X obj 687 856 outlet;
#X obj 98 225 route 1 2 3 4 5 6;
#X floatatom 361 394 5 0 0 0 - - -;
#X floatatom 343 417 5 0 0 0 - - -;
#X obj 228 464 expr if($f1 == 0 && $f2 == 0 && $f3 == 0 && $f4 == 0
&& $f5 == 0 && $f6 == 0 \, 0 \, 4) \;;
#X obj 343 447 bondo 6 --------;
#X obj 55 394 f;
#X obj 55 417 f;
#X obj 146 603 bng 15 250 50 0 empty empty empty 17 7 0 10 -262144
-1 -1;
#X obj 156 825 expr if($f1 > 6 \, 6 \, $f1) \;;
#X obj 788 387 * 12;
#X obj 839 280 * 2;
#X obj 788 360 -;
#X obj 839 306 + 1;
#X obj 788 308 bng 15 250 50 0 empty empty empty 17 7 0 10 -262144
-1 -1;
#X obj 776 232 r \$0-octave;
#X obj 776 263 t f f;
#X obj 788 332 random_me;
#X obj 685 291 t f b;
#X obj 685 404 +;
#X obj 98 85 poly 6 1;
#N canvas 1019 134 450 569 note 0;
#X obj 181 61 unpack f f;
#X floatatom 158 89 5 0 0 0 - - -;
#X floatatom 237 89 5 0 0 0 - - -;
#X obj 238 118 sel 0;
#X obj 158 121 stripnote;
#X obj 179 425 f;
#X msg 238 369 0;
#X obj 181 29 inlet;
#X obj 158 386 t b f;
#X obj 284 78 outlet;
#X obj 270 325 * 12;
#X obj 321 218 * 2;
#X obj 270 298 -;
#X obj 321 244 + 1;
#X obj 270 246 bng 15 250 50 0 empty empty empty 17 7 0 10 -262144
-1 -1;
#X obj 258 170 r \$0-octave;
#X obj 258 201 t f f;
#X obj 270 270 random_me;
#X floatatom 179 458 5 0 0 0 - - -;
#X obj 179 491 outlet;
#X obj 158 229 t f b;
#X obj 158 342 +;
#X connect 0 0 1 0;
#X connect 0 1 2 0;
#X connect 0 1 9 0;
#X connect 1 0 4 0;
#X connect 2 0 3 0;
#X connect 2 0 4 1;
#X connect 3 0 6 0;
#X connect 4 0 20 0;
#X connect 5 0 18 0;
#X connect 6 0 8 0;
#X connect 7 0 0 0;
#X connect 8 0 5 0;
#X connect 8 1 5 1;
#X connect 10 0 21 1;
#X connect 11 0 13 0;
#X connect 12 0 10 0;
#X connect 13 0 17 1;
#X connect 14 0 17 0;
#X connect 15 0 16 0;
#X connect 16 0 11 0;
#X connect 16 1 12 1;
#X connect 17 0 12 0;
#X connect 18 0 19 0;
#X connect 20 0 21 0;
#X connect 20 1 14 0;
#X connect 21 0 8 0;
#X restore 114 302 pd note;
#N canvas 1019 134 450 569 note 0;
#X obj 181 61 unpack f f;
#X floatatom 158 89 5 0 0 0 - - -;
#X floatatom 237 89 5 0 0 0 - - -;
#X obj 238 118 sel 0;
#X obj 158 121 stripnote;
#X obj 179 425 f;
#X msg 238 369 0;
#X obj 181 29 inlet;
#X obj 158 386 t b f;
#X obj 284 78 outlet;
#X obj 270 325 * 12;
#X obj 321 218 * 2;
#X obj 270 298 -;
#X obj 321 244 + 1;
#X obj 270 246 bng 15 250 50 0 empty empty empty 17 7 0 10 -262144
-1 -1;
#X obj 258 170 r \$0-octave;
#X obj 258 201 t f f;
#X obj 270 270 random_me;
#X floatatom 179 458 5 0 0 0 - - -;
#X obj 179 491 outlet;
#X obj 158 229 t f b;
#X obj 158 342 +;
#X connect 0 0 1 0;
#X connect 0 1 2 0;
#X connect 0 1 9 0;
#X connect 1 0 4 0;
#X connect 2 0 3 0;
#X connect 2 0 4 1;
#X connect 3 0 6 0;
#X connect 4 0 20 0;
#X connect 5 0 18 0;
#X connect 6 0 8 0;
#X connect 7 0 0 0;
#X connect 8 0 5 0;
#X connect 8 1 5 1;
#X connect 10 0 21 1;
#X connect 11 0 13 0;
#X connect 12 0 10 0;
#X connect 13 0 17 1;
#X connect 14 0 17 0;
#X connect 15 0 16 0;
#X connect 16 0 11 0;
#X connect 16 1 12 1;
#X connect 17 0 12 0;
#X connect 18 0 19 0;
#X connect 20 0 21 0;
#X connect 20 1 14 0;
#X connect 21 0 8 0;
#X restore 131 328 pd note;
#N canvas 1019 134 450 569 note 0;
#X obj 181 61 unpack f f;
#X floatatom 158 89 5 0 0 0 - - -;
#X floatatom 237 89 5 0 0 0 - - -;
#X obj 238 118 sel 0;
#X obj 158 121 stripnote;
#X obj 179 425 f;
#X msg 238 369 0;
#X obj 181 29 inlet;
#X obj 158 386 t b f;
#X obj 284 78 outlet;
#X obj 270 325 * 12;
#X obj 321 218 * 2;
#X obj 270 298 -;
#X obj 321 244 + 1;
#X obj 270 246 bng 15 250 50 0 empty empty empty 17 7 0 10 -262144
-1 -1;
#X obj 258 170 r \$0-octave;
#X obj 258 201 t f f;
#X obj 270 270 random_me;
#X floatatom 179 458 5 0 0 0 - - -;
#X obj 179 491 outlet;
#X obj 158 229 t f b;
#X obj 158 342 +;
#X connect 0 0 1 0;
#X connect 0 1 2 0;
#X connect 0 1 9 0;
#X connect 1 0 4 0;
#X connect 2 0 3 0;
#X connect 2 0 4 1;
#X connect 3 0 6 0;
#X connect 4 0 20 0;
#X connect 5 0 18 0;
#X connect 6 0 8 0;
#X connect 7 0 0 0;
#X connect 8 0 5 0;
#X connect 8 1 5 1;
#X connect 10 0 21 1;
#X connect 11 0 13 0;
#X connect 12 0 10 0;
#X connect 13 0 17 1;
#X connect 14 0 17 0;
#X connect 15 0 16 0;
#X connect 16 0 11 0;
#X connect 16 1 12 1;
#X connect 17 0 12 0;
#X connect 18 0 19 0;
#X connect 20 0 21 0;
#X connect 20 1 14 0;
#X connect 21 0 8 0;
#X restore 147 352 pd note;
#N canvas 1019 134 450 569 note 0;
#X obj 181 61 unpack f f;
#X floatatom 158 89 5 0 0 0 - - -;
#X floatatom 237 89 5 0 0 0 - - -;
#X obj 238 118 sel 0;
#X obj 158 121 stripnote;
#X obj 179 425 f;
#X msg 238 369 0;
#X obj 181 29 inlet;
#X obj 158 386 t b f;
#X obj 284 78 outlet;
#X obj 270 325 * 12;
#X obj 321 218 * 2;
#X obj 270 298 -;
#X obj 321 244 + 1;
#X obj 270 246 bng 15 250 50 0 empty empty empty 17 7 0 10 -262144
-1 -1;
#X obj 258 170 r \$0-octave;
#X obj 258 201 t f f;
#X obj 270 270 random_me;
#X floatatom 179 458 5 0 0 0 - - -;
#X obj 179 491 outlet;
#X obj 158 229 t f b;
#X obj 158 342 +;
#X connect 0 0 1 0;
#X connect 0 1 2 0;
#X connect 0 1 9 0;
#X connect 1 0 4 0;
#X connect 2 0 3 0;
#X connect 2 0 4 1;
#X connect 3 0 6 0;
#X connect 4 0 20 0;
#X connect 5 0 18 0;
#X connect 6 0 8 0;
#X connect 7 0 0 0;
#X connect 8 0 5 0;
#X connect 8 1 5 1;
#X connect 10 0 21 1;
#X connect 11 0 13 0;
#X connect 12 0 10 0;
#X connect 13 0 17 1;
#X connect 14 0 17 0;
#X connect 15 0 16 0;
#X connect 16 0 11 0;
#X connect 16 1 12 1;
#X connect 17 0 12 0;
#X connect 18 0 19 0;
#X connect 20 0 21 0;
#X connect 20 1 14 0;
#X connect 21 0 8 0;
#X restore 164 377 pd note;
#N canvas 1019 134 450 569 note 0;
#X obj 181 61 unpack f f;
#X floatatom 158 89 5 0 0 0 - - -;
#X floatatom 237 89 5 0 0 0 - - -;
#X obj 238 118 sel 0;
#X obj 158 121 stripnote;
#X obj 179 425 f;
#X msg 238 369 0;
#X obj 181 29 inlet;
#X obj 158 386 t b f;
#X obj 284 78 outlet;
#X obj 270 325 * 12;
#X obj 321 218 * 2;
#X obj 270 298 -;
#X obj 321 244 + 1;
#X obj 270 246 bng 15 250 50 0 empty empty empty 17 7 0 10 -262144
-1 -1;
#X obj 258 170 r \$0-octave;
#X obj 258 201 t f f;
#X obj 270 270 random_me;
#X floatatom 179 458 5 0 0 0 - - -;
#X obj 179 491 outlet;
#X obj 158 229 t f b;
#X obj 158 342 +;
#X connect 0 0 1 0;
#X connect 0 1 2 0;
#X connect 0 1 9 0;
#X connect 1 0 4 0;
#X connect 2 0 3 0;
#X connect 2 0 4 1;
#X connect 3 0 6 0;
#X connect 4 0 20 0;
#X connect 5 0 18 0;
#X connect 6 0 8 0;
#X connect 7 0 0 0;
#X connect 8 0 5 0;
#X connect 8 1 5 1;
#X connect 10 0 21 1;
#X connect 11 0 13 0;
#X connect 12 0 10 0;
#X connect 13 0 17 1;
#X connect 14 0 17 0;
#X connect 15 0 16 0;
#X connect 16 0 11 0;
#X connect 16 1 12 1;
#X connect 17 0 12 0;
#X connect 18 0 19 0;
#X connect 20 0 21 0;
#X connect 20 1 14 0;
#X connect 21 0 8 0;
#X restore 180 400 pd note;
#X connect 0 0 3 1;
#X connect 1 0 9 0;
#X connect 1 1 3 0;
#X connect 1 2 0 0;
#X connect 2 0 7 0;
#X connect 2 1 7 0;
#X connect 3 0 2 0;
#X connect 4 0 1 0;
#X connect 5 0 39 0;
#X connect 5 0 61 0;
#X connect 6 1 3 0;
#X connect 7 0 30 0;
#X connect 7 0 40 0;
#X connect 7 0 69 0;
#X connect 8 0 5 0;
#X connect 9 0 3 1;
#X connect 10 0 14 0;
#X connect 11 0 15 0;
#X connect 12 0 17 0;
#X connect 13 0 16 0;
#X connect 19 0 20 0;
#X connect 21 0 25 0;
#X connect 21 1 26 0;
#X connect 21 2 23 0;
#X connect 22 0 24 0;
#X connect 23 0 25 2;
#X connect 24 1 47 0;
#X connect 24 1 93 0;
#X connect 24 1 55 0;
#X connect 25 0 22 0;
#X connect 25 1 27 0;
#X connect 26 0 25 1;
#X connect 27 0 28 0;
#X connect 28 1 47 1;
#X connect 28 1 93 1;
#X connect 29 0 25 3;
#X connect 31 0 74 0;
#X connect 32 0 33 1;
#X connect 32 1 42 0;
#X connect 33 0 37 0;
#X connect 34 0 37 0;
#X connect 35 0 37 0;
#X connect 36 0 37 0;
#X connect 37 0 6 0;
#X connect 38 0 33 0;
#X connect 38 0 34 0;
#X connect 38 0 35 0;
#X connect 38 0 36 0;
#X connect 38 0 79 0;
#X connect 38 0 80 0;
#X connect 38 1 4 0;
#X connect 39 0 93 0;
#X connect 40 0 82 0;
#X connect 41 0 40 0;
#X connect 42 0 78 5;
#X connect 43 0 78 4;
#X connect 44 0 78 3;
#X connect 45 0 78 2;
#X connect 46 0 19 0;
#X connect 47 0 54 0;
#X connect 48 0 54 2;
#X connect 48 0 58 0;
#X connect 49 0 6 0;
#X connect 49 1 53 0;
#X connect 50 1 91 0;
#X connect 53 0 9 0;
#X connect 54 0 50 0;
#X connect 55 0 57 0;
#X connect 56 0 38 0;
#X connect 57 0 56 0;
#X connect 58 0 60 0;
#X connect 58 1 59 0;
#X connect 59 0 57 1;
#X connect 60 0 57 1;
#X connect 61 0 63 0;
#X connect 61 0 19 0;
#X connect 61 0 64 0;
#X connect 62 0 63 1;
#X connect 62 0 65 0;
#X connect 63 0 4 0;
#X connect 63 0 81 0;
#X connect 64 0 41 0;
#X connect 65 0 67 0;
#X connect 65 1 66 0;
#X connect 66 0 64 1;
#X connect 67 0 64 1;
#X connect 67 0 68 0;
#X connect 68 0 41 0;
#X connect 69 0 10 0;
#X connect 69 1 11 0;
#X connect 69 2 13 0;
#X connect 69 3 12 0;
#X connect 69 4 71 0;
#X connect 69 5 70 0;
#X connect 70 0 73 0;
#X connect 71 0 72 0;
#X connect 74 0 32 0;
#X connect 74 1 94 0;
#X connect 74 2 95 0;
#X connect 74 3 96 0;
#X connect 74 4 97 0;
#X connect 74 5 98 0;
#X connect 75 0 78 1;
#X connect 76 0 78 0;
#X connect 77 0 8 0;
#X connect 78 0 77 0;
#X connect 78 1 77 1;
#X connect 78 2 77 2;
#X connect 78 3 77 3;
#X connect 78 4 77 4;
#X connect 78 5 77 5;
#X connect 79 0 37 0;
#X connect 80 0 37 0;
#X connect 82 0 18 0;
#X connect 83 0 92 1;
#X connect 84 0 86 0;
#X connect 85 0 83 0;
#X connect 86 0 90 1;
#X connect 87 0 90 0;
#X connect 88 0 89 0;
#X connect 89 0 84 0;
#X connect 89 1 85 1;
#X connect 90 0 85 0;
#X connect 91 0 92 0;
#X connect 91 1 87 0;
#X connect 92 0 49 0;
#X connect 93 0 31 0;
#X connect 93 1 31 1;
#X connect 93 2 31 2;
#X connect 94 0 34 1;
#X connect 94 1 43 0;
#X connect 95 0 35 1;
#X connect 95 1 44 0;
#X connect 96 0 36 1;
#X connect 96 1 45 0;
#X connect 97 0 79 1;
#X connect 97 1 75 0;
#X connect 98 0 80 1;
#X connect 98 1 76 0;
#X restore 888 1028 pd arpeggiator;
#X obj 1341 1045 i;
#X obj 1371 1045 i;
#X obj 1401 1045 i;
#X obj 1431 1045 i;
#X obj 1341 1072 bng 15 250 50 0 empty empty empty 17 7 0 10 -262144
-1 -1;
#X obj 1371 1072 bng 15 250 50 0 empty empty empty 17 7 0 10 -262144
-1 -1;
#X obj 1401 1072 bng 15 250 50 0 empty empty empty 17 7 0 10 -262144
-1 -1;
#X obj 1431 1072 bng 15 250 50 0 empty empty empty 17 7 0 10 -262144
-1 -1;
#X floatatom 1549 1062 5 0 0 0 - - #0-NoteIn1;
#X obj 680 741 sel 0;
#X obj 1400 739 sel 0;
#X floatatom 1400 711 5 0 0 0 - #0-poly -;
#X msg 1468 756 200;
#X obj 1243 786 expr if($f2 == 200 \, ($f1*0)+200 \, $f1) \;;
#X obj 1243 842 sel 200;
#X obj 1139 753 sel 0;
#X floatatom 1139 725 5 0 0 0 - #0-poly -;
#X msg 1207 770 200;
#X obj 982 800 expr if($f2 == 200 \, ($f1*0)+200 \, $f1) \;;
#X obj 982 847 sel 200;
#X obj 856 766 sel 0;
#X obj 843 793 bng 15 250 50 0 empty empty empty 17 7 0 10 -262144
-1 -1;
#X floatatom 830 718 5 0 0 0 - - -;
#X floatatom 863 675 5 0 0 0 - #0-poly -;
#X obj 863 701 - 1;
#X obj 783 817 expr if($f1 < 0 \, (-1) \, $f1) \;;
#X obj 513 807 expr if($f2 == 200 \, ($f1*0)+200 \, $f1) \;;
#X obj 513 844 sel 200;
#X msg 738 757 200;
#X obj 640 722 t b f;
#X msg 602 696 0;
#X obj 477 478 tgl 20 0 \$0-hold empty Hold 0 -7 0 10 -232699 -1 -262144
0 1;
#X obj 283 160 inlet;
#X obj 539 208 nbx 2 14 -1e+037 1e+037 0 0 \$0-channel_In empty ChannelIn
-60 7 0 10 -232699 -1 -262144 10 256;
#X msg 539 168 10;
#X obj 439 208 nbx 2 14 -1e+037 1e+037 0 0 \$0-channel_Out empty ChannelOut
-70 7 0 10 -232699 -1 -262144 10 256;
#X msg 439 168 10;
#X obj 1243 756 random_me_2;
#X obj 251 232 vsl 15 60 0 127 0 0 \$0-velocity2_s \$0-velocity2_r
2 7 73 0 10 -232699 -1 -262144 2100 1;
#X obj 281 232 vsl 15 60 0 127 0 0 \$0-velocity3_s \$0-velocity3_r
3 7 73 0 10 -232699 -1 -262144 2800 1;
#X obj 311 232 vsl 15 60 0 127 0 0 \$0-velocity4_s \$0-velocity4_r
4 7 73 0 10 -232699 -1 -262144 4646 1;
#X obj 341 232 vsl 15 60 0 127 0 0 \$0-velocity5_s \$0-velocity5_r
5 7 73 0 10 -232699 -1 -262144 0 1;
#X obj 371 232 vsl 15 60 0 127 0 0 \$0-velocity6_s \$0-velocity6_r
6 7 73 0 10 -232699 -1 -262144 3717 1;
#X obj 401 232 vsl 15 60 0 127 0 0 \$0-velocity7_s \$0-velocity7_r
7 7 73 0 10 -232699 -1 -262144 2829 1;
#X obj 431 232 vsl 15 60 0 127 0 0 \$0-velocity8_s \$0-velocity8_r
8 7 73 0 10 -232699 -1 -262144 0 1;
#X obj 461 232 vsl 15 60 0 127 0 0 \$0-velocity9_s \$0-velocity9_r
9 7 73 0 10 -232699 -1 -262144 2300 1;
#X obj 491 232 vsl 15 60 0 127 0 0 \$0-velocity10_s \$0-velocity10_r
10 3 73 0 10 -232699 -1 -262144 3717 1;
#X obj 521 232 vsl 15 60 0 127 0 0 \$0-velocity11_s \$0-velocity11_r
11 3 73 0 10 -232699 -1 -262144 0 1;
#X obj 551 232 vsl 15 60 0 127 0 0 \$0-velocity12_s \$0-velocity12_r
12 3 73 0 10 -232699 -1 -262144 2900 1;
#X obj 253 314 bng 15 250 50 0 empty empty empty 17 7 0 10 -111517
-232699 -1;
#X obj 283 314 bng 15 250 50 0 empty empty empty 17 7 0 10 -111517
-232699 -1;
#X obj 313 314 bng 15 250 50 0 empty empty empty 17 7 0 10 -111517
-232699 -1;
#X obj 343 314 bng 15 250 50 0 empty empty empty 17 7 0 10 -111517
-232699 -1;
#X obj 373 314 bng 15 250 50 0 empty empty empty 17 7 0 10 -111517
-232699 -1;
#X obj 403 314 bng 15 250 50 0 empty empty empty 17 7 0 10 -111517
-232699 -1;
#X obj 433 314 bng 15 250 50 0 empty empty empty 17 7 0 10 -111517
-232699 -1;
#X obj 463 314 bng 15 250 50 0 empty empty empty 17 7 0 10 -111517
-232699 -1;
#X obj 493 314 bng 15 250 50 0 empty empty empty 17 7 0 10 -111517
-232699 -1;
#X obj 523 314 bng 15 250 50 0 empty empty empty 17 7 0 10 -111517
-232699 -1;
#X obj 553 314 bng 15 250 50 0 empty empty empty 17 7 0 10 -111517
-232699 -1;
#X text 339 458 steps;
#X obj 817 50 notein;
#X floatatom 854 126 5 0 0 0 - - -;
#X floatatom 935 67 5 0 0 0 - - -;
#X obj 854 152 sel 200;
#X obj 817 96 expr if($f3 == $f4 \, $f1 \, 200) \; if ($f3 == $f4 \,
$f2 \, 200) \;;
#X floatatom 876 67 5 0 0 0 - - -;
#X floatatom 914 126 5 0 0 0 - - -;
#X obj 914 152 sel 200;
#X obj 893 186 noteout;
#X floatatom 979 170 5 0 0 0 - #0-channel -;
#X floatatom 994 69 5 0 0 0 - #0-channel -;
#X obj 665 207 nbx 2 14 -1e+037 1e+037 0 0 \$0-channel empty ChannelNumber
-85 7 0 10 -232699 -1 -262144 8 256;
#X obj 721 210 bng 12 250 50 0 empty \$0-MIDI_TEST empty 17 7 0 10
-111517 -232699 -1;
#N canvas 540 144 978 589 save 0;
#X obj -282 -271 cnv 15 320 180 empty empty empty 20 12 0 14 -261234
-66577 0;
#X obj -282 -87 cnv 15 320 350 empty empty empty 20 12 0 14 -204786
-66577 0;
#X obj -272 143 textfile;
#X obj -272 53 until;
#X obj -272 -77 r \$0-load.s;
#X obj -272 183 list prepend \$0;
#X obj -272 203 list trim;
#X obj -272 -267 r \$0-save.s;
#X obj -272 -57 openpanel;
#X obj -272 80 s \$0-to.textfile;
#X obj -272 -137 s \$0-to.textfile;
#X obj -227 163 s \$0-stop.loop;
#X obj -245 33 r \$0-stop.loop;
#X obj -272 123 r \$0-to.textfile;
#X msg -253 -17 read \$1 \, rewind;
#X msg -142 0 label \$1;
#X obj -272 -37 t b s s;
#X msg -238 -207 clear;
#X obj -272 -247 savepanel;
#X msg -132 -210 write \$1;
#X msg -272 -167 write \$1;
#X obj -272 -227 t s b b s;
#X obj -142 -60 loadbang;
#X obj -142 -40 symbol no_preset_loaded;
#X obj -142 -20 makefilename PRESET_FILE:%s;
#X obj -255 -187 s \$0-get.values;
#X obj -142 20 s \$0-preset.name_r;
#X msg -272 223 \; \$1-\$2_r \$3 \;;
#X obj 173 48 bng 20 250 50 0 \$0-save.s \$0-save.r save 22 7 0 10
-261234 -1 -1;
#X obj 123 48 bng 20 250 50 0 \$0-load.s \$0-load.r load 22 7 0 10
-204786 -1 -1;
#X obj 175 -40 inlet save;
#X obj 103 -39 inlet load;
#X obj 328 -245 save.param \$0 seq1_1;
#X obj 328 -225 save.param \$0 seq1_2;
#X obj 328 -205 save.param \$0 seq1_3;
#X obj 328 -185 save.param \$0 seq1_4;
#X obj 328 -165 save.param \$0 seq1_5;
#X obj 328 -145 save.param \$0 seq1_6;
#X obj 328 -125 save.param \$0 seq1_7;
#X obj 328 -105 save.param \$0 seq1_8;
#X obj 328 -85 save.param \$0 seq1_9;
#X obj 328 -65 save.param \$0 seq1_10;
#X obj 328 -45 save.param \$0 seq1_11;
#X obj 328 -25 save.param \$0 seq1_12;
#X obj 328 -5 save.param \$0 seq1_13;
#X obj 328 15 save.param \$0 seq1_14;
#X obj 328 35 save.param \$0 seq1_15;
#X obj 328 55 save.param \$0 seq1_16;
#X obj 328 75 save.param \$0 seq1_17;
#X obj 328 115 save.param \$0 seq1_19;
#X obj 328 135 save.param \$0 seq1_20;
#X obj 478 -245 save.param \$0 seq2_1;
#X obj 478 -225 save.param \$0 seq2_2;
#X obj 478 -205 save.param \$0 seq2_3;
#X obj 478 -185 save.param \$0 seq2_4;
#X obj 478 -165 save.param \$0 seq2_5;
#X obj 478 -145 save.param \$0 seq2_6;
#X obj 478 -125 save.param \$0 seq2_7;
#X obj 478 -105 save.param \$0 seq2_8;
#X obj 478 -85 save.param \$0 seq2_9;
#X obj 478 -65 save.param \$0 seq2_10;
#X obj 478 -45 save.param \$0 seq2_11;
#X obj 478 -25 save.param \$0 seq2_12;
#X obj 478 -5 save.param \$0 seq2_13;
#X obj 478 15 save.param \$0 seq2_14;
#X obj 478 35 save.param \$0 seq2_15;
#X obj 478 55 save.param \$0 seq2_16;
#X obj 478 75 save.param \$0 seq2_17;
#X obj 478 115 save.param \$0 seq2_19;
#X obj 478 135 save.param \$0 seq2_20;
#X obj 478 95 save.param \$0 seq2_18;
#X obj 328 95 save.param \$0 seq1_18;
#X obj 90 -145 bng 15 250 50 0 empty empty empty 17 7 0 10 -262144
-1 -1;
#N canvas 404 297 450 300 preset1 0;
#X obj 38 -7 until;
#X obj 38 20 s \$0-to.textfile;
#X obj 65 -27 r \$0-stop.loop;
#X msg 218 -60 label \$1;
#X obj 38 -97 t b s s;
#X obj 218 -120 loadbang;
#X obj 218 -100 symbol no_preset_loaded;
#X obj 218 -80 makefilename PRESET_FILE:%s;
#X obj 218 -40 s \$0-preset.name_r;
#X obj 38 -147 inlet;
#X msg 57 -77 read seq1_1.txt \, rewind;
#X connect 0 0 1 0;
#X connect 2 0 0 1;
#X connect 3 0 8 0;
#X connect 4 0 0 0;
#X connect 4 1 10 0;
#X connect 4 2 7 0;
#X connect 5 0 6 0;
#X connect 6 0 7 0;
#X connect 7 0 3 0;
#X connect 9 0 4 0;
#X connect 10 0 1 0;
#X restore 89 -114 pd preset1;
#N canvas 404 297 450 300 preset2 0;
#X obj 38 -7 until;
#X obj 38 20 s \$0-to.textfile;
#X obj 65 -27 r \$0-stop.loop;
#X msg 218 -60 label \$1;
#X obj 38 -97 t b s s;
#X obj 218 -120 loadbang;
#X obj 218 -100 symbol no_preset_loaded;
#X obj 218 -80 makefilename PRESET_FILE:%s;
#X obj 218 -40 s \$0-preset.name_r;
#X obj 38 -147 inlet;
#X msg 57 -77 read seq1_2.txt \, rewind;
#X connect 0 0 1 0;
#X connect 2 0 0 1;
#X connect 3 0 8 0;
#X connect 4 0 0 0;
#X connect 4 1 10 0;
#X connect 4 2 7 0;
#X connect 5 0 6 0;
#X connect 6 0 7 0;
#X connect 7 0 3 0;
#X connect 9 0 4 0;
#X connect 10 0 1 0;
#X restore 159 -114 pd preset2;
#X obj 130 -235 ctlin 59;
#X obj 130 -197 sel 0 127;
#X obj 160 -145 bng 15 250 50 0 empty empty empty 17 7 0 10 -262144
-1 -1;
#X obj 66 -195 loadbang;
#X obj 326 171 save.param \$0 tempo;
#X obj 327 219 save.param \$0 tempoX1;
#X obj 469 219 save.param \$0 tempoX2;
#X obj 326 196 save.param \$0 stepsC1;
#X obj 468 196 save.param \$0 stepsC2;
#X obj 634 -244 save.param \$0 velocity1;
#X obj 634 -224 save.param \$0 velocity2;
#X obj 634 -204 save.param \$0 velocity3;
#X obj 634 -184 save.param \$0 velocity4;
#X obj 634 -164 save.param \$0 velocity5;
#X obj 634 -144 save.param \$0 velocity6;
#X obj 634 -124 save.param \$0 velocity7;
#X obj 634 -104 save.param \$0 velocity8;
#X obj 634 -84 save.param \$0 velocity9;
#X obj 634 -64 save.param \$0 velocity10;
#X obj 634 -44 save.param \$0 velocity11;
#X obj 634 -24 save.param \$0 velocity12;
#X obj 634 -4 save.param \$0 velocity13;
#X obj 634 16 save.param \$0 velocity13;
#X obj 634 36 save.param \$0 velocity15;
#X obj 634 56 save.param \$0 velocity16;
#X obj 634 76 save.param \$0 velocity17;
#X obj 634 96 save.param \$0 velocity18;
#X obj 634 116 save.param \$0 velocity19;
#X obj 634 136 save.param \$0 velocity20;
#X connect 2 0 5 0;
#X connect 2 1 11 0;
#X connect 3 0 9 0;
#X connect 4 0 8 0;
#X connect 5 0 6 0;
#X connect 6 0 27 0;
#X connect 7 0 18 0;
#X connect 8 0 16 0;
#X connect 12 0 3 1;
#X connect 13 0 2 0;
#X connect 14 0 9 0;
#X connect 15 0 26 0;
#X connect 16 0 3 0;
#X connect 16 1 14 0;
#X connect 16 2 24 0;
#X connect 17 0 10 0;
#X connect 18 0 21 0;
#X connect 19 0 10 0;
#X connect 20 0 10 0;
#X connect 21 0 20 0;
#X connect 21 1 25 0;
#X connect 21 2 17 0;
#X connect 21 3 19 0;
#X connect 22 0 23 0;
#X connect 23 0 24 0;
#X connect 24 0 15 0;
#X connect 30 0 28 0;
#X connect 31 0 29 0;
#X connect 72 0 73 0;
#X connect 75 0 76 0;
#X connect 76 0 72 0;
#X connect 76 1 77 0;
#X connect 77 0 74 0;
#X connect 78 0 72 0;
#X restore 1075 527 pd save;
#X obj 1075 497 bng 15 250 50 0 empty empty empty 17 7 0 10 -262144
-1 -1;
#X obj 1114 497 bng 15 250 50 0 empty empty empty 17 7 0 10 -262144
-1 -1;
#X obj 751 477 bng 20 250 50 0 empty empty save -1 -9 0 10 -232699
-1 -262144;
#X obj 702 477 bng 20 250 50 0 empty empty load -3 -9 0 10 -232699
-1 -262144;
#X obj 223 444 nbx 2 14 -1e+037 1e+037 0 0 \$0-CC20_s \$0-CC20_r CC20
3 -8 0 10 -232699 -1 -262144 0 256;
#X obj 363 444 nbx 2 14 -1e+037 1e+037 0 0 \$0-CC21_s \$0-CC21_r CC21
3 -8 0 10 -232699 -1 -262144 0 256;
#X obj 263 444 nbx 2 14 -1e+037 1e+037 0 0 \$0-CC20V_0 empty V0 5 -8
0 10 -232699 -1 -262144 0 256;
#N canvas 823 276 648 300 CC_value 0;
#X obj 39 87 ==;
#X floatatom 86 62 5 0 0 0 - #0-CC20_s -;
#X floatatom 63 172 5 0 0 0 - #0-CC20V_0 -;
#X obj 39 189 f;
#X obj 39 163 bng 15 250 50 0 empty empty empty 17 7 0 10 -262144 -1
-1;
#X obj 39 239 ctlout 20 10;
#X obj 239 87 ==;
#X floatatom 286 62 5 0 0 0 - #0-CC21_s -;
#X floatatom 263 172 5 0 0 0 - #0-CC21V_0 -;
#X obj 239 189 f;
#X obj 239 163 bng 15 250 50 0 empty empty empty 17 7 0 10 -262144
-1 -1;
#X obj 239 239 ctlout 21 10;
#X floatatom 179 45 5 0 0 0 - #0-step_count -;
#X obj 179 70 + 1;
#X obj 39 117 sel 0 1;
#X obj 239 117 sel 0 1;
#X floatatom 133 172 5 0 0 0 - #0-CC20V_1 -;
#X obj 109 189 f;
#X obj 109 163 bng 15 250 50 0 empty empty empty 17 7 0 10 -262144
-1 -1;
#X floatatom 333 172 5 0 0 0 - #0-CC21V_1 -;
#X obj 309 189 f;
#X obj 309 163 bng 15 250 50 0 empty empty empty 17 7 0 10 -262144
-1 -1;
#X floatatom 119 216 5 0 0 0 - #0-channel_Out -;
#X floatatom 322 213 5 0 0 0 - #0-channel_Out -;
#X connect 0 0 14 0;
#X connect 1 0 0 1;
#X connect 2 0 3 1;
#X connect 3 0 5 0;
#X connect 4 0 3 0;
#X connect 6 0 15 0;
#X connect 7 0 6 1;
#X connect 8 0 9 1;
#X connect 9 0 11 0;
#X connect 10 0 9 0;
#X connect 12 0 13 0;
#X connect 13 0 0 0;
#X connect 13 0 6 0;
#X connect 14 0 4 0;
#X connect 14 1 18 0;
#X connect 15 0 10 0;
#X connect 15 1 21 0;
#X connect 16 0 17 1;
#X connect 17 0 5 0;
#X connect 18 0 17 0;
#X connect 19 0 20 1;
#X connect 20 0 11 0;
#X connect 21 0 20 0;
#X connect 22 0 5 2;
#X connect 23 0 11 2;
#X restore 1194 281 pd CC_value;
#X obj 303 444 nbx 2 14 -1e+037 1e+037 0 0 \$0-CC20V_1 empty V1 5 -8
0 10 -232699 -1 -262144 0 256;
#X obj 403 444 nbx 2 14 -1e+037 1e+037 0 0 \$0-CC21V_0 empty V0 5 -8
0 10 -232699 -1 -262144 0 256;
#X obj 443 444 nbx 2 14 -1e+037 1e+037 0 0 \$0-CC21V_1 empty V1 5 -8
0 10 -232699 -1 -262144 0 256;
#X msg 665 168 8;
#X obj 1304 319 sel 0 127;
#X msg 1302 345 0;
#X msg 1332 345 1;
#X obj 1303 463 tgl 15 0 empty empty empty 17 7 0 10 -262144 -1 -1
0 1;
#X obj 1304 281 expr if($f2 == $f3 \, $f1 \, 200) \;;
#X obj 1330 224 ctlin 64;
#X floatatom 1304 241 5 0 0 0 - - -;
#X floatatom 1392 241 5 0 0 0 - - -;
#X floatatom 1481 248 5 0 0 0 - #0-channel_In -;
#X floatatom 1562 397 5 0 0 0 - - -;
#X floatatom 1527 397 5 0 0 0 - - -;
#X floatatom 1619 397 5 0 0 0 - - -;
#X obj 1461 1045 i;
#X obj 1461 1072 bng 15 250 50 0 empty empty empty 17 7 0 10 -262144
-1 -1;
#X obj 1491 1045 i;
#X obj 1491 1072 bng 15 250 50 0 empty empty empty 17 7 0 10 -262144
-1 -1;
#X obj 1341 950 sel 0 1 2 3 4 5;
#X obj 581 232 vsl 15 60 0 127 0 0 \$0-velocity13_s \$0-velocity13_r
13 3 73 0 10 -232699 -1 -262144 4646 1;
#X obj 611 232 vsl 15 60 0 127 0 0 \$0-velocity14_s \$0-velocity14_r
14 3 73 0 10 -232699 -1 -262144 3717 1;
#X obj 583 314 bng 15 250 50 0 empty empty empty 17 7 0 10 -111517
-232699 -1;
#X obj 613 314 bng 15 250 50 0 empty empty empty 17 7 0 10 -111517
-232699 -1;
#X obj 1527 428 sel 64 59;
#X obj 641 232 vsl 15 60 0 127 0 0 \$0-velocity15_s \$0-velocity15_r
15 3 73 0 10 -232699 -1 -262144 2787 1;
#X obj 671 232 vsl 15 60 0 127 0 0 \$0-velocity16_s \$0-velocity16_r
16 3 73 0 10 -232699 -1 -262144 3687 1;
#X obj 701 232 vsl 15 60 0 127 0 0 \$0-velocity17_s \$0-velocity17_r
17 3 73 0 10 -232699 -1 -262144 2787 1;
#X obj 731 232 vsl 15 60 0 127 0 0 \$0-velocity18_s \$0-velocity18_r
18 3 73 0 10 -232699 -1 -262144 2787 1;
#X obj 761 232 vsl 15 60 0 127 0 0 \$0-velocity19_s \$0-velocity19_r
19 3 73 0 10 -232699 -1 -262144 0 1;
#X obj 221 343 tgl 20 0 \$0-seq1_1_s \$0-seq1_1_r empty 0 -7 0 10 -111517
-232699 -262144 1 1;
#X obj 643 314 bng 15 250 50 0 empty empty empty 17 7 0 10 -111517
-232699 -1;
#X obj 673 314 bng 15 250 50 0 empty empty empty 17 7 0 10 -111517
-232699 -1;
#X obj 703 314 bng 15 250 50 0 empty empty empty 17 7 0 10 -111517
-232699 -1;
#X obj 733 314 bng 15 250 50 0 empty empty empty 17 7 0 10 -111517
-232699 -1;
#X obj 763 314 bng 15 250 50 0 empty empty empty 17 7 0 10 -111517
-232699 -1;
#X obj 250 343 tgl 20 0 \$0-seq1_2_s \$0-seq1_2_r empty 0 -7 0 10 -111517
-232699 -262144 0 1;
#X obj 280 343 tgl 20 0 \$0-seq1_3_s \$0-seq1_3_r empty 0 -7 0 10 -111517
-232699 -262144 1 1;
#X obj 309 343 tgl 20 0 \$0-seq1_4_s \$0-seq1_4_r empty 0 -7 0 10 -111517
-232699 -262144 0 1;
#X obj 341 343 tgl 20 0 \$0-seq1_5_s \$0-seq1_5_r empty 0 -7 0 10 -111517
-232699 -262144 1 1;
#X obj 370 343 tgl 20 0 \$0-seq1_6_s \$0-seq1_6_r empty 0 -7 0 10 -111517
-232699 -262144 1 1;
#X obj 400 343 tgl 20 0 \$0-seq1_7_s \$0-seq1_7_r empty 0 -7 0 10 -111517
-232699 -262144 0 1;
#X obj 429 343 tgl 20 0 \$0-seq1_8_s \$0-seq1_8_r empty 0 -7 0 10 -111517
-232699 -262144 1 1;
#X obj 461 343 tgl 20 0 \$0-seq1_9_s \$0-seq1_9_r empty 0 -7 0 10 -111517
-232699 -262144 1 1;
#X obj 490 343 tgl 20 0 \$0-seq1_10_s \$0-seq1_10_r empty 0 -7 0 10
-111517 -232699 -262144 0 1;
#X obj 520 343 tgl 20 0 \$0-seq1_11_s \$0-seq1_11_r empty 0 -7 0 10
-111517 -232699 -262144 0 1;
#X obj 549 343 tgl 20 0 \$0-seq1_12_s \$0-seq1_12_r empty 0 -7 0 10
-111517 -232699 -262144 1 1;
#X obj 581 343 tgl 20 0 \$0-seq1_13_s \$0-seq1_13_r empty 0 -7 0 10
-111517 -232699 -262144 1 1;
#X obj 610 343 tgl 20 0 \$0-seq1_14_s \$0-seq1_14_r empty 0 -7 0 10
-111517 -232699 -262144 1 1;
#X obj 640 343 tgl 20 0 \$0-seq1_15_s \$0-seq1_15_r empty 0 -7 0 10
-111517 -232699 -262144 0 1;
#X obj 669 343 tgl 20 0 \$0-seq1_16_s \$0-seq1_16_r empty 0 -7 0 10
-111517 -232699 -262144 1 1;
#X obj 700 343 tgl 20 0 \$0-seq1_17_s \$0-seq1_17_r empty 0 -7 0 10
-111517 -232699 -262144 0 1;
#X obj 730 343 tgl 20 0 \$0-seq1_18_s \$0-seq1_18_r empty 0 -7 0 10
-111517 -232699 -262144 1 1;
#X obj 759 343 tgl 20 0 \$0-seq1_19_s \$0-seq1_19_r empty 0 -7 0 10
-111517 -232699 -262144 0 1;
#X obj 223 374 bng 15 250 50 0 empty empty empty 17 7 0 10 -111517
-232699 -1;
#X obj 253 374 bng 15 250 50 0 empty empty empty 17 7 0 10 -111517
-232699 -1;
#X obj 283 374 bng 15 250 50 0 empty empty empty 17 7 0 10 -111517
-232699 -1;
#X obj 313 374 bng 15 250 50 0 empty empty empty 17 7 0 10 -111517
-232699 -1;
#X obj 343 374 bng 15 250 50 0 empty empty empty 17 7 0 10 -111517
-232699 -1;
#X obj 373 374 bng 15 250 50 0 empty empty empty 17 7 0 10 -111517
-232699 -1;
#X obj 403 374 bng 15 250 50 0 empty empty empty 17 7 0 10 -111517
-232699 -1;
#X obj 433 374 bng 15 250 50 0 empty empty empty 17 7 0 10 -111517
-232699 -1;
#X obj 463 374 bng 15 250 50 0 empty empty empty 17 7 0 10 -111517
-232699 -1;
#X obj 493 374 bng 15 250 50 0 empty empty empty 17 7 0 10 -111517
-232699 -1;
#X obj 523 374 bng 15 250 50 0 empty empty empty 17 7 0 10 -111517
-232699 -1;
#X obj 553 374 bng 15 250 50 0 empty empty empty 17 7 0 10 -111517
-232699 -1;
#X obj 583 374 bng 15 250 50 0 empty empty empty 17 7 0 10 -111517
-232699 -1;
#X obj 613 374 bng 15 250 50 0 empty empty empty 17 7 0 10 -111517
-232699 -1;
#X obj 643 374 bng 15 250 50 0 empty empty empty 17 7 0 10 -111517
-232699 -1;
#X obj 673 374 bng 15 250 50 0 empty empty empty 17 7 0 10 -111517
-232699 -1;
#X obj 703 374 bng 15 250 50 0 empty empty empty 17 7 0 10 -111517
-232699 -1;
#X obj 733 374 bng 15 250 50 0 empty empty empty 17 7 0 10 -111517
-232699 -1;
#X obj 763 374 bng 15 250 50 0 empty empty empty 17 7 0 10 -111517
-232699 -1;
#X obj 791 232 vsl 15 60 0 127 0 0 \$0-velocity20_s \$0-velocity20_r
20 3 73 0 10 -232699 -1 -262144 2787 1;
#X obj 793 314 bng 15 250 50 0 empty empty empty 17 7 0 10 -111517
-232699 -1;
#X obj 789 343 tgl 20 0 \$0-seq1_20_s \$0-seq1_20_r empty 0 -7 0 10
-111517 -232699 -262144 0 1;
#X obj 793 374 bng 15 250 50 0 empty empty empty 17 7 0 10 -111517
-232699 -1;
#X obj 637 474 nbx 2 20 0 2 0 0 empty empty empty 0 -8 0 15 -232699
-1 -1 1 256;
#X text 642 456 bass;
#X obj 227 1062 i;
#X obj 257 1062 i;
#X obj 287 1062 i;
#X obj 317 1062 i;
#X obj 227 1089 bng 15 250 50 0 empty empty empty 17 7 0 10 -262144
-1 -1;
#X obj 257 1089 bng 15 250 50 0 empty empty empty 17 7 0 10 -262144
-1 -1;
#X obj 287 1089 bng 15 250 50 0 empty empty empty 17 7 0 10 -262144
-1 -1;
#X obj 317 1089 bng 15 250 50 0 empty empty empty 17 7 0 10 -262144
-1 -1;
#X floatatom 171 1079 5 0 0 0 - - #0-NoteIn2;
#X obj 347 1062 i;
#X obj 347 1089 bng 15 250 50 0 empty empty empty 17 7 0 10 -262144
-1 -1;
#X obj 377 1062 i;
#X obj 377 1089 bng 15 250 50 0 empty empty empty 17 7 0 10 -262144
-1 -1;
#X obj 227 961 sel 0 1 2 3 4 5;
#X obj 709 504 hradio 17 1 0 4 \$0-tempoX2_s \$0-tempoX2_r Tempo_x1/x2/x3/x4
-20 25 0 10 -232699 -1 -262144 3;
#X obj 639 514 nbx 2 20 0 20 0 0 \$0-stepsC2_s \$0-stepsC2_r empty
0 -8 0 15 -232699 -1 -1 19 256;
#X text 641 495 steps;
#X obj 839 297 sel 0 1 2 3 4 5 6 7 8 9 10 11 12 13 14 15 16 17 18 19
;
#N canvas 476 21 1397 988 sequence 0;
#X obj 34 293 i;
#X obj 74 293 i;
#X obj 114 293 i;
#X obj 154 293 i;
#X obj 194 293 i;
#X obj 234 293 i;
#X obj 274 293 i;
#X obj 314 293 i;
#X obj 354 293 i;
#X obj 394 293 i;
#X obj 434 293 i;
#X obj 474 293 i;
#X obj 514 293 i;
#X floatatom 398 310 5 0 0 0 - - #0-velocity_count2;
#X floatatom 49 259 5 0 0 0 - #0-velocity1_s -;
#X floatatom 89 259 5 0 0 0 - #0-velocity2_s -;
#X floatatom 129 259 5 0 0 0 - #0-velocity3_s -;
#X floatatom 169 259 5 0 0 0 - #0-velocity4_s -;
#X floatatom 209 259 5 0 0 0 - #0-velocity5_s -;
#X floatatom 249 259 5 0 0 0 - #0-velocity6_s -;
#X floatatom 289 259 5 0 0 0 - #0-velocity7_s -;
#X floatatom 329 259 5 0 0 0 - #0-velocity8_s -;
#X floatatom 369 259 5 0 0 0 - #0-velocity9_s -;
#X floatatom 409 259 5 0 0 0 - #0-velocity10_s -;
#X floatatom 449 259 5 0 0 0 - #0-velocity11_s -;
#X floatatom 489 259 5 0 0 0 - #0-velocity12_s -;
#X floatatom 529 259 5 0 0 0 - #0-velocity13_s -;
#X obj 821 36 i;
#X obj 849 36 + 1;
#X floatatom 901 23 5 0 0 0 - - -;
#X floatatom 480 188 5 0 0 0 - - #0-step_count2;
#X obj 213 -84 BPM_ME ---------;
#X floatatom 821 155 5 0 0 0 - - -;
#X floatatom 1014 171 5 0 0 0 - - -;
#X obj 981 64 i;
#X obj 1009 64 - 1;
#X obj 1131 113 UpDown;
#X msg 1153 50 0;
#X floatatom 1131 155 5 0 0 0 - - -;
#X floatatom 1185 39 5 0 0 0 - - -;
#X floatatom 1302 39 5 0 0 0 - - -;
#X floatatom 1251 155 5 0 0 0 - - -;
#X obj 1185 87 - 1;
#X obj 1251 91 random_me;
#X obj 244 -165 inlet metro;
#X obj 821 71 %;
#X floatatom 981 100 5 0 0 0 - - -;
#X obj 901 116 sel 0;
#X obj 901 143 bng 15 250 50 0 empty empty empty 17 7 0 10 -262144
-1 -1;
#X obj 901 -40 sel 0;
#X obj 996 39 - 1;
#X obj 1153 12 loadbang;
#X obj 213 -113 tgl 15 0 empty empty empty 17 7 0 10 -262144 -1 -1
1 1;
#X obj 108 -130 inlet metro_triger;
#X floatatom 306 -47 5 0 0 0 - - -;
#X obj 854 -143 tgl 15 0 empty empty empty 17 7 0 10 -262144 -1 -1
1 1;
#X obj 1014 -143 tgl 15 0 empty empty empty 17 7 0 10 -262144 -1 -1
0 1;
#X obj 1073 -198 hradio 15 1 0 4 empty \$0-step_option empty 0 -8 0
10 -262144 -1 -1 0;
#X obj 1073 -177 sel 0 1 2 3;
#X msg 839 -160 0;
#X msg 869 -160 1;
#X msg 999 -160 0;
#X msg 1029 -160 1;
#X obj 1164 -143 tgl 15 0 empty empty empty 17 7 0 10 -262144 -1 -1
0 1;
#X msg 1159 -160 0;
#X msg 1189 -160 1;
#X obj 1284 -143 tgl 15 0 empty empty empty 17 7 0 10 -262144 -1 -1
0 1;
#X msg 1279 -160 0;
#X msg 1309 -160 1;
#X obj 669 6 inlet steps;
#X obj 821 -20 bng 15 250 50 0 empty empty empty 17 7 0 10 -262144
-1 -1;
#X obj 821 -52 spigot;
#X obj 756 -67 bng 15 250 50 0 empty empty empty 17 7 0 10 -262144
-1 -1;
#X obj 981 -20 bng 15 250 50 0 empty empty empty 17 7 0 10 -262144
-1 -1;
#X obj 981 -52 spigot;
#X obj 1131 -20 bng 15 250 50 0 empty empty empty 17 7 0 10 -262144
-1 -1;
#X obj 1131 -52 spigot;
#X obj 1251 -20 bng 15 250 50 0 empty empty empty 17 7 0 10 -262144
-1 -1;
#X obj 1251 -52 spigot;
#X obj 735 -95 inlet legato;
#X floatatom 735 -26 5 0 0 0 - - -;
#X obj 306 -10 *;
#X floatatom 306 22 5 0 0 0 - - -;
#X obj 1093 -98 sel 0;
#X msg 836 -81 0;
#X obj 1093 8 bng 15 250 50 0 empty empty empty 17 7 0 10 -262144 -1
-1;
#X obj 228 529 noteout 10;
#X obj 331 93 bng 15 250 50 0 empty empty empty 17 7 0 10 -262144 -1
-1;
#X obj 220 494 makenote 50 500;
#X floatatom 165 478 5 0 0 0 - #0-NoteIn2 -;
#X floatatom 263 456 5 0 0 0 - #0-velocity_count2 -;
#X floatatom 319 513 5 0 0 0 - #0-channel_Out -;
#X obj 554 293 i;
#X obj 594 293 i;
#X floatatom 569 259 5 0 0 0 - #0-velocity14_s -;
#X floatatom 609 259 5 0 0 0 - #0-velocity15_s -;
#X obj 1014 276 sel 0 1 2 3 4 5 6 7 8 9 10 11 12 13 14 15 16 17 18
19;
#X obj 634 293 i;
#X obj 674 293 i;
#X obj 714 293 i;
#X floatatom 649 259 5 0 0 0 - #0-velocity16_s -;
#X floatatom 689 259 5 0 0 0 - #0-velocity17_s -;
#X floatatom 729 259 5 0 0 0 - #0-velocity18_s -;
#X obj 754 293 i;
#X obj 794 293 i;
#X floatatom 769 259 5 0 0 0 - #0-velocity19_s -;
#X floatatom 809 259 5 0 0 0 - #0-velocity20_s -;
#X connect 0 0 13 0;
#X connect 1 0 13 0;
#X connect 2 0 13 0;
#X connect 3 0 13 0;
#X connect 4 0 13 0;
#X connect 5 0 13 0;
#X connect 6 0 13 0;
#X connect 7 0 13 0;
#X connect 8 0 13 0;
#X connect 9 0 13 0;
#X connect 10 0 13 0;
#X connect 11 0 13 0;
#X connect 12 0 13 0;
#X connect 14 0 0 1;
#X connect 15 0 1 1;
#X connect 16 0 2 1;
#X connect 17 0 3 1;
#X connect 18 0 4 1;
#X connect 19 0 5 1;
#X connect 20 0 6 1;
#X connect 21 0 7 1;
#X connect 22 0 8 1;
#X connect 23 0 9 1;
#X connect 24 0 10 1;
#X connect 25 0 11 1;
#X connect 26 0 12 1;
#X connect 27 0 28 0;
#X connect 27 0 45 0;
#X connect 28 0 27 1;
#X connect 29 0 45 1;
#X connect 29 0 50 0;
#X connect 29 0 39 0;
#X connect 29 0 40 0;
#X connect 31 0 72 0;
#X connect 31 1 54 0;
#X connect 32 0 33 0;
#X connect 33 0 30 0;
#X connect 33 0 96 0;
#X connect 34 0 35 0;
#X connect 34 0 46 0;
#X connect 35 0 34 1;
#X connect 36 0 38 0;
#X connect 37 0 36 2;
#X connect 38 0 33 0;
#X connect 39 0 42 0;
#X connect 40 0 43 1;
#X connect 41 0 33 0;
#X connect 42 0 36 3;
#X connect 43 0 41 0;
#X connect 44 0 31 1;
#X connect 45 0 32 0;
#X connect 46 0 47 0;
#X connect 46 0 33 0;
#X connect 47 0 48 0;
#X connect 48 0 29 0;
#X connect 50 0 34 1;
#X connect 51 0 37 0;
#X connect 52 0 31 0;
#X connect 52 0 83 0;
#X connect 53 0 52 0;
#X connect 54 0 81 0;
#X connect 55 0 71 1;
#X connect 56 0 49 0;
#X connect 56 0 74 1;
#X connect 57 0 58 0;
#X connect 58 0 60 0;
#X connect 58 0 61 0;
#X connect 58 0 64 0;
#X connect 58 0 67 0;
#X connect 58 1 59 0;
#X connect 58 1 62 0;
#X connect 58 1 64 0;
#X connect 58 1 67 0;
#X connect 58 2 65 0;
#X connect 58 2 61 0;
#X connect 58 2 59 0;
#X connect 58 2 67 0;
#X connect 58 3 68 0;
#X connect 58 3 64 0;
#X connect 58 3 61 0;
#X connect 58 3 59 0;
#X connect 59 0 55 0;
#X connect 60 0 55 0;
#X connect 61 0 56 0;
#X connect 62 0 56 0;
#X connect 63 0 76 1;
#X connect 64 0 63 0;
#X connect 65 0 63 0;
#X connect 66 0 78 1;
#X connect 67 0 66 0;
#X connect 68 0 66 0;
#X connect 69 0 29 0;
#X connect 70 0 27 0;
#X connect 71 0 70 0;
#X connect 72 0 71 0;
#X connect 72 0 74 0;
#X connect 72 0 76 0;
#X connect 72 0 78 0;
#X connect 73 0 34 0;
#X connect 74 0 73 0;
#X connect 75 0 36 0;
#X connect 76 0 75 0;
#X connect 77 0 43 0;
#X connect 78 0 77 0;
#X connect 79 0 80 0;
#X connect 80 0 81 1;
#X connect 81 0 82 0;
#X connect 82 0 87 0;
#X connect 82 0 88 2;
#X connect 83 0 84 0;
#X connect 83 0 85 0;
#X connect 84 0 27 1;
#X connect 85 0 29 0;
#X connect 85 0 36 1;
#X connect 88 0 86 0;
#X connect 88 1 86 1;
#X connect 89 0 88 0;
#X connect 90 0 88 1;
#X connect 91 0 86 2;
#X connect 92 0 13 0;
#X connect 93 0 13 0;
#X connect 94 0 92 1;
#X connect 95 0 93 1;
#X connect 96 0 0 0;
#X connect 96 1 1 0;
#X connect 96 2 2 0;
#X connect 96 3 3 0;
#X connect 96 4 4 0;
#X connect 96 5 5 0;
#X connect 96 6 6 0;
#X connect 96 7 7 0;
#X connect 96 8 8 0;
#X connect 96 9 9 0;
#X connect 96 10 10 0;
#X connect 96 11 11 0;
#X connect 96 12 12 0;
#X connect 96 13 92 0;
#X connect 96 14 93 0;
#X connect 96 15 97 0;
#X connect 96 16 98 0;
#X connect 96 17 99 0;
#X connect 96 18 103 0;
#X connect 96 19 104 0;
#X connect 97 0 13 0;
#X connect 98 0 13 0;
#X connect 99 0 13 0;
#X connect 100 0 97 1;
#X connect 101 0 98 1;
#X connect 102 0 99 1;
#X connect 103 0 13 0;
#X connect 104 0 13 0;
#X connect 105 0 103 1;
#X connect 106 0 104 1;
#X restore 373 608 pd sequence;
#N canvas 681 582 450 300 tempo 0;
#X obj 166 186 *;
#X obj 161 104 t b f;
#X msg 135 149 1;
#X msg 165 149 2;
#X msg 195 149 3;
#X msg 225 149 4;
#X floatatom 166 211 5 0 0 0 - - -;
#X floatatom 73 170 5 0 0 0 - - -;
#X obj 161 67 inlet multi;
#X obj 73 89 inlet tempo;
#X obj 166 237 outlet;
#X obj 135 132 sel 0 1 2 3;
#X connect 0 0 6 0;
#X connect 1 0 0 0;
#X connect 1 1 11 0;
#X connect 2 0 0 1;
#X connect 3 0 0 1;
#X connect 4 0 0 1;
#X connect 5 0 0 1;
#X connect 6 0 10 0;
#X connect 7 0 0 0;
#X connect 8 0 1 0;
#X connect 9 0 7 0;
#X connect 11 0 2 0;
#X connect 11 1 3 0;
#X connect 11 2 4 0;
#X connect 11 3 5 0;
#X restore 385 579 pd tempo;
#X floatatom 840 329 5 0 0 0 - #0-step_count2 -;
#X obj 840 357 sel 0 1 2 3 4 5 6 7 8 9 10 11 12 13 14 15 16 17 18 19
;
#X obj 221 398 tgl 20 0 \$0-seq2_1_s \$0-seq2_1_r empty 0 -7 0 10 -111517
-232699 -262144 0 1;
#X obj 250 398 tgl 20 0 \$0-seq2_2_s \$0-seq2_2_r empty 0 -7 0 10 -111517
-232699 -262144 1 1;
#X obj 280 398 tgl 20 0 \$0-seq2_3_s \$0-seq2_3_r empty 0 -7 0 10 -111517
-232699 -262144 0 1;
#X obj 309 398 tgl 20 0 \$0-seq2_4_s \$0-seq2_4_r empty 0 -7 0 10 -111517
-232699 -262144 0 1;
#X obj 341 398 tgl 20 0 \$0-seq2_5_s \$0-seq2_5_r empty 0 -7 0 10 -111517
-232699 -262144 0 1;
#X obj 370 398 tgl 20 0 \$0-seq2_6_s \$0-seq2_6_r empty 0 -7 0 10 -111517
-232699 -262144 0 1;
#X obj 400 398 tgl 20 0 \$0-seq2_7_s \$0-seq2_7_r empty 0 -7 0 10 -111517
-232699 -262144 0 1;
#X obj 429 398 tgl 20 0 \$0-seq2_8_s \$0-seq2_8_r empty 0 -7 0 10 -111517
-232699 -262144 0 1;
#X obj 461 398 tgl 20 0 \$0-seq2_9_s \$0-seq2_9_r empty 0 -7 0 10 -111517
-232699 -262144 0 1;
#X obj 490 398 tgl 20 0 \$0-seq2_10_s \$0-seq2_10_r empty 0 -7 0 10
-111517 -232699 -262144 0 1;
#X obj 520 398 tgl 20 0 \$0-seq2_11_s \$0-seq2_11_r empty 0 -7 0 10
-111517 -232699 -262144 1 1;
#X obj 549 398 tgl 20 0 \$0-seq2_12_s \$0-seq2_12_r empty 0 -7 0 10
-111517 -232699 -262144 0 1;
#X obj 581 398 tgl 20 0 \$0-seq2_13_s \$0-seq2_13_r empty 0 -7 0 10
-111517 -232699 -262144 0 1;
#X obj 610 398 tgl 20 0 \$0-seq2_14_s \$0-seq2_14_r empty 0 -7 0 10
-111517 -232699 -262144 0 1;
#X obj 640 398 tgl 20 0 \$0-seq2_15_s \$0-seq2_15_r empty 0 -7 0 10
-111517 -232699 -262144 0 1;
#X obj 669 398 tgl 20 0 \$0-seq2_16_s \$0-seq2_16_r empty 0 -7 0 10
-111517 -232699 -262144 0 1;
#X obj 700 398 tgl 20 0 \$0-seq2_17_s \$0-seq2_17_r empty 0 -7 0 10
-111517 -232699 -262144 1 1;
#X obj 730 398 tgl 20 0 \$0-seq2_18_s \$0-seq2_18_r empty 0 -7 0 10
-111517 -232699 -262144 0 1;
#X obj 759 398 tgl 20 0 \$0-seq2_19_s \$0-seq2_19_r empty 0 -7 0 10
-111517 -232699 -262144 0 1;
#X obj 789 398 tgl 20 0 \$0-seq2_20_s \$0-seq2_20_r empty 0 -7 0 10
-111517 -232699 -262144 0 1;
#N canvas 0 0 1916 997 seq 0;
#X obj -62 40 r \$0-seq1_1_s;
#X obj -77 119 f;
#X obj -77 151 sel 1;
#X obj -77 186 bng 15 250 50 0 empty empty empty 17 7 0 10 -262144
-1 -1;
#X floatatom 666 72 5 0 0 0 - #0-step_count -;
#X obj 666 102 sel 0 1 2 3 4 5 6 7 8 9 10 11 12 13 14 15 16 17 18 19
;
#X obj 13 119 f;
#X obj 13 151 sel 1;
#X obj 13 186 bng 15 250 50 0 empty empty empty 17 7 0 10 -262144 -1
-1;
#X obj 103 119 f;
#X obj 103 151 sel 1;
#X obj 103 186 bng 15 250 50 0 empty empty empty 17 7 0 10 -262144
-1 -1;
#X obj 193 119 f;
#X obj 193 151 sel 1;
#X obj 193 186 bng 15 250 50 0 empty empty empty 17 7 0 10 -262144
-1 -1;
#X obj 283 119 f;
#X obj 283 151 sel 1;
#X obj 283 186 bng 15 250 50 0 empty empty empty 17 7 0 10 -262144
-1 -1;
#X obj 373 119 f;
#X obj 373 151 sel 1;
#X obj 373 186 bng 15 250 50 0 empty empty empty 17 7 0 10 -262144
-1 -1;
#X obj 463 119 f;
#X obj 463 151 sel 1;
#X obj 463 186 bng 15 250 50 0 empty empty empty 17 7 0 10 -262144
-1 -1;
#X obj 553 119 f;
#X obj 553 151 sel 1;
#X obj 553 186 bng 15 250 50 0 empty empty empty 17 7 0 10 -262144
-1 -1;
#X obj 643 119 f;
#X obj 643 151 sel 1;
#X obj 643 186 bng 15 250 50 0 empty empty empty 17 7 0 10 -262144
-1 -1;
#X obj 733 119 f;
#X obj 733 151 sel 1;
#X obj 733 186 bng 15 250 50 0 empty empty empty 17 7 0 10 -262144
-1 -1;
#X obj 823 119 f;
#X obj 823 151 sel 1;
#X obj 823 186 bng 15 250 50 0 empty empty empty 17 7 0 10 -262144
-1 -1;
#X obj 913 119 f;
#X obj 913 151 sel 1;
#X obj 913 186 bng 15 250 50 0 empty empty empty 17 7 0 10 -262144
-1 -1;
#X obj 1003 119 f;
#X obj 1003 151 sel 1;
#X obj 1003 186 bng 15 250 50 0 empty empty empty 17 7 0 10 -262144
-1 -1;
#X obj 1093 119 f;
#X obj 1093 151 sel 1;
#X obj 1093 186 bng 15 250 50 0 empty empty empty 17 7 0 10 -262144
-1 -1;
#X obj 1183 119 f;
#X obj 1183 151 sel 1;
#X obj 1183 186 bng 15 250 50 0 empty empty empty 17 7 0 10 -262144
-1 -1;
#X obj 1273 119 f;
#X obj 1273 151 sel 1;
#X obj 1273 186 bng 15 250 50 0 empty empty empty 17 7 0 10 -262144
-1 -1;
#X obj 1363 119 f;
#X obj 1363 151 sel 1;
#X obj 1363 186 bng 15 250 50 0 empty empty empty 17 7 0 10 -262144
-1 -1;
#X obj 1453 119 f;
#X obj 1453 151 sel 1;
#X obj 1453 186 bng 15 250 50 0 empty empty empty 17 7 0 10 -262144
-1 -1;
#X obj 1543 119 f;
#X obj 1543 151 sel 1;
#X obj 1543 186 bng 15 250 50 0 empty empty empty 17 7 0 10 -262144
-1 -1;
#X obj 1633 119 f;
#X obj 1633 151 sel 1;
#X obj 1633 186 bng 15 250 50 0 empty empty empty 17 7 0 10 -262144
-1 -1;
#X obj 1225 201 bng 15 250 50 0 \$0-bang_seq1 empty empty 17 7 0 10
-262144 -1 -1;
#X obj 28 40 r \$0-seq1_2_s;
#X obj 118 40 r \$0-seq1_3_s;
#X obj 208 40 r \$0-seq1_4_s;
#X obj 298 40 r \$0-seq1_5_s;
#X obj 388 40 r \$0-seq1_6_s;
#X obj 478 40 r \$0-seq1_7_s;
#X obj 568 40 r \$0-seq1_8_s;
#X obj 658 40 r \$0-seq1_9_s;
#X obj 748 40 r \$0-seq1_10_s;
#X obj 838 40 r \$0-seq1_11_s;
#X obj 928 40 r \$0-seq1_12_s;
#X obj 1018 40 r \$0-seq1_13_s;
#X obj 1108 40 r \$0-seq1_14_s;
#X obj 1198 40 r \$0-seq1_15_s;
#X obj 1288 40 r \$0-seq1_16_s;
#X obj 1378 40 r \$0-seq1_17_s;
#X obj 1468 40 r \$0-seq1_18_s;
#X obj 1558 40 r \$0-seq1_19_s;
#X obj 1648 40 r \$0-seq1_20_s;
#X obj -77 379 f;
#X obj -77 411 sel 1;
#X obj -77 446 bng 15 250 50 0 empty empty empty 17 7 0 10 -262144
-1 -1;
#X floatatom 666 332 5 0 0 0 - #0-step_count2 -;
#X obj 666 362 sel 0 1 2 3 4 5 6 7 8 9 10 11 12 13 14 15 16 17 18 19
;
#X obj 13 379 f;
#X obj 13 411 sel 1;
#X obj 13 446 bng 15 250 50 0 empty empty empty 17 7 0 10 -262144 -1
-1;
#X obj 103 379 f;
#X obj 103 411 sel 1;
#X obj 103 446 bng 15 250 50 0 empty empty empty 17 7 0 10 -262144
-1 -1;
#X obj 193 379 f;
#X obj 193 411 sel 1;
#X obj 193 446 bng 15 250 50 0 empty empty empty 17 7 0 10 -262144
-1 -1;
#X obj 283 379 f;
#X obj 283 411 sel 1;
#X obj 283 446 bng 15 250 50 0 empty empty empty 17 7 0 10 -262144
-1 -1;
#X obj 373 379 f;
#X obj 373 411 sel 1;
#X obj 373 446 bng 15 250 50 0 empty empty empty 17 7 0 10 -262144
-1 -1;
#X obj 463 379 f;
#X obj 463 411 sel 1;
#X obj 463 446 bng 15 250 50 0 empty empty empty 17 7 0 10 -262144
-1 -1;
#X obj 553 379 f;
#X obj 553 411 sel 1;
#X obj 553 446 bng 15 250 50 0 empty empty empty 17 7 0 10 -262144
-1 -1;
#X obj 643 379 f;
#X obj 643 411 sel 1;
#X obj 643 446 bng 15 250 50 0 empty empty empty 17 7 0 10 -262144
-1 -1;
#X obj 733 379 f;
#X obj 733 411 sel 1;
#X obj 733 446 bng 15 250 50 0 empty empty empty 17 7 0 10 -262144
-1 -1;
#X obj 823 379 f;
#X obj 823 411 sel 1;
#X obj 823 446 bng 15 250 50 0 empty empty empty 17 7 0 10 -262144
-1 -1;
#X obj 913 379 f;
#X obj 913 411 sel 1;
#X obj 913 446 bng 15 250 50 0 empty empty empty 17 7 0 10 -262144
-1 -1;
#X obj 1003 379 f;
#X obj 1003 411 sel 1;
#X obj 1003 446 bng 15 250 50 0 empty empty empty 17 7 0 10 -262144
-1 -1;
#X obj 1093 379 f;
#X obj 1093 411 sel 1;
#X obj 1093 446 bng 15 250 50 0 empty empty empty 17 7 0 10 -262144
-1 -1;
#X obj 1183 379 f;
#X obj 1183 411 sel 1;
#X obj 1183 446 bng 15 250 50 0 empty empty empty 17 7 0 10 -262144
-1 -1;
#X obj 1273 379 f;
#X obj 1273 411 sel 1;
#X obj 1273 446 bng 15 250 50 0 empty empty empty 17 7 0 10 -262144
-1 -1;
#X obj 1363 379 f;
#X obj 1363 411 sel 1;
#X obj 1363 446 bng 15 250 50 0 empty empty empty 17 7 0 10 -262144
-1 -1;
#X obj 1453 379 f;
#X obj 1453 411 sel 1;
#X obj 1453 446 bng 15 250 50 0 empty empty empty 17 7 0 10 -262144
-1 -1;
#X obj 1543 379 f;
#X obj 1543 411 sel 1;
#X obj 1543 446 bng 15 250 50 0 empty empty empty 17 7 0 10 -262144
-1 -1;
#X obj 1633 379 f;
#X obj 1633 411 sel 1;
#X obj 1633 446 bng 15 250 50 0 empty empty empty 17 7 0 10 -262144
-1 -1;
#X obj 1225 461 bng 15 250 50 0 \$0-bang_seq2 empty empty 17 7 0 10
-262144 -1 -1;
#X obj -62 300 r \$0-seq2_1_s;
#X obj 28 300 r \$0-seq2_2_s;
#X obj 118 300 r \$0-seq2_3_s;
#X obj 208 300 r \$0-seq2_4_s;
#X obj 298 300 r \$0-seq2_5_s;
#X obj 388 300 r \$0-seq2_6_s;
#X obj 478 300 r \$0-seq2_7_s;
#X obj 568 300 r \$0-seq2_8_s;
#X obj 658 300 r \$0-seq2_9_s;
#X obj 748 300 r \$0-seq2_10_s;
#X obj 838 300 r \$0-seq2_11_s;
#X obj 928 300 r \$0-seq2_12_s;
#X obj 1018 300 r \$0-seq2_13_s;
#X obj 1108 300 r \$0-seq2_14_s;
#X obj 1198 300 r \$0-seq2_15_s;
#X obj 1288 300 r \$0-seq2_16_s;
#X obj 1378 300 r \$0-seq2_17_s;
#X obj 1468 300 r \$0-seq2_18_s;
#X obj 1558 300 r \$0-seq2_19_s;
#X obj 1648 300 r \$0-seq2_20_s;
#X connect 0 0 1 1;
#X connect 1 0 2 0;
#X connect 2 0 3 0;
#X connect 3 0 63 0;
#X connect 4 0 5 0;
#X connect 5 0 1 0;
#X connect 5 1 6 0;
#X connect 5 2 9 0;
#X connect 5 3 12 0;
#X connect 5 4 15 0;
#X connect 5 5 18 0;
#X connect 5 6 21 0;
#X connect 5 7 24 0;
#X connect 5 8 27 0;
#X connect 5 9 30 0;
#X connect 5 10 33 0;
#X connect 5 11 36 0;
#X connect 5 12 39 0;
#X connect 5 13 42 0;
#X connect 5 14 45 0;
#X connect 5 15 48 0;
#X connect 5 16 51 0;
#X connect 5 17 54 0;
#X connect 5 18 57 0;
#X connect 5 19 60 0;
#X connect 6 0 7 0;
#X connect 7 0 8 0;
#X connect 8 0 63 0;
#X connect 9 0 10 0;
#X connect 10 0 11 0;
#X connect 11 0 63 0;
#X connect 12 0 13 0;
#X connect 13 0 14 0;
#X connect 14 0 63 0;
#X connect 15 0 16 0;
#X connect 16 0 17 0;
#X connect 17 0 63 0;
#X connect 18 0 19 0;
#X connect 19 0 20 0;
#X connect 20 0 63 0;
#X connect 21 0 22 0;
#X connect 22 0 23 0;
#X connect 23 0 63 0;
#X connect 24 0 25 0;
#X connect 25 0 26 0;
#X connect 26 0 63 0;
#X connect 27 0 28 0;
#X connect 28 0 29 0;
#X connect 29 0 63 0;
#X connect 30 0 31 0;
#X connect 31 0 32 0;
#X connect 32 0 63 0;
#X connect 33 0 34 0;
#X connect 34 0 35 0;
#X connect 35 0 63 0;
#X connect 36 0 37 0;
#X connect 37 0 38 0;
#X connect 38 0 63 0;
#X connect 39 0 40 0;
#X connect 40 0 41 0;
#X connect 41 0 63 0;
#X connect 42 0 43 0;
#X connect 43 0 44 0;
#X connect 44 0 63 0;
#X connect 45 0 46 0;
#X connect 46 0 47 0;
#X connect 47 0 63 0;
#X connect 48 0 49 0;
#X connect 49 0 50 0;
#X connect 50 0 63 0;
#X connect 51 0 52 0;
#X connect 52 0 53 0;
#X connect 53 0 63 0;
#X connect 54 0 55 0;
#X connect 55 0 56 0;
#X connect 56 0 63 0;
#X connect 57 0 58 0;
#X connect 58 0 59 0;
#X connect 59 0 63 0;
#X connect 60 0 61 0;
#X connect 61 0 62 0;
#X connect 62 0 63 0;
#X connect 64 0 6 1;
#X connect 65 0 9 1;
#X connect 66 0 12 1;
#X connect 67 0 15 1;
#X connect 68 0 18 1;
#X connect 69 0 21 1;
#X connect 70 0 24 1;
#X connect 71 0 27 1;
#X connect 72 0 30 1;
#X connect 73 0 33 1;
#X connect 74 0 36 1;
#X connect 75 0 39 1;
#X connect 76 0 42 1;
#X connect 77 0 45 1;
#X connect 78 0 48 1;
#X connect 79 0 51 1;
#X connect 80 0 54 1;
#X connect 81 0 57 1;
#X connect 82 0 60 1;
#X connect 83 0 84 0;
#X connect 84 0 85 0;
#X connect 85 0 145 0;
#X connect 86 0 87 0;
#X connect 87 0 83 0;
#X connect 87 1 88 0;
#X connect 87 2 91 0;
#X connect 87 3 94 0;
#X connect 87 4 97 0;
#X connect 87 5 100 0;
#X connect 87 6 103 0;
#X connect 87 7 106 0;
#X connect 87 8 109 0;
#X connect 87 9 112 0;
#X connect 87 10 115 0;
#X connect 87 11 118 0;
#X connect 87 12 121 0;
#X connect 87 13 124 0;
#X connect 87 14 127 0;
#X connect 87 15 130 0;
#X connect 87 16 133 0;
#X connect 87 17 136 0;
#X connect 87 18 139 0;
#X connect 87 19 142 0;
#X connect 88 0 89 0;
#X connect 89 0 90 0;
#X connect 90 0 145 0;
#X connect 91 0 92 0;
#X connect 92 0 93 0;
#X connect 93 0 145 0;
#X connect 94 0 95 0;
#X connect 95 0 96 0;
#X connect 96 0 145 0;
#X connect 97 0 98 0;
#X connect 98 0 99 0;
#X connect 99 0 145 0;
#X connect 100 0 101 0;
#X connect 101 0 102 0;
#X connect 102 0 145 0;
#X connect 103 0 104 0;
#X connect 104 0 105 0;
#X connect 105 0 145 0;
#X connect 106 0 107 0;
#X connect 107 0 108 0;
#X connect 108 0 145 0;
#X connect 109 0 110 0;
#X connect 110 0 111 0;
#X connect 111 0 145 0;
#X connect 112 0 113 0;
#X connect 113 0 114 0;
#X connect 114 0 145 0;
#X connect 115 0 116 0;
#X connect 116 0 117 0;
#X connect 117 0 145 0;
#X connect 118 0 119 0;
#X connect 119 0 120 0;
#X connect 120 0 145 0;
#X connect 121 0 122 0;
#X connect 122 0 123 0;
#X connect 123 0 145 0;
#X connect 124 0 125 0;
#X connect 125 0 126 0;
#X connect 126 0 145 0;
#X connect 127 0 128 0;
#X connect 128 0 129 0;
#X connect 129 0 145 0;
#X connect 130 0 131 0;
#X connect 131 0 132 0;
#X connect 132 0 145 0;
#X connect 133 0 134 0;
#X connect 134 0 135 0;
#X connect 135 0 145 0;
#X connect 136 0 137 0;
#X connect 137 0 138 0;
#X connect 138 0 145 0;
#X connect 139 0 140 0;
#X connect 140 0 141 0;
#X connect 141 0 145 0;
#X connect 142 0 143 0;
#X connect 143 0 144 0;
#X connect 144 0 145 0;
#X connect 146 0 83 1;
#X connect 147 0 88 1;
#X connect 148 0 91 1;
#X connect 149 0 94 1;
#X connect 150 0 97 1;
#X connect 151 0 100 1;
#X connect 152 0 103 1;
#X connect 153 0 106 1;
#X connect 154 0 109 1;
#X connect 155 0 112 1;
#X connect 156 0 115 1;
#X connect 157 0 118 1;
#X connect 158 0 121 1;
#X connect 159 0 124 1;
#X connect 160 0 127 1;
#X connect 161 0 130 1;
#X connect 162 0 133 1;
#X connect 163 0 136 1;
#X connect 164 0 139 1;
#X connect 165 0 142 1;
#X restore 900 434 pd seq;
#X obj 199 726 i;
#X obj 226 726 + 1;
#X obj 199 789 % 4;
#X msg 228 697 0;
#X floatatom 272 724 5 0 0 0 - - -;
#X obj 199 697 bng 15 250 50 0 empty \$0-bang_seq2 empty 17 7 0 10
-262144 -1 -1;
#X floatatom 186 955 5 0 0 0 - - -;
#X obj 147 874 expr if($f2 == 200 \, ($f1*0)+200 \, $f1) \;;
#X obj 147 911 sel 200;
#X obj 278 792 sel 0;
#X msg 336 808 200;
#X obj 272 748 t b f;
#X msg 498 720 0;
#X obj 731 681 bng 15 250 50 0 empty empty empty 17 7 0 10 -262144
-1 -1;
#N canvas 701 428 450 300 octave_Bass 0;
#X obj 60 256 outlet;
#X obj 60 158 sel 0 1;
#X obj 60 195 f;
#X floatatom 60 227 5 0 0 0 - - -;
#X obj 60 102 t f f f;
#X obj 94 136 f;
#X obj 60 34 inlet;
#X obj 280 256 outlet;
#X obj 280 158 sel 0 1;
#X obj 280 195 f;
#X floatatom 280 227 5 0 0 0 - - -;
#X obj 280 102 t f f f;
#X obj 314 136 f;
#X obj 280 34 inlet;
#X obj 60 70 expr if($f1 > 50 \, ($f1-12) \, $f1) \;;
#X obj 60 136 > 50;
#X obj 280 136 > 50;
#X obj 280 70 expr if($f1 > 50 \, ($f1-12) \, $f1) \;;
#X connect 1 0 2 0;
#X connect 1 1 5 0;
#X connect 2 0 3 0;
#X connect 3 0 0 0;
#X connect 4 0 15 0;
#X connect 4 1 2 1;
#X connect 4 2 5 1;
#X connect 5 0 14 0;
#X connect 6 0 14 0;
#X connect 8 0 9 0;
#X connect 8 1 12 0;
#X connect 9 0 10 0;
#X connect 10 0 7 0;
#X connect 11 0 16 0;
#X connect 11 1 9 1;
#X connect 11 2 12 1;
#X connect 12 0 17 0;
#X connect 13 0 17 0;
#X connect 14 0 4 0;
#X connect 15 0 1 0;
#X connect 16 0 8 0;
#X connect 17 0 11 0;
#X restore 486 1045 pd octave_Bass;
#X obj 115 182 loadbang;
#X msg 115 213 60;
#X obj 772 431 cnv 15 40 40 empty \$0-displayNote C-1 8 20 0 18 -111517
-262144 0;
#X msg 98 638 label \$1;
#X obj 98 661 s \$0-displayNote;
#X floatatom 49 550 5 0 0 0 - #0-hold -;
#X obj 49 574 sel 0;
#X msg 49 598 0;
#X floatatom 98 553 5 0 0 0 - #0-showNote -;
#X obj 98 615 makefilename %s;
#X obj 98 582 notoname2;
#X obj 510 437 nbx 2 20 0 14 0 0 \$0-octave empty empty 0 -8 0 15 -232699
-1 -1 0 256;
#X text 558 439 octave;
#X obj 1572 380 ctlin;
#X obj 1562 479 ctlout;
#X obj 519 589 bng 15 250 50 0 empty \$0-bang_seq1 empty 17 7 0 10
-262144 -1 -1;
#X obj 491 613 delay 10;
#X msg 116 494 90;
#X connect 5 0 247 0;
#X connect 11 0 13 0;
#X connect 11 0 248 0;
#X connect 12 0 63 0;
#X connect 12 0 249 0;
#X connect 14 0 13 2;
#X connect 15 0 17 0;
#X connect 15 0 60 0;
#X connect 15 0 305 0;
#X connect 15 0 101 0;
#X connect 15 0 103 0;
#X connect 15 0 153 0;
#X connect 16 0 13 3;
#X connect 16 0 248 3;
#X connect 17 0 98 0;
#X connect 17 0 228 0;
#X connect 17 0 18 0;
#X connect 17 0 16 0;
#X connect 18 0 35 0;
#X connect 23 0 63 1;
#X connect 24 0 25 0;
#X connect 24 0 26 0;
#X connect 25 0 24 1;
#X connect 26 0 93 0;
#X connect 27 0 28 0;
#X connect 27 0 87 0;
#X connect 27 0 92 0;
#X connect 28 0 27 1;
#X connect 29 0 58 0;
#X connect 30 0 58 0;
#X connect 31 0 58 0;
#X connect 33 0 48 1;
#X connect 34 0 32 0;
#X connect 34 0 50 1;
#X connect 35 0 36 0;
#X connect 36 0 38 0;
#X connect 36 0 39 0;
#X connect 36 0 42 0;
#X connect 36 0 45 0;
#X connect 36 1 37 0;
#X connect 36 1 40 0;
#X connect 36 1 42 0;
#X connect 36 1 45 0;
#X connect 36 2 43 0;
#X connect 36 2 39 0;
#X connect 36 2 37 0;
#X connect 36 2 45 0;
#X connect 36 3 46 0;
#X connect 36 3 42 0;
#X connect 36 3 39 0;
#X connect 36 3 37 0;
#X connect 37 0 33 0;
#X connect 38 0 33 0;
#X connect 39 0 34 0;
#X connect 40 0 34 0;
#X connect 41 0 52 1;
#X connect 41 0 65 0;
#X connect 42 0 41 0;
#X connect 43 0 41 0;
#X connect 44 0 54 1;
#X connect 45 0 44 0;
#X connect 46 0 44 0;
#X connect 47 0 24 0;
#X connect 48 0 47 0;
#X connect 49 0 27 0;
#X connect 50 0 49 0;
#X connect 51 0 55 0;
#X connect 52 0 51 0;
#X connect 53 0 104 0;
#X connect 54 0 53 0;
#X connect 55 0 85 0;
#X connect 56 0 55 1;
#X connect 56 0 55 2;
#X connect 57 0 58 0;
#X connect 58 0 170 0;
#X connect 59 0 48 0;
#X connect 59 0 50 0;
#X connect 59 0 52 0;
#X connect 59 0 54 0;
#X connect 60 0 6 0;
#X connect 60 0 11 0;
#X connect 60 0 299 0;
#X connect 62 0 15 0;
#X connect 62 0 288 0;
#X connect 63 0 13 1;
#X connect 64 0 96 0;
#X connect 65 0 56 0;
#X connect 66 0 287 0;
#X connect 66 0 67 1;
#X connect 66 1 287 1;
#X connect 66 1 68 1;
#X connect 66 2 69 1;
#X connect 66 3 70 1;
#X connect 66 4 166 1;
#X connect 66 5 168 1;
#X connect 67 0 71 0;
#X connect 67 0 75 0;
#X connect 68 0 72 0;
#X connect 68 0 75 0;
#X connect 69 0 73 0;
#X connect 69 0 75 0;
#X connect 70 0 74 0;
#X connect 70 0 75 0;
#X connect 76 0 95 0;
#X connect 76 0 285 0;
#X connect 76 1 26 1;
#X connect 76 1 93 1;
#X connect 76 1 286 0;
#X connect 77 0 79 0;
#X connect 77 1 80 1;
#X connect 77 1 104 1;
#X connect 78 0 77 0;
#X connect 79 0 80 1;
#X connect 80 0 81 0;
#X connect 81 1 31 0;
#X connect 82 0 84 0;
#X connect 82 1 85 1;
#X connect 82 1 55 3;
#X connect 83 0 82 0;
#X connect 84 0 85 1;
#X connect 85 0 86 0;
#X connect 86 1 57 0;
#X connect 87 0 88 0;
#X connect 88 0 89 0;
#X connect 89 0 27 1;
#X connect 90 0 91 0;
#X connect 91 0 89 0;
#X connect 92 0 29 0;
#X connect 93 0 94 0;
#X connect 94 1 30 0;
#X connect 95 0 93 1;
#X connect 96 0 97 0;
#X connect 96 1 76 0;
#X connect 97 0 24 1;
#X connect 99 0 11 0;
#X connect 101 0 100 0;
#X connect 103 0 102 0;
#X connect 104 0 80 0;
#X connect 128 0 132 0;
#X connect 128 1 133 0;
#X connect 128 2 130 0;
#X connect 129 0 131 0;
#X connect 130 0 132 2;
#X connect 131 1 136 0;
#X connect 132 0 129 0;
#X connect 132 1 134 0;
#X connect 133 0 132 1;
#X connect 134 0 135 0;
#X connect 135 1 136 1;
#X connect 137 0 136 2;
#X connect 138 0 132 3;
#X connect 142 0 141 0;
#X connect 143 0 141 1;
#X connect 144 0 143 0;
#X connect 145 0 142 0;
#X connect 153 0 139 0;
#X connect 154 0 155 0;
#X connect 154 1 156 0;
#X connect 155 0 157 0;
#X connect 156 0 157 0;
#X connect 157 0 98 0;
#X connect 158 0 154 0;
#X connect 159 0 160 0;
#X connect 159 1 161 0;
#X connect 160 0 158 0;
#X connect 161 0 158 1;
#X connect 162 0 158 2;
#X connect 163 0 302 0;
#X connect 164 0 175 0;
#X connect 165 0 302 2;
#X connect 166 0 167 0;
#X connect 166 0 75 0;
#X connect 168 0 169 0;
#X connect 168 0 75 0;
#X connect 170 0 67 0;
#X connect 170 1 68 0;
#X connect 170 2 69 0;
#X connect 170 3 70 0;
#X connect 170 4 166 0;
#X connect 170 5 168 0;
#X connect 175 2 302 1;
#X connect 228 0 277 0;
#X connect 230 0 234 0;
#X connect 230 0 238 0;
#X connect 231 0 235 0;
#X connect 231 0 238 0;
#X connect 232 0 236 0;
#X connect 232 0 238 0;
#X connect 233 0 237 0;
#X connect 233 0 238 0;
#X connect 239 0 240 0;
#X connect 239 0 238 0;
#X connect 241 0 242 0;
#X connect 241 0 238 0;
#X connect 243 0 230 0;
#X connect 243 1 231 0;
#X connect 243 2 232 0;
#X connect 243 3 233 0;
#X connect 243 4 239 0;
#X connect 243 5 241 0;
#X connect 244 0 249 1;
#X connect 245 0 248 2;
#X connect 247 0 2 0;
#X connect 247 1 116 0;
#X connect 247 2 117 0;
#X connect 247 3 118 0;
#X connect 247 4 119 0;
#X connect 247 5 120 0;
#X connect 247 6 121 0;
#X connect 247 7 122 0;
#X connect 247 8 123 0;
#X connect 247 9 124 0;
#X connect 247 10 125 0;
#X connect 247 11 126 0;
#X connect 247 12 173 0;
#X connect 247 13 174 0;
#X connect 247 14 182 0;
#X connect 247 15 183 0;
#X connect 247 16 184 0;
#X connect 247 17 185 0;
#X connect 247 18 186 0;
#X connect 247 19 225 0;
#X connect 249 0 248 1;
#X connect 250 0 251 0;
#X connect 251 0 205 0;
#X connect 251 1 206 0;
#X connect 251 2 207 0;
#X connect 251 3 208 0;
#X connect 251 4 209 0;
#X connect 251 5 210 0;
#X connect 251 6 211 0;
#X connect 251 7 212 0;
#X connect 251 8 213 0;
#X connect 251 9 214 0;
#X connect 251 10 215 0;
#X connect 251 11 216 0;
#X connect 251 12 217 0;
#X connect 251 13 218 0;
#X connect 251 14 219 0;
#X connect 251 15 220 0;
#X connect 251 16 221 0;
#X connect 251 17 222 0;
#X connect 251 18 223 0;
#X connect 251 19 227 0;
#X connect 273 0 274 0;
#X connect 273 0 275 0;
#X connect 274 0 273 1;
#X connect 275 0 280 0;
#X connect 276 0 273 1;
#X connect 277 0 284 0;
#X connect 278 0 273 0;
#X connect 279 0 243 0;
#X connect 280 0 281 0;
#X connect 281 1 279 0;
#X connect 282 0 283 0;
#X connect 282 1 280 1;
#X connect 282 1 275 1;
#X connect 283 0 280 1;
#X connect 284 0 276 0;
#X connect 284 1 282 0;
#X connect 285 0 277 0;
#X connect 286 0 228 0;
#X connect 287 0 230 1;
#X connect 287 1 231 1;
#X connect 288 0 289 0;
#X connect 289 0 1 0;
#X connect 289 0 105 0;
#X connect 289 0 106 0;
#X connect 289 0 107 0;
#X connect 289 0 108 0;
#X connect 289 0 109 0;
#X connect 289 0 110 0;
#X connect 289 0 111 0;
#X connect 289 0 112 0;
#X connect 289 0 113 0;
#X connect 289 0 114 0;
#X connect 289 0 115 0;
#X connect 289 0 171 0;
#X connect 289 0 172 0;
#X connect 289 0 176 0;
#X connect 289 0 177 0;
#X connect 289 0 178 0;
#X connect 289 0 179 0;
#X connect 289 0 180 0;
#X connect 289 0 224 0;
#X connect 291 0 292 0;
#X connect 293 0 294 0;
#X connect 294 0 295 0;
#X connect 295 0 297 0;
#X connect 296 0 298 0;
#X connect 297 0 291 0;
#X connect 298 0 297 0;
#X connect 301 0 163 0;
#X connect 301 1 164 0;
#X connect 301 2 165 0;
#X connect 303 0 304 0;
#X connect 304 0 59 0;
#X connect 305 0 12 0;
#X coords 0 -1 1 1 630 350 1 200 200;
