#N canvas 461 224 571 695 10;
#X obj 62 38 inlet;
#X obj 246 624 outlet;
#X obj 62 64 b;
#X obj 62 97 f 1;
#X obj 62 167 + \$1;
#X obj 291 402 t b b;
#X obj 291 432 f \$2;
#X obj 62 529 t b b;
#X obj 62 579 f \$1;
#X obj 291 596 t f f;
#X msg 29 80 1;
#X msg 108 80 -1;
#X obj 62 210 t f f f;
#X obj 122 287 > \$1;
#X obj 246 374 moses \$2;
#X obj 62 467 spigot;
#X obj 62 283 t f f;
#X obj 141 320 == 0;
#X obj 89 357 spigot;
#X obj 180 150 inlet low;
#X obj 291 274 inlet high;
#X floatatom 180 563 5 0 0 0 - - -;
#X floatatom 141 451 5 0 0 0 - - -;
#X obj 108 52 bng 15 250 50 0 empty \$0-backward_bang empty 17 7 0
10 -262144 -1 -1;
#X obj 336 419 bng 15 250 50 0 \$0-backward_bang empty empty 17 7 0
10 -262144 -1 -1;
#X obj 29 48 bng 15 250 50 0 empty \$0-forward_bang empty 17 7 0 10
-262144 -1 -1;
#X obj 115 546 bng 15 250 50 0 \$0-forward_bang empty empty 17 7 0
10 -262144 -1 -1;
#X floatatom 318 626 5 0 0 0 - - #0-Count_f;
#X floatatom 121 227 5 0 0 0 - - #0-Count_f;
#X floatatom 83 135 5 0 0 0 - #0-Count_f -;
#X floatatom 212 615 5 0 0 0 - - -;
#X msg 131 112 -1;
#X obj 108 24 inlet reset;
#X obj 291 316 - 1;
#X connect 0 0 2 0;
#X connect 2 0 3 0;
#X connect 3 0 4 0;
#X connect 4 0 12 0;
#X connect 5 0 6 0;
#X connect 5 1 24 0;
#X connect 6 0 9 0;
#X connect 7 0 8 0;
#X connect 7 1 26 0;
#X connect 8 0 9 0;
#X connect 9 0 1 0;
#X connect 9 0 30 0;
#X connect 9 1 27 0;
#X connect 10 0 3 1;
#X connect 11 0 3 1;
#X connect 12 0 16 0;
#X connect 12 1 13 0;
#X connect 12 2 28 0;
#X connect 13 0 17 0;
#X connect 13 0 18 1;
#X connect 14 0 1 0;
#X connect 14 0 30 0;
#X connect 14 1 5 0;
#X connect 15 0 7 0;
#X connect 16 0 15 0;
#X connect 16 1 18 0;
#X connect 17 0 22 0;
#X connect 18 0 14 0;
#X connect 19 0 13 1;
#X connect 19 0 4 1;
#X connect 19 0 21 0;
#X connect 20 0 33 0;
#X connect 21 0 8 1;
#X connect 22 0 15 1;
#X connect 23 0 11 0;
#X connect 25 0 10 0;
#X connect 29 0 4 1;
#X connect 31 0 4 1;
#X connect 32 0 31 0;
#X connect 33 0 14 1;
#X connect 33 0 6 1;
