#N canvas 166 137 924 423 10;
#X obj 101 101 cnv 15 398 168 empty empty empty 20 12 0 14 -108392
-66577 0;
#X obj 123 115 tgl 20 0 empty empty empty 17 7 0 10 -257985 -1 -1 1
1;
#X obj 245 183 hsl 100 15 0 80 0 0 \$0-wide1 empty Wide 17 7 0 10 -232576
-1 -1 6187 0;
#X obj 244 218 hsl 100 15 0 127 0 0 \$0-pos empty Position 17 7 0 10
-232576 -1 -1 3898 0;
#X obj 245 146 hsl 100 15 5000 200 0 0 \$0-tempo2 empty Tempo 17 7
0 10 -232576 -1 -1 8250 0;
#X obj 247 115 tgl 20 0 empty empty empty 17 7 0 10 -257985 -1 -1 0
1;
#X obj 120 146 hsl 100 15 1000 100 0 0 \$0-tempo1 empty Tempo 17 7
0 10 -232576 -1 -1 8600 0;
#X obj 242 15 loadbang;
#X msg 242 45 1000;
#X msg 242 68 50;
#X obj 372 146 hsl 100 15 0.05 10 0 0 \$0-tempo3 empty Tempo 17 7 0
10 -232576 -1 -1 448 0;
#X obj 374 115 tgl 20 0 empty empty empty 17 7 0 10 -257985 -1 -1 0
1;
#X obj 590 219 ctlout 1 5;
#X text 133 243 0/1 - CC 1;
#X obj 370 183 hsl 100 15 0.01 1 0 0 \$0-wide2 empty Wide 17 7 0 10
-232576 -1 -1 4900 0;
#X text 256 246 rnd - CC 2;
#X obj 682 215 ctlout 2 5;
#X obj 789 226 ctlout 3 5;
#N canvas 729 540 450 300 0/1 1;
#X obj 90 128 sel 0;
#X msg 90 162 0;
#X msg 117 162 127;
#X obj 90 60 metro;
#X floatatom 90 215 5 0 0 0 - - -;
#X obj 78 22 tgl 15 0 empty empty empty 17 7 0 10 -262144 -1 -1 1 1
;
#X obj 90 246 outlet;
#X obj 31 38 inlet;
#X obj 39 244 bng 15 250 50 0 empty empty empty 17 7 0 10 -262144 -1
-1;
#X floatatom 39 122 5 0 0 0 - - -;
#X obj 90 92 random 2;
#X obj 223 65 random;
#X obj 256 29 r \$0-tempo1;
#X obj 224 34 bng 15 250 50 0 empty empty empty 17 7 0 10 -262144 -1
-1;
#X floatatom 220 99 5 0 0 0 - - -;
#X connect 0 0 1 0;
#X connect 0 1 2 0;
#X connect 1 0 4 0;
#X connect 2 0 4 0;
#X connect 3 0 10 0;
#X connect 4 0 6 0;
#X connect 4 0 8 0;
#X connect 5 0 3 0;
#X connect 5 0 13 0;
#X connect 7 0 5 0;
#X connect 8 0 13 0;
#X connect 10 0 0 0;
#X connect 10 0 9 0;
#X connect 11 0 14 0;
#X connect 12 0 11 1;
#X connect 13 0 11 0;
#X connect 14 0 3 1;
#X restore 590 169 pd 0/1;
#X obj 590 135 tgl 15 0 empty empty empty 17 7 0 10 -262144 -1 -1 1
1;
#N canvas 576 364 450 300 random1 0;
#X obj 85 105 metro;
#X obj 85 217 +;
#X obj 100 189 r \$0-pos;
#X floatatom 85 249 5 0 0 0 - - -;
#X obj 85 158 random;
#X floatatom 164 159 5 0 0 0 - - -;
#X obj 130 130 r \$0-wide1;
#X obj 112 71 r \$0-tempo2;
#X obj 85 277 outlet;
#X obj 72 58 inlet;
#X connect 0 0 4 0;
#X connect 1 0 3 0;
#X connect 2 0 1 1;
#X connect 3 0 8 0;
#X connect 4 0 1 0;
#X connect 6 0 4 1;
#X connect 6 0 5 0;
#X connect 7 0 0 1;
#X connect 9 0 0 0;
#X restore 682 166 pd random1;
#X obj 682 135 tgl 15 0 empty empty empty 17 7 0 10 -262144 -1 -1 0
1;
#X obj 626 195 s \$0-aut;
#X obj 118 219 hsl 100 15 0 127 0 0 empty \$0-aut empty -2 -8 0 10
-261234 -1 -1 9900 1;
#X obj 715 193 s \$0-aut;
#X obj 789 135 tgl 15 0 empty empty empty 17 7 0 10 -262144 -1 -1 0
1;
#X obj 803 194 s \$0-aut;
#X obj 382 219 hradio 15 1 0 5 w1 empty empty 0 -8 0 10 -261234 -1
-1 0;
#X msg 367 45 0.5;
#X msg 384 67 0;
#N canvas 0 0 1916 997 CNV 0;
#X obj 719 200 r \$0-tempo3;
#X obj 804 334 i;
#X obj 833 334 + 1;
#X obj 877 240 r \$0-wide2;
#X obj 804 185 tgl 15 0 empty empty empty 17 7 0 10 -262144 -1 -1 0
1;
#X obj 804 364 % 10;
#X floatatom 877 348 5 0 0 0 - - -;
#X obj 636 217 swap 1;
#X obj 636 267 -;
#X obj 804 302 metro 1;
#X obj 679 285 + 9.05;
#X obj 1132 322 metro 500;
#X obj 1180 456 +;
#X obj 1221 340 r \$0-wide2;
#X floatatom 1221 440 5 0 0 0 - - -;
#X obj 1135 456 -;
#X obj 1183 244 + 50;
#X obj 1183 217 * 90;
#X obj 1132 352 i;
#X obj 1161 352 + 1;
#X obj 1132 382 % 2;
#X obj 1132 412 sel 0 1;
#X obj 1132 185 tgl 15 0 empty empty empty 17 7 0 10 -262144 -1 -1
0 1;
#X obj 1239 261 swap 0.5;
#X obj 1239 288 -;
#X obj 1300 305 + 1000;
#X msg 1135 430 63.5;
#X msg 1180 429 63.5;
#X obj 409 286 + 0.1;
#X obj 409 185 tgl 15 0 empty empty empty 17 7 0 10 -262144 -1 -1 0
1;
#X obj 409 260 randomF 1;
#X obj 484 328 +;
#X obj 409 311 t b f;
#X obj 484 353 osc~;
#X obj 483 396 *~ 1;
#X floatatom 804 710 5 0 0 0 - - -;
#X obj 542 119 hradio 15 1 0 5 empty w1 empty 0 -8 0 10 -262144 -1
-1 0;
#X msg 537 168 0;
#X msg 568 168 1;
#X msg 597 168 0;
#X msg 628 168 1;
#X msg 657 168 0;
#X msg 688 168 1;
#X obj 984 447 swap 1;
#X obj 984 481 -;
#X obj 984 334 i;
#X obj 1013 334 + 1;
#X obj 1057 240 r \$0-wide2;
#X obj 984 185 tgl 15 0 empty empty empty 17 7 0 10 -262144 -1 -1 0
1;
#X obj 984 364 % 10;
#X obj 984 507 +;
#X floatatom 1057 348 5 0 0 0 - - -;
#X obj 984 302 metro 1;
#X floatatom 984 710 5 0 0 0 - - -;
#X obj 612 756 outlet;
#X floatatom 612 726 5 0 0 0 - - -;
#X msg 554 571 500;
#X obj 554 200 sel 0 1;
#X obj 172 185 tgl 15 0 empty empty empty 17 7 0 10 -262144 -1 -1 1
1;
#X msg 717 168 0;
#X msg 748 168 1;
#X obj 542 151 sel 0 1 2 3 4;
#X msg 777 168 0;
#X msg 818 168 1;
#X floatatom 1139 710 5 0 0 0 - - -;
#X obj 99 56 inlet;
#X obj 521 637 expr if($f1 > 200 \, 200 \, $f1) \;;
#X obj 521 662 sel 200;
#X floatatom 560 710 5 0 0 0 - - -;
#X floatatom 224 306 5 0 0 0 - - -;
#X obj 224 279 r \$0-tempo3;
#X obj 322 379 r \$0-wide2;
#X obj 225 470 pack~;
#X obj 226 431 +~ 1;
#X obj 224 353 osc~ 2;
#X floatatom 225 552 5 0 0 0 - - -;
#X obj 225 526 * 63.5;
#X obj 225 396 *~ 1;
#X obj 225 497 f;
#X obj 482 480 pack~;
#X floatatom 482 562 5 0 0 0 - - -;
#X obj 482 536 * 63.5;
#X obj 482 507 f;
#X obj 521 588 +;
#X msg 573 571 0;
#X obj 99 106 dsp;
#X obj 343 436 *~;
#X obj 409 230 metro 100;
#X obj 483 452 +~ 1;
#X obj 172 214 sel 0 1;
#X msg 172 584 500;
#X msg 191 584 0;
#X obj 225 601 +;
#X obj 254 618 expr if($f1 > 200 \, 200 \, $f1) \;;
#X obj 254 643 sel 200;
#X floatatom 293 710 5 0 0 0 - - -;
#X obj 877 280 * 127;
#X obj 1057 280 * 127;
#X obj 1221 380 * 63.5;
#X obj 99 79 tgl 15 0 empty empty empty 17 7 0 10 -262144 -1 -1 0 1
;
#X connect 0 0 7 0;
#X connect 0 0 17 0;
#X connect 1 0 2 0;
#X connect 1 0 5 0;
#X connect 2 0 1 1;
#X connect 3 0 96 0;
#X connect 4 0 9 0;
#X connect 5 0 35 0;
#X connect 6 0 5 1;
#X connect 7 0 8 0;
#X connect 7 1 8 1;
#X connect 8 0 10 0;
#X connect 9 0 1 0;
#X connect 10 0 9 1;
#X connect 10 0 52 1;
#X connect 11 0 18 0;
#X connect 12 0 64 0;
#X connect 13 0 98 0;
#X connect 14 0 12 1;
#X connect 14 0 15 1;
#X connect 15 0 64 0;
#X connect 16 0 23 0;
#X connect 17 0 16 0;
#X connect 18 0 19 0;
#X connect 18 0 20 0;
#X connect 19 0 18 1;
#X connect 20 0 21 0;
#X connect 21 0 26 0;
#X connect 21 1 27 0;
#X connect 22 0 11 0;
#X connect 23 0 24 0;
#X connect 23 1 24 1;
#X connect 24 0 25 0;
#X connect 25 0 11 1;
#X connect 26 0 15 0;
#X connect 27 0 12 0;
#X connect 28 0 32 0;
#X connect 29 0 57 0;
#X connect 29 0 87 0;
#X connect 30 0 28 0;
#X connect 31 0 33 0;
#X connect 32 0 31 0;
#X connect 32 1 31 1;
#X connect 33 0 34 0;
#X connect 34 0 86 1;
#X connect 35 0 55 0;
#X connect 36 0 61 0;
#X connect 37 0 29 0;
#X connect 37 0 4 0;
#X connect 37 0 48 0;
#X connect 37 0 22 0;
#X connect 38 0 58 0;
#X connect 39 0 58 0;
#X connect 39 0 4 0;
#X connect 39 0 48 0;
#X connect 39 0 22 0;
#X connect 40 0 29 0;
#X connect 41 0 58 0;
#X connect 41 0 29 0;
#X connect 41 0 48 0;
#X connect 41 0 22 0;
#X connect 42 0 4 0;
#X connect 43 0 44 0;
#X connect 43 1 44 1;
#X connect 44 0 50 0;
#X connect 45 0 46 0;
#X connect 45 0 49 0;
#X connect 46 0 45 1;
#X connect 47 0 97 0;
#X connect 48 0 52 0;
#X connect 49 0 43 0;
#X connect 50 0 53 0;
#X connect 51 0 49 1;
#X connect 51 0 50 1;
#X connect 52 0 45 0;
#X connect 53 0 55 0;
#X connect 55 0 54 0;
#X connect 56 0 83 1;
#X connect 57 0 56 0;
#X connect 57 1 84 0;
#X connect 58 0 89 0;
#X connect 59 0 58 0;
#X connect 59 0 29 0;
#X connect 59 0 4 0;
#X connect 59 0 22 0;
#X connect 60 0 48 0;
#X connect 61 0 38 0;
#X connect 61 0 37 0;
#X connect 61 1 39 0;
#X connect 61 1 40 0;
#X connect 61 2 41 0;
#X connect 61 2 42 0;
#X connect 61 3 59 0;
#X connect 61 3 60 0;
#X connect 61 4 62 0;
#X connect 61 4 63 0;
#X connect 62 0 48 0;
#X connect 62 0 4 0;
#X connect 62 0 29 0;
#X connect 62 0 58 0;
#X connect 63 0 22 0;
#X connect 64 0 55 0;
#X connect 65 0 99 0;
#X connect 66 0 67 0;
#X connect 67 1 68 0;
#X connect 68 0 55 0;
#X connect 69 0 74 0;
#X connect 70 0 69 0;
#X connect 71 0 77 1;
#X connect 71 0 34 1;
#X connect 72 0 78 0;
#X connect 73 0 72 0;
#X connect 74 0 77 0;
#X connect 75 0 92 0;
#X connect 76 0 75 0;
#X connect 77 0 73 0;
#X connect 77 0 86 0;
#X connect 78 0 76 0;
#X connect 79 0 82 0;
#X connect 80 0 83 0;
#X connect 81 0 80 0;
#X connect 82 0 81 0;
#X connect 83 0 66 0;
#X connect 84 0 83 1;
#X connect 86 0 88 0;
#X connect 87 0 30 0;
#X connect 88 0 79 0;
#X connect 89 0 90 0;
#X connect 89 1 91 0;
#X connect 90 0 92 1;
#X connect 91 0 92 1;
#X connect 92 0 93 0;
#X connect 93 0 94 0;
#X connect 94 1 95 0;
#X connect 95 0 55 0;
#X connect 96 0 6 0;
#X connect 97 0 51 0;
#X connect 98 0 14 0;
#X connect 99 0 85 0;
#X restore 789 164 pd CNV;
#X text 379 244 CNV - CC 3;
#X obj 520 135 sel 0 1;
#X msg 544 202 0;
#X connect 1 0 19 0;
#X connect 5 0 21 0;
#X connect 7 0 8 0;
#X connect 7 0 9 0;
#X connect 7 0 28 0;
#X connect 7 0 29 0;
#X connect 8 0 4 0;
#X connect 8 0 6 0;
#X connect 9 0 2 0;
#X connect 9 0 3 0;
#X connect 11 0 25 0;
#X connect 11 0 32 0;
#X connect 18 0 12 0;
#X connect 18 0 22 0;
#X connect 19 0 18 0;
#X connect 20 0 16 0;
#X connect 20 0 24 0;
#X connect 21 0 20 0;
#X connect 25 0 30 0;
#X connect 28 0 10 0;
#X connect 28 0 14 0;
#X connect 29 0 27 0;
#X connect 30 0 17 0;
#X connect 30 0 26 0;
#X connect 32 0 33 0;
#X connect 32 1 33 0;
#X connect 33 0 27 0;
#X coords 0 -1 1 1 400 170 1 100 100;
