#N canvas 690 152 680 570 12;
#X obj 157 395 dac~;
#X obj 289 157 vsl 15 70 0.001 3 0 0 empty empty empty 0 -9 0 10 -262144
-1 -1 2428 1;
#X obj 157 359 *~ 0.2;
#X obj 437 157 vsl 15 70 0.001 3 0 0 empty empty empty 0 -9 0 10 -262144
-1 -1 1148 1;
#X obj 158 145 poly 4 1;
#X obj 158 170 pack f f f;
#X obj 158 198 route 1 2 3 4;
#X obj 156 110 notein;
#N canvas 159 244 735 300 synth 0;
#X obj 29 32 inlet;
#X obj 29 66 unpack f f;
#X obj 34 125 mtof;
#X obj 34 179 osc~ 500;
#X obj 257 178 line~;
#N canvas 293 363 450 300 adsr 0;
#X obj 151 49 inlet attack;
#X obj 551 49 inlet release;
#X obj 69 170 pack f f;
#X msg 69 129 1;
#X obj 151 129 * 1000;
#X floatatom 151 153 5 0 0 0 - - -;
#X obj 69 234 outlet;
#X obj 479 170 pack f f;
#X obj 551 129 * 1000;
#X floatatom 551 153 5 0 0 0 - - -;
#X msg 479 129 0;
#X obj 37 49 inlet triger;
#X obj 37 88 sel 0;
#X obj 259 49 inlet decay;
#X obj 259 170 pack f f;
#X obj 341 129 * 1000;
#X floatatom 341 153 5 0 0 0 - - -;
#X floatatom 211 153 5 0 0 0 - - -;
#X obj 359 49 inlet sustain;
#X obj 245 83 bng 15 250 50 0 empty empty empty 17 7 0 10 -262144 -1
-1;
#X obj 264 134 bng 15 250 50 0 empty empty empty 17 7 0 10 -262144
-1 -1;
#X obj 278 100 delay 100;
#X obj 298 130 f;
#X connect 0 0 4 0;
#X connect 1 0 8 0;
#X connect 2 0 6 0;
#X connect 3 0 2 0;
#X connect 4 0 5 0;
#X connect 4 0 2 1;
#X connect 5 0 21 1;
#X connect 7 0 6 0;
#X connect 8 0 9 0;
#X connect 8 0 7 1;
#X connect 10 0 7 0;
#X connect 11 0 12 0;
#X connect 12 0 10 0;
#X connect 12 1 3 0;
#X connect 12 1 19 0;
#X connect 13 0 15 0;
#X connect 14 0 6 0;
#X connect 15 0 16 0;
#X connect 15 0 14 1;
#X connect 18 0 22 1;
#X connect 19 0 21 0;
#X connect 20 0 22 0;
#X connect 21 0 20 0;
#X connect 22 0 14 0;
#X restore 285 132 pd adsr;
#X f 12;
#X obj 34 227 *~;
#X obj 33 256 outlet~;
#X obj 190 49 inlet attack;
#X obj 520 49 inlet release;
#X obj 300 49 inlet decay;
#X obj 410 49 inlet sustain;
#X connect 0 0 1 0;
#X connect 1 0 2 0;
#X connect 1 1 5 0;
#X connect 2 0 3 0;
#X connect 3 0 6 0;
#X connect 4 0 6 1;
#X connect 5 0 4 0;
#X connect 6 0 7 0;
#X connect 8 0 5 1;
#X connect 9 0 5 4;
#X connect 10 0 5 2;
#X connect 11 0 5 3;
#X restore 158 230 pd synth;
#X obj 507 102 loadbang;
#X msg 289 121 0.1;
#X msg 437 121 0.5;
#X obj 339 157 vsl 15 70 0.001 3 0 0 empty empty empty 0 -9 0 10 -262144
-1 -1 300 1;
#X obj 389 157 vsl 15 70 0.001 1 0 0 empty empty empty 0 -9 0 10 -262144
-1 -1 1100 1;
#X msg 339 121 0.01;
#X msg 389 121 1;
#N canvas 159 244 735 300 synth 0;
#X obj 29 32 inlet;
#X obj 29 66 unpack f f;
#X obj 34 125 mtof;
#X obj 34 179 osc~ 500;
#X obj 257 178 line~;
#N canvas 293 363 450 300 adsr 0;
#X obj 151 49 inlet attack;
#X obj 551 49 inlet release;
#X obj 69 170 pack f f;
#X msg 69 129 1;
#X obj 151 129 * 1000;
#X floatatom 151 153 5 0 0 0 - - -;
#X obj 69 234 outlet;
#X obj 479 170 pack f f;
#X obj 551 129 * 1000;
#X floatatom 551 153 5 0 0 0 - - -;
#X msg 479 129 0;
#X obj 37 49 inlet triger;
#X obj 37 88 sel 0;
#X obj 259 49 inlet decay;
#X obj 259 170 pack f f;
#X obj 341 129 * 1000;
#X floatatom 341 153 5 0 0 0 - - -;
#X floatatom 211 153 5 0 0 0 - - -;
#X obj 359 49 inlet sustain;
#X obj 245 83 bng 15 250 50 0 empty empty empty 17 7 0 10 -262144 -1
-1;
#X obj 264 134 bng 15 250 50 0 empty empty empty 17 7 0 10 -262144
-1 -1;
#X obj 278 100 delay 100;
#X obj 298 130 f;
#X connect 0 0 4 0;
#X connect 1 0 8 0;
#X connect 2 0 6 0;
#X connect 3 0 2 0;
#X connect 4 0 5 0;
#X connect 4 0 2 1;
#X connect 5 0 21 1;
#X connect 7 0 6 0;
#X connect 8 0 9 0;
#X connect 8 0 7 1;
#X connect 10 0 7 0;
#X connect 11 0 12 0;
#X connect 12 0 10 0;
#X connect 12 1 3 0;
#X connect 12 1 19 0;
#X connect 13 0 15 0;
#X connect 14 0 6 0;
#X connect 15 0 16 0;
#X connect 15 0 14 1;
#X connect 18 0 22 1;
#X connect 19 0 21 0;
#X connect 20 0 22 0;
#X connect 21 0 20 0;
#X connect 22 0 14 0;
#X restore 285 132 pd adsr;
#X f 12;
#X obj 34 227 *~;
#X obj 33 256 outlet~;
#X obj 190 49 inlet attack;
#X obj 520 49 inlet release;
#X obj 300 49 inlet decay;
#X obj 410 49 inlet sustain;
#X connect 0 0 1 0;
#X connect 1 0 2 0;
#X connect 1 1 5 0;
#X connect 2 0 3 0;
#X connect 3 0 6 0;
#X connect 4 0 6 1;
#X connect 5 0 4 0;
#X connect 6 0 7 0;
#X connect 8 0 5 1;
#X connect 9 0 5 4;
#X connect 10 0 5 2;
#X connect 11 0 5 3;
#X restore 180 260 pd synth;
#N canvas 159 244 735 300 synth 0;
#X obj 29 32 inlet;
#X obj 29 66 unpack f f;
#X obj 34 125 mtof;
#X obj 34 179 osc~ 500;
#X obj 257 178 line~;
#N canvas 293 363 450 300 adsr 0;
#X obj 151 49 inlet attack;
#X obj 551 49 inlet release;
#X obj 69 170 pack f f;
#X msg 69 129 1;
#X obj 151 129 * 1000;
#X floatatom 151 153 5 0 0 0 - - -;
#X obj 69 234 outlet;
#X obj 479 170 pack f f;
#X obj 551 129 * 1000;
#X floatatom 551 153 5 0 0 0 - - -;
#X msg 479 129 0;
#X obj 37 49 inlet triger;
#X obj 37 88 sel 0;
#X obj 259 49 inlet decay;
#X obj 259 170 pack f f;
#X obj 341 129 * 1000;
#X floatatom 341 153 5 0 0 0 - - -;
#X floatatom 211 153 5 0 0 0 - - -;
#X obj 359 49 inlet sustain;
#X obj 245 83 bng 15 250 50 0 empty empty empty 17 7 0 10 -262144 -1
-1;
#X obj 264 134 bng 15 250 50 0 empty empty empty 17 7 0 10 -262144
-1 -1;
#X obj 278 100 delay 100;
#X obj 298 130 f;
#X connect 0 0 4 0;
#X connect 1 0 8 0;
#X connect 2 0 6 0;
#X connect 3 0 2 0;
#X connect 4 0 5 0;
#X connect 4 0 2 1;
#X connect 5 0 21 1;
#X connect 7 0 6 0;
#X connect 8 0 9 0;
#X connect 8 0 7 1;
#X connect 10 0 7 0;
#X connect 11 0 12 0;
#X connect 12 0 10 0;
#X connect 12 1 3 0;
#X connect 12 1 19 0;
#X connect 13 0 15 0;
#X connect 14 0 6 0;
#X connect 15 0 16 0;
#X connect 15 0 14 1;
#X connect 18 0 22 1;
#X connect 19 0 21 0;
#X connect 20 0 22 0;
#X connect 21 0 20 0;
#X connect 22 0 14 0;
#X restore 285 132 pd adsr;
#X f 12;
#X obj 34 227 *~;
#X obj 33 256 outlet~;
#X obj 190 49 inlet attack;
#X obj 520 49 inlet release;
#X obj 300 49 inlet decay;
#X obj 410 49 inlet sustain;
#X connect 0 0 1 0;
#X connect 1 0 2 0;
#X connect 1 1 5 0;
#X connect 2 0 3 0;
#X connect 3 0 6 0;
#X connect 4 0 6 1;
#X connect 5 0 4 0;
#X connect 6 0 7 0;
#X connect 8 0 5 1;
#X connect 9 0 5 4;
#X connect 10 0 5 2;
#X connect 11 0 5 3;
#X restore 202 284 pd synth;
#N canvas 159 244 735 300 synth 0;
#X obj 29 32 inlet;
#X obj 29 66 unpack f f;
#X obj 34 125 mtof;
#X obj 34 179 osc~ 500;
#X obj 257 178 line~;
#N canvas 293 363 450 300 adsr 0;
#X obj 151 49 inlet attack;
#X obj 551 49 inlet release;
#X obj 69 170 pack f f;
#X msg 69 129 1;
#X obj 151 129 * 1000;
#X floatatom 151 153 5 0 0 0 - - -;
#X obj 69 234 outlet;
#X obj 479 170 pack f f;
#X obj 551 129 * 1000;
#X floatatom 551 153 5 0 0 0 - - -;
#X msg 479 129 0;
#X obj 37 49 inlet triger;
#X obj 37 88 sel 0;
#X obj 259 49 inlet decay;
#X obj 259 170 pack f f;
#X obj 341 129 * 1000;
#X floatatom 341 153 5 0 0 0 - - -;
#X floatatom 211 153 5 0 0 0 - - -;
#X obj 359 49 inlet sustain;
#X obj 245 83 bng 15 250 50 0 empty empty empty 17 7 0 10 -262144 -1
-1;
#X obj 264 134 bng 15 250 50 0 empty empty empty 17 7 0 10 -262144
-1 -1;
#X obj 278 100 delay 100;
#X obj 298 130 f;
#X connect 0 0 4 0;
#X connect 1 0 8 0;
#X connect 2 0 6 0;
#X connect 3 0 2 0;
#X connect 4 0 5 0;
#X connect 4 0 2 1;
#X connect 5 0 21 1;
#X connect 7 0 6 0;
#X connect 8 0 9 0;
#X connect 8 0 7 1;
#X connect 10 0 7 0;
#X connect 11 0 12 0;
#X connect 12 0 10 0;
#X connect 12 1 3 0;
#X connect 12 1 19 0;
#X connect 13 0 15 0;
#X connect 14 0 6 0;
#X connect 15 0 16 0;
#X connect 15 0 14 1;
#X connect 18 0 22 1;
#X connect 19 0 21 0;
#X connect 20 0 22 0;
#X connect 21 0 20 0;
#X connect 22 0 14 0;
#X restore 285 132 pd adsr;
#X f 12;
#X obj 34 227 *~;
#X obj 33 256 outlet~;
#X obj 190 49 inlet attack;
#X obj 520 49 inlet release;
#X obj 300 49 inlet decay;
#X obj 410 49 inlet sustain;
#X connect 0 0 1 0;
#X connect 1 0 2 0;
#X connect 1 1 5 0;
#X connect 2 0 3 0;
#X connect 3 0 6 0;
#X connect 4 0 6 1;
#X connect 5 0 4 0;
#X connect 6 0 7 0;
#X connect 8 0 5 1;
#X connect 9 0 5 4;
#X connect 10 0 5 2;
#X connect 11 0 5 3;
#X restore 224 314 pd synth;
#X text 259 99 attack;
#X text 320 97 decay;
#X text 374 97 sustain;
#X text 440 97 release;
#X connect 1 0 8 1;
#X connect 1 0 16 1;
#X connect 1 0 17 1;
#X connect 1 0 18 1;
#X connect 2 0 0 0;
#X connect 2 0 0 1;
#X connect 3 0 8 4;
#X connect 3 0 16 4;
#X connect 3 0 17 4;
#X connect 3 0 18 4;
#X connect 4 0 5 0;
#X connect 4 1 5 1;
#X connect 4 2 5 2;
#X connect 5 0 6 0;
#X connect 6 0 8 0;
#X connect 6 1 16 0;
#X connect 6 2 17 0;
#X connect 6 3 18 0;
#X connect 7 0 4 0;
#X connect 7 1 4 1;
#X connect 8 0 2 0;
#X connect 9 0 10 0;
#X connect 9 0 11 0;
#X connect 9 0 14 0;
#X connect 9 0 15 0;
#X connect 10 0 1 0;
#X connect 11 0 3 0;
#X connect 12 0 8 2;
#X connect 12 0 16 2;
#X connect 12 0 17 2;
#X connect 12 0 18 2;
#X connect 13 0 8 3;
#X connect 13 0 16 3;
#X connect 13 0 17 3;
#X connect 13 0 18 3;
#X connect 14 0 12 0;
#X connect 15 0 13 0;
#X connect 16 0 2 0;
#X connect 17 0 2 0;
#X connect 18 0 2 0;
