#N canvas 690 152 680 570 12;
#X obj 53 120 notein;
#X obj 168 370 dac~;
#X obj 168 310 *~;
#X obj 53 186 mtof;
#X obj 53 144 stripnote;
#X obj 295 134 vsl 15 70 0.001 3 0 0 empty empty empty 0 -9 0 10 -262144
-1 -1 228 1;
#X obj 107 264 osc~ 500;
#X obj 296 285 line~;
#X obj 168 334 *~ 0.2;
#X msg 212 281 0;
#X obj 442 134 vsl 15 70 0.001 3 0 0 empty empty empty 0 -9 0 10 -262144
-1 -1 228 1;
#X floatatom 53 210 5 0 0 0 - - -;
#N canvas 277 447 923 300 adsr 0;
#X obj 222 40 inlet attack;
#X obj 622 40 inlet release;
#X obj 140 161 pack f f;
#X msg 140 120 1;
#X obj 222 120 * 1000;
#X floatatom 222 144 5 0 0 0 - - -;
#X obj 140 225 outlet;
#X obj 550 161 pack f f;
#X obj 622 120 * 1000;
#X floatatom 622 144 5 0 0 0 - - -;
#X msg 550 120 0;
#X obj 108 40 inlet triger;
#X obj 108 79 sel 0;
#X obj 330 40 inlet decay;
#X obj 330 161 pack f f;
#X obj 412 120 * 1000;
#X floatatom 412 144 5 0 0 0 - - -;
#X floatatom 282 144 5 0 0 0 - - -;
#X obj 430 40 inlet sustain;
#X obj 316 74 bng 15 250 50 0 empty empty empty 17 7 0 10 -262144 -1
-1;
#X obj 335 125 bng 15 250 50 0 empty empty empty 17 7 0 10 -262144
-1 -1;
#X obj 349 91 delay 100;
#X obj 369 121 f;
#X connect 0 0 4 0;
#X connect 1 0 8 0;
#X connect 2 0 6 0;
#X connect 3 0 2 0;
#X connect 4 0 5 0;
#X connect 4 0 2 1;
#X connect 5 0 21 1;
#X connect 7 0 6 0;
#X connect 8 0 9 0;
#X connect 8 0 7 1;
#X connect 10 0 7 0;
#X connect 11 0 12 0;
#X connect 12 0 10 0;
#X connect 12 1 3 0;
#X connect 12 1 19 0;
#X connect 13 0 15 0;
#X connect 14 0 6 0;
#X connect 15 0 16 0;
#X connect 15 0 14 1;
#X connect 18 0 22 1;
#X connect 19 0 21 0;
#X connect 20 0 22 0;
#X connect 21 0 20 0;
#X connect 22 0 14 0;
#X restore 286 226 pd adsr;
#X obj 596 78 loadbang;
#X msg 295 97 0.1;
#X msg 445 97 0.1;
#X obj 174 148 sel 0;
#X obj 142 119 t b f;
#X obj 142 218 i;
#X obj 173 218 + 1;
#X msg 172 186 1;
#X msg 206 186 -1;
#X obj 345 134 vsl 15 70 0.001 3 0 0 empty empty empty 0 -9 0 10 -262144
-1 -1 21 1;
#X obj 395 134 vsl 15 70 0.001 1 0 0 empty empty empty 0 -9 0 10 -262144
-1 -1 6900 1;
#X msg 345 97 0.01;
#X msg 395 97 1;
#X text 255 71 attack;
#X text 315 71 decay;
#X text 375 71 sustain;
#X text 435 71 release;
#X floatatom 173 242 5 0 0 0 - - -;
#X connect 0 0 4 0;
#X connect 0 1 4 1;
#X connect 0 1 17 0;
#X connect 2 0 8 0;
#X connect 3 0 11 0;
#X connect 4 0 3 0;
#X connect 5 0 12 1;
#X connect 6 0 2 0;
#X connect 7 0 2 1;
#X connect 8 0 1 0;
#X connect 9 0 2 1;
#X connect 10 0 12 4;
#X connect 11 0 6 0;
#X connect 12 0 7 0;
#X connect 13 0 14 0;
#X connect 13 0 15 0;
#X connect 13 0 24 0;
#X connect 13 0 25 0;
#X connect 14 0 5 0;
#X connect 15 0 10 0;
#X connect 16 0 21 0;
#X connect 16 1 20 0;
#X connect 17 0 18 0;
#X connect 17 1 16 0;
#X connect 18 0 19 0;
#X connect 19 0 18 1;
#X connect 19 0 12 0;
#X connect 19 0 30 0;
#X connect 20 0 19 1;
#X connect 21 0 19 1;
#X connect 22 0 12 2;
#X connect 23 0 12 3;
#X connect 24 0 22 0;
#X connect 25 0 23 0;
