#N struct 1051-pixel float color;
#N canvas 161 101 828 596 10;
#N canvas 98 230 423 116 \$0-pixel 0;
#X obj 38 54 filledpolygon color color 1 0 0 0 1 1 1 1 0;
#X obj 38 32 struct \$0-pixel float color;
#X restore 32 437 pd \$0-pixel;
#X obj 134 60 cnv 15 100 350 empty \$0-setcanvas empty 20 12 0 14 -261569
-66577 0;
#X obj 361 145 div 10;
#X obj 441 145 mod 10;
#X obj 281 101 div 100;
#X obj 361 101 mod 100;
#X obj 361 123 t f f;
#N canvas 3 51 450 300 \$0-colortest 0;
#X scalar 1051-pixel 870 \;;
#X coords 0 1 1 0 100 350 2 0 0;
#X restore 32 60 pd \$0-colortest;
#X obj 281 277 i;
#X obj 361 277 i;
#X obj 441 277 i;
#X obj 281 255 + 0.5;
#X obj 361 255 + 0.5;
#X obj 441 255 + 0.5;
#X obj 281 167 sel 9;
#X obj 281 189 8;
#X obj 361 167 sel 9;
#X obj 361 189 8;
#X obj 441 167 sel 9;
#X obj 441 189 8;
#X obj 281 211 / 8;
#X obj 361 211 / 8;
#X obj 441 211 / 8;
#X obj 281 233 * 255;
#X obj 361 233 * 255;
#X obj 441 233 * 255;
#X obj 281 427 s pd-\$0-colortest;
#X obj 281 383 pack f \$0;
#X msg 281 405 clear \, scalar \$2-pixel \$1;
#X text 133 40 Canvas:;
#X text 29 40 Scalar:;
#X obj 551 79 / 255;
#X obj 551 101 * 8;
#X obj 551 145 i;
#X obj 551 123 + 0.5;
#X obj 631 79 / 255;
#X obj 631 101 * 8;
#X obj 631 145 i;
#X obj 631 123 + 0.5;
#X obj 711 79 / 255;
#X obj 711 101 * 8;
#X obj 711 145 i;
#X obj 711 123 + 0.5;
#X obj 551 167 * 100;
#X obj 551 233 +;
#X obj 631 167 * 10;
#X obj 631 211 t b f;
#X obj 631 189 +;
#X obj 711 167 t b f;
#X obj 281 79 t f f;
#X obj 281 60 nbx 4 14 0 999 0 1 empty empty Pd_Color 48 8 0 10 -262144
-1 -1 870 256;
#X obj 551 255 nbx 4 14 0 999 0 0 \$0-pd-color empty Pd_Color 48 8
0 10 -262144 -1 -1 870 256;
#X obj 281 364 nbx 4 14 0 999 0 0 empty \$0-pd-color Pd_Color 48 8
0 10 -262144 -1 -1 870 256;
#X obj 551 60 nbx 4 14 0 255 0 0 \$0-red2 \$0-red Red 48 8 0 10 -262144
-1 -1 255 256;
#X obj 281 299 nbx 4 14 0 255 0 0 \$0-red empty Red 48 8 0 10 -262144
-1 -1 255 256;
#X obj 551 364 nbx 4 14 0 255 0 0 empty \$0-red2 Red 48 8 0 10 -262144
-1 -1 255 256;
#X obj 711 405 t b f;
#X obj 631 427 +;
#X obj 631 449 t b f;
#X obj 551 471 +;
#X obj 551 383 * -65536;
#X obj 631 383 * -256;
#X obj 711 383 * -1;
#X obj 551 493 - 1;
#X msg 551 515 color \$1;
#X obj 551 537 s \$0-setcanvas;
#X obj 631 60 nbx 4 14 0 255 0 0 \$0-green2 \$0-green Green 48 8 0
10 -262144 -1 -1 223 256;
#X obj 631 364 nbx 4 14 0 255 0 0 empty \$0-green2 Green 48 8 0 10
-262144 -1 -1 223 256;
#X obj 361 299 nbx 4 14 0 255 0 0 \$0-green empty Green 48 8 0 10 -262144
-1 -1 223 256;
#X obj 711 60 nbx 4 14 0 255 0 0 \$0-blue2 \$0-blue Blue 48 8 0 10
-262144 -1 -1 0 256;
#X obj 711 364 nbx 4 14 0 255 0 0 empty \$0-blue2 Blue 48 8 0 10 -262144
-1 -1 0 256;
#X obj 441 299 nbx 4 14 0 255 0 0 \$0-blue empty Blue 48 8 0 10 -262144
-1 -1 0 256;
#X connect 2 0 16 0;
#X connect 3 0 18 0;
#X connect 4 0 14 0;
#X connect 5 0 6 0;
#X connect 6 0 2 0;
#X connect 6 1 3 0;
#X connect 8 0 54 0;
#X connect 9 0 68 0;
#X connect 10 0 71 0;
#X connect 11 0 8 0;
#X connect 12 0 9 0;
#X connect 13 0 10 0;
#X connect 14 0 15 0;
#X connect 14 1 20 0;
#X connect 15 0 20 0;
#X connect 16 0 17 0;
#X connect 16 1 21 0;
#X connect 17 0 21 0;
#X connect 18 0 19 0;
#X connect 18 1 22 0;
#X connect 19 0 22 0;
#X connect 20 0 23 0;
#X connect 21 0 24 0;
#X connect 22 0 25 0;
#X connect 23 0 11 0;
#X connect 24 0 12 0;
#X connect 25 0 13 0;
#X connect 27 0 28 0;
#X connect 28 0 26 0;
#X connect 31 0 32 0;
#X connect 32 0 34 0;
#X connect 33 0 43 0;
#X connect 34 0 33 0;
#X connect 35 0 36 0;
#X connect 36 0 38 0;
#X connect 37 0 45 0;
#X connect 38 0 37 0;
#X connect 39 0 40 0;
#X connect 40 0 42 0;
#X connect 41 0 48 0;
#X connect 42 0 41 0;
#X connect 43 0 44 0;
#X connect 44 0 51 0;
#X connect 45 0 47 0;
#X connect 46 0 44 0;
#X connect 46 1 44 1;
#X connect 47 0 46 0;
#X connect 48 0 47 0;
#X connect 48 1 47 1;
#X connect 49 0 4 0;
#X connect 49 1 5 0;
#X connect 50 0 49 0;
#X connect 52 0 27 0;
#X connect 53 0 31 0;
#X connect 55 0 60 0;
#X connect 56 0 57 0;
#X connect 56 1 57 1;
#X connect 57 0 58 0;
#X connect 58 0 59 0;
#X connect 58 1 59 1;
#X connect 59 0 63 0;
#X connect 60 0 59 0;
#X connect 61 0 57 0;
#X connect 62 0 56 0;
#X connect 63 0 64 0;
#X connect 64 0 65 0;
#X connect 66 0 35 0;
#X connect 67 0 61 0;
#X connect 69 0 39 0;
#X connect 70 0 62 0;
