#N canvas 0 0 450 489 10;
#X obj 181 174 bng 15 250 50 0 empty empty empty 17 7 0 10 -262144
-1 -1;
#X obj 302 297 ==;
#X obj 256 259 t f f;
#X obj 268 368 f;
#X obj 237 314 f;
#X obj 237 233 t b f f;
#X obj 237 189 random 4;
#X floatatom 237 212 5 0 0 0 - - -;
#X obj 237 341 sel 0 1;
#X obj 181 358 bng 15 250 50 0 empty empty empty 17 7 0 10 -262144
-1 -1;
#X floatatom 268 399 5 0 0 0 - - -;
#X obj 282 137 inlet;
#X obj 186 -21 loadbang;
#X obj 186 9 zexy/time;
#X msg 237 43 seed \$1;
#X obj 136 128 bng 15 250 50 0 empty empty empty 17 7 0 10 -262144
-1 -1;
#X floatatom 126 394 5 0 0 0 - - -;
#X obj 152 439 outlet;
#X obj 136 1 inlet;
#X obj 95 30 bng 15 250 50 0 empty empty empty 17 7 0 10 -262144 -1
-1;
#X obj 136 60 random 100;
#X obj 126 154 random;
#X obj 136 93 moses 25;
#X connect 0 0 6 0;
#X connect 1 0 4 1;
#X connect 2 0 1 1;
#X connect 2 1 3 1;
#X connect 3 0 10 0;
#X connect 4 0 8 0;
#X connect 5 0 4 0;
#X connect 5 1 2 0;
#X connect 5 2 1 0;
#X connect 6 0 7 0;
#X connect 7 0 5 0;
#X connect 8 0 3 0;
#X connect 8 1 9 0;
#X connect 9 0 0 0;
#X connect 10 0 17 0;
#X connect 11 0 6 1;
#X connect 11 0 21 1;
#X connect 12 0 13 0;
#X connect 13 3 14 0;
#X connect 14 0 6 0;
#X connect 14 0 20 0;
#X connect 15 0 21 0;
#X connect 16 0 17 0;
#X connect 18 0 20 0;
#X connect 19 0 20 0;
#X connect 20 0 22 0;
#X connect 21 0 16 0;
#X connect 22 0 15 0;
#X connect 22 1 0 0;
