#N canvas 139 202 594 478 12;
#X declare -stdpath ./;
#X floatatom 241 70 4 0 100 0 - - - 0;
#X obj 50 241 +~;
#X obj 85 293 -~;
#N canvas 352 175 330 235 delay-writer 0;
#X obj 96 85 inlet~;
#X obj 96 158 outlet~;
#X obj 116 122 delwrite~ G05-d2 1000;
#X connect 0 0 1 0;
#X connect 0 0 2 0;
#X restore 85 159 pd delay-writer;
#N canvas 392 176 280 330 delay-reader 0;
#X obj 97 77 inlet~;
#X obj 97 227 outlet~;
#X obj 115 123 inlet~;
#X obj 97 197 +~;
#X obj 115 158 delread4~ G05-d2;
#X connect 0 0 3 0;
#X connect 2 0 4 0;
#X connect 3 0 1 0;
#X connect 4 0 3 1;
#X restore 85 192 pd delay-reader;
#X obj 50 327 +~;
#X obj 272 109 / 44.1;
#X obj 272 135 pack 0 30;
#X obj 90 124 delwrite~ G05-d1 1000;
#X obj 272 161 line~;
#X text 312 82 <= delay in samples;
#X obj 271 354 declare -stdpath ./;
#X obj 272 198 delread4~ G05-d1;
#X text 239 399 updated for Pd version 0.52;
#X obj 49 74 inlet~;
#X obj 281 38 inlet;
#X obj 107 388 outlet~;
#X obj 85 327 *~ 1;
#X connect 1 0 2 1;
#X connect 1 0 5 0;
#X connect 2 0 17 0;
#X connect 3 0 4 0;
#X connect 4 0 2 0;
#X connect 5 0 16 0;
#X connect 6 0 7 0;
#X connect 7 0 9 0;
#X connect 9 0 4 1;
#X connect 9 0 12 0;
#X connect 12 0 1 1;
#X connect 14 0 1 0;
#X connect 14 0 3 0;
#X connect 14 0 8 0;
#X connect 15 0 6 0;
#X connect 15 0 0 0;
#X connect 17 0 5 1;
