#N canvas 0 0 1604 831 10;
#X obj 101 101 cnv 15 63 63 empty empty Record 8 12 0 14 -54623 -262144
0;
#X obj 114 124 tgl 35 0 empty empty empty 0 -7 0 10 -252198 -1 -262144
0 1;
#X msg 141 302 stop;
#X msg 114 272 start;
#X obj 114 180 sel 1;
#X obj 114 212 t b b;
#X obj 141 345 writesf~ 1;
#X msg 141 242 open record.wav;
#X obj 193 302 r~ record;
#X obj 121 23 inlet;
#X connect 1 0 4 0;
#X connect 2 0 6 0;
#X connect 3 0 6 0;
#X connect 4 0 5 0;
#X connect 4 1 2 0;
#X connect 5 0 3 0;
#X connect 5 1 7 0;
#X connect 7 0 6 0;
#X connect 8 0 6 0;
#X connect 9 0 1 0;
#X coords 0 -1 1 1 65 65 1 100 100;
