#N canvas 0 0 450 300 10;
#X obj 134 75 inlet;
#X obj 220 143 loadbang;
#X obj 220 173 zexy/time;
#X msg 271 207 seed \$1;
#X obj 167 160 f \$1;
#X obj 167 123 inlet;
#X obj 134 224 random;
#X obj 134 257 outlet;
#X connect 0 0 6 0;
#X connect 1 0 4 0;
#X connect 1 0 2 0;
#X connect 2 3 3 0;
#X connect 3 0 6 0;
#X connect 4 0 6 1;
#X connect 5 0 4 0;
#X connect 6 0 7 0;
