#N canvas 300 124 957 609 10;
#N canvas 197 117 1322 622 ambient 0;
#X obj 313 29 env~;
#X floatatom 313 60 5 0 0 0 - - -;
#X obj 313 101 sel 200;
#X obj 202 185 *~;
#X obj 213 604 outlet~;
#X obj 313 80 expr if($f1<$f2 \, 200 \, $f1) \;;
#X obj 706 32 loadbang;
#X obj 201 14 inlet~;
#X obj 378 9 tgl 15 0 empty empty empty 17 7 0 10 -262144 -1 -1 0 1
;
#X obj 580 178 metro 200;
#X obj 564 9 tgl 15 0 empty empty empty 17 7 0 10 -262144 -1 -1 0 1
;
#X obj 378 254 metro 100;
#X floatatom 501 349 5 0 0 0 - - -;
#X obj 505 -5 inlet;
#X obj 213 577 *~;
#X obj 279 556 line~;
#X obj 564 520 tgl 15 0 empty \$0-start_ambient empty 17 7 0 10 -262144
-1 -1 0 1;
#X text 584 520 start;
#X obj 279 535 pack f 1000;
#X obj 606 89 f;
#X obj 594 35 t b f;
#X obj 706 53 delay 200;
#X floatatom 609 127 5 0 0 0 - - -;
#X obj 594 3 inlet volume;
#X floatatom 596 275 5 0 0 0 - - -;
#X obj 671 203 inlet speed;
#X obj 571 209 random 100;
#X obj 564 240 + 200;
#N canvas 860 291 450 481 opacity 0;
#X obj 221 67 bng 15 250 50 0 empty empty empty 17 7 0 10 -262144 -1
-1;
#X obj 130 271 bng 15 250 50 0 empty empty empty 17 7 0 10 -262144
-1 -1;
#X obj 119 71 bng 15 250 50 0 empty empty empty 17 7 0 10 -262144 -1
-1;
#X obj 130 224 spigot;
#X obj 178 148 i;
#X obj 207 148 + 1;
#X msg 193 115 0;
#X obj 248 148 i;
#X obj 277 148 + 1;
#X msg 263 115 0;
#X obj 250 270 bng 15 250 50 0 empty empty empty 17 7 0 10 -262144
-1 -1;
#X obj 250 224 spigot;
#X obj 107 29 inlet;
#X obj 218 27 inlet;
#X obj 178 184 == 5;
#X obj 248 184 == 5;
#X msg 129 309 0;
#X msg 253 309 1;
#X obj 186 392 line~;
#X obj 187 426 outlet~;
#X obj 186 358 pack f 100;
#X connect 0 0 6 0;
#X connect 0 0 7 0;
#X connect 0 0 11 0;
#X connect 1 0 16 0;
#X connect 2 0 4 0;
#X connect 2 0 3 0;
#X connect 2 0 9 0;
#X connect 3 0 1 0;
#X connect 4 0 5 0;
#X connect 4 0 14 0;
#X connect 5 0 4 1;
#X connect 6 0 4 1;
#X connect 7 0 8 0;
#X connect 7 0 15 0;
#X connect 8 0 7 1;
#X connect 9 0 7 1;
#X connect 10 0 17 0;
#X connect 11 0 10 0;
#X connect 12 0 2 0;
#X connect 13 0 0 0;
#X connect 14 0 3 1;
#X connect 15 0 11 1;
#X connect 16 0 20 0;
#X connect 17 0 20 0;
#X connect 18 0 19 0;
#X connect 20 0 18 0;
#X restore 306 145 pd opacity;
#X obj 409 296 random 2;
#N canvas 860 291 450 481 opacity 0;
#X msg 129 309 0;
#X msg 253 309 1;
#X obj 186 358 pack f 10;
#X obj 186 392 line~;
#X obj 187 426 outlet~;
#X obj 170 102 inlet;
#X obj 171 174 sel 0 1;
#X connect 0 0 2 0;
#X connect 1 0 2 0;
#X connect 2 0 3 0;
#X connect 3 0 4 0;
#X connect 5 0 6 0;
#X connect 6 0 0 0;
#X connect 6 1 1 0;
#X restore 361 332 pd opacity;
#X connect 0 0 1 0;
#X connect 1 0 5 0;
#X connect 2 0 28 0;
#X connect 2 1 28 1;
#X connect 3 0 14 0;
#X connect 5 0 2 0;
#X connect 6 0 21 0;
#X connect 7 0 0 0;
#X connect 7 0 3 0;
#X connect 8 0 11 0;
#X connect 9 0 26 0;
#X connect 10 0 9 0;
#X connect 10 0 16 0;
#X connect 11 0 29 0;
#X connect 13 0 10 0;
#X connect 13 0 8 0;
#X connect 14 0 4 0;
#X connect 15 0 14 1;
#X connect 16 0 18 0;
#X connect 18 0 15 0;
#X connect 19 0 5 1;
#X connect 19 0 22 0;
#X connect 20 0 19 0;
#X connect 20 1 19 1;
#X connect 21 0 19 0;
#X connect 23 0 20 0;
#X connect 25 0 27 1;
#X connect 26 0 27 0;
#X connect 27 0 11 1;
#X connect 27 0 12 0;
#X connect 27 0 24 0;
#X connect 28 0 3 1;
#X connect 29 0 30 0;
#X restore 465 209 pd ambient;
#X obj 101 101 cnv 15 268 138 empty empty empty 20 12 0 14 -203773
-66577 0;
#X obj 483 132 tgl 15 0 empty \$0-start_ambient start 17 7 0 10 -262144
-1 -1 0 1;
#X obj 117 124 tgl 20 0 \$0-start_ambient empty play 0 -10 0 15 -249600
-1 -1 0 1;
#X msg 162 66 70;
#X obj 207 36 loadbang;
#X obj 196 124 hsl 128 20 10 1000 0 0 empty empty Time -2 -8 0 15 -249600
-1 -1 5700 1;
#X obj 118 209 nbx 3 20 -1e+037 1e+037 0 0 \$0-volume_in empty opacity
0 -8 0 15 -249600 -1 -1 73.9 256;
#X floatatom 503 178 5 0 0 0 - #0-volume_in -;
#X obj 201 209 nbx 6 20 -1e+037 1e+037 0 0 empty \$0-frq frequency
0 -8 0 15 -249600 -1 -1 0 256;
#X obj 417 159 r~ \$0-mono;
#X msg 248 70 100;
#X obj 117 164 bng 20 250 50 0 \$0-open empty open 0 -10 0 15 -249600
-1 -1;
#X obj 569 118 rcrd;
#X obj 318 211 tgl 20 0 empty empty rcrd -5 -10 0 15 -249600 -1 -1
0 1;
#X obj 196 164 hsl 128 20 0 1 0 0 empty empty Mix -2 -8 0 15 -249600
-1 -1 12700 1;
#X obj 436 294 swap 1;
#X obj 436 333 -;
#X obj 436 366 pack f 50;
#X obj 436 400 line~;
#X obj 536 366 pack f 50;
#X obj 536 400 line~;
#X obj 455 490 rpole~;
#X obj 420 442 *~;
#X obj 521 442 *~;
#X obj 494 522 s~ record;
#X obj 283 377 bng 15 250 50 0 empty empty empty 17 7 0 10 -262144
-1 -1;
#X obj 295 299 tgl 15 0 empty \$0-start_ambient start 17 7 0 10 -262144
-1 -1 0 1;
#X obj 295 327 sel 0;
#N canvas 633 129 615 603 mono 0;
#X obj 29 392 bng 15 250 50 0 empty empty empty 17 7 0 10 -262144 -1
-1;
#N canvas 714 366 779 409 test_mono 0;
#X obj 188 167 soundfiler;
#X floatatom 228 192 10 0 0 0 - - -;
#X obj 187 217 expr 44100/ $f1;
#X obj 187 289 *~;
#X obj 187 268 phasor~;
#N canvas 0 50 450 250 (subpatch) 0;
#X array sample_test 1.40538e+006 float 2;
#X coords 0 1 1.40538e+006 -1 200 140 1 0 0;
#X restore 503 33 graph;
#X msg 135 204 0;
#X msg 141 169 0;
#X obj 185 368 outlet~;
#X obj 115 29 inlet;
#X obj 192 2 inlet;
#X obj 91 251 pack f 1000;
#X obj 92 279 line~;
#X msg 92 217 0;
#X obj 186 335 *~;
#X msg 23 216 1;
#X obj 23 237 pack f 50;
#X obj 133 91 bng 15 250 50 0 empty empty empty 17 7 0 10 -262144 -1
-1;
#X floatatom 267 262 5 0 0 0 - - size;
#X obj 186 314 tabread4~ sample_test;
#X obj 188 89 openpanel;
#X obj 187 59 bng 15 250 50 0 empty empty empty 17 7 0 10 -262144 -1
-1;
#X msg 337 244 read \$1.wav sample_test;
#X obj 188 115 pack s \$0;
#X msg 188 140 read -resize \$1 sample_test;
#X obj 253 27 inlet play;
#X obj 187 29 t a b b;
#X obj 281 72 t b b;
#X obj 346 38 bng 15 250 50 0 empty empty empty 17 7 0 10 -262144 -1
-1;
#X msg 408 163 1;
#X connect 0 0 1 0;
#X connect 0 0 2 0;
#X connect 1 0 3 1;
#X connect 2 0 4 0;
#X connect 2 0 18 0;
#X connect 3 0 19 0;
#X connect 4 0 3 0;
#X connect 6 0 4 1;
#X connect 7 0 4 0;
#X connect 9 0 17 0;
#X connect 10 0 26 0;
#X connect 11 0 12 0;
#X connect 12 0 14 1;
#X connect 13 0 11 0;
#X connect 14 0 8 0;
#X connect 15 0 16 0;
#X connect 16 0 12 0;
#X connect 17 0 13 0;
#X connect 19 0 14 0;
#X connect 20 0 23 0;
#X connect 21 0 20 0;
#X connect 23 0 24 0;
#X connect 24 0 0 0;
#X connect 25 0 28 0;
#X connect 26 0 21 0;
#X connect 27 0 15 0;
#X connect 27 1 29 0;
#X connect 28 0 27 0;
#X connect 29 0 4 1;
#X restore 29 448 pd test_mono;
#X obj 29 485 outlet~;
#X obj 29 367 inlet stop_mono;
#X obj 98 337 inlet open;
#X obj 180 382 inlet play;
#X connect 0 0 1 0;
#X connect 1 0 2 0;
#X connect 3 0 0 0;
#X connect 4 0 1 1;
#X connect 5 0 1 2;
#X restore 283 404 pd mono;
#X obj 284 434 s~ \$0-mono;
#X obj 305 374 bng 15 250 50 0 empty \$0-open empty 17 7 0 10 -262144
-1 -1;
#X obj 337 368 bng 15 250 50 0 empty empty empty 17 7 0 10 -262144
-1 -1;
#X msg 282 68 0.9;
#X obj 403 514 dac~;
#X obj 710 146 metro 100;
#X obj 700 7 tgl 15 0 empty empty empty 17 7 0 10 -262144 -1 -1 1 1
;
#X obj 758 47 metro 100;
#X obj 760 229 / 10;
#X obj 841 115 + 80;
#X obj 786 84 random 80;
#X obj 758 186 random 100;
#X obj 752 269 + 70;
#X connect 0 0 24 0;
#X connect 2 0 0 1;
#X connect 4 0 7 0;
#X connect 5 0 4 0;
#X connect 5 0 11 0;
#X connect 5 0 33 0;
#X connect 6 0 0 3;
#X connect 8 0 0 2;
#X connect 10 0 0 0;
#X connect 11 0 6 0;
#X connect 14 0 13 0;
#X connect 15 0 16 0;
#X connect 15 0 20 0;
#X connect 16 0 17 0;
#X connect 16 1 17 1;
#X connect 17 0 18 0;
#X connect 18 0 19 0;
#X connect 19 0 23 1;
#X connect 20 0 21 0;
#X connect 21 0 24 1;
#X connect 22 0 25 0;
#X connect 22 0 34 1;
#X connect 23 0 22 0;
#X connect 24 0 22 0;
#X connect 26 0 29 0;
#X connect 27 0 28 0;
#X connect 28 0 26 0;
#X connect 28 1 32 0;
#X connect 29 0 30 0;
#X connect 29 0 23 0;
#X connect 31 0 29 1;
#X connect 32 0 29 2;
#X connect 33 0 15 0;
#X connect 35 0 41 0;
#X connect 36 0 35 0;
#X connect 36 0 37 0;
#X connect 37 0 40 0;
#X connect 38 0 42 0;
#X connect 39 0 35 1;
#X connect 40 0 39 0;
#X connect 41 0 38 0;
#X connect 42 0 7 0;
#X coords 0 -1 1 1 270 140 1 100 100;
