#N canvas 0 0 1906 988 24;
#X floatatom 51 -160 5 0 0 0 - - -;
#X floatatom 441 44 5 0 0 0 - - -;
#X floatatom 925 41 5 0 0 0 - - -;
#X floatatom 674 42 5 0 0 0 - - -;
#X floatatom 1159 39 5 0 0 0 - - -;
#X obj 51 -113 sel 0;
#X msg 51 330 0;
#X obj 194 25 f;
#X obj 192 -11 delay 10;
#X msg 128 330 1;
#X obj 441 134 *;
#X obj 441 98 t b f;
#X floatatom 441 174 5 0 0 0 - - -;
#X obj 674 135 *;
#X obj 674 99 t b f;
#X floatatom 674 176 5 0 0 0 - - -;
#X obj 1149 126 *;
#X obj 1159 90 t b f;
#X floatatom 1149 167 5 0 0 0 - - -;
#X obj 194 62 / 127;
#X obj 925 135 *;
#X obj 925 99 t b f;
#X floatatom 925 176 5 0 0 0 - - -;
#X obj 516 522 line~;
#X obj 515 578 outlet~;
#X floatatom 194 110 5 0 0 0 - - -;
#X obj 288 407 pack f f;
#X obj 587 356 spigot 0;
#X obj 417 279 delay 10;
#X obj 587 407 pack f f;
#X obj 587 305 f;
#X obj 1064 356 pack f f;
#X obj 288 253 t f b;
#X obj 128 -87 t b b b f;
#X msg 160 407 0 10;
#X msg 725 -132 0.8;
#X msg 503 -132 1000;
#X obj 693 -190 loadbang;
#X obj 503 -97 s duration;
#X obj 626 -97 s attack;
#X obj 725 -97 s decay;
#X obj 924 -97 s release;
#X msg 626 -132 0.1;
#X msg 814 -132 0.5;
#X msg 924 -132 0.1;
#X obj 814 -97 s sustain;
#X obj 320 108 r duration;
#X obj 550 109 r duration;
#X obj 1028 100 r duration;
#X obj 334 18 r attack;
#X obj 581 16 r decay;
#X obj 809 15 r sustain;
#X obj 1060 14 r release;
#X text 456 -30 attack;
#X text 691 -32 decay;
#X text 934 -30 sustain;
#X text 1168 -30 release;
#X obj 51 -235 inlet;
#X text 42 -267 velocity;
#X obj 441 -4 r CC24-10;
#X obj 674 -4 r CC25-10;
#X obj 925 -4 r CC26-10;
#X obj 1159 -4 r CC27-10;
#X obj 693 -229 bng 25 250 50 0 empty empty empty 17 7 0 10 -262144
-1 -1;
#X text 680 -257 reset;
#X obj 69 281 bng 15 250 50 0 empty empty empty 17 7 0 10 -262144 -1
-1;
#X obj 69 232 r off1;
#X obj 1273 13 r rmidi1;
#X obj 361 -54 r amidi1;
#X connect 0 0 5 0;
#X connect 1 0 11 0;
#X connect 2 0 21 0;
#X connect 3 0 14 0;
#X connect 4 0 17 0;
#X connect 5 0 6 0;
#X connect 5 1 33 0;
#X connect 6 0 27 1;
#X connect 6 0 31 0;
#X connect 7 0 19 0;
#X connect 8 0 7 0;
#X connect 9 0 27 1;
#X connect 10 0 12 0;
#X connect 11 0 10 0;
#X connect 11 1 10 1;
#X connect 12 0 28 1;
#X connect 12 0 26 1;
#X connect 13 0 15 0;
#X connect 14 0 13 0;
#X connect 14 1 13 1;
#X connect 15 0 29 1;
#X connect 16 0 18 0;
#X connect 17 0 16 0;
#X connect 17 1 16 1;
#X connect 18 0 31 1;
#X connect 19 0 25 0;
#X connect 20 0 22 0;
#X connect 21 0 20 0;
#X connect 21 1 20 1;
#X connect 22 0 30 1;
#X connect 23 0 24 0;
#X connect 25 0 20 0;
#X connect 25 0 32 0;
#X connect 26 0 23 0;
#X connect 27 0 29 0;
#X connect 28 0 30 0;
#X connect 29 0 23 0;
#X connect 30 0 27 0;
#X connect 31 0 23 0;
#X connect 32 0 26 0;
#X connect 32 1 28 0;
#X connect 33 0 9 0;
#X connect 33 1 34 0;
#X connect 33 2 8 0;
#X connect 33 3 7 1;
#X connect 34 0 23 0;
#X connect 35 0 40 0;
#X connect 36 0 38 0;
#X connect 37 0 35 0;
#X connect 37 0 42 0;
#X connect 37 0 36 0;
#X connect 37 0 43 0;
#X connect 37 0 44 0;
#X connect 42 0 39 0;
#X connect 43 0 45 0;
#X connect 44 0 41 0;
#X connect 46 0 10 0;
#X connect 47 0 13 0;
#X connect 47 0 15 0;
#X connect 48 0 16 0;
#X connect 49 0 1 0;
#X connect 50 0 3 0;
#X connect 51 0 2 0;
#X connect 52 0 4 0;
#X connect 57 0 0 0;
#X connect 59 0 1 0;
#X connect 60 0 3 0;
#X connect 61 0 2 0;
#X connect 62 0 4 0;
#X connect 63 0 37 0;
#X connect 65 0 6 0;
#X connect 66 0 65 0;
#X connect 67 0 4 0;
#X connect 68 0 1 0;
