#N canvas 0 0 1906 988 10;
#X obj 101 101 cnv 15 228 258 empty empty MakeNote2 20 25 0 14 -54607
-262144 0;
#X obj 119 175 hsl 100 15 0 16 0 0 \$0-wide-s empty Wide 17 7 0 10
-146596 -1 -1 0 0;
#X obj 288 124 tgl 20 0 empty empty Play 5 -5 0 10 -146596 -1 -262144
0 1;
#X obj 119 145 hsl 100 15 0 18 0 0 \$0-note-s empty Note 17 7 0 10
-146596 -1 -1 0 0;
#X obj 119 205 hsl 100 15 0 100 0 0 \$0-moses empty Largo/Presto 17
7 0 10 -244604 -1 -1 0 0;
#X obj 119 268 hsl 100 15 2000 500 0 0 \$0-ld empty Largo_Duration
5 7 0 10 -253867 -1 -1 0 0;
#X obj 221 175 nbx 4 15 -1e+037 1e+037 0 0 empty empty empty 0 -8 0
10 -146596 -1 -1 0 256;
#X obj 221 206 nbx 4 15 -1e+037 1e+037 0 0 empty \$0-moses empty 0
-8 0 10 -244604 -1 -1 0 256;
#X obj 221 269 nbx 4 15 -1e+037 1e+037 0 0 empty \$0-ld empty 0 -8
0 10 -253867 -1 -1 2000 256;
#X floatatom 569 458 5 0 0 0 - - -;
#X obj 288 163 bng 20 250 50 0 empty empty Reset -3 -5 0 10 -257985
-1 -262144;
#X msg 116 49 500;
#X obj 119 237 hsl 100 15 0 2000 0 0 \$0-lw empty Largo_Wide 5 7 0
10 -253867 -1 -1 0 0;
#X obj 221 238 nbx 4 15 -1e+037 1e+037 0 0 empty \$0-lw empty 0 -8
0 10 -253867 -1 -1 0 256;
#X obj 600 267 bng 15 250 50 0 empty empty empty 17 7 0 10 -262144
-1 -1;
#X obj 710 251 bng 15 250 50 0 empty empty empty 17 7 0 10 -262144
-1 -1;
#X obj 600 234 moses;
#X obj 600 371 +;
#X obj 600 190 random 100;
#X obj 669 148 + 0.2;
#X obj 669 178 i;
#X floatatom 669 208 5 0 0 0 - - -;
#X obj 710 384 +;
#X obj 710 312 random;
#X obj 600 312 random 100;
#X obj 743 286 r \$0-lw;
#X obj 725 355 r \$0-ld;
#X floatatom 600 401 5 0 0 0 - - -;
#X floatatom 482 262 5 0 0 0 - - -;
#N canvas 0 0 1906 978 Makenote 0;
#X floatatom 1148 364 5 0 0 0 - - -;
#X obj 1133 540 -;
#X obj 1148 506 i;
#X obj 1133 566 i;
#X obj 1148 484 / 2;
#X obj 1071 493 +;
#X obj 395 605 + 3;
#X obj 1148 277 r \$0-wide-s;
#X obj 1148 307 + 0.2;
#X obj 1148 337 i;
#X obj 1086 433 + 0.2;
#X obj 1086 463 i;
#X obj 1086 403 r \$0-note-s;
#X obj 1071 380 random;
#X floatatom 343 589 5 0 0 0 - - -;
#X obj 343 553 inlet;
#X obj 1071 346 inlet;
#X obj 355 605 + 2;
#X obj 435 605 + 5;
#X obj 505 605 + 6;
#X obj 545 605 + 8;
#X obj 585 605 + 9;
#X obj 625 605 + 11;
#X obj 665 605 + 12;
#X obj 705 605 + 14;
#X obj 745 605 + 15;
#X obj 785 605 + 17;
#X obj 825 605 + 18;
#X obj 865 605 + 20;
#X obj 905 605 + 21;
#X obj 945 605 + 23;
#X obj 328 622 i;
#X obj 358 622 i;
#X obj 388 622 i;
#X obj 418 622 i;
#X obj 448 622 i;
#X obj 478 622 i;
#X obj 508 622 i;
#X obj 538 622 i;
#X obj 568 622 i;
#X obj 598 622 i;
#X obj 628 622 i;
#X obj 658 622 i;
#X obj 688 622 i;
#X obj 718 622 i;
#X obj 748 622 i;
#X obj 778 622 i;
#X obj 808 622 i;
#X floatatom 325 639 5 0 0 0 - - -;
#X floatatom 365 639 5 0 0 0 - - -;
#X floatatom 405 639 5 0 0 0 - - -;
#X floatatom 445 639 5 0 0 0 - - -;
#X floatatom 515 639 5 0 0 0 - - -;
#X floatatom 555 639 5 0 0 0 - - -;
#X floatatom 595 639 5 0 0 0 - - -;
#X floatatom 635 639 5 0 0 0 - - -;
#X floatatom 675 639 5 0 0 0 - - -;
#X floatatom 715 639 5 0 0 0 - - -;
#X floatatom 755 639 5 0 0 0 - - -;
#X floatatom 795 639 5 0 0 0 - - -;
#X floatatom 835 639 5 0 0 0 - - -;
#X floatatom 875 639 5 0 0 0 - - -;
#X floatatom 915 639 5 0 0 0 - - -;
#X floatatom 955 639 5 0 0 0 - - -;
#X obj 478 655 outlet;
#X obj 729 655 notoname;
#X symbolatom 729 679 10 0 0 0 - - #0-notoname;
#X obj 985 605 + 24;
#X floatatom 1106 493 5 0 0 0 - - #0-notein;
#X floatatom 281 639 5 0 0 0 - - -;
#X obj 1025 605 + 26;
#X obj 1064 605 + 27;
#X obj 838 622 i;
#X obj 868 622 i;
#X floatatom 995 639 5 0 0 0 - - -;
#X floatatom 1035 639 5 0 0 0 - - -;
#X obj 1133 605 sel 0 1 2 3 4 5 6 7 8 9 10 11 12 13 14 15 16 17 18
;
#X connect 0 0 4 0;
#X connect 0 0 13 1;
#X connect 1 0 3 0;
#X connect 2 0 1 1;
#X connect 3 0 76 0;
#X connect 4 0 2 0;
#X connect 5 0 1 0;
#X connect 6 0 33 1;
#X connect 7 0 8 0;
#X connect 8 0 9 0;
#X connect 9 0 0 0;
#X connect 10 0 11 0;
#X connect 11 0 5 1;
#X connect 11 0 68 0;
#X connect 12 0 10 0;
#X connect 13 0 5 0;
#X connect 14 0 6 0;
#X connect 14 0 17 0;
#X connect 14 0 18 0;
#X connect 14 0 19 0;
#X connect 14 0 20 0;
#X connect 14 0 21 0;
#X connect 14 0 22 0;
#X connect 14 0 23 0;
#X connect 14 0 24 0;
#X connect 14 0 25 0;
#X connect 14 0 26 0;
#X connect 14 0 27 0;
#X connect 14 0 28 0;
#X connect 14 0 29 0;
#X connect 14 0 30 0;
#X connect 14 0 67 0;
#X connect 14 0 31 1;
#X connect 14 0 70 0;
#X connect 14 0 71 0;
#X connect 15 0 14 0;
#X connect 16 0 13 0;
#X connect 17 0 32 1;
#X connect 18 0 34 1;
#X connect 19 0 35 1;
#X connect 20 0 36 1;
#X connect 21 0 37 1;
#X connect 22 0 38 1;
#X connect 23 0 39 1;
#X connect 24 0 40 1;
#X connect 25 0 41 1;
#X connect 26 0 42 1;
#X connect 27 0 43 1;
#X connect 28 0 44 1;
#X connect 29 0 45 1;
#X connect 30 0 46 1;
#X connect 31 0 69 0;
#X connect 32 0 48 0;
#X connect 33 0 49 0;
#X connect 34 0 50 0;
#X connect 35 0 51 0;
#X connect 36 0 52 0;
#X connect 37 0 53 0;
#X connect 38 0 54 0;
#X connect 39 0 55 0;
#X connect 40 0 56 0;
#X connect 41 0 57 0;
#X connect 42 0 58 0;
#X connect 43 0 59 0;
#X connect 44 0 60 0;
#X connect 45 0 61 0;
#X connect 46 0 62 0;
#X connect 47 0 63 0;
#X connect 48 0 64 0;
#X connect 48 0 65 0;
#X connect 49 0 64 0;
#X connect 49 0 65 0;
#X connect 50 0 64 0;
#X connect 50 0 65 0;
#X connect 51 0 64 0;
#X connect 51 0 65 0;
#X connect 52 0 64 0;
#X connect 52 0 65 0;
#X connect 53 0 64 0;
#X connect 53 0 65 0;
#X connect 54 0 64 0;
#X connect 54 0 65 0;
#X connect 55 0 64 0;
#X connect 55 0 65 0;
#X connect 56 0 64 0;
#X connect 56 0 65 0;
#X connect 57 0 64 0;
#X connect 57 0 65 0;
#X connect 58 0 64 0;
#X connect 58 0 65 0;
#X connect 59 0 64 0;
#X connect 59 0 65 0;
#X connect 60 0 64 0;
#X connect 60 0 65 0;
#X connect 61 0 64 0;
#X connect 61 0 65 0;
#X connect 62 0 64 0;
#X connect 62 0 65 0;
#X connect 63 0 64 0;
#X connect 63 0 65 0;
#X connect 65 0 66 0;
#X connect 67 0 47 1;
#X connect 69 0 64 0;
#X connect 69 0 65 0;
#X connect 70 0 72 1;
#X connect 71 0 73 1;
#X connect 72 0 74 0;
#X connect 73 0 75 0;
#X connect 74 0 65 0;
#X connect 74 0 64 0;
#X connect 75 0 65 0;
#X connect 75 0 64 0;
#X connect 76 0 31 0;
#X connect 76 1 32 0;
#X connect 76 2 33 0;
#X connect 76 3 34 0;
#X connect 76 4 35 0;
#X connect 76 5 36 0;
#X connect 76 6 37 0;
#X connect 76 7 38 0;
#X connect 76 8 39 0;
#X connect 76 9 40 0;
#X connect 76 10 41 0;
#X connect 76 11 42 0;
#X connect 76 12 43 0;
#X connect 76 13 44 0;
#X connect 76 14 45 0;
#X connect 76 15 46 0;
#X connect 76 16 47 0;
#X connect 76 17 72 0;
#X connect 76 18 73 0;
#X restore 434 225 pd Makenote;
#X floatatom 516 368 5 0 0 0 - - -;
#X obj 669 122 r \$0-moses;
#X obj 376 143 sel 1;
#X obj 376 170 bng 15 250 50 0 empty empty empty 17 7 0 10 -262144
-1 -1;
#X obj 403 171 bng 15 250 50 0 empty empty empty 17 7 0 10 -262144
-1 -1;
#X msg 376 568 1;
#X obj 624 519 bng 15 250 50 0 empty empty empty 17 7 0 10 -262144
-1 -1;
#X obj 624 552 i;
#X floatatom 624 616 5 0 0 0 - - -;
#X obj 624 585 +;
#X obj 623 484 sel 0;
#X obj 624 653 sel 1;
#X msg 403 568 2;
#X obj 279 205 nbx 2 20 -1e+037 1e+037 0 0 empty empty Note 5 -5 0
15 -146596 -1 -262144 41 256;
#X msg 116 73 2000;
#X obj 624 750 bng 15 250 50 0 \$0-makenote empty empty 17 7 0 10 -262144
-1 -1;
#X obj 624 716 delay 50;
#X obj 624 687 bng 15 250 50 0 empty empty empty 17 7 0 10 -262144
-1 -1;
#X obj 482 417 makenote 0 0;
#X obj 482 474 stripnote;
#X floatatom 482 503 5 0 0 0 - - -;
#X obj 497 148 bng 15 250 50 0 empty \$0-makenote empty 17 7 0 10 -262144
-1 -1;
#X obj 497 173 t b b b;
#X obj 657 534 s off1;
#X obj 569 485 s vel1;
#X obj 482 530 s note1;
#X obj 516 310 random 15;
#X obj 516 338 + 5;
#X obj 491 450 noteout 5;
#X obj 119 328 hsl 100 15 500 100 0 0 \$0-pd empty Presto_Duration
5 7 0 10 -183931 -1 -1 0 0;
#X obj 221 329 nbx 4 15 -1e+037 1e+037 0 0 empty \$0-pd empty 0 -8
0 10 -183931 -1 -1 500 256;
#X obj 119 297 hsl 100 15 0 500 0 0 \$0-pw empty Presto_Wide 5 7 0
10 -183931 -1 -1 0 0;
#X obj 221 298 nbx 4 15 -1e+037 1e+037 0 0 empty \$0-pw empty 0 -8
0 10 -183931 -1 -1 0 256;
#X obj 657 282 r \$0-pw;
#X obj 615 344 r \$0-pd;
#X obj 116 -11 loadbang;
#X msg 116 24 0;
#X obj 334 226 notoname;
#X symbolatom 282 244 5 0 0 0 - - -;
#X msg 279 6 41;
#X obj 221 145 nbx 4 15 -1e+037 1e+037 0 0 empty \$0-notein empty 0
-8 0 10 -146596 -1 -1 0 256;
#X connect 1 0 6 0;
#X connect 2 0 32 0;
#X connect 9 0 40 0;
#X connect 9 0 49 1;
#X connect 9 0 54 0;
#X connect 10 0 65 0;
#X connect 11 0 59 0;
#X connect 14 0 24 0;
#X connect 15 0 23 0;
#X connect 16 0 14 0;
#X connect 16 1 15 0;
#X connect 17 0 27 0;
#X connect 18 0 16 0;
#X connect 19 0 20 0;
#X connect 20 0 21 0;
#X connect 21 0 16 1;
#X connect 22 0 27 0;
#X connect 23 0 22 0;
#X connect 24 0 17 0;
#X connect 25 0 23 1;
#X connect 26 0 22 1;
#X connect 27 0 48 2;
#X connect 28 0 48 0;
#X connect 29 0 28 0;
#X connect 30 0 48 1;
#X connect 31 0 19 0;
#X connect 32 0 33 0;
#X connect 32 1 34 0;
#X connect 33 0 35 0;
#X connect 33 0 51 0;
#X connect 34 0 42 0;
#X connect 35 0 39 1;
#X connect 36 0 37 0;
#X connect 36 0 53 0;
#X connect 37 0 39 0;
#X connect 38 0 41 0;
#X connect 39 0 38 0;
#X connect 40 0 36 0;
#X connect 41 0 47 0;
#X connect 42 0 39 1;
#X connect 43 0 29 0;
#X connect 43 0 67 0;
#X connect 44 0 5 0;
#X connect 46 0 45 0;
#X connect 47 0 46 0;
#X connect 48 0 49 0;
#X connect 48 0 58 0;
#X connect 48 1 9 0;
#X connect 48 1 58 1;
#X connect 49 0 50 0;
#X connect 50 0 55 0;
#X connect 51 0 52 0;
#X connect 52 0 29 1;
#X connect 52 1 56 0;
#X connect 52 2 18 0;
#X connect 56 0 57 0;
#X connect 57 0 30 0;
#X connect 63 0 24 1;
#X connect 64 0 17 1;
#X connect 65 0 66 0;
#X connect 65 0 11 0;
#X connect 65 0 44 0;
#X connect 65 0 69 0;
#X connect 66 0 1 0;
#X connect 66 0 12 0;
#X connect 66 0 61 0;
#X connect 66 0 3 0;
#X connect 66 0 4 0;
#X connect 67 0 68 0;
#X connect 69 0 43 0;
#X coords 0 -1 1 1 230 260 1 100 100;
