#N canvas 526 137 1109 520 10;
#X obj 932 341 rcrd;
#X obj 461 426 dac~;
#X msg 942 295 \; pd dsp 1 \;;
#X obj 942 267 loadbang;
#X obj 741 426 s~ dirty;
#X obj 106 426 s~ clean;
#X obj 74 75 clean;
#X obj 475 75 dirty;
#X connect 3 0 2 0;
#X connect 6 0 1 0;
#X connect 6 0 1 1;
#X connect 6 0 5 0;
#X connect 7 0 1 0;
#X connect 7 0 1 1;
#X connect 7 0 4 0;
