#N canvas 173 17 914 750 12;
#X msg 81 273 s;
#X msg 712 117 set;
#X obj 607 171 t b a;
#X msg 607 203 d s d s;
#X msg 672 117 add2;
#N canvas 0 50 450 300 prepent 0;
#X obj 112 148 list prepend \$1;
#X obj 112 172 list trim;
#X obj 112 196 outlet;
#X obj 112 111 inlet;
#X obj 214 110 inlet;
#X connect 0 0 1 0;
#X connect 1 0 2 0;
#X connect 3 0 0 0;
#X connect 4 0 0 1;
#X restore 607 143 pd prepent;
#X msg 111 273 o;
#X msg 141 273 m;
#X msg 171 273 e;
#X msg 211 273 o;
#X msg 241 273 n;
#X msg 271 273 e;
#X msg 311 273 i;
#X msg 341 273 s;
#X msg 381 273 c;
#X msg 411 273 a;
#X msg 441 273 l;
#X msg 471 273 l;
#X msg 501 273 i;
#X msg 531 273 n;
#X msg 561 273 g;
#X obj 81 310 bng 15 250 50 0 empty empty empty 17 7 0 10 #fcfcfc #000000 #000000;
#X obj 111 310 bng 15 250 50 0 empty empty empty 17 7 0 10 #fcfcfc #000000 #000000;
#X obj 141 310 bng 15 250 50 0 empty empty empty 17 7 0 10 #fcfcfc #000000 #000000;
#X obj 171 310 bng 15 250 50 0 empty empty empty 17 7 0 10 #fcfcfc #000000 #000000;
#X obj 211 310 bng 15 250 50 0 empty empty empty 17 7 0 10 #fcfcfc #000000 #000000;
#X obj 241 310 bng 15 250 50 0 empty empty empty 17 7 0 10 #fcfcfc #000000 #000000;
#X obj 271 310 bng 15 250 50 0 empty empty empty 17 7 0 10 #fcfcfc #000000 #000000;
#X obj 311 310 bng 15 250 50 0 empty empty empty 17 7 0 10 #fcfcfc #000000 #000000;
#X obj 341 310 bng 15 250 50 0 empty empty empty 17 7 0 10 #fcfcfc #000000 #000000;
#X obj 381 310 bng 15 250 50 0 empty empty empty 17 7 0 10 #fcfcfc #000000 #000000;
#X obj 411 310 bng 15 250 50 0 empty empty empty 17 7 0 10 #fcfcfc #000000 #000000;
#X obj 441 310 bng 15 250 50 0 empty empty empty 17 7 0 10 #fcfcfc #000000 #000000;
#X obj 471 310 bng 15 250 50 0 empty empty empty 17 7 0 10 #fcfcfc #000000 #000000;
#X obj 501 310 bng 15 250 50 0 empty empty empty 17 7 0 10 #fcfcfc #000000 #000000;
#X obj 531 310 bng 15 250 50 0 empty empty empty 17 7 0 10 #fcfcfc #000000 #000000;
#X obj 561 310 bng 15 250 50 0 empty empty empty 17 7 0 10 #fcfcfc #000000 #000000;
#X obj 409 602 *~;
#X obj 409 680 dac~;
#X obj 492 533 pack f 10;
#X obj 492 557 line~;
#X obj 492 502 tgl 15 0 empty morse empty 17 7 0 10 #fcfcfc #000000 #000000 0 1;
#N canvas 0 50 450 501 morse 0;
#X obj 76 155 + 1;
#X msg 45 76 1;
#X floatatom 46 203 5 0 0 0 - - - 0;
#X obj 46 155 i 1;
#X obj 46 234 sel 0;
#X msg 85 76 0;
#X obj 132 318 makenote 10 300;
#X obj 133 355 bng 15 250 50 0 empty empty empty 17 7 0 10 #fcfcfc #000000 #000000;
#X obj 127 231 sel 1 2 3 4;
#X obj 239 280 f;
#X obj 149 104 t f f;
#X obj 46 122 metro;
#X obj 46 19 inlet start;
#X floatatom 150 68 5 0 0 0 - tempo - 0;
#X obj 269 280 f;
#X obj 299 280 f;
#X obj 329 280 f;
#X obj 248 415 tgl 15 0 morse empty empty 17 7 0 10 #fcfcfc #000000 #000000 0 1;
#X obj 46 179 % 4;
#X floatatom 325 217 5 0 0 0 - - - 0;
#X obj 234 355 sel 0;
#X msg 277 390 1;
#X msg 212 390 0;
#X obj 276 170 * 2;
#X msg 229 45 180;
#X obj 236 146 expr $f1/3.5*2;
#X obj 46 333 outlet;
#X obj 44 298 delay;
#X obj 340 248 * 3;
#X connect 0 0 3 1;
#X connect 1 0 11 0;
#X connect 2 0 4 0;
#X connect 2 0 8 0;
#X connect 3 0 0 0;
#X connect 3 0 18 0;
#X connect 4 0 5 0;
#X connect 4 0 27 0;
#X connect 5 0 11 0;
#X connect 6 0 7 0;
#X connect 6 1 20 0;
#X connect 8 0 9 0;
#X connect 8 1 14 0;
#X connect 8 2 15 0;
#X connect 9 0 6 2;
#X connect 9 0 6 0;
#X connect 10 0 11 1;
#X connect 10 1 25 0;
#X connect 11 0 3 0;
#X connect 12 0 1 0;
#X connect 13 0 10 0;
#X connect 14 0 6 2;
#X connect 14 0 6 0;
#X connect 15 0 6 2;
#X connect 15 0 6 0;
#X connect 18 0 2 0;
#X connect 19 0 28 0;
#X connect 20 0 22 0;
#X connect 20 1 21 0;
#X connect 21 0 17 0;
#X connect 22 0 17 0;
#X connect 24 0 10 0;
#X connect 25 0 9 1;
#X connect 25 0 14 1;
#X connect 25 0 15 1;
#X connect 25 0 19 0;
#X connect 25 0 23 0;
#X connect 27 0 26 0;
#X connect 28 0 27 1;
#X restore 81 359 pd morse;
#X floatatom 205 125 5 0 0 0 - - tempo 0;
#X obj 205 61 loadbang;
#X obj 81 190 bng 30 250 50 0 empty empty empty 17 7 0 10 #fcfcfc #000000 #000000;
#X obj 111 230 bng 15 250 50 0 empty empty empty 17 7 0 10 #fcfcfc #000000 #000000;
#X obj 141 230 bng 15 250 50 0 empty empty empty 17 7 0 10 #fcfcfc #000000 #000000;
#X obj 171 230 bng 15 250 50 0 empty empty empty 17 7 0 10 #fcfcfc #000000 #000000;
#X obj 211 230 bng 15 250 50 0 empty empty empty 17 7 0 10 #fcfcfc #000000 #000000;
#X obj 241 230 bng 15 250 50 0 empty empty empty 17 7 0 10 #fcfcfc #000000 #000000;
#X obj 271 230 bng 15 250 50 0 empty empty empty 17 7 0 10 #fcfcfc #000000 #000000;
#X obj 311 230 bng 15 250 50 0 empty empty empty 17 7 0 10 #fcfcfc #000000 #000000;
#X obj 341 230 bng 15 250 50 0 empty empty empty 17 7 0 10 #fcfcfc #000000 #000000;
#X obj 381 230 bng 15 250 50 0 empty empty empty 17 7 0 10 #fcfcfc #000000 #000000;
#X obj 411 230 bng 15 250 50 0 empty empty empty 17 7 0 10 #fcfcfc #000000 #000000;
#X obj 441 230 bng 15 250 50 0 empty empty empty 17 7 0 10 #fcfcfc #000000 #000000;
#X obj 471 230 bng 15 250 50 0 empty empty empty 17 7 0 10 #fcfcfc #000000 #000000;
#X obj 501 230 bng 15 250 50 0 empty empty empty 17 7 0 10 #fcfcfc #000000 #000000;
#X obj 531 230 bng 15 250 50 0 empty empty empty 17 7 0 10 #fcfcfc #000000 #000000;
#X obj 561 230 bng 15 250 50 0 empty empty empty 17 7 0 10 #fcfcfc #000000 #000000;
#N canvas 777 169 450 501 morse 0;
#X obj 76 155 + 1;
#X msg 45 76 1;
#X floatatom 46 203 5 0 0 0 - - - 0;
#X obj 46 155 i 1;
#X obj 46 234 sel 0;
#X msg 85 76 0;
#X obj 132 318 makenote 10 300;
#X obj 133 355 bng 15 250 50 0 empty empty empty 17 7 0 10 #fcfcfc #000000 #000000;
#X obj 239 280 f;
#X obj 149 104 t f f;
#X obj 46 122 metro;
#X obj 46 19 inlet start;
#X floatatom 150 68 5 0 0 0 - tempo - 0;
#X obj 269 280 f;
#X obj 299 280 f;
#X obj 329 280 f;
#X obj 248 415 tgl 15 0 morse empty empty 17 7 0 10 #fcfcfc #000000 #000000 0 1;
#X floatatom 325 217 5 0 0 0 - - - 0;
#X obj 234 355 sel 0;
#X msg 277 390 1;
#X msg 212 390 0;
#X obj 276 170 * 2;
#X msg 229 45 180;
#X obj 236 146 expr $f1/3.5*2;
#X obj 46 333 outlet;
#X obj 44 298 delay;
#X obj 46 179 % 7;
#X obj 340 248 * 3;
#X obj 127 231 sel 1 2 3 4 5 6;
#X connect 0 0 3 1;
#X connect 1 0 10 0;
#X connect 2 0 4 0;
#X connect 2 0 28 0;
#X connect 3 0 0 0;
#X connect 3 0 26 0;
#X connect 4 0 5 0;
#X connect 4 0 25 0;
#X connect 5 0 10 0;
#X connect 6 0 7 0;
#X connect 6 1 18 0;
#X connect 8 0 6 2;
#X connect 8 0 6 0;
#X connect 9 0 10 1;
#X connect 9 1 23 0;
#X connect 10 0 3 0;
#X connect 11 0 1 0;
#X connect 12 0 9 0;
#X connect 13 0 6 2;
#X connect 13 0 6 0;
#X connect 14 0 6 2;
#X connect 14 0 6 0;
#X connect 17 0 27 0;
#X connect 18 0 20 0;
#X connect 18 1 19 0;
#X connect 19 0 16 0;
#X connect 20 0 16 0;
#X connect 21 0 8 1;
#X connect 22 0 9 0;
#X connect 23 0 17 0;
#X connect 23 0 21 0;
#X connect 25 0 24 0;
#X connect 26 0 2 0;
#X connect 27 0 25 1;
#X connect 28 0 8 0;
#X connect 28 2 8 0;
#X connect 28 4 8 0;
#X restore 111 339 pd morse;
#N canvas 777 169 450 501 morse 0;
#X obj 76 155 + 1;
#X msg 45 76 1;
#X floatatom 46 203 5 0 0 0 - - - 0;
#X obj 46 155 i 1;
#X obj 46 234 sel 0;
#X msg 85 76 0;
#X obj 132 318 makenote 10 300;
#X obj 133 355 bng 15 250 50 0 empty empty empty 17 7 0 10 #fcfcfc #000000 #000000;
#X obj 239 280 f;
#X obj 149 104 t f f;
#X obj 46 122 metro;
#X obj 46 19 inlet start;
#X floatatom 150 68 5 0 0 0 - tempo - 0;
#X obj 269 280 f;
#X obj 299 280 f;
#X obj 329 280 f;
#X obj 248 415 tgl 15 0 morse empty empty 17 7 0 10 #fcfcfc #000000 #000000 0 1;
#X floatatom 325 217 5 0 0 0 - - - 0;
#X obj 234 355 sel 0;
#X msg 277 390 1;
#X msg 212 390 0;
#X obj 276 170 * 2;
#X msg 229 45 180;
#X obj 236 146 expr $f1/3.5*2;
#X obj 46 333 outlet;
#X obj 44 298 delay;
#X obj 340 248 * 3;
#X obj 46 179 % 5;
#X obj 127 231 sel 1 2 3 4;
#X connect 0 0 3 1;
#X connect 1 0 10 0;
#X connect 2 0 4 0;
#X connect 2 0 28 0;
#X connect 3 0 0 0;
#X connect 3 0 27 0;
#X connect 4 0 5 0;
#X connect 4 0 25 0;
#X connect 5 0 10 0;
#X connect 6 0 7 0;
#X connect 6 1 18 0;
#X connect 8 0 6 2;
#X connect 8 0 6 0;
#X connect 9 0 10 1;
#X connect 9 1 23 0;
#X connect 10 0 3 0;
#X connect 11 0 1 0;
#X connect 12 0 9 0;
#X connect 13 0 6 2;
#X connect 13 0 6 0;
#X connect 14 0 6 2;
#X connect 14 0 6 0;
#X connect 17 0 26 0;
#X connect 18 0 20 0;
#X connect 18 1 19 0;
#X connect 19 0 16 0;
#X connect 20 0 16 0;
#X connect 21 0 8 1;
#X connect 22 0 9 0;
#X connect 23 0 17 0;
#X connect 23 0 21 0;
#X connect 25 0 24 0;
#X connect 26 0 25 1;
#X connect 27 0 2 0;
#X connect 28 0 8 0;
#X connect 28 2 8 0;
#X restore 141 379 pd morse;
#N canvas 777 169 584 501 morse 0;
#X obj 76 155 + 1;
#X msg 45 76 1;
#X floatatom 46 203 5 0 0 0 - - - 0;
#X obj 46 155 i 1;
#X obj 46 234 sel 0;
#X msg 85 76 0;
#X obj 132 318 makenote 10 300;
#X obj 133 355 bng 15 250 50 0 empty empty empty 17 7 0 10 #fcfcfc #000000 #000000;
#X obj 239 280 f;
#X obj 149 104 t f f;
#X obj 46 122 metro;
#X obj 46 19 inlet start;
#X floatatom 150 68 5 0 0 0 - tempo - 0;
#X obj 269 280 f;
#X obj 299 280 f;
#X obj 329 280 f;
#X obj 248 415 tgl 15 0 morse empty empty 17 7 0 10 #fcfcfc #000000 #000000 0 1;
#X floatatom 325 217 5 0 0 0 - - - 0;
#X obj 234 355 sel 0;
#X msg 277 390 1;
#X msg 212 390 0;
#X obj 276 170 * 2;
#X msg 229 45 180;
#X obj 236 146 expr $f1/3.5*2;
#X obj 46 333 outlet;
#X obj 44 298 delay;
#X obj 46 179 % 2;
#X obj 127 231 sel 1;
#X obj 340 248 * 8;
#X floatatom 377 275 5 0 0 0 - - - 0;
#X connect 0 0 3 1;
#X connect 1 0 10 0;
#X connect 2 0 4 0;
#X connect 2 0 27 0;
#X connect 3 0 0 0;
#X connect 3 0 26 0;
#X connect 4 0 5 0;
#X connect 4 0 25 0;
#X connect 5 0 10 0;
#X connect 6 0 7 0;
#X connect 6 1 18 0;
#X connect 8 0 6 2;
#X connect 8 0 6 0;
#X connect 9 0 10 1;
#X connect 9 1 23 0;
#X connect 10 0 3 0;
#X connect 11 0 1 0;
#X connect 12 0 9 0;
#X connect 13 0 6 2;
#X connect 13 0 6 0;
#X connect 14 0 6 2;
#X connect 14 0 6 0;
#X connect 17 0 28 0;
#X connect 18 0 20 0;
#X connect 18 1 19 0;
#X connect 19 0 16 0;
#X connect 20 0 16 0;
#X connect 22 0 9 0;
#X connect 23 0 17 0;
#X connect 23 0 21 0;
#X connect 23 0 8 1;
#X connect 25 0 24 0;
#X connect 26 0 2 0;
#X connect 27 0 8 0;
#X connect 28 0 25 1;
#X connect 28 0 29 0;
#X restore 171 359 pd morse;
#N canvas 777 169 450 501 morse 0;
#X obj 76 155 + 1;
#X msg 45 76 1;
#X floatatom 46 203 5 0 0 0 - - - 0;
#X obj 46 155 i 1;
#X obj 46 234 sel 0;
#X msg 85 76 0;
#X obj 132 318 makenote 10 300;
#X obj 133 355 bng 15 250 50 0 empty empty empty 17 7 0 10 #fcfcfc #000000 #000000;
#X obj 239 280 f;
#X obj 149 104 t f f;
#X obj 46 122 metro;
#X obj 46 19 inlet start;
#X floatatom 150 68 5 0 0 0 - tempo - 0;
#X obj 269 280 f;
#X obj 299 280 f;
#X obj 329 280 f;
#X obj 248 415 tgl 15 0 morse empty empty 17 7 0 10 #fcfcfc #000000 #000000 0 1;
#X floatatom 325 217 5 0 0 0 - - - 0;
#X obj 234 355 sel 0;
#X msg 277 390 1;
#X msg 212 390 0;
#X obj 276 170 * 2;
#X msg 229 45 180;
#X obj 236 146 expr $f1/3.5*2;
#X obj 46 333 outlet;
#X obj 44 298 delay;
#X obj 46 179 % 7;
#X obj 340 248 * 3;
#X obj 127 231 sel 1 2 3 4 5 6;
#X connect 0 0 3 1;
#X connect 1 0 10 0;
#X connect 2 0 4 0;
#X connect 2 0 28 0;
#X connect 3 0 0 0;
#X connect 3 0 26 0;
#X connect 4 0 5 0;
#X connect 4 0 25 0;
#X connect 5 0 10 0;
#X connect 6 0 7 0;
#X connect 6 1 18 0;
#X connect 8 0 6 2;
#X connect 8 0 6 0;
#X connect 9 0 10 1;
#X connect 9 1 23 0;
#X connect 10 0 3 0;
#X connect 11 0 1 0;
#X connect 12 0 9 0;
#X connect 13 0 6 2;
#X connect 13 0 6 0;
#X connect 14 0 6 2;
#X connect 14 0 6 0;
#X connect 17 0 27 0;
#X connect 18 0 20 0;
#X connect 18 1 19 0;
#X connect 19 0 16 0;
#X connect 20 0 16 0;
#X connect 21 0 8 1;
#X connect 22 0 9 0;
#X connect 23 0 17 0;
#X connect 23 0 21 0;
#X connect 25 0 24 0;
#X connect 26 0 2 0;
#X connect 27 0 25 1;
#X connect 28 0 8 0;
#X connect 28 2 8 0;
#X connect 28 4 8 0;
#X restore 211 339 pd morse;
#N canvas 777 169 450 501 morse 0;
#X obj 76 155 + 1;
#X msg 45 76 1;
#X floatatom 46 203 5 0 0 0 - - - 0;
#X obj 46 155 i 1;
#X obj 46 234 sel 0;
#X msg 85 76 0;
#X obj 132 318 makenote 10 300;
#X obj 133 355 bng 15 250 50 0 empty empty empty 17 7 0 10 #fcfcfc #000000 #000000;
#X obj 239 280 f;
#X obj 149 104 t f f;
#X obj 46 122 metro;
#X obj 46 19 inlet start;
#X floatatom 150 68 5 0 0 0 - tempo - 0;
#X obj 269 280 f;
#X obj 299 280 f;
#X obj 329 280 f;
#X obj 248 415 tgl 15 0 morse empty empty 17 7 0 10 #fcfcfc #000000 #000000 0 1;
#X floatatom 325 217 5 0 0 0 - - - 0;
#X obj 234 355 sel 0;
#X msg 277 390 1;
#X msg 212 390 0;
#X obj 276 170 * 2;
#X msg 229 45 180;
#X obj 236 146 expr $f1/3.5*2;
#X obj 46 333 outlet;
#X obj 44 298 delay;
#X obj 340 248 * 3;
#X obj 46 179 % 5;
#X obj 127 231 sel 1 2 3 4;
#X connect 0 0 3 1;
#X connect 1 0 10 0;
#X connect 2 0 4 0;
#X connect 2 0 28 0;
#X connect 3 0 0 0;
#X connect 3 0 27 0;
#X connect 4 0 5 0;
#X connect 4 0 25 0;
#X connect 5 0 10 0;
#X connect 6 0 7 0;
#X connect 6 1 18 0;
#X connect 8 0 6 2;
#X connect 8 0 6 0;
#X connect 9 0 10 1;
#X connect 9 1 23 0;
#X connect 10 0 3 0;
#X connect 11 0 1 0;
#X connect 12 0 9 0;
#X connect 13 0 6 2;
#X connect 13 0 6 0;
#X connect 14 0 6 2;
#X connect 14 0 6 0;
#X connect 17 0 26 0;
#X connect 18 0 20 0;
#X connect 18 1 19 0;
#X connect 19 0 16 0;
#X connect 20 0 16 0;
#X connect 21 0 8 1;
#X connect 22 0 9 0;
#X connect 23 0 17 0;
#X connect 23 0 21 0;
#X connect 23 0 13 1;
#X connect 25 0 24 0;
#X connect 26 0 25 1;
#X connect 27 0 2 0;
#X connect 28 0 8 0;
#X connect 28 2 13 0;
#X restore 241 359 pd morse;
#N canvas 777 169 584 501 morse 0;
#X obj 76 155 + 1;
#X msg 45 76 1;
#X floatatom 46 203 5 0 0 0 - - - 0;
#X obj 46 155 i 1;
#X obj 46 234 sel 0;
#X msg 85 76 0;
#X obj 132 318 makenote 10 300;
#X obj 133 355 bng 15 250 50 0 empty empty empty 17 7 0 10 #fcfcfc #000000 #000000;
#X obj 239 280 f;
#X obj 149 104 t f f;
#X obj 46 122 metro;
#X obj 46 19 inlet start;
#X floatatom 150 68 5 0 0 0 - tempo - 0;
#X obj 269 280 f;
#X obj 299 280 f;
#X obj 329 280 f;
#X obj 248 415 tgl 15 0 morse empty empty 17 7 0 10 #fcfcfc #000000 #000000 0 1;
#X floatatom 325 217 5 0 0 0 - - - 0;
#X obj 234 355 sel 0;
#X msg 277 390 1;
#X msg 212 390 0;
#X obj 276 170 * 2;
#X msg 229 45 180;
#X obj 236 146 expr $f1/3.5*2;
#X obj 46 333 outlet;
#X obj 44 298 delay;
#X obj 46 179 % 2;
#X obj 127 231 sel 1;
#X obj 340 248 * 8;
#X connect 0 0 3 1;
#X connect 1 0 10 0;
#X connect 2 0 4 0;
#X connect 2 0 27 0;
#X connect 3 0 0 0;
#X connect 3 0 26 0;
#X connect 4 0 5 0;
#X connect 4 0 25 0;
#X connect 5 0 10 0;
#X connect 6 0 7 0;
#X connect 6 1 18 0;
#X connect 8 0 6 2;
#X connect 8 0 6 0;
#X connect 9 0 10 1;
#X connect 9 1 23 0;
#X connect 10 0 3 0;
#X connect 11 0 1 0;
#X connect 12 0 9 0;
#X connect 13 0 6 2;
#X connect 13 0 6 0;
#X connect 14 0 6 2;
#X connect 14 0 6 0;
#X connect 17 0 28 0;
#X connect 18 0 20 0;
#X connect 18 1 19 0;
#X connect 19 0 16 0;
#X connect 20 0 16 0;
#X connect 22 0 9 0;
#X connect 23 0 17 0;
#X connect 23 0 21 0;
#X connect 23 0 8 1;
#X connect 25 0 24 0;
#X connect 26 0 2 0;
#X connect 27 0 8 0;
#X connect 28 0 25 1;
#X restore 271 379 pd morse;
#N canvas 0 50 450 501 morse 0;
#X obj 76 155 + 1;
#X msg 45 76 1;
#X floatatom 46 203 5 0 0 0 - - - 0;
#X obj 46 155 i 1;
#X obj 46 234 sel 0;
#X msg 85 76 0;
#X obj 132 318 makenote 10 300;
#X obj 133 355 bng 15 250 50 0 empty empty empty 17 7 0 10 #fcfcfc #000000 #000000;
#X obj 239 280 f;
#X obj 149 104 t f f;
#X obj 46 122 metro;
#X obj 46 19 inlet start;
#X floatatom 150 68 5 0 0 0 - tempo - 0;
#X obj 269 280 f;
#X obj 299 280 f;
#X obj 329 280 f;
#X obj 248 415 tgl 15 0 morse empty empty 17 7 0 10 #fcfcfc #000000 #000000 0 1;
#X floatatom 325 217 5 0 0 0 - - - 0;
#X obj 234 355 sel 0;
#X msg 277 390 1;
#X msg 212 390 0;
#X obj 276 170 * 2;
#X msg 229 45 180;
#X obj 236 146 expr $f1/3.5*2;
#X obj 46 333 outlet;
#X obj 44 298 delay;
#X obj 340 248 * 3;
#X obj 127 231 sel 1 2;
#X obj 46 179 % 3;
#X connect 0 0 3 1;
#X connect 1 0 10 0;
#X connect 2 0 4 0;
#X connect 2 0 27 0;
#X connect 3 0 0 0;
#X connect 3 0 28 0;
#X connect 4 0 5 0;
#X connect 4 0 25 0;
#X connect 5 0 10 0;
#X connect 6 0 7 0;
#X connect 6 1 18 0;
#X connect 8 0 6 2;
#X connect 8 0 6 0;
#X connect 9 0 10 1;
#X connect 9 1 23 0;
#X connect 10 0 3 0;
#X connect 11 0 1 0;
#X connect 12 0 9 0;
#X connect 13 0 6 2;
#X connect 13 0 6 0;
#X connect 14 0 6 2;
#X connect 14 0 6 0;
#X connect 17 0 26 0;
#X connect 18 0 20 0;
#X connect 18 1 19 0;
#X connect 19 0 16 0;
#X connect 20 0 16 0;
#X connect 22 0 9 0;
#X connect 23 0 8 1;
#X connect 23 0 13 1;
#X connect 23 0 14 1;
#X connect 23 0 17 0;
#X connect 23 0 21 0;
#X connect 25 0 24 0;
#X connect 26 0 25 1;
#X connect 27 0 8 0;
#X connect 27 1 13 0;
#X connect 27 2 14 0;
#X connect 28 0 2 0;
#X restore 311 339 pd morse;
#N canvas 0 50 450 501 morse 0;
#X obj 76 155 + 1;
#X msg 45 76 1;
#X floatatom 46 203 5 0 0 0 - - - 0;
#X obj 46 155 i 1;
#X obj 46 234 sel 0;
#X msg 85 76 0;
#X obj 132 318 makenote 10 300;
#X obj 133 355 bng 15 250 50 0 empty empty empty 17 7 0 10 #fcfcfc #000000 #000000;
#X obj 127 231 sel 1 2 3 4;
#X obj 239 280 f;
#X obj 149 104 t f f;
#X obj 46 122 metro;
#X obj 46 19 inlet start;
#X floatatom 150 68 5 0 0 0 - tempo - 0;
#X obj 269 280 f;
#X obj 299 280 f;
#X obj 329 280 f;
#X obj 248 415 tgl 15 0 morse empty empty 17 7 0 10 #fcfcfc #000000 #000000 0 1;
#X obj 46 179 % 4;
#X floatatom 325 217 5 0 0 0 - - - 0;
#X obj 234 355 sel 0;
#X msg 277 390 1;
#X msg 212 390 0;
#X obj 276 170 * 2;
#X msg 229 45 180;
#X obj 236 146 expr $f1/3.5*2;
#X obj 46 333 outlet;
#X obj 44 298 delay;
#X obj 340 248 * 8;
#X connect 0 0 3 1;
#X connect 1 0 11 0;
#X connect 2 0 4 0;
#X connect 2 0 8 0;
#X connect 3 0 0 0;
#X connect 3 0 18 0;
#X connect 4 0 5 0;
#X connect 4 0 27 0;
#X connect 5 0 11 0;
#X connect 6 0 7 0;
#X connect 6 1 20 0;
#X connect 8 0 9 0;
#X connect 8 1 14 0;
#X connect 8 2 15 0;
#X connect 9 0 6 2;
#X connect 9 0 6 0;
#X connect 10 0 11 1;
#X connect 10 1 25 0;
#X connect 11 0 3 0;
#X connect 12 0 1 0;
#X connect 13 0 10 0;
#X connect 14 0 6 2;
#X connect 14 0 6 0;
#X connect 15 0 6 2;
#X connect 15 0 6 0;
#X connect 18 0 2 0;
#X connect 19 0 28 0;
#X connect 20 0 22 0;
#X connect 20 1 21 0;
#X connect 21 0 17 0;
#X connect 22 0 17 0;
#X connect 24 0 10 0;
#X connect 25 0 9 1;
#X connect 25 0 14 1;
#X connect 25 0 15 1;
#X connect 25 0 19 0;
#X connect 25 0 23 0;
#X connect 27 0 26 0;
#X connect 28 0 27 1;
#X restore 341 359 pd morse;
#N canvas 777 169 450 501 morse 0;
#X obj 76 155 + 1;
#X msg 45 76 1;
#X floatatom 46 203 5 0 0 0 - - - 0;
#X obj 46 155 i 1;
#X obj 46 234 sel 0;
#X msg 85 76 0;
#X obj 132 318 makenote 10 300;
#X obj 133 355 bng 15 250 50 0 empty empty empty 17 7 0 10 #fcfcfc #000000 #000000;
#X obj 239 280 f;
#X obj 149 104 t f f;
#X obj 46 122 metro;
#X obj 46 19 inlet start;
#X floatatom 150 68 5 0 0 0 - tempo - 0;
#X obj 269 280 f;
#X obj 299 280 f;
#X obj 329 280 f;
#X obj 248 415 tgl 15 0 morse empty empty 17 7 0 10 #fcfcfc #000000 #000000 0 1;
#X floatatom 325 217 5 0 0 0 - - - 0;
#X obj 234 355 sel 0;
#X msg 277 390 1;
#X msg 212 390 0;
#X obj 276 170 * 2;
#X msg 229 45 180;
#X obj 236 146 expr $f1/3.5*2;
#X obj 46 333 outlet;
#X obj 44 298 delay;
#X obj 46 179 % 7;
#X obj 340 248 * 3;
#X obj 127 231 sel 1 2 3 4 5 6;
#X connect 0 0 3 1;
#X connect 1 0 10 0;
#X connect 2 0 4 0;
#X connect 2 0 28 0;
#X connect 3 0 0 0;
#X connect 3 0 26 0;
#X connect 4 0 5 0;
#X connect 4 0 25 0;
#X connect 5 0 10 0;
#X connect 6 0 7 0;
#X connect 6 1 18 0;
#X connect 8 0 6 2;
#X connect 8 0 6 0;
#X connect 9 0 10 1;
#X connect 9 1 23 0;
#X connect 10 0 3 0;
#X connect 11 0 1 0;
#X connect 12 0 9 0;
#X connect 13 0 6 2;
#X connect 13 0 6 0;
#X connect 14 0 6 2;
#X connect 14 0 6 0;
#X connect 15 0 6 2;
#X connect 15 0 6 0;
#X connect 17 0 27 0;
#X connect 18 0 20 0;
#X connect 18 1 19 0;
#X connect 19 0 16 0;
#X connect 20 0 16 0;
#X connect 21 0 8 1;
#X connect 21 0 14 1;
#X connect 22 0 9 0;
#X connect 23 0 17 0;
#X connect 23 0 21 0;
#X connect 23 0 13 1;
#X connect 23 0 15 1;
#X connect 25 0 24 0;
#X connect 26 0 2 0;
#X connect 27 0 25 1;
#X connect 28 0 8 0;
#X connect 28 2 13 0;
#X connect 28 3 14 0;
#X connect 28 5 15 0;
#X restore 381 339 pd morse;
#N canvas 777 169 450 501 morse 0;
#X obj 76 155 + 1;
#X msg 45 76 1;
#X floatatom 46 203 5 0 0 0 - - - 0;
#X obj 46 155 i 1;
#X obj 46 234 sel 0;
#X msg 85 76 0;
#X obj 132 318 makenote 10 300;
#X obj 133 355 bng 15 250 50 0 empty empty empty 17 7 0 10 #fcfcfc #000000 #000000;
#X obj 239 280 f;
#X obj 149 104 t f f;
#X obj 46 122 metro;
#X obj 46 19 inlet start;
#X floatatom 150 68 5 0 0 0 - tempo - 0;
#X obj 269 280 f;
#X obj 299 280 f;
#X obj 329 280 f;
#X obj 248 415 tgl 15 0 morse empty empty 17 7 0 10 #fcfcfc #000000 #000000 0 1;
#X floatatom 325 217 5 0 0 0 - - - 0;
#X obj 234 355 sel 0;
#X msg 277 390 1;
#X msg 212 390 0;
#X obj 276 170 * 2;
#X msg 229 45 180;
#X obj 236 146 expr $f1/3.5*2;
#X obj 46 333 outlet;
#X obj 44 298 delay;
#X obj 340 248 * 3;
#X obj 46 179 % 4;
#X obj 127 231 sel 1 2 3;
#X connect 0 0 3 1;
#X connect 1 0 10 0;
#X connect 2 0 4 0;
#X connect 2 0 28 0;
#X connect 3 0 0 0;
#X connect 3 0 27 0;
#X connect 4 0 5 0;
#X connect 4 0 25 0;
#X connect 5 0 10 0;
#X connect 6 0 7 0;
#X connect 6 1 18 0;
#X connect 8 0 6 2;
#X connect 8 0 6 0;
#X connect 9 0 10 1;
#X connect 9 1 23 0;
#X connect 10 0 3 0;
#X connect 11 0 1 0;
#X connect 12 0 9 0;
#X connect 13 0 6 2;
#X connect 13 0 6 0;
#X connect 14 0 6 2;
#X connect 14 0 6 0;
#X connect 15 0 6 2;
#X connect 15 0 6 0;
#X connect 17 0 26 0;
#X connect 18 0 20 0;
#X connect 18 1 19 0;
#X connect 19 0 16 0;
#X connect 20 0 16 0;
#X connect 21 0 13 1;
#X connect 22 0 9 0;
#X connect 23 0 17 0;
#X connect 23 0 21 0;
#X connect 23 0 8 1;
#X connect 25 0 24 0;
#X connect 26 0 25 1;
#X connect 27 0 2 0;
#X connect 28 0 8 0;
#X connect 28 1 13 0;
#X restore 411 359 pd morse;
#N canvas 777 169 450 501 morse 0;
#X obj 76 155 + 1;
#X msg 45 76 1;
#X floatatom 46 203 5 0 0 0 - - - 0;
#X obj 46 155 i 1;
#X obj 46 234 sel 0;
#X msg 85 76 0;
#X obj 132 318 makenote 10 300;
#X obj 133 355 bng 15 250 50 0 empty empty empty 17 7 0 10 #fcfcfc #000000 #000000;
#X obj 239 280 f;
#X obj 149 104 t f f;
#X obj 46 122 metro;
#X obj 46 19 inlet start;
#X floatatom 150 68 5 0 0 0 - tempo - 0;
#X obj 269 280 f;
#X obj 299 280 f;
#X obj 329 280 f;
#X obj 248 415 tgl 15 0 morse empty empty 17 7 0 10 #fcfcfc #000000 #000000 0 1;
#X floatatom 325 217 5 0 0 0 - - - 0;
#X obj 234 355 sel 0;
#X msg 277 390 1;
#X msg 212 390 0;
#X obj 276 170 * 2;
#X msg 229 45 180;
#X obj 236 146 expr $f1/3.5*2;
#X obj 46 333 outlet;
#X obj 44 298 delay;
#X obj 340 248 * 3;
#X obj 46 179 % 6;
#X obj 127 231 sel 1 2 3 4 5;
#X connect 0 0 3 1;
#X connect 1 0 10 0;
#X connect 2 0 4 0;
#X connect 2 0 28 0;
#X connect 3 0 0 0;
#X connect 3 0 27 0;
#X connect 4 0 5 0;
#X connect 4 0 25 0;
#X connect 5 0 10 0;
#X connect 6 0 7 0;
#X connect 6 1 18 0;
#X connect 8 0 6 2;
#X connect 8 0 6 0;
#X connect 9 0 10 1;
#X connect 9 1 23 0;
#X connect 10 0 3 0;
#X connect 11 0 1 0;
#X connect 12 0 9 0;
#X connect 13 0 6 2;
#X connect 13 0 6 0;
#X connect 14 0 6 2;
#X connect 14 0 6 0;
#X connect 15 0 6 2;
#X connect 15 0 6 0;
#X connect 17 0 26 0;
#X connect 18 0 20 0;
#X connect 18 1 19 0;
#X connect 19 0 16 0;
#X connect 20 0 16 0;
#X connect 21 0 13 1;
#X connect 22 0 9 0;
#X connect 23 0 17 0;
#X connect 23 0 21 0;
#X connect 23 0 8 1;
#X connect 23 0 14 1;
#X connect 23 0 15 1;
#X connect 25 0 24 0;
#X connect 26 0 25 1;
#X connect 27 0 2 0;
#X connect 28 0 8 0;
#X connect 28 1 13 0;
#X connect 28 3 14 0;
#X connect 28 4 15 0;
#X restore 441 379 pd morse;
#N canvas 777 169 450 501 morse 0;
#X obj 76 155 + 1;
#X msg 45 76 1;
#X floatatom 46 203 5 0 0 0 - - - 0;
#X obj 46 155 i 1;
#X obj 46 234 sel 0;
#X msg 85 76 0;
#X obj 132 318 makenote 10 300;
#X obj 133 355 bng 15 250 50 0 empty empty empty 17 7 0 10 #fcfcfc #000000 #000000;
#X obj 239 280 f;
#X obj 149 104 t f f;
#X obj 46 122 metro;
#X obj 46 19 inlet start;
#X floatatom 150 68 5 0 0 0 - tempo - 0;
#X obj 269 280 f;
#X obj 299 280 f;
#X obj 329 280 f;
#X obj 248 415 tgl 15 0 morse empty empty 17 7 0 10 #fcfcfc #000000 #000000 0 1;
#X floatatom 325 217 5 0 0 0 - - - 0;
#X obj 234 355 sel 0;
#X msg 277 390 1;
#X msg 212 390 0;
#X obj 276 170 * 2;
#X msg 229 45 180;
#X obj 236 146 expr $f1/3.5*2;
#X obj 46 333 outlet;
#X obj 44 298 delay;
#X obj 340 248 * 3;
#X obj 46 179 % 6;
#X obj 127 231 sel 1 2 3 4 5;
#X connect 0 0 3 1;
#X connect 1 0 10 0;
#X connect 2 0 4 0;
#X connect 2 0 28 0;
#X connect 3 0 0 0;
#X connect 3 0 27 0;
#X connect 4 0 5 0;
#X connect 4 0 25 0;
#X connect 5 0 10 0;
#X connect 6 0 7 0;
#X connect 6 1 18 0;
#X connect 8 0 6 2;
#X connect 8 0 6 0;
#X connect 9 0 10 1;
#X connect 9 1 23 0;
#X connect 10 0 3 0;
#X connect 11 0 1 0;
#X connect 12 0 9 0;
#X connect 13 0 6 2;
#X connect 13 0 6 0;
#X connect 14 0 6 2;
#X connect 14 0 6 0;
#X connect 15 0 6 2;
#X connect 15 0 6 0;
#X connect 17 0 26 0;
#X connect 18 0 20 0;
#X connect 18 1 19 0;
#X connect 19 0 16 0;
#X connect 20 0 16 0;
#X connect 21 0 13 1;
#X connect 22 0 9 0;
#X connect 23 0 17 0;
#X connect 23 0 21 0;
#X connect 23 0 8 1;
#X connect 23 0 14 1;
#X connect 23 0 15 1;
#X connect 25 0 24 0;
#X connect 26 0 25 1;
#X connect 27 0 2 0;
#X connect 28 0 8 0;
#X connect 28 1 13 0;
#X connect 28 3 14 0;
#X connect 28 4 15 0;
#X restore 471 339 pd morse;
#N canvas 0 50 450 501 morse 0;
#X obj 76 155 + 1;
#X msg 45 76 1;
#X floatatom 46 203 5 0 0 0 - - - 0;
#X obj 46 155 i 1;
#X obj 46 234 sel 0;
#X msg 85 76 0;
#X obj 132 318 makenote 10 300;
#X obj 133 355 bng 15 250 50 0 empty empty empty 17 7 0 10 #fcfcfc #000000 #000000;
#X obj 239 280 f;
#X obj 149 104 t f f;
#X obj 46 122 metro;
#X obj 46 19 inlet start;
#X floatatom 150 68 5 0 0 0 - tempo - 0;
#X obj 269 280 f;
#X obj 299 280 f;
#X obj 329 280 f;
#X obj 248 415 tgl 15 0 morse empty empty 17 7 0 10 #fcfcfc #000000 #000000 0 1;
#X floatatom 325 217 5 0 0 0 - - - 0;
#X obj 234 355 sel 0;
#X msg 277 390 1;
#X msg 212 390 0;
#X obj 276 170 * 2;
#X msg 229 45 180;
#X obj 236 146 expr $f1/3.5*2;
#X obj 46 333 outlet;
#X obj 44 298 delay;
#X obj 340 248 * 3;
#X obj 127 231 sel 1 2;
#X obj 46 179 % 3;
#X connect 0 0 3 1;
#X connect 1 0 10 0;
#X connect 2 0 4 0;
#X connect 2 0 27 0;
#X connect 3 0 0 0;
#X connect 3 0 28 0;
#X connect 4 0 5 0;
#X connect 4 0 25 0;
#X connect 5 0 10 0;
#X connect 6 0 7 0;
#X connect 6 1 18 0;
#X connect 8 0 6 2;
#X connect 8 0 6 0;
#X connect 9 0 10 1;
#X connect 9 1 23 0;
#X connect 10 0 3 0;
#X connect 11 0 1 0;
#X connect 12 0 9 0;
#X connect 13 0 6 2;
#X connect 13 0 6 0;
#X connect 14 0 6 2;
#X connect 14 0 6 0;
#X connect 17 0 26 0;
#X connect 18 0 20 0;
#X connect 18 1 19 0;
#X connect 19 0 16 0;
#X connect 20 0 16 0;
#X connect 22 0 9 0;
#X connect 23 0 8 1;
#X connect 23 0 13 1;
#X connect 23 0 14 1;
#X connect 23 0 17 0;
#X connect 23 0 21 0;
#X connect 25 0 24 0;
#X connect 26 0 25 1;
#X connect 27 0 8 0;
#X connect 27 1 13 0;
#X connect 27 2 14 0;
#X connect 28 0 2 0;
#X restore 501 359 pd morse;
#N canvas 777 169 450 501 morse 0;
#X obj 76 155 + 1;
#X msg 45 76 1;
#X floatatom 46 203 5 0 0 0 - - - 0;
#X obj 46 155 i 1;
#X obj 46 234 sel 0;
#X msg 85 76 0;
#X obj 132 318 makenote 10 300;
#X obj 133 355 bng 15 250 50 0 empty empty empty 17 7 0 10 #fcfcfc #000000 #000000;
#X obj 239 280 f;
#X obj 149 104 t f f;
#X obj 46 122 metro;
#X obj 46 19 inlet start;
#X floatatom 150 68 5 0 0 0 - tempo - 0;
#X obj 269 280 f;
#X obj 299 280 f;
#X obj 329 280 f;
#X obj 248 415 tgl 15 0 morse empty empty 17 7 0 10 #fcfcfc #000000 #000000 0 1;
#X floatatom 325 217 5 0 0 0 - - - 0;
#X obj 234 355 sel 0;
#X msg 277 390 1;
#X msg 212 390 0;
#X obj 276 170 * 2;
#X msg 229 45 180;
#X obj 236 146 expr $f1/3.5*2;
#X obj 46 333 outlet;
#X obj 44 298 delay;
#X obj 340 248 * 3;
#X obj 46 179 % 5;
#X obj 127 231 sel 1 2 3 4;
#X connect 0 0 3 1;
#X connect 1 0 10 0;
#X connect 2 0 4 0;
#X connect 2 0 28 0;
#X connect 3 0 0 0;
#X connect 3 0 27 0;
#X connect 4 0 5 0;
#X connect 4 0 25 0;
#X connect 5 0 10 0;
#X connect 6 0 7 0;
#X connect 6 1 18 0;
#X connect 8 0 6 2;
#X connect 8 0 6 0;
#X connect 9 0 10 1;
#X connect 9 1 23 0;
#X connect 10 0 3 0;
#X connect 11 0 1 0;
#X connect 12 0 9 0;
#X connect 13 0 6 2;
#X connect 13 0 6 0;
#X connect 14 0 6 2;
#X connect 14 0 6 0;
#X connect 17 0 26 0;
#X connect 18 0 20 0;
#X connect 18 1 19 0;
#X connect 19 0 16 0;
#X connect 20 0 16 0;
#X connect 21 0 8 1;
#X connect 22 0 9 0;
#X connect 23 0 17 0;
#X connect 23 0 21 0;
#X connect 23 0 13 1;
#X connect 25 0 24 0;
#X connect 26 0 25 1;
#X connect 27 0 2 0;
#X connect 28 0 8 0;
#X connect 28 2 13 0;
#X restore 531 379 pd morse;
#N canvas 777 169 450 501 morse 0;
#X obj 76 155 + 1;
#X msg 45 76 1;
#X floatatom 46 203 5 0 0 0 - - - 0;
#X obj 46 155 i 1;
#X obj 46 234 sel 0;
#X msg 85 76 0;
#X obj 132 318 makenote 10 300;
#X obj 133 355 bng 15 250 50 0 empty empty empty 17 7 0 10 #fcfcfc #000000 #000000;
#X obj 239 280 f;
#X obj 149 104 t f f;
#X obj 46 122 metro;
#X obj 46 19 inlet start;
#X floatatom 150 68 5 0 0 0 - tempo - 0;
#X obj 269 280 f;
#X obj 299 280 f;
#X obj 329 280 f;
#X obj 248 415 tgl 15 0 morse empty empty 17 7 0 10 #fcfcfc #000000 #000000 0 1;
#X floatatom 325 217 5 0 0 0 - - - 0;
#X obj 234 355 sel 0;
#X msg 277 390 1;
#X msg 212 390 0;
#X obj 276 170 * 2;
#X msg 229 45 180;
#X obj 236 146 expr $f1/3.5*2;
#X obj 46 333 outlet;
#X obj 44 298 delay;
#X obj 340 248 * 3;
#X obj 46 179 % 6;
#X obj 127 231 sel 1 2 3 4 5;
#X connect 0 0 3 1;
#X connect 1 0 10 0;
#X connect 2 0 4 0;
#X connect 2 0 28 0;
#X connect 3 0 0 0;
#X connect 3 0 27 0;
#X connect 4 0 5 0;
#X connect 4 0 25 0;
#X connect 5 0 10 0;
#X connect 6 0 7 0;
#X connect 6 1 18 0;
#X connect 8 0 6 2;
#X connect 8 0 6 0;
#X connect 9 0 10 1;
#X connect 9 1 23 0;
#X connect 10 0 3 0;
#X connect 11 0 1 0;
#X connect 12 0 9 0;
#X connect 13 0 6 2;
#X connect 13 0 6 0;
#X connect 14 0 6 2;
#X connect 14 0 6 0;
#X connect 15 0 6 2;
#X connect 15 0 6 0;
#X connect 17 0 26 0;
#X connect 18 0 20 0;
#X connect 18 1 19 0;
#X connect 19 0 16 0;
#X connect 20 0 16 0;
#X connect 21 0 8 1;
#X connect 21 0 13 1;
#X connect 22 0 9 0;
#X connect 23 0 17 0;
#X connect 23 0 21 0;
#X connect 23 0 14 1;
#X connect 25 0 24 0;
#X connect 26 0 25 1;
#X connect 27 0 2 0;
#X connect 28 0 8 0;
#X connect 28 2 13 0;
#X connect 28 4 14 0;
#X restore 561 339 pd morse;
#X obj 309 518 osc~ 800;
#X obj 379 518 osc~ 400;
#X obj 479 671 rcrd;
#X obj 229 518 osc~ 1600;
#X obj 379 542 *~ 0.05;
#X obj 229 542 *~ 0.4;
#X obj 157 418 cnv 15 100 80 empty display g 35 35 0 50 #98c8b8 #404040 0;
#X msg 752 502 label \$1;
#X obj 752 479 makefilename %s;
#X obj 752 525 s display;
#X obj 685 292 symbol;
#X msg 712 241;
#X obj 409 626 *~ 0.1;
#X msg 205 101 120;
#X connect 0 0 21 0;
#X connect 0 0 86 0;
#X connect 1 0 5 1;
#X connect 2 0 3 0;
#X connect 2 1 3 0;
#X connect 4 0 5 1;
#X connect 5 0 2 0;
#X connect 6 0 22 0;
#X connect 6 0 86 0;
#X connect 7 0 23 0;
#X connect 7 0 86 0;
#X connect 8 0 24 0;
#X connect 8 0 86 0;
#X connect 9 0 25 0;
#X connect 9 0 86 0;
#X connect 10 0 26 0;
#X connect 10 0 86 0;
#X connect 11 0 27 0;
#X connect 11 0 86 0;
#X connect 12 0 28 0;
#X connect 12 0 86 0;
#X connect 13 0 29 0;
#X connect 13 0 86 0;
#X connect 14 0 30 0;
#X connect 14 0 86 0;
#X connect 15 0 31 0;
#X connect 15 0 86 0;
#X connect 16 0 32 0;
#X connect 16 0 86 0;
#X connect 17 0 33 0;
#X connect 17 0 86 0;
#X connect 18 0 34 0;
#X connect 18 0 86 0;
#X connect 19 0 35 0;
#X connect 19 0 86 0;
#X connect 20 0 36 0;
#X connect 20 0 86 0;
#X connect 21 0 42 0;
#X connect 22 0 61 0;
#X connect 23 0 62 0;
#X connect 24 0 63 0;
#X connect 25 0 64 0;
#X connect 26 0 65 0;
#X connect 27 0 66 0;
#X connect 28 0 67 0;
#X connect 29 0 68 0;
#X connect 30 0 69 0;
#X connect 31 0 70 0;
#X connect 32 0 71 0;
#X connect 33 0 72 0;
#X connect 34 0 73 0;
#X connect 35 0 74 0;
#X connect 36 0 75 0;
#X connect 37 0 88 0;
#X connect 39 0 40 0;
#X connect 40 0 37 1;
#X connect 41 0 39 0;
#X connect 42 0 46 0;
#X connect 44 0 89 0;
#X connect 45 0 0 0;
#X connect 46 0 6 0;
#X connect 47 0 7 0;
#X connect 48 0 8 0;
#X connect 49 0 9 0;
#X connect 50 0 10 0;
#X connect 51 0 11 0;
#X connect 52 0 12 0;
#X connect 53 0 13 0;
#X connect 54 0 14 0;
#X connect 55 0 15 0;
#X connect 56 0 16 0;
#X connect 57 0 17 0;
#X connect 58 0 18 0;
#X connect 59 0 19 0;
#X connect 60 0 20 0;
#X connect 61 0 47 0;
#X connect 62 0 48 0;
#X connect 63 0 49 0;
#X connect 64 0 50 0;
#X connect 65 0 51 0;
#X connect 66 0 52 0;
#X connect 67 0 53 0;
#X connect 68 0 54 0;
#X connect 69 0 55 0;
#X connect 70 0 56 0;
#X connect 71 0 57 0;
#X connect 72 0 58 0;
#X connect 73 0 59 0;
#X connect 74 0 60 0;
#X connect 76 0 37 0;
#X connect 77 0 80 0;
#X connect 79 0 81 0;
#X connect 80 0 37 0;
#X connect 81 0 37 0;
#X connect 83 0 85 0;
#X connect 84 0 83 0;
#X connect 86 0 84 0;
#X connect 87 0 86 0;
#X connect 88 0 38 0;
#X connect 88 0 38 1;
#X connect 88 0 78 0;
#X connect 89 0 43 0;
