#N canvas 610 158 632 448 12;
#N canvas 0 50 450 250 (subpatch) 0;
#X array table 10 float 3;
#A 0 55 58 69 59 64 69 55 59 61 62;
#X coords 0 50 10 70 200 140 1 0 0;
#X restore 391 205 graph;
#X floatatom 265 353 5 0 0 0 - - - 0;
#X obj 265 329 tabread table;
#X obj 76 322 tabwrite table;
#X obj 171 246 i;
#X obj 204 246 + 1;
#X obj 171 270 % 10;
#X floatatom 191 294 5 0 0 0 - - - 0;
#X obj 139 132 bng 25 250 50 0 empty empty empty 0 -10 0 12 #fcfcfc #000000 #000000;
#X obj 76 257 + 50;
#X obj 76 233 random 20;
#X obj 139 182 t b b;
#X floatatom 96 281 5 0 0 0 - - - 0;
#X floatatom 265 299 5 0 10 0 - - - 0;
#X connect 2 0 1 0;
#X connect 4 0 5 0;
#X connect 4 0 6 0;
#X connect 5 0 4 1;
#X connect 6 0 7 0;
#X connect 6 0 3 1;
#X connect 8 0 11 0;
#X connect 9 0 3 0;
#X connect 9 0 12 0;
#X connect 10 0 9 0;
#X connect 11 0 10 0;
#X connect 11 1 4 0;
#X connect 13 0 2 0;
