#N canvas 1007 49 450 697 10;
#X obj 181 364 bng 15 250 50 0 empty empty empty 17 7 0 10 -262144
-1 -1;
#X obj 302 487 ==;
#X obj 256 449 t f f;
#X obj 268 558 f;
#X obj 237 504 f;
#X obj 237 423 t b f f;
#X floatatom 237 402 5 0 0 0 - - -;
#X obj 237 531 sel 0 1;
#X obj 181 548 bng 15 250 50 0 empty empty empty 17 7 0 10 -262144
-1 -1;
#X floatatom 268 589 5 0 0 0 - - -;
#X obj 270 328 inlet;
#X msg 237 233 seed \$1;
#X obj 136 318 bng 15 250 50 0 empty empty empty 17 7 0 10 -262144
-1 -1;
#X floatatom 126 584 5 0 0 0 - - -;
#X obj 152 629 outlet;
#X obj 136 191 inlet;
#X obj 95 220 bng 15 250 50 0 empty empty empty 17 7 0 10 -262144 -1
-1;
#X obj 136 250 random 100;
#X obj 126 344 random;
#X obj 136 283 moses 25;
#N canvas 0 50 450 300 time 0;
#X obj 132 54 loadbang;
#X msg 119 99 1;
#X floatatom 70 328 5 0 0 0 - - -;
#X obj 119 132 metro 100;
#X obj 81 188 timer 200 permin;
#X obj 91 148 bng 15 250 50 0 empty empty empty 17 7 0 10 -262144 -1
-1;
#X obj 88 280 % 100;
#X obj 69 369 outlet;
#X connect 0 0 1 0;
#X connect 1 0 3 0;
#X connect 2 0 7 0;
#X connect 3 0 4 1;
#X connect 4 0 6 0;
#X connect 5 0 4 0;
#X connect 6 0 2 0;
#X restore 237 202 pd time;
#X obj 237 379 random;
#X connect 0 0 21 0;
#X connect 1 0 4 1;
#X connect 2 0 1 1;
#X connect 2 1 3 1;
#X connect 3 0 9 0;
#X connect 4 0 7 0;
#X connect 5 0 4 0;
#X connect 5 1 2 0;
#X connect 5 2 1 0;
#X connect 6 0 5 0;
#X connect 7 0 3 0;
#X connect 7 1 8 0;
#X connect 8 0 0 0;
#X connect 9 0 14 0;
#X connect 10 0 18 1;
#X connect 10 0 21 1;
#X connect 11 0 17 0;
#X connect 11 0 21 0;
#X connect 12 0 18 0;
#X connect 13 0 14 0;
#X connect 15 0 17 0;
#X connect 16 0 17 0;
#X connect 17 0 19 0;
#X connect 18 0 13 0;
#X connect 19 0 12 0;
#X connect 19 1 0 0;
#X connect 20 0 11 0;
#X connect 21 0 6 0;
