#N canvas 0 0 1916 997 10;
#N canvas 334 50 450 341 triangle 1;
#X floatatom 64 36 5 0 0 0 - - -;
#X obj 65 84 phasor~;
#X obj 151 81 phasor~;
#X obj 152 106 *~ -1;
#X obj 152 132 +~ 1;
#X obj 153 153 clip~ 0 0.5;
#X obj 64 109 clip~ 0 0.5;
#X obj 65 180 +~;
#X obj 64 206 *~ 4;
#X obj 65 229 -~ 3;
#X obj 65 282 outlet~;
#X obj 64 13 inlet note;
#X obj 197 21 inlet phase;
#X connect 0 0 1 0;
#X connect 0 0 2 0;
#X connect 1 0 6 0;
#X connect 2 0 3 0;
#X connect 3 0 4 0;
#X connect 4 0 5 0;
#X connect 5 0 7 1;
#X connect 6 0 7 0;
#X connect 7 0 8 0;
#X connect 8 0 9 0;
#X connect 9 0 10 0;
#X connect 11 0 0 0;
#X connect 12 0 2 1;
#X connect 12 0 1 1;
#X restore 357 160 pd triangle;
#X obj 269 88 unpack f f f f;
#N canvas 201 432 468 268 pulse 1;
#X floatatom 90 43 5 0 0 0 - - -;
#X obj 90 88 phasor~;
#X obj 92 142 *~ 2;
#X obj 91 166 -~ 1;
#X obj 193 96 line~;
#X obj 193 73 pack f 50;
#X obj 91 222 outlet~;
#X floatatom 193 44 5 0 0 0 - - -;
#X obj 90 17 inlet note;
#X obj 193 19 inlet phase;
#X obj 282 22 inlet pwm;
#X obj 91 119 expr~ $v1 > $v2;
#X obj 92 192 *~ 0.3;
#X connect 0 0 1 0;
#X connect 1 0 11 0;
#X connect 2 0 3 0;
#X connect 3 0 12 0;
#X connect 4 0 11 1;
#X connect 5 0 4 0;
#X connect 7 0 1 1;
#X connect 8 0 0 0;
#X connect 9 0 7 0;
#X connect 10 0 5 0;
#X connect 11 0 2 0;
#X connect 12 0 6 0;
#X restore 452 159 pd pulse;
#N canvas 188 50 343 223 sine 1;
#X obj 62 29 inlet note;
#X floatatom 62 77 5 0 0 0 - - -;
#X obj 163 31 inlet phase;
#X floatatom 163 53 5 0 0 0 - - -;
#X obj 62 103 osc~;
#X obj 63 131 outlet~;
#X connect 0 0 1 0;
#X connect 1 0 4 0;
#X connect 2 0 3 0;
#X connect 3 0 4 1;
#X connect 4 0 5 0;
#X restore 269 159 pd sine;
#N canvas 140 59 307 231 sawtooth 1;
#X obj 82 30 inlet;
#X floatatom 82 53 5 0 0 0 - - -;
#X obj 82 94 phasor~;
#X obj 82 160 +~ 1;
#X obj 82 138 *~ 2;
#X obj 82 116 *~ -1;
#X obj 81 212 outlet~;
#X obj 148 36 inlet phase;
#X floatatom 149 59 5 0 0 0 - - -;
#X obj 81 187 *~ 0.3;
#X connect 0 0 1 0;
#X connect 1 0 2 0;
#X connect 2 0 5 0;
#X connect 3 0 9 0;
#X connect 4 0 3 0;
#X connect 5 0 4 0;
#X connect 7 0 8 0;
#X connect 8 0 2 1;
#X connect 9 0 6 0;
#X restore 539 158 pd sawtooth;
#X obj 269 295 *~;
#X obj 286 250 pack f 50;
#X obj 286 272 line~;
#X obj 356 297 *~;
#X obj 373 252 pack f 50;
#X obj 373 274 line~;
#X obj 453 289 *~;
#X obj 470 241 pack f 50;
#X obj 470 266 line~;
#X obj 540 291 *~;
#X obj 557 246 pack f 50;
#X obj 557 268 line~;
#X msg 59 428 1;
#X msg 57 452 0;
#X msg 57 474 0;
#X msg 57 498 0;
#X msg 103 475 0;
#X msg 103 499 0;
#X msg 105 429 0;
#X msg 103 453 1;
#X msg 153 449 0;
#X msg 153 495 0;
#X msg 199 472 0;
#X msg 201 426 0;
#X msg 155 425 0;
#X msg 153 471 1;
#X msg 199 450 0;
#X msg 199 496 1;
#X obj 56 279 sel 0 1 2 3;
#X obj 56 318 t b b b b;
#X obj 101 344 t b b b b;
#X obj 154 373 t b b b b;
#X obj 199 399 t b b b b;
#X obj 374 413 *~ 0.2;
#X obj 371 558 outlet~;
#X obj 269 47 inlet;
#X text 572 35 phase;
#X floatatom 443 80 5 0 0 0 - pwm -;
#X text 443 61 pwm;
#X msg 196 52 60;
#X obj 64 169 hradio 15 1 0 4 empty w1 empty 0 -8 0 10 -262144 -1 -1
1;
#X obj 683 131 hsl 128 15 0 1 0 0 empty pwm empty -2 -8 0 10 -262144
-1 -1 4445 1;
#X obj 644 66 hsl 128 15 0 1 0 0 empty phase empty -2 -8 0 10 -262144
-1 -1 6350 1;
#X connect 0 0 8 0;
#X connect 1 0 3 0;
#X connect 1 0 0 0;
#X connect 1 0 2 0;
#X connect 1 0 4 0;
#X connect 2 0 11 0;
#X connect 3 0 5 0;
#X connect 4 0 14 0;
#X connect 5 0 38 0;
#X connect 6 0 7 0;
#X connect 7 0 5 1;
#X connect 8 0 38 0;
#X connect 9 0 10 0;
#X connect 10 0 8 1;
#X connect 11 0 38 0;
#X connect 12 0 13 0;
#X connect 13 0 11 1;
#X connect 14 0 38 0;
#X connect 15 0 16 0;
#X connect 16 0 14 1;
#X connect 17 0 6 0;
#X connect 18 0 9 0;
#X connect 19 0 12 0;
#X connect 20 0 15 0;
#X connect 21 0 12 0;
#X connect 22 0 15 0;
#X connect 23 0 6 0;
#X connect 24 0 9 0;
#X connect 25 0 9 0;
#X connect 26 0 15 0;
#X connect 27 0 12 0;
#X connect 28 0 6 0;
#X connect 29 0 6 0;
#X connect 30 0 12 0;
#X connect 31 0 9 0;
#X connect 32 0 15 0;
#X connect 33 0 34 0;
#X connect 33 1 35 0;
#X connect 33 2 36 0;
#X connect 33 3 37 0;
#X connect 34 0 17 0;
#X connect 34 1 18 0;
#X connect 34 2 19 0;
#X connect 34 3 20 0;
#X connect 35 0 23 0;
#X connect 35 1 24 0;
#X connect 35 2 21 0;
#X connect 35 3 22 0;
#X connect 36 0 29 0;
#X connect 36 1 25 0;
#X connect 36 2 30 0;
#X connect 36 3 26 0;
#X connect 37 0 28 0;
#X connect 37 1 31 0;
#X connect 37 2 27 0;
#X connect 37 3 32 0;
#X connect 38 0 39 0;
#X connect 40 0 1 0;
#X connect 42 0 2 2;
#X connect 44 0 1 0;
#X connect 45 0 33 0;
#X connect 46 0 2 2;
#X connect 47 0 4 1;
#X connect 47 0 2 1;
#X connect 47 0 0 1;
#X connect 47 0 3 1;
