#N canvas 0 0 1906 988 10;
#X obj 101 101 cnv 15 228 198 empty empty MakeNote1 20 25 0 14 -54607
-262144 0;
#X obj 119 175 hsl 100 15 0 16 0 0 \$0-wide-s empty Wide 17 7 0 10
-146596 -1 -1 7600 0;
#X obj 280 140 tgl 20 0 empty empty Play 5 -5 0 10 -146596 -1 -262144
1 1;
#X obj 119 145 hsl 100 15 0 18 0 0 \$0-note-s empty Note 17 7 0 10
-146596 -1 -1 4400 0;
#X obj 119 205 hsl 100 15 0 100 0 0 \$0-moses empty Largo/Presto 17
7 0 10 -146596 -1 -1 4900 0;
#X obj 279 170 tgl 20 0 empty empty Tempo 5 -5 0 10 -146596 -1 -262144
0 1;
#X obj 121 268 hsl 100 15 2000 100 0 0 \$0-ld empty Largo_Duration
5 7 0 10 -146596 -1 -1 5300 0;
#X obj 221 175 nbx 4 15 -1e+037 1e+037 0 0 empty empty empty 0 -8 0
10 -146596 -1 -1 12.2828 256;
#X obj 221 206 nbx 4 15 -1e+037 1e+037 0 0 empty \$0-moses empty 0
-8 0 10 -146596 -1 -1 49.4949 256;
#X obj 223 269 nbx 4 15 -1e+037 1e+037 0 0 empty \$0-ld empty 0 -8
0 10 -146596 -1 -1 982.828 256;
#X obj 277 206 nbx 3 15 -1e+037 1e+037 0 0 \$0-tempo empty empty 5
-10 0 10 -146596 -1 -262144 500 256;
#X obj 221 145 nbx 4 15 -1e+037 1e+037 0 0 empty empty empty 0 -8 0
10 -146596 -1 -1 8 256;
#X obj 399 -56 loadbang;
#X obj 798 197 tgl 15 0 empty empty empty 17 7 0 10 -262144 -1 -1 0
1;
#X msg 116 31 8;
#X floatatom 569 592 5 0 0 0 - - -;
#X obj 231 118 bng 20 250 50 0 empty empty Reset -3 -5 0 10 -257985
-1 -262144;
#X msg 294 31 0;
#X msg 433 31 200;
#X msg 385 37 500;
#X obj 121 237 hsl 100 15 2000 100 0 0 \$0-lw empty Largo_Wide 5 7
0 10 -146596 -1 -1 0 0;
#X obj 223 238 nbx 4 15 -1e+037 1e+037 0 0 empty \$0-lw empty 0 -8
0 10 -146596 -1 -1 2000 256;
#X obj 690 288 bng 15 250 50 0 empty empty empty 17 7 0 10 -262144
-1 -1;
#X obj 840 272 bng 15 250 50 0 empty empty empty 17 7 0 10 -262144
-1 -1;
#X obj 690 255 moses;
#X obj 690 412 +;
#X msg 747 329 0;
#X obj 798 288 sel 1;
#X obj 798 314 bng 15 250 50 0 empty empty empty 17 7 0 10 -262144
-1 -1;
#X obj 798 397 nbx 3 15 -1e+037 1e+037 0 0 empty \$0-tempo empty 0
-8 0 10 -262144 -1 -1 500 256;
#X obj 690 211 random 100;
#X obj 759 169 + 0.2;
#X obj 759 199 i;
#X floatatom 759 229 5 0 0 0 - - -;
#X obj 840 435 +;
#X obj 840 363 random;
#X msg 705 305 100;
#X obj 690 363 random 100;
#X obj 873 337 r \$0-lw;
#X obj 855 406 r \$0-ld;
#X floatatom 690 452 5 0 0 0 - - -;
#X floatatom 482 256 5 0 0 0 - - -;
#N canvas 0 0 1906 978 Makenote 0;
#X floatatom 503 415 5 0 0 0 - - -;
#X obj 488 551 -;
#X obj 503 517 i;
#X obj 488 577 i;
#X obj 503 495 / 2;
#X floatatom 1093 518 5 0 0 0 - - -;
#X obj 456 534 +;
#X obj 395 605 + 3;
#X obj 235 605 - 3;
#X obj 503 328 r \$0-wide-s;
#X obj 503 358 + 0.2;
#X obj 503 388 i;
#X obj 1138 471 + 0.2;
#X obj 1138 501 i;
#X obj 1138 441 r \$0-note-s;
#X obj 275 605 - 1;
#X obj 456 461 random;
#X floatatom 541 583 5 0 0 0 - - -;
#X floatatom 315 589 5 0 0 0 - - -;
#X obj 315 553 inlet;
#X obj 441 427 inlet;
#X obj 355 605 + 2;
#X obj 435 605 + 5;
#X obj 505 605 + 6;
#X obj 545 605 + 8;
#X obj 585 605 + 9;
#X obj 625 605 + 11;
#X obj 665 605 + 12;
#X obj 705 605 + 14;
#X obj 745 605 + 15;
#X obj 785 605 + 17;
#X obj 825 605 + 18;
#X obj 865 605 + 20;
#X obj 905 605 + 21;
#X obj 945 605 + 23;
#X obj 328 622 i;
#X obj 1093 605 sel 0 1 2 3 4 5 6 7 8 9 10 11 12 13 14 15 16 17;
#X obj 358 622 i;
#X obj 388 622 i;
#X obj 418 622 i;
#X obj 448 622 i;
#X obj 478 622 i;
#X obj 508 622 i;
#X obj 538 622 i;
#X obj 568 622 i;
#X obj 598 622 i;
#X obj 628 622 i;
#X obj 658 622 i;
#X obj 688 622 i;
#X obj 718 622 i;
#X obj 748 622 i;
#X obj 778 622 i;
#X obj 808 622 i;
#X obj 838 622 i;
#X floatatom 245 639 5 0 0 0 - - -;
#X floatatom 325 639 5 0 0 0 - - -;
#X floatatom 285 639 5 0 0 0 - - -;
#X floatatom 365 639 5 0 0 0 - - -;
#X floatatom 405 639 5 0 0 0 - - -;
#X floatatom 445 639 5 0 0 0 - - -;
#X floatatom 515 639 5 0 0 0 - - -;
#X floatatom 555 639 5 0 0 0 - - -;
#X floatatom 595 639 5 0 0 0 - - -;
#X floatatom 635 639 5 0 0 0 - - -;
#X floatatom 675 639 5 0 0 0 - - -;
#X floatatom 715 639 5 0 0 0 - - -;
#X floatatom 755 639 5 0 0 0 - - -;
#X floatatom 795 639 5 0 0 0 - - -;
#X floatatom 835 639 5 0 0 0 - - -;
#X floatatom 875 639 5 0 0 0 - - -;
#X floatatom 915 639 5 0 0 0 - - -;
#X floatatom 955 639 5 0 0 0 - - -;
#X obj 478 655 outlet;
#X obj 729 655 notoname;
#X symbolatom 729 679 10 0 0 0 - - #0-notoname;
#X obj 985 605 + 24;
#X connect 0 0 4 0;
#X connect 0 0 16 1;
#X connect 1 0 3 0;
#X connect 2 0 1 1;
#X connect 3 0 17 0;
#X connect 3 0 36 0;
#X connect 4 0 2 0;
#X connect 5 0 6 1;
#X connect 5 0 36 0;
#X connect 6 0 1 0;
#X connect 7 0 39 1;
#X connect 8 0 35 1;
#X connect 9 0 10 0;
#X connect 10 0 11 0;
#X connect 11 0 0 0;
#X connect 12 0 13 0;
#X connect 13 0 5 0;
#X connect 14 0 12 0;
#X connect 15 0 37 1;
#X connect 16 0 6 0;
#X connect 18 0 8 0;
#X connect 18 0 15 0;
#X connect 18 0 7 0;
#X connect 18 0 21 0;
#X connect 18 0 22 0;
#X connect 18 0 23 0;
#X connect 18 0 24 0;
#X connect 18 0 25 0;
#X connect 18 0 26 0;
#X connect 18 0 27 0;
#X connect 18 0 28 0;
#X connect 18 0 29 0;
#X connect 18 0 30 0;
#X connect 18 0 31 0;
#X connect 18 0 32 0;
#X connect 18 0 33 0;
#X connect 18 0 34 0;
#X connect 18 0 75 0;
#X connect 19 0 18 0;
#X connect 20 0 16 0;
#X connect 21 0 38 1;
#X connect 22 0 40 1;
#X connect 23 0 41 1;
#X connect 24 0 42 1;
#X connect 25 0 43 1;
#X connect 26 0 44 1;
#X connect 27 0 45 1;
#X connect 28 0 46 1;
#X connect 29 0 47 1;
#X connect 30 0 48 1;
#X connect 31 0 49 1;
#X connect 32 0 50 1;
#X connect 33 0 51 1;
#X connect 34 0 52 1;
#X connect 35 0 54 0;
#X connect 36 0 35 0;
#X connect 36 1 37 0;
#X connect 36 2 38 0;
#X connect 36 3 39 0;
#X connect 36 4 40 0;
#X connect 36 5 41 0;
#X connect 36 6 42 0;
#X connect 36 7 43 0;
#X connect 36 8 44 0;
#X connect 36 9 45 0;
#X connect 36 10 46 0;
#X connect 36 11 47 0;
#X connect 36 12 48 0;
#X connect 36 13 49 0;
#X connect 36 14 50 0;
#X connect 36 15 51 0;
#X connect 36 16 52 0;
#X connect 36 17 53 0;
#X connect 37 0 56 0;
#X connect 38 0 55 0;
#X connect 39 0 57 0;
#X connect 40 0 58 0;
#X connect 41 0 59 0;
#X connect 42 0 60 0;
#X connect 43 0 61 0;
#X connect 44 0 62 0;
#X connect 45 0 63 0;
#X connect 46 0 64 0;
#X connect 47 0 65 0;
#X connect 48 0 66 0;
#X connect 49 0 67 0;
#X connect 50 0 68 0;
#X connect 51 0 69 0;
#X connect 52 0 70 0;
#X connect 53 0 71 0;
#X connect 54 0 72 0;
#X connect 54 0 73 0;
#X connect 55 0 72 0;
#X connect 55 0 73 0;
#X connect 56 0 72 0;
#X connect 56 0 73 0;
#X connect 57 0 72 0;
#X connect 57 0 73 0;
#X connect 58 0 72 0;
#X connect 58 0 73 0;
#X connect 59 0 72 0;
#X connect 59 0 73 0;
#X connect 60 0 72 0;
#X connect 60 0 73 0;
#X connect 61 0 72 0;
#X connect 61 0 73 0;
#X connect 62 0 72 0;
#X connect 62 0 73 0;
#X connect 63 0 72 0;
#X connect 63 0 73 0;
#X connect 64 0 72 0;
#X connect 64 0 73 0;
#X connect 65 0 72 0;
#X connect 65 0 73 0;
#X connect 66 0 72 0;
#X connect 66 0 73 0;
#X connect 67 0 72 0;
#X connect 67 0 73 0;
#X connect 68 0 72 0;
#X connect 68 0 73 0;
#X connect 69 0 72 0;
#X connect 69 0 73 0;
#X connect 70 0 72 0;
#X connect 70 0 73 0;
#X connect 71 0 72 0;
#X connect 71 0 73 0;
#X connect 73 0 74 0;
#X connect 75 0 53 1;
#X restore 482 225 pd Makenote;
#X floatatom 564 432 5 0 0 0 - - -;
#X obj 759 143 r \$0-moses;
#X obj 376 160 sel 1;
#X obj 376 197 bng 15 250 50 0 empty empty empty 17 7 0 10 -262144
-1 -1;
#X obj 403 198 bng 15 250 50 0 empty empty empty 17 7 0 10 -262144
-1 -1;
#X msg 376 702 1;
#X obj 624 653 bng 15 250 50 0 empty empty empty 17 7 0 10 -262144
-1 -1;
#X obj 624 686 i;
#X floatatom 624 750 5 0 0 0 - - -;
#X obj 624 719 +;
#X obj 623 618 sel 0;
#X obj 624 787 sel 1;
#X msg 403 702 2;
#X obj 277 238 nbx 3 15 -1e+037 1e+037 0 0 empty empty Note 5 -5 0
10 -146596 -1 -262144 53 256;
#X msg 163 31 2000;
#X msg 202 31 4;
#X obj 624 884 bng 15 250 50 0 \$0-makenote empty empty 17 7 0 10 -262144
-1 -1;
#X obj 624 850 delay 50;
#X obj 624 821 bng 15 250 50 0 empty empty empty 17 7 0 10 -262144
-1 -1;
#X obj 482 551 makenote 0 0;
#X obj 482 608 stripnote;
#X floatatom 482 637 5 0 0 0 - - -;
#X obj 545 108 bng 15 250 50 0 empty \$0-makenote empty 17 7 0 10 -262144
-1 -1;
#X obj 545 133 t b b b;
#X obj 657 668 s off1;
#X obj 569 619 s vel1;
#X obj 482 664 s note1;
#X obj 564 374 random 15;
#X obj 564 402 + 5;
#X msg 385 8 53;
#X obj 491 584 noteout 5;
#X connect 1 0 7 0;
#X connect 2 0 45 0;
#X connect 3 0 11 0;
#X connect 5 0 13 0;
#X connect 12 0 19 0;
#X connect 12 0 14 0;
#X connect 12 0 17 0;
#X connect 12 0 18 0;
#X connect 12 0 72 0;
#X connect 12 0 57 0;
#X connect 12 0 58 0;
#X connect 13 0 27 0;
#X connect 14 0 3 0;
#X connect 15 0 53 0;
#X connect 15 0 63 1;
#X connect 15 0 68 0;
#X connect 16 0 12 0;
#X connect 17 0 4 0;
#X connect 17 0 5 0;
#X connect 19 0 10 0;
#X connect 22 0 37 0;
#X connect 23 0 35 0;
#X connect 24 0 22 0;
#X connect 24 1 23 0;
#X connect 25 0 40 0;
#X connect 26 0 25 1;
#X connect 27 0 28 0;
#X connect 27 1 36 0;
#X connect 28 0 26 0;
#X connect 28 0 29 0;
#X connect 29 0 25 1;
#X connect 30 0 24 0;
#X connect 31 0 32 0;
#X connect 32 0 33 0;
#X connect 33 0 24 1;
#X connect 34 0 40 0;
#X connect 35 0 34 0;
#X connect 36 0 25 1;
#X connect 37 0 25 0;
#X connect 38 0 35 1;
#X connect 39 0 34 1;
#X connect 40 0 62 2;
#X connect 41 0 62 0;
#X connect 42 0 41 0;
#X connect 43 0 62 1;
#X connect 44 0 31 0;
#X connect 45 0 46 0;
#X connect 45 1 47 0;
#X connect 46 0 48 0;
#X connect 46 0 65 0;
#X connect 47 0 55 0;
#X connect 48 0 52 1;
#X connect 49 0 50 0;
#X connect 49 0 67 0;
#X connect 50 0 52 0;
#X connect 51 0 54 0;
#X connect 52 0 51 0;
#X connect 53 0 49 0;
#X connect 54 0 61 0;
#X connect 55 0 52 1;
#X connect 56 0 42 0;
#X connect 57 0 20 0;
#X connect 57 0 6 0;
#X connect 58 0 1 0;
#X connect 60 0 59 0;
#X connect 61 0 60 0;
#X connect 62 0 63 0;
#X connect 62 0 73 0;
#X connect 62 1 15 0;
#X connect 62 1 73 1;
#X connect 63 0 64 0;
#X connect 64 0 69 0;
#X connect 65 0 66 0;
#X connect 66 0 42 1;
#X connect 66 1 70 0;
#X connect 66 2 30 0;
#X connect 70 0 71 0;
#X connect 71 0 43 0;
#X connect 72 0 56 0;
#X coords 0 -1 1 1 230 200 1 100 100;
