#N canvas 0 0 1916 997 10;
#X obj 219 343 poly 4 1;
#X obj 219 368 pack f f f;
#X obj 219 396 route 1 2 3 4;
#X obj 384 471 tgl 15 0 empty empty empty 17 7 0 10 -262144 -1 -1 1
1;
#X obj 384 494 metro 100;
#X obj 101 101 cnv 15 248 178 empty empty Synth2 20 12 0 14 -62863
-262144 0;
#X obj 118 127 cnv 15 100 50 empty empty empty 20 12 0 14 -167142 -66577
0;
#X obj 121 188 hsl 100 15 0 10 0 0 empty \$0-bw Binaural_waves 10 7
0 10 -232576 -1 -1 6100 1;
#X obj 120 208 hsl 100 15 0.01 1 0 0 amidi2 CC24-11 Attack 10 7 0 10
-232576 -1 -1 4500 1;
#X obj 121 228 hsl 100 15 0.1 1 0 0 rmidi2 CC27-11 Release 10 7 0 10
-232576 -1 -1 4400 1;
#X obj 384 416 loadbang;
#X msg 384 444 1;
#X obj 254 138 vradio 15 1 0 4 w2 empty W 0 -8 0 10 -232576 -1 -1 0
;
#X obj 371 105 hsl 100 15 0.1 1 0 0 phase empty Phase -2 -8 0 10 -232576
-1 -1 0 1;
#X obj 238 234 hsl 100 10 0.1 1 0 0 pwm empty empty -2 -8 0 10 -232576
-1 -1 0 1;
#X msg 368 38 0;
#X obj 234 130 vradio 15 1 0 5 harmonics2 empty H 0 -8 0 10 -232576
-1 -1 1;
#X obj 280 158 tgl 20 0 empty empty empty 17 7 0 10 -257985 -1 -1 1
1;
#X obj 648 205 i;
#X floatatom 649 262 5 0 0 0 - - -;
#X floatatom 649 314 5 0 0 0 - - -;
#X obj 648 178 metro;
#X obj 788 295 sel 1;
#X obj 832 312 bng 15 250 50 0 empty empty empty 17 7 0 10 -262144
-1 -1;
#X obj 728 305 sel 1;
#X obj 775 322 bng 15 250 50 0 empty empty empty 17 7 0 10 -262144
-1 -1;
#X obj 686 205 +;
#X msg 775 188 -1;
#X msg 832 188 1;
#X msg 648 141 0;
#X obj 788 251 == 1;
#X obj 648 234 % 100;
#X obj 649 286 / 100;
#X obj 728 251 == 99;
#X obj 238 213 hsl 100 15 1 50 0 0 empty CC22-10 Speed 10 7 0 10 -232576
-1 -1 1600 1;
#X obj 299 119 bng 20 250 50 0 empty empty Reset -1 -7 0 10 -257985
-1 -262144;
#X msg 280 57 1;
#X obj 318 158 tgl 20 0 harmonics2 empty velocity -20 -7 0 10 -257985
-1 -262144 1 1;
#X obj 319 187 bng 20 250 50 0 empty empty empty 17 7 0 10 -232576
-33289 -1;
#X msg 116 50 0.5;
#X msg 116 27 0.01;
#X obj 368 -32 loadbang;
#N canvas 0 0 1920 997 MIDI 0;
#X text 306 26 attack;
#X text 381 25 decay;
#X text 458 25 sustain;
#X text 529 25 release;
#X obj 382 75 / 127;
#X obj 307 74 / 127;
#X obj 457 74 / 127;
#X obj 532 74 / 127;
#X obj 310 129 hsl 40 10 0.01 1 0 0 CC24-11 empty empty -2 -8 0 10
-262144 -1 -1 0 1;
#X obj 385 128 hsl 40 10 0.01 1 0 0 CC25-11 empty empty -2 -8 0 10
-262144 -1 -1 0 1;
#X obj 460 127 hsl 40 10 0.01 1 0 0 CC26-11 empty empty -2 -8 0 10
-262144 -1 -1 0 1;
#X obj 535 126 hsl 40 10 0.01 1 0 0 CC27-11 empty empty -2 -8 0 10
-262144 -1 -1 0 1;
#X text 288 159 ------------------------------------------------------
;
#X text 431 174 ADSR 1;
#X obj 231 -16 bng 8 250 50 0 empty empty empty 17 7 0 10 -1 -1 -1
;
#X obj 231 296 bng 8 250 50 0 empty empty empty 17 7 0 10 -1 -1 -1
;
#X obj 70 42 / 127;
#X obj 73 105 hsl 40 10 0 10 0 0 \$0-bw empty empty -2 -8 0 10 -262144
-1 -1 0 1;
#X obj 70 72 * 10;
#X text 94 278 instrument;
#X text 17 261 ------------------------------;
#X obj 297 254 / 127;
#X obj 300 309 hsl 40 10 0 1 0 0 CC21-11 empty empty -2 -8 0 10 -262144
-1 -1 0 1;
#X obj 407 254 / 127;
#X obj 410 309 hsl 40 10 0 50 0 0 CC22-11 empty empty -2 -8 0 10 -262144
-1 -1 0 1;
#X obj 407 283 * 50;
#X obj 70 9 ctlin 20 11;
#X obj 307 43 ctlin 24 11;
#X obj 382 43 ctlin 25 11;
#X obj 457 43 ctlin 26 11;
#X obj 532 43 ctlin 27 11;
#X obj 297 223 ctlin 21 11;
#X obj 407 223 ctlin 22 11;
#X connect 4 0 9 0;
#X connect 5 0 8 0;
#X connect 6 0 10 0;
#X connect 7 0 11 0;
#X connect 14 0 15 0;
#X connect 16 0 18 0;
#X connect 18 0 17 0;
#X connect 21 0 22 0;
#X connect 23 0 25 0;
#X connect 25 0 24 0;
#X connect 26 0 16 0;
#X connect 27 0 5 0;
#X connect 28 0 4 0;
#X connect 29 0 6 0;
#X connect 30 0 7 0;
#X connect 31 0 21 0;
#X connect 32 0 23 0;
#X restore 574 20 pd MIDI;
#N canvas 0 0 1916 988 instrument 0;
#X obj 280 600 +~;
#X obj 420 600 +~;
#X obj 561 600 +~;
#X obj 41 269 mtof;
#X obj 690 599 +~;
#X obj 40 688 *~;
#X obj 41 616 +~;
#X obj 338 403 vsl 15 60 0 1 0 0 empty empty empty 0 -9 0 10 -262144
-1 -1 590 1;
#X obj 281 378 osc~;
#X obj 281 545 *~;
#X obj 338 483 pack f 50;
#X obj 338 529 line~;
#X obj 478 403 vsl 15 60 0 1 0 0 empty empty empty 0 -9 0 10 -262144
-1 -1 472 1;
#X obj 421 378 osc~;
#X obj 421 545 *~;
#X obj 478 483 pack f 50;
#X obj 478 529 line~;
#X obj 618 403 vsl 15 60 0 1 0 0 empty empty empty 0 -9 0 10 -262144
-1 -1 295 1;
#X obj 561 378 osc~;
#X obj 561 545 *~;
#X obj 618 483 pack f 50;
#X obj 618 529 line~;
#X obj 748 403 vsl 15 60 0 1 0 0 empty empty empty 0 -9 0 10 -262144
-1 -1 177 1;
#X obj 691 378 osc~;
#X obj 691 545 *~;
#X obj 748 483 pack f 50;
#X obj 748 529 line~;
#X obj 41 -89 inlet;
#X obj 41 -55 unpack f f;
#X obj 40 751 outlet~;
#X obj 1003 138 bng 15 250 50 0 empty empty empty 17 7 0 10 -262144
-1 -1;
#X obj 1123 138 bng 15 250 50 0 empty empty empty 17 7 0 10 -262144
-1 -1;
#X obj 1243 138 bng 15 250 50 0 empty empty empty 17 7 0 10 -262144
-1 -1;
#X obj 1383 138 bng 15 250 50 0 empty empty empty 17 7 0 10 -262144
-1 -1;
#X obj 210 590 +~;
#X obj 126 598 +~;
#X obj 127 286 +;
#X obj 338 311 loadbang;
#X obj 281 328 +;
#X obj 421 328 +;
#X obj 561 328 +;
#X obj 691 328 +;
#X obj 963 243 pack f f f f;
#X obj 823 311 unpack f f f f;
#X obj 1093 243 pack f f f f;
#X obj 1223 243 pack f f f f;
#X obj 1353 243 pack f f f f;
#X obj 478 311 loadbang;
#X obj 618 311 loadbang;
#X obj 748 311 loadbang;
#X obj 963 311 unpack f f f f;
#X obj 1093 311 unpack f f f f;
#X obj 1223 311 unpack f f f f;
#X msg 1083 210 -8;
#X msg 1273 210 5;
#X obj 41 335 + 1.3;
#X obj 211 286 +;
#X obj 41 376 cnv2;
#X obj 127 376 cnv2;
#X obj 211 376 cnv2;
#X obj 863 138 bng 15 250 50 0 empty empty empty 17 7 0 10 -262144
-1 -1;
#X obj 823 243 pack f f f f;
#X obj 1353 311 unpack f f f f;
#X msg 813 210 0;
#X msg 843 210 0;
#X msg 873 210 0;
#X msg 904 210 0;
#X msg 142 153 0;
#X obj 421 286 * 3;
#X obj 561 286 * 4;
#X obj 691 286 * 5.5;
#X obj 281 286 * 2;
#X msg 953 210 20;
#X msg 983 210 -50;
#X msg 1013 210 60;
#X msg 1044 210 -100;
#X msg 338 365 0.1;
#X msg 478 365 0.08;
#X msg 618 365 0.05;
#X msg 748 365 0.03;
#X msg 1113 210 -40;
#X msg 1143 210 -200;
#X msg 1174 210 30;
#X msg 1213 210 22;
#X msg 1243 210 -400;
#X msg 1304 210 8;
#X msg 1343 210 -400;
#X msg 1373 210 42;
#X msg 1403 210 -100;
#X msg 1435 210 35;
#X floatatom 177 65 5 0 0 0 - - -;
#X floatatom 224 65 5 0 0 0 - - -;
#X floatatom 271 65 5 0 0 0 - - -;
#X floatatom 318 65 5 0 0 0 - - -;
#X obj 98 -8 sel 0;
#X obj 423 17 sel 1;
#X floatatom 435 105 5 0 0 0 - - -;
#X obj 435 81 +;
#X obj 483 17 sel 1;
#X floatatom 495 105 5 0 0 0 - - -;
#X obj 495 81 +;
#X obj 543 17 sel 1;
#X floatatom 555 105 5 0 0 0 - - -;
#X obj 555 81 +;
#X obj 603 17 sel 1;
#X floatatom 615 105 5 0 0 0 - - -;
#X obj 615 81 +;
#X obj 509 -60 tgl 15 0 empty harmonics2 empty 17 7 0 10 -262144 -1
-1 1 1;
#X msg 423 45 0;
#X msg 450 45 100;
#X msg 483 45 0;
#X msg 510 45 100;
#X msg 543 45 0;
#X msg 570 45 100;
#X msg 603 45 0;
#X msg 630 45 100;
#X obj 435 121 sel 0 1 2 3 4;
#X obj 582 -37 sel 0;
#X obj 162 9 expr if($f1 >= 110 \, 1 \, 200) \; if($f1 < 110 && $f1
>= 70 \, 2 \, 200) \; if($f1 <= 70 \, 0 \, 200) \;;
#X floatatom 228 320 5 0 0 0 - - -;
#X floatatom 135 325 5 0 0 0 - - -;
#X obj 106 249 r \$0-b1;
#X obj 168 249 r \$0-b2;
#X obj 98 672 adsr2;
#X obj 156 -38 r vel2;
#X obj 334 104 r harmonics2;
#X connect 0 0 34 1;
#X connect 1 0 0 1;
#X connect 2 0 1 1;
#X connect 3 0 36 0;
#X connect 3 0 55 0;
#X connect 3 0 56 0;
#X connect 3 0 68 0;
#X connect 3 0 69 0;
#X connect 3 0 70 0;
#X connect 3 0 71 0;
#X connect 4 0 2 1;
#X connect 5 0 29 0;
#X connect 6 0 5 0;
#X connect 7 0 10 0;
#X connect 8 0 9 0;
#X connect 9 0 0 0;
#X connect 10 0 11 0;
#X connect 11 0 9 1;
#X connect 12 0 15 0;
#X connect 13 0 14 0;
#X connect 14 0 1 0;
#X connect 15 0 16 0;
#X connect 16 0 14 1;
#X connect 17 0 20 0;
#X connect 18 0 19 0;
#X connect 19 0 2 0;
#X connect 20 0 21 0;
#X connect 21 0 19 1;
#X connect 22 0 25 0;
#X connect 23 0 24 0;
#X connect 24 0 4 0;
#X connect 25 0 26 0;
#X connect 26 0 24 1;
#X connect 27 0 28 0;
#X connect 28 0 3 0;
#X connect 28 1 94 0;
#X connect 28 1 123 0;
#X connect 30 0 75 0;
#X connect 30 0 72 0;
#X connect 30 0 73 0;
#X connect 30 0 74 0;
#X connect 31 0 53 0;
#X connect 31 0 80 0;
#X connect 31 0 81 0;
#X connect 31 0 82 0;
#X connect 32 0 83 0;
#X connect 32 0 84 0;
#X connect 32 0 54 0;
#X connect 32 0 85 0;
#X connect 33 0 86 0;
#X connect 33 0 87 0;
#X connect 33 0 88 0;
#X connect 33 0 89 0;
#X connect 34 0 35 1;
#X connect 35 0 6 1;
#X connect 36 0 58 0;
#X connect 36 0 120 0;
#X connect 37 0 76 0;
#X connect 38 0 8 0;
#X connect 39 0 13 0;
#X connect 40 0 18 0;
#X connect 41 0 23 0;
#X connect 42 0 50 0;
#X connect 43 0 38 1;
#X connect 43 1 39 1;
#X connect 43 2 40 1;
#X connect 43 3 41 1;
#X connect 44 0 51 0;
#X connect 45 0 52 0;
#X connect 46 0 62 0;
#X connect 47 0 77 0;
#X connect 48 0 78 0;
#X connect 49 0 79 0;
#X connect 50 0 38 1;
#X connect 50 1 39 1;
#X connect 50 2 40 1;
#X connect 50 3 41 1;
#X connect 51 0 38 1;
#X connect 51 1 39 1;
#X connect 51 2 40 1;
#X connect 51 3 41 1;
#X connect 52 0 38 1;
#X connect 52 1 39 1;
#X connect 52 2 40 1;
#X connect 52 3 41 1;
#X connect 53 0 44 0;
#X connect 54 0 45 2;
#X connect 55 0 57 0;
#X connect 56 0 59 0;
#X connect 56 0 119 0;
#X connect 57 0 6 0;
#X connect 58 0 35 0;
#X connect 59 0 34 0;
#X connect 60 0 66 0;
#X connect 60 0 63 0;
#X connect 60 0 64 0;
#X connect 60 0 65 0;
#X connect 60 0 67 0;
#X connect 61 0 43 0;
#X connect 62 0 38 1;
#X connect 62 1 39 1;
#X connect 62 2 40 1;
#X connect 62 3 41 1;
#X connect 63 0 61 0;
#X connect 64 0 61 1;
#X connect 65 0 61 2;
#X connect 66 0 61 3;
#X connect 67 0 36 1;
#X connect 67 0 56 1;
#X connect 68 0 39 0;
#X connect 69 0 40 0;
#X connect 70 0 41 0;
#X connect 71 0 38 0;
#X connect 72 0 42 0;
#X connect 73 0 42 1;
#X connect 74 0 42 2;
#X connect 75 0 42 3;
#X connect 76 0 7 0;
#X connect 77 0 12 0;
#X connect 78 0 17 0;
#X connect 79 0 22 0;
#X connect 80 0 44 1;
#X connect 81 0 44 2;
#X connect 82 0 44 3;
#X connect 83 0 45 0;
#X connect 84 0 45 1;
#X connect 85 0 45 3;
#X connect 86 0 46 0;
#X connect 87 0 46 1;
#X connect 88 0 46 2;
#X connect 89 0 46 3;
#X connect 90 0 97 0;
#X connect 91 0 100 0;
#X connect 92 0 103 0;
#X connect 93 0 106 0;
#X connect 94 1 118 0;
#X connect 95 0 108 0;
#X connect 95 1 109 0;
#X connect 96 0 116 0;
#X connect 97 0 96 0;
#X connect 98 0 110 0;
#X connect 98 1 111 0;
#X connect 99 0 116 0;
#X connect 100 0 99 0;
#X connect 101 0 112 0;
#X connect 101 1 113 0;
#X connect 102 0 116 0;
#X connect 103 0 102 0;
#X connect 104 0 114 0;
#X connect 104 1 115 0;
#X connect 105 0 116 0;
#X connect 106 0 105 0;
#X connect 107 0 95 0;
#X connect 107 0 98 0;
#X connect 107 0 101 0;
#X connect 107 0 104 0;
#X connect 107 0 117 0;
#X connect 108 0 97 1;
#X connect 109 0 97 1;
#X connect 110 0 100 1;
#X connect 111 0 100 1;
#X connect 112 0 103 1;
#X connect 113 0 103 1;
#X connect 114 0 106 1;
#X connect 115 0 106 1;
#X connect 116 0 60 0;
#X connect 116 1 30 0;
#X connect 116 2 31 0;
#X connect 116 3 32 0;
#X connect 116 4 33 0;
#X connect 117 0 60 0;
#X connect 118 0 90 0;
#X connect 118 1 91 0;
#X connect 118 2 92 0;
#X connect 121 0 36 1;
#X connect 122 0 56 1;
#X connect 123 0 5 1;
#X connect 124 0 94 0;
#X connect 125 0 116 0;
#X restore 219 420 pd instrument;
#X floatatom 543 203 5 0 0 0 - - -;
#X obj 472 203 swap 1;
#X obj 472 237 -;
#X floatatom 472 267 5 0 0 0 - - -;
#X floatatom 543 268 5 0 0 0 - - -;
#X obj 543 301 s \$0-b2;
#X obj 472 302 s \$0-b1;
#X obj 303 303 r vel2;
#X obj 149 309 r note2;
#X obj 219 319 notein 11;
#N canvas 0 50 450 278 (subpatch) 0;
#X array d 200 float 4;
#X coords 0 1 199 -1 100 50 1 0 0;
#X restore 118 127 graph;
#X floatatom 141 363 5 0 0 0 - - -;
#N canvas 0 0 1916 988 instrument 0;
#X obj 280 600 +~;
#X obj 420 600 +~;
#X obj 561 600 +~;
#X obj 41 269 mtof;
#X obj 690 599 +~;
#X obj 40 688 *~;
#X obj 41 616 +~;
#X obj 338 403 vsl 15 60 0 1 0 0 empty empty empty 0 -9 0 10 -262144
-1 -1 590 1;
#X obj 281 378 osc~;
#X obj 281 545 *~;
#X obj 338 483 pack f 50;
#X obj 338 529 line~;
#X obj 478 403 vsl 15 60 0 1 0 0 empty empty empty 0 -9 0 10 -262144
-1 -1 472 1;
#X obj 421 378 osc~;
#X obj 421 545 *~;
#X obj 478 483 pack f 50;
#X obj 478 529 line~;
#X obj 618 403 vsl 15 60 0 1 0 0 empty empty empty 0 -9 0 10 -262144
-1 -1 295 1;
#X obj 561 378 osc~;
#X obj 561 545 *~;
#X obj 618 483 pack f 50;
#X obj 618 529 line~;
#X obj 748 403 vsl 15 60 0 1 0 0 empty empty empty 0 -9 0 10 -262144
-1 -1 177 1;
#X obj 691 378 osc~;
#X obj 691 545 *~;
#X obj 748 483 pack f 50;
#X obj 748 529 line~;
#X obj 41 -89 inlet;
#X obj 41 -55 unpack f f;
#X obj 40 751 outlet~;
#X obj 1003 138 bng 15 250 50 0 empty empty empty 17 7 0 10 -262144
-1 -1;
#X obj 1123 138 bng 15 250 50 0 empty empty empty 17 7 0 10 -262144
-1 -1;
#X obj 1243 138 bng 15 250 50 0 empty empty empty 17 7 0 10 -262144
-1 -1;
#X obj 1383 138 bng 15 250 50 0 empty empty empty 17 7 0 10 -262144
-1 -1;
#X obj 210 590 +~;
#X obj 126 598 +~;
#X obj 127 286 +;
#X obj 338 311 loadbang;
#X obj 281 328 +;
#X obj 421 328 +;
#X obj 561 328 +;
#X obj 691 328 +;
#X obj 963 243 pack f f f f;
#X obj 823 311 unpack f f f f;
#X obj 1093 243 pack f f f f;
#X obj 1223 243 pack f f f f;
#X obj 1353 243 pack f f f f;
#X obj 478 311 loadbang;
#X obj 618 311 loadbang;
#X obj 748 311 loadbang;
#X obj 963 311 unpack f f f f;
#X obj 1093 311 unpack f f f f;
#X obj 1223 311 unpack f f f f;
#X msg 1083 210 -8;
#X msg 1273 210 5;
#X obj 41 335 + 1.3;
#X obj 211 286 +;
#X obj 41 376 cnv2;
#X obj 127 376 cnv2;
#X obj 211 376 cnv2;
#X obj 863 138 bng 15 250 50 0 empty empty empty 17 7 0 10 -262144
-1 -1;
#X obj 823 243 pack f f f f;
#X obj 1353 311 unpack f f f f;
#X msg 813 210 0;
#X msg 843 210 0;
#X msg 873 210 0;
#X msg 904 210 0;
#X msg 142 153 0;
#X obj 421 286 * 3;
#X obj 561 286 * 4;
#X obj 691 286 * 5.5;
#X obj 281 286 * 2;
#X msg 953 210 20;
#X msg 983 210 -50;
#X msg 1013 210 60;
#X msg 1044 210 -100;
#X msg 338 365 0.1;
#X msg 478 365 0.08;
#X msg 618 365 0.05;
#X msg 748 365 0.03;
#X msg 1113 210 -40;
#X msg 1143 210 -200;
#X msg 1174 210 30;
#X msg 1213 210 22;
#X msg 1243 210 -400;
#X msg 1304 210 8;
#X msg 1343 210 -400;
#X msg 1373 210 42;
#X msg 1403 210 -100;
#X msg 1435 210 35;
#X floatatom 177 65 5 0 0 0 - - -;
#X floatatom 224 65 5 0 0 0 - - -;
#X floatatom 271 65 5 0 0 0 - - -;
#X floatatom 318 65 5 0 0 0 - - -;
#X obj 98 -8 sel 0;
#X obj 423 17 sel 1;
#X floatatom 435 105 5 0 0 0 - - -;
#X obj 435 81 +;
#X obj 483 17 sel 1;
#X floatatom 495 105 5 0 0 0 - - -;
#X obj 495 81 +;
#X obj 543 17 sel 1;
#X floatatom 555 105 5 0 0 0 - - -;
#X obj 555 81 +;
#X obj 603 17 sel 1;
#X floatatom 615 105 5 0 0 0 - - -;
#X obj 615 81 +;
#X obj 509 -60 tgl 15 0 empty harmonics2 empty 17 7 0 10 -262144 -1
-1 1 1;
#X msg 423 45 0;
#X msg 450 45 100;
#X msg 483 45 0;
#X msg 510 45 100;
#X msg 543 45 0;
#X msg 570 45 100;
#X msg 603 45 0;
#X msg 630 45 100;
#X obj 435 121 sel 0 1 2 3 4;
#X obj 582 -37 sel 0;
#X obj 162 9 expr if($f1 >= 110 \, 1 \, 200) \; if($f1 < 110 && $f1
>= 70 \, 2 \, 200) \; if($f1 <= 70 \, 0 \, 200) \;;
#X floatatom 228 320 5 0 0 0 - - -;
#X floatatom 135 325 5 0 0 0 - - -;
#X obj 106 249 r \$0-b1;
#X obj 168 249 r \$0-b2;
#X obj 98 672 adsr2;
#X obj 156 -38 r vel2;
#X obj 334 104 r harmonics2;
#X connect 0 0 34 1;
#X connect 1 0 0 1;
#X connect 2 0 1 1;
#X connect 3 0 36 0;
#X connect 3 0 55 0;
#X connect 3 0 56 0;
#X connect 3 0 68 0;
#X connect 3 0 69 0;
#X connect 3 0 70 0;
#X connect 3 0 71 0;
#X connect 4 0 2 1;
#X connect 5 0 29 0;
#X connect 6 0 5 0;
#X connect 7 0 10 0;
#X connect 8 0 9 0;
#X connect 9 0 0 0;
#X connect 10 0 11 0;
#X connect 11 0 9 1;
#X connect 12 0 15 0;
#X connect 13 0 14 0;
#X connect 14 0 1 0;
#X connect 15 0 16 0;
#X connect 16 0 14 1;
#X connect 17 0 20 0;
#X connect 18 0 19 0;
#X connect 19 0 2 0;
#X connect 20 0 21 0;
#X connect 21 0 19 1;
#X connect 22 0 25 0;
#X connect 23 0 24 0;
#X connect 24 0 4 0;
#X connect 25 0 26 0;
#X connect 26 0 24 1;
#X connect 27 0 28 0;
#X connect 28 0 3 0;
#X connect 28 1 94 0;
#X connect 28 1 123 0;
#X connect 30 0 75 0;
#X connect 30 0 72 0;
#X connect 30 0 73 0;
#X connect 30 0 74 0;
#X connect 31 0 53 0;
#X connect 31 0 80 0;
#X connect 31 0 81 0;
#X connect 31 0 82 0;
#X connect 32 0 83 0;
#X connect 32 0 84 0;
#X connect 32 0 54 0;
#X connect 32 0 85 0;
#X connect 33 0 86 0;
#X connect 33 0 87 0;
#X connect 33 0 88 0;
#X connect 33 0 89 0;
#X connect 34 0 35 1;
#X connect 35 0 6 1;
#X connect 36 0 58 0;
#X connect 36 0 120 0;
#X connect 37 0 76 0;
#X connect 38 0 8 0;
#X connect 39 0 13 0;
#X connect 40 0 18 0;
#X connect 41 0 23 0;
#X connect 42 0 50 0;
#X connect 43 0 38 1;
#X connect 43 1 39 1;
#X connect 43 2 40 1;
#X connect 43 3 41 1;
#X connect 44 0 51 0;
#X connect 45 0 52 0;
#X connect 46 0 62 0;
#X connect 47 0 77 0;
#X connect 48 0 78 0;
#X connect 49 0 79 0;
#X connect 50 0 38 1;
#X connect 50 1 39 1;
#X connect 50 2 40 1;
#X connect 50 3 41 1;
#X connect 51 0 38 1;
#X connect 51 1 39 1;
#X connect 51 2 40 1;
#X connect 51 3 41 1;
#X connect 52 0 38 1;
#X connect 52 1 39 1;
#X connect 52 2 40 1;
#X connect 52 3 41 1;
#X connect 53 0 44 0;
#X connect 54 0 45 2;
#X connect 55 0 57 0;
#X connect 56 0 59 0;
#X connect 56 0 119 0;
#X connect 57 0 6 0;
#X connect 58 0 35 0;
#X connect 59 0 34 0;
#X connect 60 0 66 0;
#X connect 60 0 63 0;
#X connect 60 0 64 0;
#X connect 60 0 65 0;
#X connect 60 0 67 0;
#X connect 61 0 43 0;
#X connect 62 0 38 1;
#X connect 62 1 39 1;
#X connect 62 2 40 1;
#X connect 62 3 41 1;
#X connect 63 0 61 0;
#X connect 64 0 61 1;
#X connect 65 0 61 2;
#X connect 66 0 61 3;
#X connect 67 0 36 1;
#X connect 67 0 56 1;
#X connect 68 0 39 0;
#X connect 69 0 40 0;
#X connect 70 0 41 0;
#X connect 71 0 38 0;
#X connect 72 0 42 0;
#X connect 73 0 42 1;
#X connect 74 0 42 2;
#X connect 75 0 42 3;
#X connect 76 0 7 0;
#X connect 77 0 12 0;
#X connect 78 0 17 0;
#X connect 79 0 22 0;
#X connect 80 0 44 1;
#X connect 81 0 44 2;
#X connect 82 0 44 3;
#X connect 83 0 45 0;
#X connect 84 0 45 1;
#X connect 85 0 45 3;
#X connect 86 0 46 0;
#X connect 87 0 46 1;
#X connect 88 0 46 2;
#X connect 89 0 46 3;
#X connect 90 0 97 0;
#X connect 91 0 100 0;
#X connect 92 0 103 0;
#X connect 93 0 106 0;
#X connect 94 1 118 0;
#X connect 95 0 108 0;
#X connect 95 1 109 0;
#X connect 96 0 116 0;
#X connect 97 0 96 0;
#X connect 98 0 110 0;
#X connect 98 1 111 0;
#X connect 99 0 116 0;
#X connect 100 0 99 0;
#X connect 101 0 112 0;
#X connect 101 1 113 0;
#X connect 102 0 116 0;
#X connect 103 0 102 0;
#X connect 104 0 114 0;
#X connect 104 1 115 0;
#X connect 105 0 116 0;
#X connect 106 0 105 0;
#X connect 107 0 95 0;
#X connect 107 0 98 0;
#X connect 107 0 101 0;
#X connect 107 0 104 0;
#X connect 107 0 117 0;
#X connect 108 0 97 1;
#X connect 109 0 97 1;
#X connect 110 0 100 1;
#X connect 111 0 100 1;
#X connect 112 0 103 1;
#X connect 113 0 103 1;
#X connect 114 0 106 1;
#X connect 115 0 106 1;
#X connect 116 0 60 0;
#X connect 116 1 30 0;
#X connect 116 2 31 0;
#X connect 116 3 32 0;
#X connect 116 4 33 0;
#X connect 117 0 60 0;
#X connect 118 0 90 0;
#X connect 118 1 91 0;
#X connect 118 2 92 0;
#X connect 121 0 36 1;
#X connect 122 0 56 1;
#X connect 123 0 5 1;
#X connect 124 0 94 0;
#X connect 125 0 116 0;
#X restore 229 440 pd instrument;
#N canvas 0 0 1916 988 instrument 0;
#X obj 280 600 +~;
#X obj 420 600 +~;
#X obj 561 600 +~;
#X obj 41 269 mtof;
#X obj 690 599 +~;
#X obj 40 688 *~;
#X obj 41 616 +~;
#X obj 338 403 vsl 15 60 0 1 0 0 empty empty empty 0 -9 0 10 -262144
-1 -1 590 1;
#X obj 281 378 osc~;
#X obj 281 545 *~;
#X obj 338 483 pack f 50;
#X obj 338 529 line~;
#X obj 478 403 vsl 15 60 0 1 0 0 empty empty empty 0 -9 0 10 -262144
-1 -1 472 1;
#X obj 421 378 osc~;
#X obj 421 545 *~;
#X obj 478 483 pack f 50;
#X obj 478 529 line~;
#X obj 618 403 vsl 15 60 0 1 0 0 empty empty empty 0 -9 0 10 -262144
-1 -1 295 1;
#X obj 561 378 osc~;
#X obj 561 545 *~;
#X obj 618 483 pack f 50;
#X obj 618 529 line~;
#X obj 748 403 vsl 15 60 0 1 0 0 empty empty empty 0 -9 0 10 -262144
-1 -1 177 1;
#X obj 691 378 osc~;
#X obj 691 545 *~;
#X obj 748 483 pack f 50;
#X obj 748 529 line~;
#X obj 41 -89 inlet;
#X obj 41 -55 unpack f f;
#X obj 40 751 outlet~;
#X obj 1003 138 bng 15 250 50 0 empty empty empty 17 7 0 10 -262144
-1 -1;
#X obj 1123 138 bng 15 250 50 0 empty empty empty 17 7 0 10 -262144
-1 -1;
#X obj 1243 138 bng 15 250 50 0 empty empty empty 17 7 0 10 -262144
-1 -1;
#X obj 1383 138 bng 15 250 50 0 empty empty empty 17 7 0 10 -262144
-1 -1;
#X obj 210 590 +~;
#X obj 126 598 +~;
#X obj 127 286 +;
#X obj 338 311 loadbang;
#X obj 281 328 +;
#X obj 421 328 +;
#X obj 561 328 +;
#X obj 691 328 +;
#X obj 963 243 pack f f f f;
#X obj 823 311 unpack f f f f;
#X obj 1093 243 pack f f f f;
#X obj 1223 243 pack f f f f;
#X obj 1353 243 pack f f f f;
#X obj 478 311 loadbang;
#X obj 618 311 loadbang;
#X obj 748 311 loadbang;
#X obj 963 311 unpack f f f f;
#X obj 1093 311 unpack f f f f;
#X obj 1223 311 unpack f f f f;
#X msg 1083 210 -8;
#X msg 1273 210 5;
#X obj 41 335 + 1.3;
#X obj 211 286 +;
#X obj 41 376 cnv2;
#X obj 127 376 cnv2;
#X obj 211 376 cnv2;
#X obj 863 138 bng 15 250 50 0 empty empty empty 17 7 0 10 -262144
-1 -1;
#X obj 823 243 pack f f f f;
#X obj 1353 311 unpack f f f f;
#X msg 813 210 0;
#X msg 843 210 0;
#X msg 873 210 0;
#X msg 904 210 0;
#X msg 142 153 0;
#X obj 421 286 * 3;
#X obj 561 286 * 4;
#X obj 691 286 * 5.5;
#X obj 281 286 * 2;
#X msg 953 210 20;
#X msg 983 210 -50;
#X msg 1013 210 60;
#X msg 1044 210 -100;
#X msg 338 365 0.1;
#X msg 478 365 0.08;
#X msg 618 365 0.05;
#X msg 748 365 0.03;
#X msg 1113 210 -40;
#X msg 1143 210 -200;
#X msg 1174 210 30;
#X msg 1213 210 22;
#X msg 1243 210 -400;
#X msg 1304 210 8;
#X msg 1343 210 -400;
#X msg 1373 210 42;
#X msg 1403 210 -100;
#X msg 1435 210 35;
#X floatatom 177 65 5 0 0 0 - - -;
#X floatatom 224 65 5 0 0 0 - - -;
#X floatatom 271 65 5 0 0 0 - - -;
#X floatatom 318 65 5 0 0 0 - - -;
#X obj 98 -8 sel 0;
#X obj 423 17 sel 1;
#X floatatom 435 105 5 0 0 0 - - -;
#X obj 435 81 +;
#X obj 483 17 sel 1;
#X floatatom 495 105 5 0 0 0 - - -;
#X obj 495 81 +;
#X obj 543 17 sel 1;
#X floatatom 555 105 5 0 0 0 - - -;
#X obj 555 81 +;
#X obj 603 17 sel 1;
#X floatatom 615 105 5 0 0 0 - - -;
#X obj 615 81 +;
#X obj 509 -60 tgl 15 0 empty harmonics2 empty 17 7 0 10 -262144 -1
-1 1 1;
#X msg 423 45 0;
#X msg 450 45 100;
#X msg 483 45 0;
#X msg 510 45 100;
#X msg 543 45 0;
#X msg 570 45 100;
#X msg 603 45 0;
#X msg 630 45 100;
#X obj 435 121 sel 0 1 2 3 4;
#X obj 582 -37 sel 0;
#X obj 162 9 expr if($f1 >= 110 \, 1 \, 200) \; if($f1 < 110 && $f1
>= 70 \, 2 \, 200) \; if($f1 <= 70 \, 0 \, 200) \;;
#X floatatom 228 320 5 0 0 0 - - -;
#X floatatom 135 325 5 0 0 0 - - -;
#X obj 106 249 r \$0-b1;
#X obj 168 249 r \$0-b2;
#X obj 98 672 adsr2;
#X obj 156 -38 r vel2;
#X obj 334 104 r harmonics2;
#X connect 0 0 34 1;
#X connect 1 0 0 1;
#X connect 2 0 1 1;
#X connect 3 0 36 0;
#X connect 3 0 55 0;
#X connect 3 0 56 0;
#X connect 3 0 68 0;
#X connect 3 0 69 0;
#X connect 3 0 70 0;
#X connect 3 0 71 0;
#X connect 4 0 2 1;
#X connect 5 0 29 0;
#X connect 6 0 5 0;
#X connect 7 0 10 0;
#X connect 8 0 9 0;
#X connect 9 0 0 0;
#X connect 10 0 11 0;
#X connect 11 0 9 1;
#X connect 12 0 15 0;
#X connect 13 0 14 0;
#X connect 14 0 1 0;
#X connect 15 0 16 0;
#X connect 16 0 14 1;
#X connect 17 0 20 0;
#X connect 18 0 19 0;
#X connect 19 0 2 0;
#X connect 20 0 21 0;
#X connect 21 0 19 1;
#X connect 22 0 25 0;
#X connect 23 0 24 0;
#X connect 24 0 4 0;
#X connect 25 0 26 0;
#X connect 26 0 24 1;
#X connect 27 0 28 0;
#X connect 28 0 3 0;
#X connect 28 1 94 0;
#X connect 28 1 123 0;
#X connect 30 0 75 0;
#X connect 30 0 72 0;
#X connect 30 0 73 0;
#X connect 30 0 74 0;
#X connect 31 0 53 0;
#X connect 31 0 80 0;
#X connect 31 0 81 0;
#X connect 31 0 82 0;
#X connect 32 0 83 0;
#X connect 32 0 84 0;
#X connect 32 0 54 0;
#X connect 32 0 85 0;
#X connect 33 0 86 0;
#X connect 33 0 87 0;
#X connect 33 0 88 0;
#X connect 33 0 89 0;
#X connect 34 0 35 1;
#X connect 35 0 6 1;
#X connect 36 0 58 0;
#X connect 36 0 120 0;
#X connect 37 0 76 0;
#X connect 38 0 8 0;
#X connect 39 0 13 0;
#X connect 40 0 18 0;
#X connect 41 0 23 0;
#X connect 42 0 50 0;
#X connect 43 0 38 1;
#X connect 43 1 39 1;
#X connect 43 2 40 1;
#X connect 43 3 41 1;
#X connect 44 0 51 0;
#X connect 45 0 52 0;
#X connect 46 0 62 0;
#X connect 47 0 77 0;
#X connect 48 0 78 0;
#X connect 49 0 79 0;
#X connect 50 0 38 1;
#X connect 50 1 39 1;
#X connect 50 2 40 1;
#X connect 50 3 41 1;
#X connect 51 0 38 1;
#X connect 51 1 39 1;
#X connect 51 2 40 1;
#X connect 51 3 41 1;
#X connect 52 0 38 1;
#X connect 52 1 39 1;
#X connect 52 2 40 1;
#X connect 52 3 41 1;
#X connect 53 0 44 0;
#X connect 54 0 45 2;
#X connect 55 0 57 0;
#X connect 56 0 59 0;
#X connect 56 0 119 0;
#X connect 57 0 6 0;
#X connect 58 0 35 0;
#X connect 59 0 34 0;
#X connect 60 0 66 0;
#X connect 60 0 63 0;
#X connect 60 0 64 0;
#X connect 60 0 65 0;
#X connect 60 0 67 0;
#X connect 61 0 43 0;
#X connect 62 0 38 1;
#X connect 62 1 39 1;
#X connect 62 2 40 1;
#X connect 62 3 41 1;
#X connect 63 0 61 0;
#X connect 64 0 61 1;
#X connect 65 0 61 2;
#X connect 66 0 61 3;
#X connect 67 0 36 1;
#X connect 67 0 56 1;
#X connect 68 0 39 0;
#X connect 69 0 40 0;
#X connect 70 0 41 0;
#X connect 71 0 38 0;
#X connect 72 0 42 0;
#X connect 73 0 42 1;
#X connect 74 0 42 2;
#X connect 75 0 42 3;
#X connect 76 0 7 0;
#X connect 77 0 12 0;
#X connect 78 0 17 0;
#X connect 79 0 22 0;
#X connect 80 0 44 1;
#X connect 81 0 44 2;
#X connect 82 0 44 3;
#X connect 83 0 45 0;
#X connect 84 0 45 1;
#X connect 85 0 45 3;
#X connect 86 0 46 0;
#X connect 87 0 46 1;
#X connect 88 0 46 2;
#X connect 89 0 46 3;
#X connect 90 0 97 0;
#X connect 91 0 100 0;
#X connect 92 0 103 0;
#X connect 93 0 106 0;
#X connect 94 1 118 0;
#X connect 95 0 108 0;
#X connect 95 1 109 0;
#X connect 96 0 116 0;
#X connect 97 0 96 0;
#X connect 98 0 110 0;
#X connect 98 1 111 0;
#X connect 99 0 116 0;
#X connect 100 0 99 0;
#X connect 101 0 112 0;
#X connect 101 1 113 0;
#X connect 102 0 116 0;
#X connect 103 0 102 0;
#X connect 104 0 114 0;
#X connect 104 1 115 0;
#X connect 105 0 116 0;
#X connect 106 0 105 0;
#X connect 107 0 95 0;
#X connect 107 0 98 0;
#X connect 107 0 101 0;
#X connect 107 0 104 0;
#X connect 107 0 117 0;
#X connect 108 0 97 1;
#X connect 109 0 97 1;
#X connect 110 0 100 1;
#X connect 111 0 100 1;
#X connect 112 0 103 1;
#X connect 113 0 103 1;
#X connect 114 0 106 1;
#X connect 115 0 106 1;
#X connect 116 0 60 0;
#X connect 116 1 30 0;
#X connect 116 2 31 0;
#X connect 116 3 32 0;
#X connect 116 4 33 0;
#X connect 117 0 60 0;
#X connect 118 0 90 0;
#X connect 118 1 91 0;
#X connect 118 2 92 0;
#X connect 121 0 36 1;
#X connect 122 0 56 1;
#X connect 123 0 5 1;
#X connect 124 0 94 0;
#X connect 125 0 116 0;
#X restore 239 460 pd instrument;
#N canvas 0 0 1916 988 instrument 0;
#X obj 280 600 +~;
#X obj 420 600 +~;
#X obj 561 600 +~;
#X obj 41 269 mtof;
#X obj 690 599 +~;
#X obj 40 688 *~;
#X obj 41 616 +~;
#X obj 338 403 vsl 15 60 0 1 0 0 empty empty empty 0 -9 0 10 -262144
-1 -1 590 1;
#X obj 281 378 osc~;
#X obj 281 545 *~;
#X obj 338 483 pack f 50;
#X obj 338 529 line~;
#X obj 478 403 vsl 15 60 0 1 0 0 empty empty empty 0 -9 0 10 -262144
-1 -1 472 1;
#X obj 421 378 osc~;
#X obj 421 545 *~;
#X obj 478 483 pack f 50;
#X obj 478 529 line~;
#X obj 618 403 vsl 15 60 0 1 0 0 empty empty empty 0 -9 0 10 -262144
-1 -1 295 1;
#X obj 561 378 osc~;
#X obj 561 545 *~;
#X obj 618 483 pack f 50;
#X obj 618 529 line~;
#X obj 748 403 vsl 15 60 0 1 0 0 empty empty empty 0 -9 0 10 -262144
-1 -1 177 1;
#X obj 691 378 osc~;
#X obj 691 545 *~;
#X obj 748 483 pack f 50;
#X obj 748 529 line~;
#X obj 41 -89 inlet;
#X obj 41 -55 unpack f f;
#X obj 40 751 outlet~;
#X obj 1003 138 bng 15 250 50 0 empty empty empty 17 7 0 10 -262144
-1 -1;
#X obj 1123 138 bng 15 250 50 0 empty empty empty 17 7 0 10 -262144
-1 -1;
#X obj 1243 138 bng 15 250 50 0 empty empty empty 17 7 0 10 -262144
-1 -1;
#X obj 1383 138 bng 15 250 50 0 empty empty empty 17 7 0 10 -262144
-1 -1;
#X obj 210 590 +~;
#X obj 126 598 +~;
#X obj 127 286 +;
#X obj 338 311 loadbang;
#X obj 281 328 +;
#X obj 421 328 +;
#X obj 561 328 +;
#X obj 691 328 +;
#X obj 963 243 pack f f f f;
#X obj 823 311 unpack f f f f;
#X obj 1093 243 pack f f f f;
#X obj 1223 243 pack f f f f;
#X obj 1353 243 pack f f f f;
#X obj 478 311 loadbang;
#X obj 618 311 loadbang;
#X obj 748 311 loadbang;
#X obj 963 311 unpack f f f f;
#X obj 1093 311 unpack f f f f;
#X obj 1223 311 unpack f f f f;
#X msg 1083 210 -8;
#X msg 1273 210 5;
#X obj 41 335 + 1.3;
#X obj 211 286 +;
#X obj 41 376 cnv2;
#X obj 127 376 cnv2;
#X obj 211 376 cnv2;
#X obj 863 138 bng 15 250 50 0 empty empty empty 17 7 0 10 -262144
-1 -1;
#X obj 823 243 pack f f f f;
#X obj 1353 311 unpack f f f f;
#X msg 813 210 0;
#X msg 843 210 0;
#X msg 873 210 0;
#X msg 904 210 0;
#X msg 142 153 0;
#X obj 421 286 * 3;
#X obj 561 286 * 4;
#X obj 691 286 * 5.5;
#X obj 281 286 * 2;
#X msg 953 210 20;
#X msg 983 210 -50;
#X msg 1013 210 60;
#X msg 1044 210 -100;
#X msg 338 365 0.1;
#X msg 478 365 0.08;
#X msg 618 365 0.05;
#X msg 748 365 0.03;
#X msg 1113 210 -40;
#X msg 1143 210 -200;
#X msg 1174 210 30;
#X msg 1213 210 22;
#X msg 1243 210 -400;
#X msg 1304 210 8;
#X msg 1343 210 -400;
#X msg 1373 210 42;
#X msg 1403 210 -100;
#X msg 1435 210 35;
#X floatatom 177 65 5 0 0 0 - - -;
#X floatatom 224 65 5 0 0 0 - - -;
#X floatatom 271 65 5 0 0 0 - - -;
#X floatatom 318 65 5 0 0 0 - - -;
#X obj 98 -8 sel 0;
#X obj 423 17 sel 1;
#X floatatom 435 105 5 0 0 0 - - -;
#X obj 435 81 +;
#X obj 483 17 sel 1;
#X floatatom 495 105 5 0 0 0 - - -;
#X obj 495 81 +;
#X obj 543 17 sel 1;
#X floatatom 555 105 5 0 0 0 - - -;
#X obj 555 81 +;
#X obj 603 17 sel 1;
#X floatatom 615 105 5 0 0 0 - - -;
#X obj 615 81 +;
#X obj 509 -60 tgl 15 0 empty harmonics2 empty 17 7 0 10 -262144 -1
-1 1 1;
#X msg 423 45 0;
#X msg 450 45 100;
#X msg 483 45 0;
#X msg 510 45 100;
#X msg 543 45 0;
#X msg 570 45 100;
#X msg 603 45 0;
#X msg 630 45 100;
#X obj 435 121 sel 0 1 2 3 4;
#X obj 582 -37 sel 0;
#X obj 162 9 expr if($f1 >= 110 \, 1 \, 200) \; if($f1 < 110 && $f1
>= 70 \, 2 \, 200) \; if($f1 <= 70 \, 0 \, 200) \;;
#X floatatom 228 320 5 0 0 0 - - -;
#X floatatom 135 325 5 0 0 0 - - -;
#X obj 106 249 r \$0-b1;
#X obj 168 249 r \$0-b2;
#X obj 98 672 adsr2;
#X obj 156 -38 r vel2;
#X obj 334 104 r harmonics2;
#X connect 0 0 34 1;
#X connect 1 0 0 1;
#X connect 2 0 1 1;
#X connect 3 0 36 0;
#X connect 3 0 55 0;
#X connect 3 0 56 0;
#X connect 3 0 68 0;
#X connect 3 0 69 0;
#X connect 3 0 70 0;
#X connect 3 0 71 0;
#X connect 4 0 2 1;
#X connect 5 0 29 0;
#X connect 6 0 5 0;
#X connect 7 0 10 0;
#X connect 8 0 9 0;
#X connect 9 0 0 0;
#X connect 10 0 11 0;
#X connect 11 0 9 1;
#X connect 12 0 15 0;
#X connect 13 0 14 0;
#X connect 14 0 1 0;
#X connect 15 0 16 0;
#X connect 16 0 14 1;
#X connect 17 0 20 0;
#X connect 18 0 19 0;
#X connect 19 0 2 0;
#X connect 20 0 21 0;
#X connect 21 0 19 1;
#X connect 22 0 25 0;
#X connect 23 0 24 0;
#X connect 24 0 4 0;
#X connect 25 0 26 0;
#X connect 26 0 24 1;
#X connect 27 0 28 0;
#X connect 28 0 3 0;
#X connect 28 1 94 0;
#X connect 28 1 123 0;
#X connect 30 0 75 0;
#X connect 30 0 72 0;
#X connect 30 0 73 0;
#X connect 30 0 74 0;
#X connect 31 0 53 0;
#X connect 31 0 80 0;
#X connect 31 0 81 0;
#X connect 31 0 82 0;
#X connect 32 0 83 0;
#X connect 32 0 84 0;
#X connect 32 0 54 0;
#X connect 32 0 85 0;
#X connect 33 0 86 0;
#X connect 33 0 87 0;
#X connect 33 0 88 0;
#X connect 33 0 89 0;
#X connect 34 0 35 1;
#X connect 35 0 6 1;
#X connect 36 0 58 0;
#X connect 36 0 120 0;
#X connect 37 0 76 0;
#X connect 38 0 8 0;
#X connect 39 0 13 0;
#X connect 40 0 18 0;
#X connect 41 0 23 0;
#X connect 42 0 50 0;
#X connect 43 0 38 1;
#X connect 43 1 39 1;
#X connect 43 2 40 1;
#X connect 43 3 41 1;
#X connect 44 0 51 0;
#X connect 45 0 52 0;
#X connect 46 0 62 0;
#X connect 47 0 77 0;
#X connect 48 0 78 0;
#X connect 49 0 79 0;
#X connect 50 0 38 1;
#X connect 50 1 39 1;
#X connect 50 2 40 1;
#X connect 50 3 41 1;
#X connect 51 0 38 1;
#X connect 51 1 39 1;
#X connect 51 2 40 1;
#X connect 51 3 41 1;
#X connect 52 0 38 1;
#X connect 52 1 39 1;
#X connect 52 2 40 1;
#X connect 52 3 41 1;
#X connect 53 0 44 0;
#X connect 54 0 45 2;
#X connect 55 0 57 0;
#X connect 56 0 59 0;
#X connect 56 0 119 0;
#X connect 57 0 6 0;
#X connect 58 0 35 0;
#X connect 59 0 34 0;
#X connect 60 0 66 0;
#X connect 60 0 63 0;
#X connect 60 0 64 0;
#X connect 60 0 65 0;
#X connect 60 0 67 0;
#X connect 61 0 43 0;
#X connect 62 0 38 1;
#X connect 62 1 39 1;
#X connect 62 2 40 1;
#X connect 62 3 41 1;
#X connect 63 0 61 0;
#X connect 64 0 61 1;
#X connect 65 0 61 2;
#X connect 66 0 61 3;
#X connect 67 0 36 1;
#X connect 67 0 56 1;
#X connect 68 0 39 0;
#X connect 69 0 40 0;
#X connect 70 0 41 0;
#X connect 71 0 38 0;
#X connect 72 0 42 0;
#X connect 73 0 42 1;
#X connect 74 0 42 2;
#X connect 75 0 42 3;
#X connect 76 0 7 0;
#X connect 77 0 12 0;
#X connect 78 0 17 0;
#X connect 79 0 22 0;
#X connect 80 0 44 1;
#X connect 81 0 44 2;
#X connect 82 0 44 3;
#X connect 83 0 45 0;
#X connect 84 0 45 1;
#X connect 85 0 45 3;
#X connect 86 0 46 0;
#X connect 87 0 46 1;
#X connect 88 0 46 2;
#X connect 89 0 46 3;
#X connect 90 0 97 0;
#X connect 91 0 100 0;
#X connect 92 0 103 0;
#X connect 93 0 106 0;
#X connect 94 1 118 0;
#X connect 95 0 108 0;
#X connect 95 1 109 0;
#X connect 96 0 116 0;
#X connect 97 0 96 0;
#X connect 98 0 110 0;
#X connect 98 1 111 0;
#X connect 99 0 116 0;
#X connect 100 0 99 0;
#X connect 101 0 112 0;
#X connect 101 1 113 0;
#X connect 102 0 116 0;
#X connect 103 0 102 0;
#X connect 104 0 114 0;
#X connect 104 1 115 0;
#X connect 105 0 116 0;
#X connect 106 0 105 0;
#X connect 107 0 95 0;
#X connect 107 0 98 0;
#X connect 107 0 101 0;
#X connect 107 0 104 0;
#X connect 107 0 117 0;
#X connect 108 0 97 1;
#X connect 109 0 97 1;
#X connect 110 0 100 1;
#X connect 111 0 100 1;
#X connect 112 0 103 1;
#X connect 113 0 103 1;
#X connect 114 0 106 1;
#X connect 115 0 106 1;
#X connect 116 0 60 0;
#X connect 116 1 30 0;
#X connect 116 2 31 0;
#X connect 116 3 32 0;
#X connect 116 4 33 0;
#X connect 117 0 60 0;
#X connect 118 0 90 0;
#X connect 118 1 91 0;
#X connect 118 2 92 0;
#X connect 121 0 36 1;
#X connect 122 0 56 1;
#X connect 123 0 5 1;
#X connect 124 0 94 0;
#X connect 125 0 116 0;
#X restore 249 480 pd instrument;
#X obj 219 527 *~ 2;
#X obj 384 544 tabwrite~ d;
#X obj 221 657 outlet~;
#X floatatom 247 554 5 0 0 0 - #0-volume -;
#X obj 247 606 line~;
#X obj 247 578 pack f 50;
#X obj 220 630 *~;
#X obj 171 254 hsl 100 15 0 0.3 0 0 \$0-volume empty Volume 10 7 0
10 -261682 -1 -1 3300 1;
#X msg 170 49 0.1;
#X connect 0 0 1 0;
#X connect 0 1 1 1;
#X connect 0 2 1 2;
#X connect 1 0 2 0;
#X connect 2 0 43 0;
#X connect 2 1 56 0;
#X connect 2 2 57 0;
#X connect 2 3 58 0;
#X connect 3 0 4 0;
#X connect 4 0 60 0;
#X connect 7 0 45 0;
#X connect 7 0 44 0;
#X connect 10 0 11 0;
#X connect 11 0 3 0;
#X connect 15 0 12 0;
#X connect 15 0 16 0;
#X connect 17 0 21 0;
#X connect 18 0 26 0;
#X connect 18 0 31 0;
#X connect 19 0 32 0;
#X connect 20 0 14 0;
#X connect 21 0 18 0;
#X connect 22 0 23 0;
#X connect 23 0 28 0;
#X connect 24 0 25 0;
#X connect 25 0 27 0;
#X connect 26 0 18 1;
#X connect 27 0 26 1;
#X connect 28 0 26 1;
#X connect 29 0 18 0;
#X connect 30 0 22 0;
#X connect 31 0 19 0;
#X connect 31 0 30 0;
#X connect 31 0 33 0;
#X connect 32 0 20 0;
#X connect 33 0 24 0;
#X connect 34 0 21 1;
#X connect 35 0 29 0;
#X connect 35 0 15 0;
#X connect 36 0 17 0;
#X connect 36 0 37 0;
#X connect 39 0 9 0;
#X connect 39 0 13 0;
#X connect 40 0 8 0;
#X connect 41 0 36 0;
#X connect 41 0 15 0;
#X connect 41 0 28 0;
#X connect 41 0 39 0;
#X connect 41 0 40 0;
#X connect 41 0 67 0;
#X connect 43 0 59 0;
#X connect 44 0 48 0;
#X connect 45 0 46 0;
#X connect 45 1 46 1;
#X connect 46 0 47 0;
#X connect 47 0 50 0;
#X connect 48 0 49 0;
#X connect 51 0 0 1;
#X connect 52 0 0 0;
#X connect 52 0 38 0;
#X connect 52 0 55 0;
#X connect 53 0 0 0;
#X connect 53 1 0 1;
#X connect 56 0 59 0;
#X connect 57 0 59 0;
#X connect 58 0 59 0;
#X connect 59 0 60 0;
#X connect 59 0 65 0;
#X connect 62 0 64 0;
#X connect 63 0 65 1;
#X connect 64 0 63 0;
#X connect 65 0 61 0;
#X connect 67 0 66 0;
#X coords 0 -1 1 1 250 180 1 100 100;
