#N canvas 0 0 1906 988 10;
#X obj 101 101 cnv 15 63 63 empty empty Record 8 12 0 14 -54623 -262144
0;
#X obj 114 124 tgl 35 0 empty empty empty 0 -7 0 10 -252198 -1 -262144
0 1;
#X msg 141 302 stop;
#X msg 114 272 start;
#X obj 114 180 sel 1;
#X obj 114 212 t b b;
#X obj 176 83 sel 60 61;
#X obj 176 60 notein 9;
#X msg 201 107 0;
#X msg 176 107 1;
#X obj 141 345 writesf~ 1;
#X msg 322 302 stop;
#X msg 295 272 start;
#X obj 295 159 sel 1;
#X obj 295 212 t b b;
#X obj 322 345 writesf~ 1;
#X msg 322 242 open Record-dirty.wav;
#X msg 141 242 open Record-clean.wav;
#X obj 193 302 r~ clean;
#X obj 365 302 r~ dirty;
#X obj 81 -54 tgl 15 0 empty play-clean empty 17 7 0 10 -262144 -1
-1 0 1;
#X obj 81 35 +;
#X obj 96 -23 sel 0 1;
#X msg 130 5 2;
#X msg 96 5 0;
#X obj 171 -54 tgl 15 0 empty play-dirty empty 17 7 0 10 -262144 -1
-1 0 1;
#X obj 171 35 +;
#X obj 186 -23 sel 0 1;
#X msg 220 5 2;
#X msg 186 5 0;
#X obj 113 52 sel 0 1;
#X msg 113 78 0;
#X msg 142 78 1;
#X msg 512 302 stop;
#X msg 485 272 start;
#X obj 485 159 sel 1;
#X obj 485 212 t b b;
#X obj 512 355 writesf~ 1;
#X obj 555 302 r~ dirty;
#X msg 512 242 open Record-sum.wav;
#X obj 562 327 r~ clean;
#X connect 1 0 4 0;
#X connect 1 0 13 0;
#X connect 1 0 35 0;
#X connect 2 0 10 0;
#X connect 3 0 10 0;
#X connect 4 0 5 0;
#X connect 4 1 2 0;
#X connect 5 0 3 0;
#X connect 5 1 17 0;
#X connect 6 0 9 0;
#X connect 6 1 8 0;
#X connect 7 0 6 0;
#X connect 8 0 1 0;
#X connect 9 0 1 0;
#X connect 11 0 15 0;
#X connect 12 0 15 0;
#X connect 13 0 14 0;
#X connect 13 1 11 0;
#X connect 14 0 12 0;
#X connect 14 1 16 0;
#X connect 16 0 15 0;
#X connect 17 0 10 0;
#X connect 18 0 10 0;
#X connect 19 0 15 0;
#X connect 20 0 21 0;
#X connect 20 0 27 0;
#X connect 21 0 30 0;
#X connect 22 0 24 0;
#X connect 22 1 23 0;
#X connect 23 0 21 1;
#X connect 24 0 21 1;
#X connect 25 0 26 0;
#X connect 25 0 22 0;
#X connect 26 0 30 0;
#X connect 27 0 29 0;
#X connect 27 1 28 0;
#X connect 28 0 26 1;
#X connect 29 0 26 1;
#X connect 30 0 31 0;
#X connect 30 1 32 0;
#X connect 31 0 1 0;
#X connect 32 0 1 0;
#X connect 33 0 37 0;
#X connect 34 0 37 0;
#X connect 35 0 36 0;
#X connect 35 1 33 0;
#X connect 36 0 34 0;
#X connect 36 1 39 0;
#X connect 38 0 37 0;
#X connect 39 0 37 0;
#X connect 40 0 37 0;
#X coords 0 -1 1 1 65 65 1 100 100;
