#N canvas 581 105 594 478 12;
#X obj 98 140 *~;
#X obj 66 106 inlet~ re1;
#X obj 256 106 inlet~ re2;
#X obj 156 46 inlet~ im1;
#X obj 356 46 inlet~ im2;
#X obj 98 214 -~;
#X obj 189 85 *~;
#X obj 92 293 outlet~;
#X obj 240 223 *~;
#X obj 238 302 +~;
#X obj 355 196 *~;
#X obj 231 401 outlet~;
#X connect 0 0 5 0;
#X connect 1 0 0 0;
#X connect 1 0 10 0;
#X connect 2 0 0 1;
#X connect 2 0 8 1;
#X connect 3 0 6 0;
#X connect 3 0 8 0;
#X connect 4 0 6 1;
#X connect 4 0 10 1;
#X connect 5 0 7 0;
#X connect 6 0 5 1;
#X connect 8 0 9 0;
#X connect 9 0 11 0;
#X connect 10 0 9 1;
