#N canvas 0 66 1680 984 10;
#X msg -53 554 symbol C3;
#X msg 18 554 symbol C#3;
#X msg 91 554 symbol D3;
#X msg 158 554 symbol Eb3;
#X msg 301 554 symbol F3;
#X msg 368 554 symbol F#3;
#X msg 443 554 symbol G3;
#X msg 510 554 symbol G#3;
#X msg 583 554 symbol A3;
#X msg 650 554 symbol Bb3;
#X msg -53 580 symbol C4;
#X msg 18 580 symbol C#4;
#X msg 91 580 symbol D4;
#X msg 158 580 symbol Eb4;
#X msg 301 580 symbol F4;
#X msg 368 580 symbol F#4;
#X msg 443 580 symbol G4;
#X msg 510 580 symbol G#4;
#X msg 583 580 symbol A4;
#X msg 650 580 symbol Bb4;
#X msg 731 581 symbol B4;
#X msg 731 555 symbol B3;
#X msg -53 606 symbol C5;
#X msg 18 606 symbol C#5;
#X msg 91 606 symbol D5;
#X msg 158 606 symbol Eb5;
#X msg 301 606 symbol F5;
#X msg 368 606 symbol F#5;
#X msg 443 606 symbol G5;
#X msg 510 606 symbol G#5;
#X msg 583 606 symbol A5;
#X msg 650 606 symbol Bb5;
#X msg 731 607 symbol B5;
#X msg -53 632 symbol C6;
#X msg 18 632 symbol C#6;
#X msg 91 632 symbol D6;
#X msg 158 632 symbol Eb6;
#X msg 301 632 symbol F6;
#X msg 368 632 symbol F#6;
#X msg 443 632 symbol G6;
#X msg 510 632 symbol G#6;
#X msg 583 632 symbol A6;
#X msg 650 632 symbol Bb6;
#X msg 731 633 symbol B6;
#X msg 231 554 symbol E3;
#X msg 231 580 symbol E4;
#X msg 231 606 symbol E5;
#X msg 231 632 symbol E6;
#X msg -53 658 symbol C7;
#X msg 18 658 symbol C#7;
#X msg 91 658 symbol D7;
#X msg 158 658 symbol Eb7;
#X msg 231 658 symbol E7;
#X msg 301 658 symbol F7;
#X msg 368 658 symbol F#7;
#X msg 443 658 symbol G7;
#X msg 510 658 symbol G#7;
#X msg 583 658 symbol A7;
#X msg 650 658 symbol Bb7;
#X msg 726 660 symbol B7;
#X msg -53 684 symbol C8;
#X msg 18 684 symbol C#8;
#X msg 91 684 symbol D8;
#X msg 158 684 symbol Eb8;
#X msg 231 684 symbol E8;
#X msg 301 684 symbol F8;
#X msg 368 684 symbol F#8;
#X msg 443 684 symbol G8;
#X msg 510 684 symbol G#8;
#X msg 583 684 symbol A8;
#X msg 650 684 symbol Bb8;
#X msg 726 686 symbol B8;
#X msg -53 502 symbol C1;
#X msg 18 502 symbol C#1;
#X msg 91 502 symbol D1;
#X msg 158 502 symbol Eb1;
#X msg 231 502 symbol E1;
#X msg 301 502 symbol F1;
#X msg 368 502 symbol F#1;
#X msg 443 502 symbol G1;
#X msg 510 502 symbol G#1;
#X msg 583 502 symbol A1;
#X msg 650 502 symbol Bb1;
#X msg 726 502 symbol B1;
#X msg -53 528 symbol C2;
#X msg 18 528 symbol C#2;
#X msg 91 528 symbol D2;
#X msg 158 528 symbol Eb2;
#X msg 231 528 symbol E2;
#X msg 301 528 symbol F2;
#X msg 368 528 symbol F#2;
#X msg 443 528 symbol G2;
#X msg 510 528 symbol G#2;
#X msg 583 528 symbol A2;
#X msg 650 528 symbol Bb2;
#X msg 726 528 symbol B2;
#X msg -53 476 symbol C0;
#X msg 18 476 symbol C#0;
#X msg 91 476 symbol D0;
#X msg 158 476 symbol Eb0;
#X msg 231 476 symbol E0;
#X msg 301 476 symbol F0;
#X msg 368 476 symbol F#0;
#X msg 443 476 symbol G0;
#X msg 510 476 symbol G#0;
#X msg 583 476 symbol A0;
#X msg 650 476 symbol Bb0;
#X msg 726 476 symbol B0;
#X msg -53 450 symbol C-1;
#X msg 18 450 symbol C#-1;
#X msg 91 450 symbol D-1;
#X msg 158 450 symbol Eb-1;
#X msg 231 450 symbol E-1;
#X msg 301 450 symbol F-1;
#X msg 368 450 symbol F#-1;
#X msg 443 450 symbol G-1;
#X msg 510 450 symbol G#-1;
#X msg 583 450 symbol A-1;
#X msg 650 450 symbol Bb-1;
#X msg 726 450 symbol B-1;
#X msg -53 710 symbol C9;
#X msg 18 710 symbol C#9;
#X msg 91 710 symbol D9;
#X msg 158 710 symbol Eb9;
#X msg 231 710 symbol E9;
#X msg 301 710 symbol F9;
#X msg 368 710 symbol F#9;
#X obj -52 197 sel 21 22 23 24 25 26 27 28 29 30 31 32 33 34 35 36
37 38 39 40;
#X obj -52 240 sel 41 42 43 44 45 46 47 48 49 50 51 52 53 54 55 56
57 58 59 60;
#X obj -56 285 sel 61 62 63 64 65 66 67 68 69 70 71 72 73 74 75 76
77 78 79 80;
#X obj -58 369 sel 101 102 103 104 105 106 107 108 109 110 111 112
113 114 115 116 117 118 119 120 121 122 123 124 125 126 127;
#X obj 358 96 t f f f f f f;
#X floatatom 358 69 5 0 127 0 - - -;
#X symbolatom 19 873 10 0 0 0 - - -;
#X obj -58 326 sel 81 82 83 84 85 86 87 88 89 90 91 92 93 94 95 96
97 98 99 100;
#X obj -50 167 sel 0 1 2 3 4 5 6 7 8 9 10 11 12 13 14 15 16 17 18 19
20;
#X msg 443 710 symbol G9;
#X obj 358 42 inlet;
#X obj 19 896 outlet;
#X connect 0 0 133 0;
#X connect 1 0 133 0;
#X connect 2 0 133 0;
#X connect 3 0 133 0;
#X connect 4 0 133 0;
#X connect 5 0 133 0;
#X connect 6 0 133 0;
#X connect 7 0 133 0;
#X connect 8 0 133 0;
#X connect 9 0 133 0;
#X connect 10 0 133 0;
#X connect 11 0 133 0;
#X connect 12 0 133 0;
#X connect 13 0 133 0;
#X connect 14 0 133 0;
#X connect 15 0 133 0;
#X connect 16 0 133 0;
#X connect 17 0 133 0;
#X connect 18 0 133 0;
#X connect 19 0 133 0;
#X connect 20 0 133 0;
#X connect 21 0 133 0;
#X connect 22 0 133 0;
#X connect 23 0 133 0;
#X connect 24 0 133 0;
#X connect 25 0 133 0;
#X connect 26 0 133 0;
#X connect 27 0 133 0;
#X connect 28 0 133 0;
#X connect 29 0 133 0;
#X connect 30 0 133 0;
#X connect 31 0 133 0;
#X connect 32 0 133 0;
#X connect 33 0 133 0;
#X connect 34 0 133 0;
#X connect 35 0 133 0;
#X connect 36 0 133 0;
#X connect 37 0 133 0;
#X connect 38 0 133 0;
#X connect 39 0 133 0;
#X connect 40 0 133 0;
#X connect 41 0 133 0;
#X connect 42 0 133 0;
#X connect 43 0 133 0;
#X connect 44 0 133 0;
#X connect 45 0 133 0;
#X connect 46 0 133 0;
#X connect 47 0 133 0;
#X connect 48 0 133 0;
#X connect 49 0 133 0;
#X connect 50 0 133 0;
#X connect 51 0 133 0;
#X connect 52 0 133 0;
#X connect 53 0 133 0;
#X connect 54 0 133 0;
#X connect 55 0 133 0;
#X connect 56 0 133 0;
#X connect 57 0 133 0;
#X connect 58 0 133 0;
#X connect 59 0 133 0;
#X connect 60 0 133 0;
#X connect 61 0 133 0;
#X connect 62 0 133 0;
#X connect 63 0 133 0;
#X connect 64 0 133 0;
#X connect 65 0 133 0;
#X connect 66 0 133 0;
#X connect 67 0 133 0;
#X connect 68 0 133 0;
#X connect 69 0 133 0;
#X connect 70 0 133 0;
#X connect 71 0 133 0;
#X connect 72 0 133 0;
#X connect 73 0 133 0;
#X connect 74 0 133 0;
#X connect 75 0 133 0;
#X connect 76 0 133 0;
#X connect 77 0 133 0;
#X connect 78 0 133 0;
#X connect 79 0 133 0;
#X connect 80 0 133 0;
#X connect 81 0 133 0;
#X connect 82 0 133 0;
#X connect 83 0 133 0;
#X connect 84 0 133 0;
#X connect 85 0 133 0;
#X connect 86 0 133 0;
#X connect 87 0 133 0;
#X connect 88 0 133 0;
#X connect 89 0 133 0;
#X connect 90 0 133 0;
#X connect 91 0 133 0;
#X connect 92 0 133 0;
#X connect 93 0 133 0;
#X connect 94 0 133 0;
#X connect 95 0 133 0;
#X connect 96 0 133 0;
#X connect 97 0 133 0;
#X connect 98 0 133 0;
#X connect 99 0 133 0;
#X connect 100 0 133 0;
#X connect 101 0 133 0;
#X connect 102 0 133 0;
#X connect 103 0 133 0;
#X connect 104 0 133 0;
#X connect 105 0 133 0;
#X connect 106 0 133 0;
#X connect 107 0 133 0;
#X connect 108 0 133 0;
#X connect 109 0 133 0;
#X connect 110 0 133 0;
#X connect 111 0 133 0;
#X connect 112 0 133 0;
#X connect 113 0 133 0;
#X connect 114 0 133 0;
#X connect 115 0 133 0;
#X connect 116 0 133 0;
#X connect 117 0 133 0;
#X connect 118 0 133 0;
#X connect 119 0 133 0;
#X connect 120 0 133 0;
#X connect 121 0 133 0;
#X connect 122 0 133 0;
#X connect 123 0 133 0;
#X connect 124 0 133 0;
#X connect 125 0 133 0;
#X connect 126 0 133 0;
#X connect 127 0 105 0;
#X connect 127 1 106 0;
#X connect 127 2 107 0;
#X connect 127 3 72 0;
#X connect 127 4 73 0;
#X connect 127 5 74 0;
#X connect 127 6 75 0;
#X connect 127 7 76 0;
#X connect 127 8 77 0;
#X connect 127 9 78 0;
#X connect 127 10 79 0;
#X connect 127 11 80 0;
#X connect 127 12 81 0;
#X connect 127 13 82 0;
#X connect 127 14 83 0;
#X connect 127 15 84 0;
#X connect 127 16 85 0;
#X connect 127 17 86 0;
#X connect 127 18 87 0;
#X connect 127 19 88 0;
#X connect 128 0 89 0;
#X connect 128 1 90 0;
#X connect 128 2 91 0;
#X connect 128 3 92 0;
#X connect 128 4 93 0;
#X connect 128 5 94 0;
#X connect 128 6 95 0;
#X connect 128 7 0 0;
#X connect 128 8 1 0;
#X connect 128 9 2 0;
#X connect 128 10 3 0;
#X connect 128 11 44 0;
#X connect 128 12 4 0;
#X connect 128 13 5 0;
#X connect 128 14 6 0;
#X connect 128 15 7 0;
#X connect 128 16 8 0;
#X connect 128 17 9 0;
#X connect 128 18 21 0;
#X connect 128 19 10 0;
#X connect 129 0 11 0;
#X connect 129 1 12 0;
#X connect 129 2 13 0;
#X connect 129 3 45 0;
#X connect 129 4 14 0;
#X connect 129 5 15 0;
#X connect 129 6 16 0;
#X connect 129 7 17 0;
#X connect 129 8 18 0;
#X connect 129 9 19 0;
#X connect 129 10 20 0;
#X connect 129 11 22 0;
#X connect 129 12 23 0;
#X connect 129 13 24 0;
#X connect 129 14 25 0;
#X connect 129 15 46 0;
#X connect 129 16 26 0;
#X connect 129 17 27 0;
#X connect 129 18 28 0;
#X connect 129 19 29 0;
#X connect 130 0 53 0;
#X connect 130 1 54 0;
#X connect 130 2 55 0;
#X connect 130 3 56 0;
#X connect 130 4 57 0;
#X connect 130 5 58 0;
#X connect 130 6 59 0;
#X connect 130 7 60 0;
#X connect 130 8 61 0;
#X connect 130 9 62 0;
#X connect 130 10 63 0;
#X connect 130 11 64 0;
#X connect 130 12 65 0;
#X connect 130 13 66 0;
#X connect 130 14 67 0;
#X connect 130 15 68 0;
#X connect 130 16 69 0;
#X connect 130 17 70 0;
#X connect 130 18 71 0;
#X connect 130 19 120 0;
#X connect 130 20 121 0;
#X connect 130 21 122 0;
#X connect 130 22 123 0;
#X connect 130 23 124 0;
#X connect 130 24 125 0;
#X connect 130 25 126 0;
#X connect 130 26 136 0;
#X connect 131 0 135 0;
#X connect 131 1 127 0;
#X connect 131 2 128 0;
#X connect 131 3 129 0;
#X connect 131 4 134 0;
#X connect 131 5 130 0;
#X connect 132 0 131 0;
#X connect 133 0 138 0;
#X connect 134 0 30 0;
#X connect 134 1 31 0;
#X connect 134 2 32 0;
#X connect 134 3 33 0;
#X connect 134 4 34 0;
#X connect 134 5 35 0;
#X connect 134 6 36 0;
#X connect 134 7 47 0;
#X connect 134 8 37 0;
#X connect 134 9 38 0;
#X connect 134 10 39 0;
#X connect 134 11 40 0;
#X connect 134 12 41 0;
#X connect 134 13 42 0;
#X connect 134 14 43 0;
#X connect 134 15 48 0;
#X connect 134 16 49 0;
#X connect 134 17 50 0;
#X connect 134 18 51 0;
#X connect 134 19 52 0;
#X connect 135 0 108 0;
#X connect 135 1 109 0;
#X connect 135 2 110 0;
#X connect 135 3 111 0;
#X connect 135 4 112 0;
#X connect 135 5 113 0;
#X connect 135 6 114 0;
#X connect 135 7 115 0;
#X connect 135 8 116 0;
#X connect 135 9 117 0;
#X connect 135 10 118 0;
#X connect 135 11 119 0;
#X connect 135 12 96 0;
#X connect 135 13 97 0;
#X connect 135 14 98 0;
#X connect 135 15 99 0;
#X connect 135 16 100 0;
#X connect 135 17 101 0;
#X connect 135 18 102 0;
#X connect 135 19 103 0;
#X connect 135 20 104 0;
#X connect 137 0 132 0;
