#N canvas 0 29 1383 940 10;
#X obj 962 52 poly 4 1;
#X obj 962 77 pack f f f;
#X obj 962 105 route 1 2 3 4;
#X obj 962 131 unpack f f;
#X obj 101 101 cnv 15 698 183 empty empty sequnecer_1 20 12 0 14 -70665
-262144 0;
#X obj 123 131 vsl 15 50 0 127 0 0 \$0-velocity1_s \$0-velocity1_r
1 5 65 0 10 -191392 -1 -262144 0 1;
#X obj 43 313 tgl 15 0 empty empty empty 17 7 0 10 -262144 -1 -1 0
1;
#X obj 43 411 i;
#X obj 71 411 + 1;
#X floatatom 283 442 5 0 0 0 - - -;
#X obj 461 382 noteout 5;
#X obj 980 160 unpack f f;
#X obj 999 184 unpack f f;
#X obj 1017 213 unpack f f;
#X floatatom 1105 148 5 0 0 0 - - -;
#X floatatom 1105 177 5 0 0 0 - - -;
#X floatatom 1105 201 5 0 0 0 - - -;
#X floatatom 1105 230 5 0 0 0 - - -;
#X floatatom 883 148 5 0 0 0 - - -;
#X floatatom 913 177 5 0 0 0 - - -;
#X floatatom 943 201 5 0 0 0 - - -;
#X floatatom 973 230 5 0 0 0 - - -;
#X obj 138 347 i;
#X obj 168 347 i;
#X obj 198 347 i;
#X obj 228 347 i;
#X obj 258 347 i;
#X obj 288 347 i;
#X obj 318 347 i;
#X obj 348 347 i;
#X obj 153 131 vsl 15 50 0 127 0 0 \$0-velocity2_s \$0-velocity2_r
2 5 65 0 10 -191392 -1 -262144 1500 1;
#X obj 183 131 vsl 15 50 0 127 0 0 \$0-velocity3_s \$0-velocity3_r
3 5 65 0 10 -191392 -1 -262144 2600 1;
#X obj 213 131 vsl 15 50 0 127 0 0 \$0-velocity4_s \$0-velocity4_r
4 5 65 0 10 -191392 -1 -262144 0 1;
#X obj 243 131 vsl 15 50 0 127 0 0 \$0-velocity5_s \$0-velocity5_r
5 5 65 0 10 -191392 -1 -262144 2843 1;
#X obj 273 131 vsl 15 50 0 127 0 0 \$0-velocity6_s \$0-velocity6_r
6 5 65 0 10 -191392 -1 -262144 0 1;
#X obj 303 131 vsl 15 50 0 127 0 0 \$0-velocity7_s \$0-velocity7_r
7 5 65 0 10 -191392 -1 -262144 0 1;
#X obj 333 131 vsl 15 50 0 127 0 0 \$0-velocity8_s \$0-velocity8_r
8 5 65 0 10 -191392 -1 -262144 0 1;
#X obj 363 131 vsl 15 50 0 127 0 0 \$0-velocity9_s \$0-velocity9_r
9 5 65 0 10 -191392 -1 -262144 3215 1;
#X obj 393 131 vsl 15 50 0 127 0 0 \$0-velocity10_s \$0-velocity10_r
10 2 65 0 10 -191392 -1 -262144 1943 1;
#X obj 423 131 vsl 15 50 0 127 0 0 \$0-velocity11_s \$0-velocity11_r
11 2 65 0 10 -191392 -1 -262144 3300 1;
#X obj 453 131 vsl 15 50 0 127 0 0 \$0-velocity12_s \$0-velocity12_r
12 2 65 0 10 -191392 -1 -262144 2315 1;
#X obj 378 347 i;
#X obj 408 347 i;
#X obj 438 347 i;
#X obj 468 347 i;
#X obj 868 268 i;
#X obj 898 268 i;
#X obj 928 268 i;
#X obj 958 268 i;
#X obj 868 251 sel 0 1 2 3 4;
#X obj 868 305 bng 15 250 50 0 empty empty empty 17 7 0 10 -262144
-1 -1;
#X obj 898 305 bng 15 250 50 0 empty empty empty 17 7 0 10 -262144
-1 -1;
#X obj 928 305 bng 15 250 50 0 empty empty empty 17 7 0 10 -262144
-1 -1;
#X obj 958 305 bng 15 250 50 0 empty empty empty 17 7 0 10 -262144
-1 -1;
#X floatatom 868 348 5 0 0 0 - - -;
#X floatatom 898 348 5 0 0 0 - - -;
#X floatatom 928 348 5 0 0 0 - - -;
#X floatatom 958 348 5 0 0 0 - - -;
#X obj 33 50 loadbang;
#X obj 124 207 bng 15 250 50 0 change_chord empty empty 17 7 0 10 -70665
-232942 -1;
#X obj 154 207 bng 15 250 50 0 empty empty empty 17 7 0 10 -70665 -232942
-1;
#X obj 184 207 bng 15 250 50 0 empty empty empty 17 7 0 10 -70665 -232942
-1;
#X obj 214 207 bng 15 250 50 0 empty empty empty 17 7 0 10 -70665 -232942
-1;
#X obj 244 207 bng 15 250 50 0 empty empty empty 17 7 0 10 -70665 -232942
-1;
#X obj 274 207 bng 15 250 50 0 empty empty empty 17 7 0 10 -70665 -232942
-1;
#X obj 304 207 bng 15 250 50 0 empty empty empty 17 7 0 10 -70665 -232942
-1;
#X obj 334 207 bng 15 250 50 0 empty empty empty 17 7 0 10 -70665 -232942
-1;
#X obj 394 207 bng 15 250 50 0 empty empty empty 17 7 0 10 -70665 -232942
-1;
#X obj 424 207 bng 15 250 50 0 empty empty empty 17 7 0 10 -70665 -232942
-1;
#X obj 454 207 bng 15 250 50 0 empty empty empty 17 7 0 10 -70665 -232942
-1;
#X obj 364 207 bng 15 250 50 0 empty empty empty 17 7 0 10 -70665 -232942
-1;
#X obj 160 234 nbx 3 20 1 22 0 0 empty empty Steps 1 30 0 15 -224752
-1 -262144 11 256;
#X obj 452 364 makenote 0 200;
#X obj 126 235 tgl 20 0 empty empty Play -2 25 0 10 -203875 -1 -262144
0 1;
#X obj 33 24 bng 15 250 50 0 empty empty empty 17 7 0 10 -262144 -1
-1;
#X obj 768 239 bng 20 250 50 0 empty empty Reset -3 28 0 10 -216427
-1 -262144;
#X floatatom 531 416 5 0 0 0 - - -;
#X obj 221 234 nbx 3 20 -1e+037 1e+037 0 0 empty empty Tempo 0 30 0
15 -224752 -1 -262144 120 256;
#X msg -2 221 120;
#X obj -146 365 *;
#X obj 282 237 hradio 17 1 0 5 empty empty x1.x2.x3.x4.x5 0 25 0 10
-212072 -1 -262144 1;
#X obj -146 313 t b f;
#X msg -177 348 1;
#X msg -147 348 2;
#X msg -117 348 3;
#X msg -87 348 4;
#X msg -57 348 5;
#X msg -27 348 6;
#X obj -177 331 sel 0 1 2 3 4 5 6 7;
#X msg 3 348 7;
#X msg 33 348 8;
#X floatatom -146 390 5 0 0 0 - - -;
#X obj 483 131 vsl 15 50 0 127 0 0 \$0-velocity13_s \$0-velocity13_r
13 2 65 0 10 -191392 -1 -262144 0 1;
#X obj 513 131 vsl 15 50 0 127 0 0 \$0-velocity14_s \$0-velocity14_r
14 2 65 0 10 -191392 -1 -262144 0 1;
#X obj 543 131 vsl 15 50 0 127 0 0 \$0-velocity15_s \$0-velocity15_r
15 2 65 0 10 -191392 -1 -262144 0 1;
#X obj 573 131 vsl 15 50 0 127 0 0 \$0-velocity16_s \$0-velocity16_r
16 2 65 0 10 -191392 -1 -262144 0 1;
#X obj 603 131 vsl 15 50 0 127 0 0 \$0-velocity17_s \$0-velocity17_r
17 2 65 0 10 -191392 -1 -262144 0 1;
#X obj 633 131 vsl 15 50 0 127 0 0 \$0-velocity18_s \$0-velocity18_r
18 2 65 0 10 -191392 -1 -262144 0 1;
#X obj 663 131 vsl 15 50 0 127 0 0 \$0-velocity19_s \$0-velocity19_r
19 2 65 0 10 -191392 -1 -262144 0 1;
#X obj 693 131 vsl 15 50 0 127 0 0 \$0-velocity20_s \$0-velocity20_r
20 2 65 0 10 -191392 -1 -262144 0 1;
#X obj 723 131 vsl 15 50 0 127 0 0 \$0-velocity21_s \$0-velocity21_r
21 2 65 0 10 -191392 -1 -262144 2315 1;
#X obj 753 131 vsl 15 50 0 127 0 0 \$0-velocity22_s \$0-velocity22_r
22 2 65 0 10 -191392 -1 -262144 3087 1;
#X obj 484 207 bng 15 250 50 0 empty empty empty 17 7 0 10 -70665 -232942
-1;
#X obj 514 207 bng 15 250 50 0 empty empty empty 17 7 0 10 -70665 -232942
-1;
#X obj 544 207 bng 15 250 50 0 empty empty empty 17 7 0 10 -70665 -232942
-1;
#X obj 574 207 bng 15 250 50 0 empty empty empty 17 7 0 10 -70665 -232942
-1;
#X obj 604 207 bng 15 250 50 0 empty empty empty 17 7 0 10 -70665 -232942
-1;
#X obj 634 207 bng 15 250 50 0 empty empty empty 17 7 0 10 -70665 -232942
-1;
#X obj 664 207 bng 15 250 50 0 empty empty empty 17 7 0 10 -70665 -232942
-1;
#X obj 694 207 bng 15 250 50 0 empty empty empty 17 7 0 10 -70665 -232942
-1;
#X obj 754 207 bng 15 250 50 0 empty empty empty 17 7 0 10 -70665 -232942
-1;
#X obj 724 207 bng 15 250 50 0 empty empty empty 17 7 0 10 -70665 -232942
-1;
#X obj 498 347 i;
#X obj 528 347 i;
#X obj 558 347 i;
#X obj 588 347 i;
#X obj 618 347 i;
#X obj 648 347 i;
#X obj 678 347 i;
#X obj 708 347 i;
#X obj 738 347 i;
#X obj 768 347 i;
#X obj 283 330 sel 0 1 2 3 4 5 6 7 8 9 10 11 12 13 14 15 16 17 18 19
20 21;
#X floatatom 623 364 5 0 0 0 - - -;
#X obj 623 535 sel 0;
#X obj 772 643 bng 15 250 50 0 empty empty empty 17 7 0 10 -262144
-1 -1;
#X obj 772 762 i;
#X obj 797 762 + 1;
#X floatatom 773 819 5 0 0 0 - - -;
#X obj 773 790 % 4;
#X floatatom 868 835 5 0 0 0 - - -;
#X obj 650 561 bng 15 250 50 0 empty empty empty 17 7 0 10 -262144
-1 -1;
#X obj 252 399 * 2;
#X obj 651 638 bng 15 250 50 0 empty empty empty 17 7 0 10 -262144
-1 -1;
#X obj 736 747 ==;
#X obj 690 729 t f f;
#X obj 702 818 f;
#X obj 671 764 f;
#X obj 671 703 t b f f;
#X obj 671 659 random 4;
#X floatatom 671 682 5 0 0 0 - - -;
#X obj 512 242 hradio 17 1 0 3 empty empty rnd.cnt.cntv -7 25 0 10
-212072 -1 -262144 1;
#X obj 701 611 moses;
#X obj 650 584 random 100;
#X msg 738 574 0;
#X obj -10 426 % 4;
#X msg 721 594 100;
#X obj 623 510 *;
#X msg 677 476 0;
#X msg 711 476 1;
#X obj 677 493 t b f;
#X obj 721 459 sel 0 1 2;
#X obj -10 624 sel 10;
#X floatatom 23 819 5 0 0 0 - - -;
#X obj -10 493 expr ($f1*$f2)+$f3;
#X msg 133 476 0;
#X msg 166 476 10;
#X msg 197 476 1;
#X msg 230 476 0;
#X obj -10 647 bng 15 250 50 0 empty empty empty 17 7 0 10 -262144
-1 -1;
#X obj 582 616 loadbang;
#X msg 599 642 seed 0;
#X obj 671 791 sel 0 1;
#X obj 651 808 bng 15 250 50 0 empty empty empty 17 7 0 10 -262144
-1 -1;
#X floatatom -107 313 5 0 0 0 - - -;
#X obj 252 373 t b f;
#X msg 56 221 1.5;
#X obj 376 234 hsl 100 15 0.1 3 0 0 empty empty Staccato_Legato 3 7
0 10 -208037 -1 -1 4779 1;
#X floatatom 568 398 5 0 0 0 - - -;
#X obj 1039 35 r KeyNote;
#X obj 734 -64 r chord;
#X obj 794 -47 unpack f f f;
#X msg 923 19 100;
#X obj 1056 122 bng 15 250 50 0 empty empty empty 17 7 0 10 -262144
-1 -1;
#X obj 1076 122 bng 15 250 50 0 empty empty empty 17 7 0 10 -262144
-1 -1;
#X obj 1096 122 bng 15 250 50 0 empty empty empty 17 7 0 10 -262144
-1 -1;
#X obj 1116 122 bng 15 250 50 0 empty empty empty 17 7 0 10 -262144
-1 -1;
#X floatatom 779 36 5 0 0 0 - - -;
#X floatatom 830 36 5 0 0 0 - - -;
#X obj 779 2 i;
#X obj 813 2 i;
#X obj 848 2 i;
#X obj 1113 -15 delay 10;
#X obj 1113 -30 bng 15 250 50 0 empty empty empty 17 7 0 10 -262144
-1 -1;
#X obj 1050 -15 delay 10;
#X obj 993 -15 delay 10;
#X obj 888 2 i;
#X obj 932 -15 delay 10;
#X obj 1104 35 r vel;
#X obj 739 239 bng 20 250 50 0 \$0-bang_velocity empty Random -5 -8
0 10 -216427 -1 -262144;
#X msg 61 107 11;
#X obj 888 19 - 12;
#X obj 130 363 sel 0;
#X floatatom -87 454 5 0 0 0 - - -;
#X msg 129 384 0;
#X obj 43 382 bpm ------;
#X obj 81 354 tgl 15 0 empty empty empty 17 7 0 10 -262144 -1 -1 0
1;
#X obj 484 258 tgl 15 0 empty empty empty -2 7 0 10 -203875 -1 -262144
0 1;
#X obj 377 257 hsl 100 15 50 500 0 0 empty empty swift 20 7 0 10 -208037
-1 -1 0 1;
#X obj -66 254 hsl 128 15 50 500 0 0 empty empty empty -2 -8 0 10 -262144
-1 -1 4233 1;
#X msg -69 77 200;
#X obj 685 234 cnv 15 40 40 empty \$0-displayNote C-1 8 20 0 18 -70665
-262144 0;
#X msg 902 482 label \$1;
#X obj 902 505 s \$0-displayNote;
#X obj 902 416 notoname2;
#X symbolatom 1002 433 10 0 0 0 - - -;
#X obj 902 459 makefilename %s;
#X obj 663 108 bng 15 250 50 0 empty empty save 17 7 0 10 -191392 -1
-262144;
#X obj 710 108 bng 15 250 50 0 empty empty load 17 7 0 10 -191392 -1
-262144;
#X obj 614 106 nbx 2 14 -1e+037 1e+037 0 0 \$0-channel_Out empty ChannelOut
-70 7 0 10 -191392 -1 -262144 10 256;
#X msg 614 67 10;
#X msg -32 192 1;
#N canvas 738 197 822 589 save 0;
#X obj -282 -271 cnv 15 320 180 empty empty empty 20 12 0 14 -261234
-66577 0;
#X obj -282 -87 cnv 15 320 350 empty empty empty 20 12 0 14 -204786
-66577 0;
#X obj -272 143 textfile;
#X obj -272 53 until;
#X obj -272 -77 r \$0-load.s;
#X obj -272 183 list prepend \$0;
#X obj -272 203 list trim;
#X obj -272 -267 r \$0-save.s;
#X obj -272 -57 openpanel;
#X obj -272 80 s \$0-to.textfile;
#X obj -272 -137 s \$0-to.textfile;
#X obj -227 163 s \$0-stop.loop;
#X obj -245 33 r \$0-stop.loop;
#X obj -272 123 r \$0-to.textfile;
#X msg -253 -17 read \$1 \, rewind;
#X msg -142 0 label \$1;
#X obj -272 -37 t b s s;
#X msg -238 -207 clear;
#X obj -272 -247 savepanel;
#X msg -132 -210 write \$1;
#X msg -272 -167 write \$1;
#X obj -272 -227 t s b b s;
#X obj -142 -60 loadbang;
#X obj -142 -40 symbol no_preset_loaded;
#X obj -142 -20 makefilename PRESET_FILE:%s;
#X obj -255 -187 s \$0-get.values;
#X obj -142 20 s \$0-preset.name_r;
#X msg -272 223 \; \$1-\$2_r \$3 \;;
#X obj 173 48 bng 20 250 50 0 \$0-save.s \$0-save.r save 22 7 0 10
-261234 -1 -1;
#X obj 123 48 bng 20 250 50 0 \$0-load.s \$0-load.r load 22 7 0 10
-204786 -1 -1;
#X obj 175 -40 inlet save;
#X obj 103 -39 inlet load;
#X obj 374 -249 save.param \$0 velocity1;
#X obj 374 -229 save.param \$0 velocity2;
#X obj 374 -209 save.param \$0 velocity3;
#X obj 374 -189 save.param \$0 velocity4;
#X obj 374 -169 save.param \$0 velocity5;
#X obj 374 -149 save.param \$0 velocity6;
#X obj 374 -129 save.param \$0 velocity7;
#X obj 374 -109 save.param \$0 velocity8;
#X obj 374 -89 save.param \$0 velocity9;
#X obj 374 -69 save.param \$0 velocity10;
#X obj 374 -49 save.param \$0 velocity11;
#X obj 374 -29 save.param \$0 velocity12;
#X obj 374 -9 save.param \$0 velocity13;
#X obj 374 11 save.param \$0 velocity13;
#X obj 374 31 save.param \$0 velocity15;
#X obj 374 51 save.param \$0 velocity16;
#X obj 374 71 save.param \$0 velocity17;
#X obj 374 91 save.param \$0 velocity18;
#X obj 374 111 save.param \$0 velocity19;
#X obj 374 131 save.param \$0 velocity20;
#X obj 374 151 save.param \$0 velocity21;
#X obj 374 171 save.param \$0 velocity22;
#X obj 80 -155 bng 15 250 50 0 empty empty empty 17 7 0 10 -262144
-1 -1;
#N canvas 404 297 450 300 preset1 0;
#X obj 38 -7 until;
#X obj 38 20 s \$0-to.textfile;
#X obj 65 -27 r \$0-stop.loop;
#X msg 218 -60 label \$1;
#X obj 38 -97 t b s s;
#X obj 218 -120 loadbang;
#X obj 218 -100 symbol no_preset_loaded;
#X obj 218 -80 makefilename PRESET_FILE:%s;
#X obj 218 -40 s \$0-preset.name_r;
#X obj 38 -147 inlet;
#X msg 57 -77 read seq1_1.txt \, rewind;
#X connect 0 0 1 0;
#X connect 2 0 0 1;
#X connect 3 0 8 0;
#X connect 4 0 0 0;
#X connect 4 1 10 0;
#X connect 4 2 7 0;
#X connect 5 0 6 0;
#X connect 6 0 7 0;
#X connect 7 0 3 0;
#X connect 9 0 4 0;
#X connect 10 0 1 0;
#X restore 79 -124 pd preset1;
#N canvas 404 297 450 300 preset2 0;
#X obj 38 -7 until;
#X obj 38 20 s \$0-to.textfile;
#X obj 65 -27 r \$0-stop.loop;
#X msg 218 -60 label \$1;
#X obj 38 -97 t b s s;
#X obj 218 -120 loadbang;
#X obj 218 -100 symbol no_preset_loaded;
#X obj 218 -80 makefilename PRESET_FILE:%s;
#X obj 218 -40 s \$0-preset.name_r;
#X obj 38 -147 inlet;
#X msg 57 -77 read seq1_2.txt \, rewind;
#X connect 0 0 1 0;
#X connect 2 0 0 1;
#X connect 3 0 8 0;
#X connect 4 0 0 0;
#X connect 4 1 10 0;
#X connect 4 2 7 0;
#X connect 5 0 6 0;
#X connect 6 0 7 0;
#X connect 7 0 3 0;
#X connect 9 0 4 0;
#X connect 10 0 1 0;
#X restore 149 -124 pd preset2;
#X obj 120 -245 ctlin 59;
#X obj 120 -207 sel 0 127;
#X obj 150 -155 bng 15 250 50 0 empty empty empty 17 7 0 10 -262144
-1 -1;
#X obj 56 -205 loadbang;
#X connect 2 0 5 0;
#X connect 2 1 11 0;
#X connect 3 0 9 0;
#X connect 4 0 8 0;
#X connect 5 0 6 0;
#X connect 6 0 27 0;
#X connect 7 0 18 0;
#X connect 8 0 16 0;
#X connect 12 0 3 1;
#X connect 13 0 2 0;
#X connect 14 0 9 0;
#X connect 15 0 26 0;
#X connect 16 0 3 0;
#X connect 16 1 14 0;
#X connect 16 2 24 0;
#X connect 17 0 10 0;
#X connect 18 0 21 0;
#X connect 19 0 10 0;
#X connect 20 0 10 0;
#X connect 21 0 20 0;
#X connect 21 1 25 0;
#X connect 21 2 17 0;
#X connect 21 3 19 0;
#X connect 22 0 23 0;
#X connect 23 0 24 0;
#X connect 24 0 15 0;
#X connect 30 0 28 0;
#X connect 31 0 29 0;
#X connect 54 0 55 0;
#X connect 57 0 58 0;
#X connect 58 0 54 0;
#X connect 58 1 59 0;
#X connect 59 0 56 0;
#X connect 60 0 54 0;
#X restore 830 89 pd save;
#X obj 750 74 bng 15 250 50 0 empty empty empty 17 7 0 10 -262144 -1
-1;
#X obj 789 74 bng 15 250 50 0 empty empty empty 17 7 0 10 -262144 -1
-1;
#X obj 595 242 hradio 17 1 0 4 \$0-step_option empty fw.bw.fb.rnd 0
25 0 10 -212072 -1 -262144 0;
#N canvas 0 0 1916 988 random 0;
#X obj -123 -180 bng 15 250 50 0 empty \$0-bang_velocity empty 17 7
0 10 -262144 -1 -1;
#X obj -113 -121 i;
#X obj -82 -121 + 1;
#X msg -113 -68 seed \$1;
#X obj -113 -93 % 100;
#X obj -53 -180 bng 15 250 50 0 empty \$0-bang_velocity empty 17 7
0 10 -262144 -1 -1;
#X obj -43 -121 i;
#X obj -12 -121 + 1;
#X msg -43 -68 seed \$1;
#X obj -43 -93 % 100;
#X obj 17 -180 bng 15 250 50 0 empty \$0-bang_velocity empty 17 7 0
10 -262144 -1 -1;
#X obj 27 -121 i;
#X obj 58 -121 + 1;
#X msg 27 -68 seed \$1;
#X obj 27 -93 % 100;
#X obj 87 -180 bng 15 250 50 0 empty \$0-bang_velocity empty 17 7 0
10 -262144 -1 -1;
#X obj 97 -121 i;
#X obj 128 -121 + 1;
#X msg 97 -68 seed \$1;
#X obj 97 -93 % 100;
#X obj 157 -180 bng 15 250 50 0 empty \$0-bang_velocity empty 17 7
0 10 -262144 -1 -1;
#X obj 167 -121 i;
#X obj 198 -121 + 1;
#X msg 167 -68 seed \$1;
#X obj 167 -93 % 100;
#X obj 227 -180 bng 15 250 50 0 empty \$0-bang_velocity empty 17 7
0 10 -262144 -1 -1;
#X obj 237 -121 i;
#X obj 268 -121 + 1;
#X msg 237 -68 seed \$1;
#X obj 237 -93 % 100;
#X obj 297 -180 bng 15 250 50 0 empty \$0-bang_velocity empty 17 7
0 10 -262144 -1 -1;
#X obj 307 -121 i;
#X obj 338 -121 + 1;
#X msg 307 -68 seed \$1;
#X obj 307 -93 % 100;
#X obj 367 -180 bng 15 250 50 0 empty \$0-bang_velocity empty 17 7
0 10 -262144 -1 -1;
#X obj 377 -121 i;
#X obj 408 -121 + 1;
#X msg 377 -68 seed \$1;
#X obj 377 -93 % 100;
#X obj 437 -180 bng 15 250 50 0 empty \$0-bang_velocity empty 17 7
0 10 -262144 -1 -1;
#X obj 447 -121 i;
#X obj 478 -121 + 1;
#X msg 447 -68 seed \$1;
#X obj 447 -93 % 100;
#X obj 507 -180 bng 15 250 50 0 empty \$0-bang_velocity empty 17 7
0 10 -262144 -1 -1;
#X obj 517 -121 i;
#X obj 548 -121 + 1;
#X msg 517 -68 seed \$1;
#X obj 517 -93 % 100;
#X obj 577 -180 bng 15 250 50 0 empty \$0-bang_velocity empty 17 7
0 10 -262144 -1 -1;
#X obj 587 -121 i;
#X obj 618 -121 + 1;
#X msg 587 -68 seed \$1;
#X obj 587 -93 % 100;
#X obj 647 -180 bng 15 250 50 0 empty \$0-bang_velocity empty 17 7
0 10 -262144 -1 -1;
#X obj 657 -121 i;
#X obj 688 -121 + 1;
#X msg 657 -68 seed \$1;
#X obj 657 -93 % 100;
#X obj 717 -180 bng 15 250 50 0 empty \$0-bang_velocity empty 17 7
0 10 -262144 -1 -1;
#X obj 727 -121 i;
#X obj 758 -121 + 1;
#X msg 727 -68 seed \$1;
#X obj 727 -93 % 100;
#X obj 787 -180 bng 15 250 50 0 empty \$0-bang_velocity empty 17 7
0 10 -262144 -1 -1;
#X obj 797 -121 i;
#X obj 828 -121 + 1;
#X msg 797 -68 seed \$1;
#X obj 797 -93 % 100;
#X obj 857 -180 bng 15 250 50 0 empty \$0-bang_velocity empty 17 7
0 10 -262144 -1 -1;
#X obj 867 -121 i;
#X obj 898 -121 + 1;
#X msg 867 -68 seed \$1;
#X obj 867 -93 % 100;
#X obj 927 -180 bng 15 250 50 0 empty \$0-bang_velocity empty 17 7
0 10 -262144 -1 -1;
#X obj 937 -121 i;
#X obj 968 -121 + 1;
#X msg 937 -68 seed \$1;
#X obj 937 -93 % 100;
#X obj 997 -180 bng 15 250 50 0 empty \$0-bang_velocity empty 17 7
0 10 -262144 -1 -1;
#X obj 1007 -121 i;
#X obj 1038 -121 + 1;
#X msg 1007 -68 seed \$1;
#X obj 1007 -93 % 100;
#X obj 1067 -180 bng 15 250 50 0 empty \$0-bang_velocity empty 17 7
0 10 -262144 -1 -1;
#X obj 1077 -121 i;
#X obj 1108 -121 + 1;
#X msg 1077 -68 seed \$1;
#X obj 1077 -93 % 100;
#X obj 1137 -180 bng 15 250 50 0 empty \$0-bang_velocity empty 17 7
0 10 -262144 -1 -1;
#X obj 1147 -121 i;
#X obj 1178 -121 + 1;
#X msg 1147 -68 seed \$1;
#X obj 1147 -93 % 100;
#X obj 1207 -180 bng 15 250 50 0 empty \$0-bang_velocity empty 17 7
0 10 -262144 -1 -1;
#X obj 1217 -121 i;
#X obj 1248 -121 + 1;
#X msg 1217 -68 seed \$1;
#X obj 1217 -93 % 100;
#X obj 1277 -180 bng 15 250 50 0 empty \$0-bang_velocity empty 17 7
0 10 -262144 -1 -1;
#X obj 1287 -121 i;
#X obj 1318 -121 + 1;
#X msg 1287 -68 seed \$1;
#X obj 1287 -93 % 100;
#X obj 1347 -180 bng 15 250 50 0 empty \$0-bang_velocity empty 17 7
0 10 -262144 -1 -1;
#X obj 1357 -121 i;
#X obj 1388 -121 + 1;
#X msg 1357 -68 seed \$1;
#X obj 1357 -93 % 100;
#X obj 1589 -165 tgl 15 0 empty empty empty 17 7 0 10 -262144 -1 -1
1 1;
#X msg 1589 -200 1;
#X obj 1589 -234 loadbang;
#X obj -113 -150 metro 200;
#X obj -43 -150 metro 80;
#X obj 27 -150 metro 108;
#X obj 97 -150 metro 350;
#X obj 167 -150 metro 300;
#X obj 237 -150 metro 900;
#X obj 307 -150 metro 204;
#X obj 377 -150 metro 133;
#X obj 447 -150 metro 758;
#X obj 517 -150 metro 124;
#X obj 587 -150 metro 985;
#X obj 657 -150 metro 422;
#X obj 727 -150 metro 377;
#X obj 797 -150 metro 111;
#X obj 867 -150 metro 555;
#X obj 937 -150 metro 854;
#X obj 1007 -150 metro 304;
#X obj 1077 -150 metro 375;
#X obj 1147 -150 metro 305;
#X obj 1217 -150 metro 116;
#X obj 1287 -150 metro 714;
#X obj 1357 -150 metro 632;
#X floatatom -123 14 5 0 0 0 - - #0-velocity1_r;
#X floatatom -53 14 5 0 0 0 - - #0-velocity2_r;
#X floatatom 17 14 5 0 0 0 - - #0-velocity3_r;
#X floatatom 87 14 5 0 0 0 - - #0-velocity4_r;
#X floatatom 157 14 5 0 0 0 - - #0-velocity5_r;
#X floatatom 227 14 5 0 0 0 - - #0-velocity6_r;
#X floatatom 297 14 5 0 0 0 - - #0-velocity7_r;
#X floatatom 367 14 5 0 0 0 - - #0-velocity8_r;
#X floatatom 437 14 5 0 0 0 - - #0-velocity9_r;
#X floatatom 507 14 5 0 0 0 - - #0-velocity10_r;
#X floatatom 577 14 5 0 0 0 - - #0-velocity11_r;
#X floatatom 647 14 5 0 0 0 - - #0-velocity12_r;
#X floatatom 717 14 5 0 0 0 - - #0-velocity13_r;
#X floatatom 787 14 5 0 0 0 - - #0-velocity14_r;
#X floatatom 857 14 5 0 0 0 - - #0-velocity15_r;
#X floatatom 927 14 5 0 0 0 - - #0-velocity16_r;
#X floatatom 997 14 5 0 0 0 - - #0-velocity17_r;
#X floatatom 1067 14 5 0 0 0 - - #0-velocity18_r;
#X floatatom 1137 14 5 0 0 0 - - #0-velocity19_r;
#X floatatom 1207 14 5 0 0 0 - - #0-velocity20_r;
#X floatatom 1277 14 5 0 0 0 - - #0-velocity21_r;
#X floatatom 1347 14 5 0 0 0 - - #0-velocity22_r;
#X obj 1417 -180 bng 15 250 50 0 empty \$0-bang_velocity empty 17 7
0 10 -262144 -1 -1;
#X obj 1427 -121 i;
#X obj 1458 -121 + 1;
#X msg 1427 -68 seed \$1;
#X obj 1427 -93 % 100;
#X floatatom 1417 14 5 0 0 0 - - #0-velocity23_r;
#X obj 1496 -180 bng 15 250 50 0 empty \$0-bang_velocity empty 17 7
0 10 -262144 -1 -1;
#X obj 1506 -121 i;
#X obj 1537 -121 + 1;
#X msg 1506 -68 seed \$1;
#X obj 1506 -93 % 100;
#X floatatom 1496 14 5 0 0 0 - - #0-velocity24_r;
#X obj 1427 -150 metro 1050;
#X obj 1506 -150 metro 1130;
#X obj -123 -13 * 20;
#X obj -123 -42 random 6;
#X obj -53 -42 random 6;
#X obj -53 -13 * 20;
#X obj 17 -42 random 6;
#X obj 17 -13 * 20;
#X obj 87 -42 random 6;
#X obj 157 -42 random 6;
#X obj 227 -42 random 6;
#X obj 297 -42 random 6;
#X obj 367 -42 random 6;
#X obj 437 -42 random 6;
#X obj 507 -42 random 6;
#X obj 577 -42 random 6;
#X obj 647 -42 random 6;
#X obj 717 -42 random 6;
#X obj 787 -42 random 6;
#X obj 857 -42 random 6;
#X obj 927 -42 random 6;
#X obj 997 -42 random 6;
#X obj 1067 -42 random 6;
#X obj 1137 -42 random 6;
#X obj 1207 -42 random 6;
#X obj 1277 -42 random 6;
#X obj 1347 -42 random 6;
#X obj 1417 -42 random 6;
#X obj 1496 -42 random 6;
#X obj 87 -13 * 20;
#X obj 157 -13 * 20;
#X obj 227 -13 * 20;
#X obj 297 -13 * 20;
#X obj 367 -13 * 20;
#X obj 437 -13 * 20;
#X obj 507 -13 * 20;
#X obj 577 -13 * 20;
#X obj 647 -13 * 20;
#X obj 717 -13 * 20;
#X obj 787 -13 * 20;
#X obj 857 -13 * 20;
#X obj 927 -13 * 20;
#X obj 997 -13 * 20;
#X obj 1067 -13 * 20;
#X obj 1137 -13 * 20;
#X obj 1207 -13 * 20;
#X obj 1277 -13 * 20;
#X obj 1347 -13 * 20;
#X obj 1417 -13 * 20;
#X obj 1496 -13 * 20;
#X connect 0 0 172 0;
#X connect 1 0 2 0;
#X connect 1 0 4 0;
#X connect 2 0 1 1;
#X connect 3 0 172 0;
#X connect 4 0 3 0;
#X connect 5 0 173 0;
#X connect 6 0 7 0;
#X connect 6 0 9 0;
#X connect 7 0 6 1;
#X connect 8 0 173 0;
#X connect 9 0 8 0;
#X connect 10 0 175 0;
#X connect 11 0 12 0;
#X connect 11 0 14 0;
#X connect 12 0 11 1;
#X connect 13 0 175 0;
#X connect 14 0 13 0;
#X connect 15 0 177 0;
#X connect 16 0 17 0;
#X connect 16 0 19 0;
#X connect 17 0 16 1;
#X connect 18 0 177 0;
#X connect 19 0 18 0;
#X connect 20 0 178 0;
#X connect 21 0 22 0;
#X connect 21 0 24 0;
#X connect 22 0 21 1;
#X connect 23 0 178 0;
#X connect 24 0 23 0;
#X connect 25 0 179 0;
#X connect 26 0 27 0;
#X connect 26 0 29 0;
#X connect 27 0 26 1;
#X connect 28 0 179 0;
#X connect 29 0 28 0;
#X connect 30 0 180 0;
#X connect 31 0 32 0;
#X connect 31 0 34 0;
#X connect 32 0 31 1;
#X connect 33 0 180 0;
#X connect 34 0 33 0;
#X connect 35 0 181 0;
#X connect 36 0 37 0;
#X connect 36 0 39 0;
#X connect 37 0 36 1;
#X connect 38 0 181 0;
#X connect 39 0 38 0;
#X connect 40 0 182 0;
#X connect 41 0 42 0;
#X connect 41 0 44 0;
#X connect 42 0 41 1;
#X connect 43 0 182 0;
#X connect 44 0 43 0;
#X connect 45 0 183 0;
#X connect 46 0 47 0;
#X connect 46 0 49 0;
#X connect 47 0 46 1;
#X connect 48 0 183 0;
#X connect 49 0 48 0;
#X connect 50 0 184 0;
#X connect 51 0 52 0;
#X connect 51 0 54 0;
#X connect 52 0 51 1;
#X connect 53 0 184 0;
#X connect 54 0 53 0;
#X connect 55 0 185 0;
#X connect 56 0 57 0;
#X connect 56 0 59 0;
#X connect 57 0 56 1;
#X connect 58 0 185 0;
#X connect 59 0 58 0;
#X connect 60 0 186 0;
#X connect 61 0 62 0;
#X connect 61 0 64 0;
#X connect 62 0 61 1;
#X connect 63 0 186 0;
#X connect 64 0 63 0;
#X connect 65 0 187 0;
#X connect 66 0 67 0;
#X connect 66 0 69 0;
#X connect 67 0 66 1;
#X connect 68 0 187 0;
#X connect 69 0 68 0;
#X connect 70 0 188 0;
#X connect 71 0 72 0;
#X connect 71 0 74 0;
#X connect 72 0 71 1;
#X connect 73 0 188 0;
#X connect 74 0 73 0;
#X connect 75 0 189 0;
#X connect 76 0 77 0;
#X connect 76 0 79 0;
#X connect 77 0 76 1;
#X connect 78 0 189 0;
#X connect 79 0 78 0;
#X connect 80 0 190 0;
#X connect 81 0 82 0;
#X connect 81 0 84 0;
#X connect 82 0 81 1;
#X connect 83 0 190 0;
#X connect 84 0 83 0;
#X connect 85 0 191 0;
#X connect 86 0 87 0;
#X connect 86 0 89 0;
#X connect 87 0 86 1;
#X connect 88 0 191 0;
#X connect 89 0 88 0;
#X connect 90 0 192 0;
#X connect 91 0 92 0;
#X connect 91 0 94 0;
#X connect 92 0 91 1;
#X connect 93 0 192 0;
#X connect 94 0 93 0;
#X connect 95 0 193 0;
#X connect 96 0 97 0;
#X connect 96 0 99 0;
#X connect 97 0 96 1;
#X connect 98 0 193 0;
#X connect 99 0 98 0;
#X connect 100 0 194 0;
#X connect 101 0 102 0;
#X connect 101 0 104 0;
#X connect 102 0 101 1;
#X connect 103 0 194 0;
#X connect 104 0 103 0;
#X connect 105 0 195 0;
#X connect 106 0 107 0;
#X connect 106 0 109 0;
#X connect 107 0 106 1;
#X connect 108 0 195 0;
#X connect 109 0 108 0;
#X connect 110 0 113 0;
#X connect 110 0 114 0;
#X connect 110 0 115 0;
#X connect 110 0 116 0;
#X connect 110 0 117 0;
#X connect 110 0 118 0;
#X connect 110 0 119 0;
#X connect 110 0 120 0;
#X connect 110 0 121 0;
#X connect 110 0 122 0;
#X connect 110 0 123 0;
#X connect 110 0 124 0;
#X connect 110 0 125 0;
#X connect 110 0 126 0;
#X connect 110 0 127 0;
#X connect 110 0 128 0;
#X connect 110 0 129 0;
#X connect 110 0 130 0;
#X connect 110 0 131 0;
#X connect 110 0 132 0;
#X connect 110 0 133 0;
#X connect 110 0 134 0;
#X connect 110 0 170 0;
#X connect 110 0 169 0;
#X connect 111 0 110 0;
#X connect 112 0 111 0;
#X connect 113 0 1 0;
#X connect 114 0 6 0;
#X connect 115 0 11 0;
#X connect 116 0 16 0;
#X connect 117 0 21 0;
#X connect 118 0 26 0;
#X connect 119 0 31 0;
#X connect 120 0 36 0;
#X connect 121 0 41 0;
#X connect 122 0 46 0;
#X connect 123 0 51 0;
#X connect 124 0 56 0;
#X connect 125 0 61 0;
#X connect 126 0 66 0;
#X connect 127 0 71 0;
#X connect 128 0 76 0;
#X connect 129 0 81 0;
#X connect 130 0 86 0;
#X connect 131 0 91 0;
#X connect 132 0 96 0;
#X connect 133 0 101 0;
#X connect 134 0 106 0;
#X connect 157 0 196 0;
#X connect 158 0 159 0;
#X connect 158 0 161 0;
#X connect 159 0 158 1;
#X connect 160 0 196 0;
#X connect 161 0 160 0;
#X connect 163 0 197 0;
#X connect 164 0 165 0;
#X connect 164 0 167 0;
#X connect 165 0 164 1;
#X connect 166 0 197 0;
#X connect 167 0 166 0;
#X connect 169 0 158 0;
#X connect 170 0 164 0;
#X connect 171 0 135 0;
#X connect 172 0 171 0;
#X connect 173 0 174 0;
#X connect 174 0 136 0;
#X connect 175 0 176 0;
#X connect 176 0 137 0;
#X connect 177 0 198 0;
#X connect 178 0 199 0;
#X connect 179 0 200 0;
#X connect 180 0 201 0;
#X connect 181 0 202 0;
#X connect 182 0 203 0;
#X connect 183 0 204 0;
#X connect 184 0 205 0;
#X connect 185 0 206 0;
#X connect 186 0 207 0;
#X connect 187 0 208 0;
#X connect 188 0 209 0;
#X connect 189 0 210 0;
#X connect 190 0 211 0;
#X connect 191 0 212 0;
#X connect 192 0 213 0;
#X connect 193 0 214 0;
#X connect 194 0 215 0;
#X connect 195 0 216 0;
#X connect 196 0 217 0;
#X connect 197 0 218 0;
#X connect 198 0 138 0;
#X connect 199 0 139 0;
#X connect 200 0 140 0;
#X connect 201 0 141 0;
#X connect 202 0 142 0;
#X connect 203 0 143 0;
#X connect 204 0 144 0;
#X connect 205 0 145 0;
#X connect 206 0 146 0;
#X connect 207 0 147 0;
#X connect 208 0 148 0;
#X connect 209 0 149 0;
#X connect 210 0 150 0;
#X connect 211 0 151 0;
#X connect 212 0 152 0;
#X connect 213 0 153 0;
#X connect 214 0 154 0;
#X connect 215 0 155 0;
#X connect 216 0 156 0;
#X connect 217 0 162 0;
#X connect 218 0 168 0;
#X restore 389 42 pd random preset;
#N canvas 717 152 1042 753 seq 0;
#X obj 361 136 i;
#X obj 389 136 + 1;
#X floatatom 441 123 5 0 0 0 - - -;
#X floatatom 361 255 5 0 0 0 - - -;
#X floatatom 554 271 5 0 0 0 - - -;
#X obj 521 164 i;
#X obj 549 164 - 1;
#X obj 671 213 UpDown;
#X msg 693 150 0;
#X floatatom 671 255 5 0 0 0 - - -;
#X floatatom 725 139 5 0 0 0 - - -;
#X floatatom 842 139 5 0 0 0 - - -;
#X floatatom 791 255 5 0 0 0 - - -;
#X obj 791 191 random_me;
#X obj 361 171 %;
#X floatatom 521 200 5 0 0 0 - - -;
#X obj 441 216 sel 0;
#X obj 441 243 bng 15 250 50 0 empty empty empty 17 7 0 10 -262144
-1 -1;
#X obj 441 60 sel 0;
#X obj 536 139 - 1;
#X obj 693 112 loadbang;
#X obj 394 -43 tgl 15 0 empty empty empty 17 7 0 10 -262144 -1 -1 1
1;
#X obj 554 -43 tgl 15 0 empty empty empty 17 7 0 10 -262144 -1 -1 0
1;
#X obj 613 -98 hradio 15 1 0 4 empty \$0-step_option empty 0 -8 0 10
-262144 -1 -1 0;
#X obj 613 -77 sel 0 1 2 3;
#X msg 379 -60 0;
#X msg 409 -60 1;
#X msg 539 -60 0;
#X msg 569 -60 1;
#X obj 704 -43 tgl 15 0 empty empty empty 17 7 0 10 -262144 -1 -1 0
1;
#X msg 699 -60 0;
#X msg 729 -60 1;
#X obj 824 -43 tgl 15 0 empty empty empty 17 7 0 10 -262144 -1 -1 0
1;
#X msg 819 -60 0;
#X msg 849 -60 1;
#X obj 214 106 inlet steps;
#X obj 361 80 bng 15 250 50 0 empty empty empty 17 7 0 10 -262144 -1
-1;
#X obj 361 48 spigot;
#X obj 296 33 bng 15 250 50 0 empty empty empty 17 7 0 10 -262144 -1
-1;
#X obj 521 80 bng 15 250 50 0 empty empty empty 17 7 0 10 -262144 -1
-1;
#X obj 521 48 spigot;
#X obj 671 80 bng 15 250 50 0 empty empty empty 17 7 0 10 -262144 -1
-1;
#X obj 671 48 spigot;
#X obj 791 80 bng 15 250 50 0 empty empty empty 17 7 0 10 -262144 -1
-1;
#X obj 791 48 spigot;
#X msg 376 19 0;
#X obj 633 108 bng 15 250 50 0 empty empty empty 17 7 0 10 -262144
-1 -1;
#X obj 528 359 outlet;
#X obj 296 -23 inlet;
#X obj 633 2 inlet reset;
#X connect 0 0 1 0;
#X connect 0 0 14 0;
#X connect 1 0 0 1;
#X connect 2 0 14 1;
#X connect 2 0 19 0;
#X connect 2 0 10 0;
#X connect 2 0 11 0;
#X connect 3 0 4 0;
#X connect 4 0 47 0;
#X connect 5 0 6 0;
#X connect 5 0 15 0;
#X connect 6 0 5 1;
#X connect 7 0 9 0;
#X connect 8 0 7 2;
#X connect 9 0 4 0;
#X connect 10 0 7 3;
#X connect 11 0 13 1;
#X connect 12 0 4 0;
#X connect 13 0 12 0;
#X connect 14 0 3 0;
#X connect 15 0 16 0;
#X connect 15 0 4 0;
#X connect 16 0 17 0;
#X connect 17 0 2 0;
#X connect 19 0 5 1;
#X connect 20 0 8 0;
#X connect 21 0 37 1;
#X connect 22 0 18 0;
#X connect 22 0 40 1;
#X connect 23 0 24 0;
#X connect 24 0 26 0;
#X connect 24 0 27 0;
#X connect 24 0 30 0;
#X connect 24 0 33 0;
#X connect 24 1 25 0;
#X connect 24 1 28 0;
#X connect 24 1 30 0;
#X connect 24 1 33 0;
#X connect 24 2 31 0;
#X connect 24 2 27 0;
#X connect 24 2 25 0;
#X connect 24 2 33 0;
#X connect 24 3 34 0;
#X connect 24 3 30 0;
#X connect 24 3 27 0;
#X connect 24 3 25 0;
#X connect 25 0 21 0;
#X connect 26 0 21 0;
#X connect 27 0 22 0;
#X connect 28 0 22 0;
#X connect 29 0 42 1;
#X connect 30 0 29 0;
#X connect 31 0 29 0;
#X connect 32 0 44 1;
#X connect 33 0 32 0;
#X connect 34 0 32 0;
#X connect 35 0 2 0;
#X connect 36 0 0 0;
#X connect 37 0 36 0;
#X connect 38 0 37 0;
#X connect 38 0 40 0;
#X connect 38 0 42 0;
#X connect 38 0 44 0;
#X connect 39 0 5 0;
#X connect 40 0 39 0;
#X connect 41 0 7 0;
#X connect 42 0 41 0;
#X connect 43 0 13 0;
#X connect 44 0 43 0;
#X connect 45 0 0 1;
#X connect 46 0 2 0;
#X connect 46 0 7 1;
#X connect 48 0 38 0;
#X connect 49 0 45 0;
#X connect 49 0 46 0;
#X restore 327 425 pd seq;
#X obj 117 429 bng 15 250 50 0 empty empty empty 17 7 0 10 -262144
-1 -1;
#X obj 143 13 inlet;
#X msg 575 67 0;
#X msg 508 67 1;
#X obj 153 413 bng 15 250 50 0 empty empty empty 17 7 0 10 -262144
-1 -1;
#X connect 0 0 1 0;
#X connect 0 1 1 1;
#X connect 0 2 1 2;
#X connect 1 0 2 0;
#X connect 2 0 3 0;
#X connect 2 0 173 0;
#X connect 2 1 11 0;
#X connect 2 1 174 0;
#X connect 2 2 12 0;
#X connect 2 2 175 0;
#X connect 2 3 13 0;
#X connect 2 3 176 0;
#X connect 3 0 18 0;
#X connect 3 1 14 0;
#X connect 5 0 22 1;
#X connect 6 0 195 0;
#X connect 7 0 8 0;
#X connect 7 0 145 0;
#X connect 7 0 218 0;
#X connect 8 0 7 1;
#X connect 9 0 122 0;
#X connect 11 0 19 0;
#X connect 11 1 15 0;
#X connect 12 0 20 0;
#X connect 12 1 16 0;
#X connect 13 0 21 0;
#X connect 13 1 17 0;
#X connect 18 0 45 1;
#X connect 19 0 46 1;
#X connect 20 0 47 1;
#X connect 21 0 48 1;
#X connect 22 0 72 1;
#X connect 22 0 123 0;
#X connect 23 0 72 1;
#X connect 23 0 123 0;
#X connect 24 0 72 1;
#X connect 24 0 123 0;
#X connect 25 0 72 1;
#X connect 25 0 123 0;
#X connect 26 0 72 1;
#X connect 26 0 123 0;
#X connect 27 0 72 1;
#X connect 27 0 123 0;
#X connect 28 0 72 1;
#X connect 28 0 123 0;
#X connect 29 0 72 1;
#X connect 29 0 123 0;
#X connect 30 0 23 1;
#X connect 31 0 24 1;
#X connect 32 0 25 1;
#X connect 33 0 26 1;
#X connect 34 0 27 1;
#X connect 35 0 28 1;
#X connect 36 0 29 1;
#X connect 37 0 41 1;
#X connect 38 0 42 1;
#X connect 39 0 43 1;
#X connect 40 0 44 1;
#X connect 41 0 72 1;
#X connect 41 0 123 0;
#X connect 42 0 72 1;
#X connect 42 0 123 0;
#X connect 43 0 72 1;
#X connect 43 0 123 0;
#X connect 44 0 72 1;
#X connect 44 0 123 0;
#X connect 45 0 50 0;
#X connect 45 0 54 0;
#X connect 46 0 51 0;
#X connect 46 0 55 0;
#X connect 47 0 52 0;
#X connect 47 0 56 0;
#X connect 48 0 53 0;
#X connect 48 0 57 0;
#X connect 49 0 45 0;
#X connect 49 1 46 0;
#X connect 49 2 47 0;
#X connect 49 3 48 0;
#X connect 54 0 72 0;
#X connect 54 0 204 0;
#X connect 55 0 72 0;
#X connect 55 0 204 0;
#X connect 56 0 72 0;
#X connect 56 0 204 0;
#X connect 57 0 72 0;
#X connect 57 0 204 0;
#X connect 58 0 190 0;
#X connect 58 0 78 0;
#X connect 58 0 211 0;
#X connect 58 0 166 0;
#X connect 58 0 200 0;
#X connect 58 0 210 0;
#X connect 58 0 220 0;
#X connect 58 0 221 0;
#X connect 71 0 217 0;
#X connect 72 0 10 0;
#X connect 72 1 10 1;
#X connect 72 1 168 0;
#X connect 73 0 6 0;
#X connect 73 0 192 0;
#X connect 74 0 58 0;
#X connect 75 0 74 0;
#X connect 76 0 72 2;
#X connect 77 0 164 0;
#X connect 78 0 77 0;
#X connect 79 0 91 0;
#X connect 79 0 195 1;
#X connect 80 0 81 0;
#X connect 81 0 79 0;
#X connect 81 1 88 0;
#X connect 82 0 79 1;
#X connect 83 0 79 1;
#X connect 84 0 79 1;
#X connect 85 0 79 1;
#X connect 86 0 79 1;
#X connect 87 0 79 1;
#X connect 88 0 82 0;
#X connect 88 1 83 0;
#X connect 88 2 84 0;
#X connect 88 3 85 0;
#X connect 88 4 86 0;
#X connect 88 5 87 0;
#X connect 88 6 89 0;
#X connect 88 7 90 0;
#X connect 89 0 79 1;
#X connect 90 0 79 1;
#X connect 92 0 112 1;
#X connect 93 0 113 1;
#X connect 94 0 114 1;
#X connect 95 0 115 1;
#X connect 96 0 116 1;
#X connect 97 0 117 1;
#X connect 98 0 118 1;
#X connect 99 0 119 1;
#X connect 100 0 120 1;
#X connect 101 0 121 1;
#X connect 112 0 72 1;
#X connect 112 0 123 0;
#X connect 113 0 72 1;
#X connect 113 0 123 0;
#X connect 114 0 72 1;
#X connect 114 0 123 0;
#X connect 115 0 72 1;
#X connect 115 0 123 0;
#X connect 116 0 72 1;
#X connect 116 0 123 0;
#X connect 117 0 72 1;
#X connect 117 0 123 0;
#X connect 118 0 72 1;
#X connect 118 0 123 0;
#X connect 119 0 72 1;
#X connect 119 0 123 0;
#X connect 120 0 72 1;
#X connect 120 0 123 0;
#X connect 121 0 72 1;
#X connect 121 0 123 0;
#X connect 122 0 22 0;
#X connect 122 0 59 0;
#X connect 122 1 23 0;
#X connect 122 1 60 0;
#X connect 122 2 24 0;
#X connect 122 2 61 0;
#X connect 122 3 25 0;
#X connect 122 3 62 0;
#X connect 122 4 26 0;
#X connect 122 4 63 0;
#X connect 122 5 27 0;
#X connect 122 5 64 0;
#X connect 122 6 28 0;
#X connect 122 6 65 0;
#X connect 122 7 29 0;
#X connect 122 7 66 0;
#X connect 122 8 41 0;
#X connect 122 8 70 0;
#X connect 122 9 42 0;
#X connect 122 9 67 0;
#X connect 122 10 43 0;
#X connect 122 10 68 0;
#X connect 122 11 44 0;
#X connect 122 11 69 0;
#X connect 122 12 112 0;
#X connect 122 12 102 0;
#X connect 122 13 113 0;
#X connect 122 13 103 0;
#X connect 122 14 114 0;
#X connect 122 14 104 0;
#X connect 122 15 115 0;
#X connect 122 15 105 0;
#X connect 122 16 116 0;
#X connect 122 16 106 0;
#X connect 122 17 117 0;
#X connect 122 17 107 0;
#X connect 122 18 118 0;
#X connect 122 18 108 0;
#X connect 122 19 119 0;
#X connect 122 19 109 0;
#X connect 122 20 120 0;
#X connect 122 20 111 0;
#X connect 122 21 121 0;
#X connect 122 21 110 0;
#X connect 123 0 147 0;
#X connect 124 1 131 0;
#X connect 125 0 126 0;
#X connect 126 0 127 0;
#X connect 126 0 129 0;
#X connect 127 0 126 1;
#X connect 128 0 130 0;
#X connect 129 0 128 0;
#X connect 130 0 49 0;
#X connect 131 0 143 0;
#X connect 132 0 76 0;
#X connect 133 0 139 0;
#X connect 134 0 137 1;
#X connect 135 0 134 1;
#X connect 135 1 136 1;
#X connect 136 0 130 0;
#X connect 137 0 162 0;
#X connect 138 0 137 0;
#X connect 138 1 135 0;
#X connect 138 2 134 0;
#X connect 139 0 140 0;
#X connect 140 0 138 0;
#X connect 141 0 151 0;
#X connect 142 0 133 0;
#X connect 142 1 125 0;
#X connect 143 0 142 0;
#X connect 144 0 142 1;
#X connect 145 0 154 0;
#X connect 145 0 193 0;
#X connect 146 0 142 1;
#X connect 147 0 124 0;
#X connect 148 0 150 0;
#X connect 149 0 150 0;
#X connect 150 0 147 0;
#X connect 150 1 147 1;
#X connect 151 0 146 0;
#X connect 151 0 149 0;
#X connect 151 0 155 0;
#X connect 151 0 156 0;
#X connect 151 1 144 0;
#X connect 151 1 149 0;
#X connect 151 1 155 0;
#X connect 151 1 156 0;
#X connect 151 2 148 0;
#X connect 151 2 157 0;
#X connect 151 2 158 0;
#X connect 152 0 159 0;
#X connect 152 1 153 0;
#X connect 153 0 130 0;
#X connect 154 0 152 0;
#X connect 155 0 154 1;
#X connect 156 0 154 2;
#X connect 157 0 154 1;
#X connect 158 0 154 2;
#X connect 160 0 161 0;
#X connect 161 0 139 0;
#X connect 162 0 136 0;
#X connect 162 1 163 0;
#X connect 163 0 133 0;
#X connect 164 0 79 0;
#X connect 165 0 132 0;
#X connect 165 1 132 1;
#X connect 166 0 167 0;
#X connect 167 0 165 0;
#X connect 169 0 0 0;
#X connect 170 0 171 0;
#X connect 171 0 179 1;
#X connect 171 0 183 0;
#X connect 171 0 186 1;
#X connect 171 1 180 1;
#X connect 171 2 181 1;
#X connect 172 0 178 0;
#X connect 177 0 0 0;
#X connect 178 0 0 1;
#X connect 179 0 177 0;
#X connect 179 0 172 0;
#X connect 180 0 177 0;
#X connect 180 0 172 0;
#X connect 181 0 177 0;
#X connect 181 0 172 0;
#X connect 182 0 184 0;
#X connect 182 0 179 0;
#X connect 183 0 182 0;
#X connect 184 0 185 0;
#X connect 184 0 180 0;
#X connect 185 0 181 0;
#X connect 185 0 187 0;
#X connect 186 0 172 0;
#X connect 186 0 191 0;
#X connect 187 0 186 0;
#X connect 188 0 0 1;
#X connect 190 0 71 0;
#X connect 191 0 177 0;
#X connect 192 0 194 0;
#X connect 194 0 7 1;
#X connect 194 0 222 0;
#X connect 195 0 7 0;
#X connect 195 1 132 0;
#X connect 196 0 195 2;
#X connect 197 0 196 0;
#X connect 198 0 199 0;
#X connect 199 0 195 3;
#X connect 200 0 199 0;
#X connect 202 0 203 0;
#X connect 204 0 205 0;
#X connect 204 0 206 0;
#X connect 206 0 202 0;
#X connect 207 0 214 0;
#X connect 208 0 213 0;
#X connect 209 0 10 2;
#X connect 210 0 209 0;
#X connect 211 0 80 0;
#X connect 213 0 212 0;
#X connect 214 0 212 1;
#X connect 217 0 9 0;
#X connect 218 0 217 1;
#X connect 219 0 73 0;
#X connect 220 0 215 0;
#X connect 221 0 141 0;
#X connect 222 0 217 2;
#X coords 0 -1 1 1 700 185 1 100 100;
