#N canvas 435 158 833 487 12;
#X obj 188 147 soundfiler;
#X floatatom 228 172 10 0 0 0 - - - 0;
#X obj 187 197 expr 44100/ $f1;
#X obj 187 309 *~;
#X obj 187 268 phasor~;
#N canvas 0 50 450 250 (subpatch) 0;
#X array sample_test 121569 float 2;
#X coords 0 1 121569 -1 200 140 1 0 0;
#X restore 503 33 graph;
#X obj 445 366 line~;
#X msg 445 304 0;
#X obj 186 375 *~;
#X msg 368 315 1;
#X floatatom 140 216 5 0 0 0 - - size 0;
#X obj 186 339 tabread4~ sample_test;
#X obj 188 69 openpanel;
#X obj 187 39 bng 15 250 50 0 empty empty empty 17 7 0 10 #fcfcfc #000000 #000000;
#X obj 188 95 pack s \$0;
#X msg 188 120 read -resize \$1 sample_test;
#X obj 368 336 pack f 10;
#X obj 444 338 pack f 10;
#X msg 459 255 read fox.wav sample_test;
#X obj 185 428 dac~;
#X msg 149 249 0;
#X obj 413 55 tgl 19 0 empty empty empty 0 -10 0 12 #fcfcfc #000000 #000000 0 1;
#X obj 413 79 sel 0 1;
#X msg 338 220 0;
#X obj 714 270 readsf~;
#X obj 714 324 dac~;
#X msg 671 207 1;
#X msg 719 209 open fox.wav;
#X msg 587 371 read fox.wav sample_test;
#X obj 590 408 soundfiler;
#X floatatom 630 433 10 0 0 0 - - - 0;
#X connect 0 0 1 0;
#X connect 0 0 2 0;
#X connect 1 0 3 1;
#X connect 2 0 4 0;
#X connect 2 0 10 0;
#X connect 3 0 11 0;
#X connect 4 0 3 0;
#X connect 6 0 8 1;
#X connect 7 0 17 0;
#X connect 8 0 19 0;
#X connect 8 0 19 1;
#X connect 9 0 16 0;
#X connect 11 0 8 0;
#X connect 12 0 14 0;
#X connect 13 0 12 0;
#X connect 14 0 15 0;
#X connect 15 0 0 0;
#X connect 16 0 6 0;
#X connect 17 0 6 0;
#X connect 20 0 4 0;
#X connect 21 0 22 0;
#X connect 22 0 7 0;
#X connect 22 1 9 0;
#X connect 22 1 23 0;
#X connect 23 0 4 1;
#X connect 24 0 25 0;
#X connect 24 0 25 1;
#X connect 26 0 24 0;
#X connect 27 0 24 0;
#X connect 28 0 29 0;
#X connect 29 0 30 0;
