#N canvas 607 274 450 300 12;
#X floatatom 136 40 8 0 0 0 - - -;
#X obj 235 116 osc~;
#X obj 235 204 dac~;
#X floatatom 79 105 8 0 0 0 - - -;
#X obj 79 75 expr 4000 - $f1;
#X obj 235 160 *~;
#X obj 270 138 vline~;
#X msg 282 107 0.1 10 0 \, 0 10 1000;
#X text 78 20 input frq;
#X text 48 132 aliasing frq;
#X text 266 40 for test;
#X msg 225 40 1166;
#X connect 0 0 4 0;
#X connect 0 0 1 0;
#X connect 0 0 7 0;
#X connect 1 0 5 0;
#X connect 4 0 3 0;
#X connect 5 0 2 0;
#X connect 5 0 2 1;
#X connect 6 0 5 1;
#X connect 7 0 6 0;
#X connect 11 0 1 0;
#X connect 11 0 7 0;
