#N canvas 220 31 1383 940 10;
#X obj 962 52 poly 4 1;
#X obj 962 77 pack f f f;
#X obj 962 105 route 1 2 3 4;
#X obj 962 131 unpack f f;
#X obj 101 101 cnv 15 698 228 empty empty empty 20 12 0 14 -70665 -66577
0;
#X obj 123 127 vsl 20 100 0 127 0 0 empty \$0-velocity1 1 8 115 0 10
-191392 -1 -262144 5457 1;
#X obj 43 313 tgl 15 0 empty empty empty 17 7 0 10 -262144 -1 -1 1
1;
#X obj 43 401 i;
#X obj 71 401 + 1;
#X floatatom 283 442 5 0 0 0 - - -;
#X obj 461 382 noteout 5;
#X obj 980 160 unpack f f;
#X obj 999 184 unpack f f;
#X obj 1017 213 unpack f f;
#X floatatom 1105 148 5 0 0 0 - - -;
#X floatatom 1105 177 5 0 0 0 - - -;
#X floatatom 1105 201 5 0 0 0 - - -;
#X floatatom 1105 230 5 0 0 0 - - -;
#X floatatom 883 148 5 0 0 0 - - -;
#X floatatom 913 177 5 0 0 0 - - -;
#X floatatom 943 201 5 0 0 0 - - -;
#X floatatom 973 230 5 0 0 0 - - -;
#X obj 138 347 i;
#X obj 168 347 i;
#X obj 198 347 i;
#X obj 228 347 i;
#X obj 258 347 i;
#X obj 288 347 i;
#X obj 318 347 i;
#X obj 348 347 i;
#X obj 153 127 vsl 20 100 0 127 0 0 empty \$0-velocity2 2 8 115 0 10
-191392 -1 -262144 3898 1;
#X obj 183 127 vsl 20 100 0 127 0 0 empty \$0-velocity3 3 8 115 0 10
-191392 -1 -262144 0 1;
#X obj 213 127 vsl 20 100 0 127 0 0 empty \$0-velocity4 4 8 115 0 10
-191392 -1 -262144 6236 1;
#X obj 243 127 vsl 20 100 0 127 0 0 empty \$0-velocity5 5 8 115 0 10
-191392 -1 -262144 0 1;
#X obj 273 127 vsl 20 100 0 127 0 0 empty \$0-velocity6 6 8 115 0 10
-191392 -1 -262144 5457 1;
#X obj 303 127 vsl 20 100 0 127 0 0 empty \$0-velocity7 7 8 115 0 10
-191392 -1 -262144 7016 1;
#X obj 333 127 vsl 20 100 0 127 0 0 empty \$0-velocity8 8 8 115 0 10
-191392 -1 -262144 0 1;
#X obj 363 127 vsl 20 100 0 127 0 0 empty \$0-velocity9 9 8 115 0 10
-191392 -1 -262144 0 1;
#X obj 393 127 vsl 20 100 0 127 0 0 empty \$0-velocity10 10 4 115 0
10 -191392 -1 -262144 6236 1;
#X obj 423 127 vsl 20 100 0 127 0 0 empty \$0-velocity11 11 4 115 0
10 -191392 -1 -262144 780 1;
#X obj 453 127 vsl 20 100 0 127 0 0 empty \$0-velocity12 12 4 115 0
10 -191392 -1 -262144 3118 1;
#X obj 378 347 i;
#X obj 408 347 i;
#X obj 438 347 i;
#X obj 468 347 i;
#X obj 868 268 i;
#X obj 898 268 i;
#X obj 928 268 i;
#X obj 958 268 i;
#X obj 868 251 sel 0 1 2 3 4;
#X obj 868 305 bng 15 250 50 0 empty empty empty 17 7 0 10 -262144
-1 -1;
#X obj 898 305 bng 15 250 50 0 empty empty empty 17 7 0 10 -262144
-1 -1;
#X obj 928 305 bng 15 250 50 0 empty empty empty 17 7 0 10 -262144
-1 -1;
#X obj 958 305 bng 15 250 50 0 empty empty empty 17 7 0 10 -262144
-1 -1;
#X floatatom 868 348 5 0 0 0 - - -;
#X floatatom 898 348 5 0 0 0 - - -;
#X floatatom 928 348 5 0 0 0 - - -;
#X floatatom 958 348 5 0 0 0 - - -;
#X obj 33 50 loadbang;
#X obj 124 255 bng 20 250 50 0 change_chord empty empty 17 7 0 10 -70665
-232942 -1;
#X obj 154 255 bng 20 250 50 0 empty empty empty 17 7 0 10 -70665 -232942
-1;
#X obj 184 255 bng 20 250 50 0 empty empty empty 17 7 0 10 -70665 -232942
-1;
#X obj 214 255 bng 20 250 50 0 empty empty empty 17 7 0 10 -70665 -232942
-1;
#X obj 244 255 bng 20 250 50 0 empty empty empty 17 7 0 10 -70665 -232942
-1;
#X obj 274 255 bng 20 250 50 0 empty empty empty 17 7 0 10 -70665 -232942
-1;
#X obj 304 255 bng 20 250 50 0 empty empty empty 17 7 0 10 -70665 -232942
-1;
#X obj 334 255 bng 20 250 50 0 empty empty empty 17 7 0 10 -70665 -232942
-1;
#X obj 394 255 bng 20 250 50 0 empty empty empty 17 7 0 10 -70665 -232942
-1;
#X obj 424 255 bng 20 250 50 0 empty empty empty 17 7 0 10 -70665 -232942
-1;
#X obj 454 255 bng 20 250 50 0 empty empty empty 17 7 0 10 -70665 -232942
-1;
#X obj 364 255 bng 20 250 50 0 empty empty empty 17 7 0 10 -70665 -232942
-1;
#X obj 43 425 % 13;
#X obj 170 283 nbx 3 20 1 22 0 0 empty empty Steps 1 30 0 15 -224752
-1 -262144 11 256;
#X msg -3 108 40;
#X obj 452 364 makenote 0 200;
#X obj 130 282 tgl 20 0 empty empty Play -2 25 0 10 -203875 -1 -262144
1 1;
#X obj 33 24 bng 15 250 50 0 empty empty empty 17 7 0 10 -262144 -1
-1;
#X obj 613 282 bng 20 250 50 0 empty empty Reset -3 28 0 10 -216427
-1 -262144;
#X msg 27 108 0;
#X floatatom 531 416 5 0 0 0 - - -;
#X obj 403 284 nbx 3 20 -1e+037 1e+037 0 0 empty empty Tempo 0 30 0
15 -224752 -1 -262144 120 256;
#X msg 377 67 120;
#X obj -146 365 *;
#X obj 243 284 hradio 17 1 0 8 empty empty Tempo_x1_x2_x3_x4_x5_x6_x7
-8 25 0 10 -212072 -1 -262144 2;
#X obj -146 313 t b f;
#X msg -177 348 1;
#X msg -147 348 2;
#X msg -117 348 3;
#X msg -87 348 4;
#X msg -57 348 5;
#X msg -27 348 6;
#X obj -177 331 sel 0 1 2 3 4 5 6 7;
#X msg 3 348 7;
#X msg 33 348 8;
#X msg 223 67 0;
#X floatatom -146 390 5 0 0 0 - - -;
#X obj 830 234 loadbang;
#X obj 483 127 vsl 20 100 0 127 0 0 empty \$0-velocity13 13 4 115 0
10 -191392 -1 -262144 3118 1;
#X obj 513 127 vsl 20 100 0 127 0 0 empty \$0-velocity14 14 4 115 0
10 -191392 -1 -262144 3118 1;
#X obj 543 127 vsl 20 100 0 127 0 0 empty \$0-velocity15 15 4 115 0
10 -191392 -1 -262144 4677 1;
#X obj 573 127 vsl 20 100 0 127 0 0 empty \$0-velocity16 16 4 115 0
10 -191392 -1 -262144 1559 1;
#X obj 603 127 vsl 20 100 0 127 0 0 empty \$0-velocity17 17 4 115 0
10 -191392 -1 -262144 6236 1;
#X obj 633 127 vsl 20 100 0 127 0 0 empty \$0-velocity18 18 4 115 0
10 -191392 -1 -262144 3898 1;
#X obj 663 127 vsl 20 100 0 127 0 0 empty \$0-velocity19 19 4 115 0
10 -191392 -1 -262144 6236 1;
#X obj 693 127 vsl 20 100 0 127 0 0 empty \$0-velocity20 20 4 115 0
10 -191392 -1 -262144 5457 1;
#X obj 723 127 vsl 20 100 0 127 0 0 empty \$0-velocity21 21 4 115 0
10 -191392 -1 -262144 5457 1;
#X obj 753 127 vsl 20 100 0 127 0 0 empty \$0-velocity22 22 4 115 0
10 -191392 -1 -262144 0 1;
#X obj 484 255 bng 20 250 50 0 empty empty empty 17 7 0 10 -70665 -232942
-1;
#X obj 514 255 bng 20 250 50 0 empty empty empty 17 7 0 10 -70665 -232942
-1;
#X obj 544 255 bng 20 250 50 0 empty empty empty 17 7 0 10 -70665 -232942
-1;
#X obj 574 255 bng 20 250 50 0 empty empty empty 17 7 0 10 -70665 -232942
-1;
#X obj 604 255 bng 20 250 50 0 empty empty empty 17 7 0 10 -70665 -232942
-1;
#X obj 634 255 bng 20 250 50 0 empty empty empty 17 7 0 10 -70665 -232942
-1;
#X obj 664 255 bng 20 250 50 0 empty empty empty 17 7 0 10 -70665 -232942
-1;
#X obj 694 255 bng 20 250 50 0 empty empty empty 17 7 0 10 -70665 -232942
-1;
#X obj 754 255 bng 20 250 50 0 empty empty empty 17 7 0 10 -70665 -232942
-1;
#X obj 724 255 bng 20 250 50 0 empty empty empty 17 7 0 10 -70665 -232942
-1;
#X obj 498 347 i;
#X obj 528 347 i;
#X obj 558 347 i;
#X obj 588 347 i;
#X obj 618 347 i;
#X obj 648 347 i;
#X obj 678 347 i;
#X obj 708 347 i;
#X obj 738 347 i;
#X obj 768 347 i;
#X obj 283 330 sel 0 1 2 3 4 5 6 7 8 9 10 11 12 13 14 15 16 17 18 19
20 21;
#X floatatom 623 364 5 0 0 0 - - -;
#X obj 623 535 sel 0;
#X obj 772 643 bng 15 250 50 0 empty empty empty 17 7 0 10 -262144
-1 -1;
#X obj 772 762 i;
#X obj 797 762 + 1;
#X floatatom 773 819 5 0 0 0 - - -;
#X obj 773 790 % 4;
#X floatatom 868 835 5 0 0 0 - - -;
#X obj 650 561 bng 15 250 50 0 empty empty empty 17 7 0 10 -262144
-1 -1;
#X obj 252 399 * 2;
#X obj 651 638 bng 15 250 50 0 empty empty empty 17 7 0 10 -262144
-1 -1;
#X obj 736 747 ==;
#X obj 690 729 t f f;
#X obj 702 818 f;
#X obj 671 764 f;
#X obj 671 703 t b f f;
#X obj 671 659 random 4;
#X floatatom 671 682 5 0 0 0 - - -;
#X obj 707 286 hradio 17 1 0 3 empty empty Random_countV_Count -25
25 0 10 -212072 -1 -262144 0;
#X obj 701 611 moses;
#X obj 650 584 random 100;
#X msg 738 574 0;
#X obj -10 426 % 4;
#X msg 721 594 100;
#X obj 623 510 *;
#X msg 677 476 0;
#X msg 711 476 1;
#X obj 677 493 t b f;
#X obj 721 459 sel 0 1 2;
#X obj -10 624 sel 10;
#X floatatom 23 819 5 0 0 0 - - -;
#X obj -10 493 expr ($f1*$f2)+$f3;
#X msg 133 476 0;
#X msg 166 476 10;
#X msg 197 476 1;
#X msg 230 476 0;
#X obj -10 647 bng 15 250 50 0 empty empty empty 17 7 0 10 -262144
-1 -1;
#X obj 582 616 loadbang;
#X msg 599 642 seed 0;
#X msg 830 285 0;
#X obj 671 791 sel 0 1;
#X obj 651 808 bng 15 250 50 0 empty empty empty 17 7 0 10 -262144
-1 -1;
#X floatatom -107 313 5 0 0 0 - - -;
#X obj 252 373 t b f;
#X msg 435 67 1.5;
#X obj 468 286 hsl 128 15 0.1 3 0 0 empty empty Staccato_Legato 20
7 0 10 -208037 -1 -1 6131 1;
#X floatatom 568 398 5 0 0 0 - - -;
#X obj 1039 35 r KeyNote;
#X obj 734 -64 r chord;
#X obj 794 -47 unpack f f f;
#X msg 923 19 100;
#X obj 1056 122 bng 15 250 50 0 empty empty empty 17 7 0 10 -262144
-1 -1;
#X obj 1076 122 bng 15 250 50 0 empty empty empty 17 7 0 10 -262144
-1 -1;
#X obj 1096 122 bng 15 250 50 0 empty empty empty 17 7 0 10 -262144
-1 -1;
#X obj 1116 122 bng 15 250 50 0 empty empty empty 17 7 0 10 -262144
-1 -1;
#X floatatom 779 36 5 0 0 0 - - -;
#X floatatom 830 36 5 0 0 0 - - -;
#X obj 779 2 i;
#X obj 813 2 i;
#X obj 848 2 i;
#X obj 1113 -15 delay 10;
#X obj 1113 -30 bng 15 250 50 0 empty empty empty 17 7 0 10 -262144
-1 -1;
#X obj 1050 -15 delay 10;
#X obj 993 -15 delay 10;
#X obj 888 2 i;
#X obj 932 -15 delay 10;
#X obj 1104 35 r vel;
#X obj 650 294 bng 20 250 50 0 \$0-bang_velocity empty Random -5 -8
0 10 -216427 -1 -262144;
#X msg 61 107 11;
#N canvas 0 0 1916 997 random 0;
#X obj -123 -42 random 10;
#X obj -123 -13 * 10;
#X obj -123 -180 bng 15 250 50 0 empty \$0-bang_velocity empty 17 7
0 10 -262144 -1 -1;
#X floatatom -123 14 5 0 0 0 - - #0-velocity1;
#X obj -113 -121 i;
#X obj -82 -121 + 1;
#X msg -113 -68 seed \$1;
#X obj -113 -93 % 100;
#X obj -53 -42 random 10;
#X obj -53 -13 * 10;
#X obj -53 -180 bng 15 250 50 0 empty \$0-bang_velocity empty 17 7
0 10 -262144 -1 -1;
#X floatatom -53 14 5 0 0 0 - - #0-velocity2;
#X obj -43 -121 i;
#X obj -12 -121 + 1;
#X msg -43 -68 seed \$1;
#X obj -43 -93 % 100;
#X obj 17 -42 random 10;
#X obj 17 -13 * 10;
#X obj 17 -180 bng 15 250 50 0 empty \$0-bang_velocity empty 17 7 0
10 -262144 -1 -1;
#X floatatom 17 14 5 0 0 0 - - #0-velocity3;
#X obj 27 -121 i;
#X obj 58 -121 + 1;
#X msg 27 -68 seed \$1;
#X obj 27 -93 % 100;
#X obj 87 -42 random 10;
#X obj 87 -13 * 10;
#X obj 87 -180 bng 15 250 50 0 empty \$0-bang_velocity empty 17 7 0
10 -262144 -1 -1;
#X floatatom 87 14 5 0 0 0 - - #0-velocity4;
#X obj 97 -121 i;
#X obj 128 -121 + 1;
#X msg 97 -68 seed \$1;
#X obj 97 -93 % 100;
#X obj 157 -42 random 10;
#X obj 157 -13 * 10;
#X obj 157 -180 bng 15 250 50 0 empty \$0-bang_velocity empty 17 7
0 10 -262144 -1 -1;
#X floatatom 157 14 5 0 0 0 - - #0-velocity5;
#X obj 167 -121 i;
#X obj 198 -121 + 1;
#X msg 167 -68 seed \$1;
#X obj 167 -93 % 100;
#X obj 227 -42 random 10;
#X obj 227 -13 * 10;
#X obj 227 -180 bng 15 250 50 0 empty \$0-bang_velocity empty 17 7
0 10 -262144 -1 -1;
#X floatatom 227 14 5 0 0 0 - - #0-velocity6;
#X obj 237 -121 i;
#X obj 268 -121 + 1;
#X msg 237 -68 seed \$1;
#X obj 237 -93 % 100;
#X obj 297 -42 random 10;
#X obj 297 -13 * 10;
#X obj 297 -180 bng 15 250 50 0 empty \$0-bang_velocity empty 17 7
0 10 -262144 -1 -1;
#X floatatom 297 14 5 0 0 0 - - #0-velocity7;
#X obj 307 -121 i;
#X obj 338 -121 + 1;
#X msg 307 -68 seed \$1;
#X obj 307 -93 % 100;
#X obj 367 -42 random 10;
#X obj 367 -13 * 10;
#X obj 367 -180 bng 15 250 50 0 empty \$0-bang_velocity empty 17 7
0 10 -262144 -1 -1;
#X floatatom 367 14 5 0 0 0 - - #0-velocity8;
#X obj 377 -121 i;
#X obj 408 -121 + 1;
#X msg 377 -68 seed \$1;
#X obj 377 -93 % 100;
#X obj 437 -42 random 10;
#X obj 437 -13 * 10;
#X obj 437 -180 bng 15 250 50 0 empty \$0-bang_velocity empty 17 7
0 10 -262144 -1 -1;
#X floatatom 437 14 5 0 0 0 - - #0-velocity9;
#X obj 447 -121 i;
#X obj 478 -121 + 1;
#X msg 447 -68 seed \$1;
#X obj 447 -93 % 100;
#X obj 507 -42 random 10;
#X obj 507 -13 * 10;
#X obj 507 -180 bng 15 250 50 0 empty \$0-bang_velocity empty 17 7
0 10 -262144 -1 -1;
#X floatatom 507 14 5 0 0 0 - - #0-velocity10;
#X obj 517 -121 i;
#X obj 548 -121 + 1;
#X msg 517 -68 seed \$1;
#X obj 517 -93 % 100;
#X obj 577 -42 random 10;
#X obj 577 -13 * 10;
#X obj 577 -180 bng 15 250 50 0 empty \$0-bang_velocity empty 17 7
0 10 -262144 -1 -1;
#X floatatom 577 14 5 0 0 0 - - #0-velocity11;
#X obj 587 -121 i;
#X obj 618 -121 + 1;
#X msg 587 -68 seed \$1;
#X obj 587 -93 % 100;
#X obj 647 -42 random 10;
#X obj 647 -13 * 10;
#X obj 647 -180 bng 15 250 50 0 empty \$0-bang_velocity empty 17 7
0 10 -262144 -1 -1;
#X floatatom 647 14 5 0 0 0 - - #0-velocity12;
#X obj 657 -121 i;
#X obj 688 -121 + 1;
#X msg 657 -68 seed \$1;
#X obj 657 -93 % 100;
#X obj 717 -42 random 10;
#X obj 717 -13 * 10;
#X obj 717 -180 bng 15 250 50 0 empty \$0-bang_velocity empty 17 7
0 10 -262144 -1 -1;
#X floatatom 717 14 5 0 0 0 - - #0-velocity13;
#X obj 727 -121 i;
#X obj 758 -121 + 1;
#X msg 727 -68 seed \$1;
#X obj 727 -93 % 100;
#X obj 787 -42 random 10;
#X obj 787 -13 * 10;
#X obj 787 -180 bng 15 250 50 0 empty \$0-bang_velocity empty 17 7
0 10 -262144 -1 -1;
#X floatatom 787 14 5 0 0 0 - - #0-velocity14;
#X obj 797 -121 i;
#X obj 828 -121 + 1;
#X msg 797 -68 seed \$1;
#X obj 797 -93 % 100;
#X obj 857 -42 random 10;
#X obj 857 -13 * 10;
#X obj 857 -180 bng 15 250 50 0 empty \$0-bang_velocity empty 17 7
0 10 -262144 -1 -1;
#X floatatom 857 14 5 0 0 0 - - #0-velocity15;
#X obj 867 -121 i;
#X obj 898 -121 + 1;
#X msg 867 -68 seed \$1;
#X obj 867 -93 % 100;
#X obj 927 -42 random 10;
#X obj 927 -13 * 10;
#X obj 927 -180 bng 15 250 50 0 empty \$0-bang_velocity empty 17 7
0 10 -262144 -1 -1;
#X floatatom 927 14 5 0 0 0 - - #0-velocity16;
#X obj 937 -121 i;
#X obj 968 -121 + 1;
#X msg 937 -68 seed \$1;
#X obj 937 -93 % 100;
#X obj 997 -42 random 10;
#X obj 997 -13 * 10;
#X obj 997 -180 bng 15 250 50 0 empty \$0-bang_velocity empty 17 7
0 10 -262144 -1 -1;
#X floatatom 997 14 5 0 0 0 - - #0-velocity17;
#X obj 1007 -121 i;
#X obj 1038 -121 + 1;
#X msg 1007 -68 seed \$1;
#X obj 1007 -93 % 100;
#X obj 1067 -42 random 10;
#X obj 1067 -13 * 10;
#X obj 1067 -180 bng 15 250 50 0 empty \$0-bang_velocity empty 17 7
0 10 -262144 -1 -1;
#X floatatom 1067 14 5 0 0 0 - - #0-velocity18;
#X obj 1077 -121 i;
#X obj 1108 -121 + 1;
#X msg 1077 -68 seed \$1;
#X obj 1077 -93 % 100;
#X obj 1137 -42 random 10;
#X obj 1137 -13 * 10;
#X obj 1137 -180 bng 15 250 50 0 empty \$0-bang_velocity empty 17 7
0 10 -262144 -1 -1;
#X floatatom 1137 14 5 0 0 0 - - #0-velocity19;
#X obj 1147 -121 i;
#X obj 1178 -121 + 1;
#X msg 1147 -68 seed \$1;
#X obj 1147 -93 % 100;
#X obj 1207 -42 random 10;
#X obj 1207 -13 * 10;
#X obj 1207 -180 bng 15 250 50 0 empty \$0-bang_velocity empty 17 7
0 10 -262144 -1 -1;
#X floatatom 1207 14 5 0 0 0 - - #0-velocity20;
#X obj 1217 -121 i;
#X obj 1248 -121 + 1;
#X msg 1217 -68 seed \$1;
#X obj 1217 -93 % 100;
#X obj 1277 -42 random 10;
#X obj 1277 -13 * 10;
#X obj 1277 -180 bng 15 250 50 0 empty \$0-bang_velocity empty 17 7
0 10 -262144 -1 -1;
#X floatatom 1277 14 5 0 0 0 - - #0-velocity21;
#X obj 1287 -121 i;
#X obj 1318 -121 + 1;
#X msg 1287 -68 seed \$1;
#X obj 1287 -93 % 100;
#X obj 1347 -42 random 10;
#X obj 1347 -13 * 10;
#X obj 1347 -180 bng 15 250 50 0 empty \$0-bang_velocity empty 17 7
0 10 -262144 -1 -1;
#X floatatom 1347 14 5 0 0 0 - - #0-velocity22;
#X obj 1357 -121 i;
#X obj 1388 -121 + 1;
#X msg 1357 -68 seed \$1;
#X obj 1357 -93 % 100;
#X obj 1449 -165 tgl 15 0 empty empty empty 17 7 0 10 -262144 -1 -1
1 1;
#X msg 1449 -200 1;
#X obj 1449 -234 loadbang;
#X obj -113 -150 metro 200;
#X obj -43 -150 metro 80;
#X obj 27 -150 metro 108;
#X obj 97 -150 metro 350;
#X obj 167 -150 metro 300;
#X obj 237 -150 metro 900;
#X obj 307 -150 metro 204;
#X obj 377 -150 metro 133;
#X obj 447 -150 metro 758;
#X obj 517 -150 metro 124;
#X obj 587 -150 metro 985;
#X obj 657 -150 metro 422;
#X obj 727 -150 metro 377;
#X obj 797 -150 metro 111;
#X obj 867 -150 metro 555;
#X obj 937 -150 metro 854;
#X obj 1007 -150 metro 304;
#X obj 1077 -150 metro 375;
#X obj 1147 -150 metro 305;
#X obj 1217 -150 metro 116;
#X obj 1287 -150 metro 714;
#X obj 1357 -150 metro 632;
#X connect 0 0 1 0;
#X connect 1 0 3 0;
#X connect 2 0 0 0;
#X connect 4 0 5 0;
#X connect 4 0 7 0;
#X connect 5 0 4 1;
#X connect 6 0 0 0;
#X connect 7 0 6 0;
#X connect 8 0 9 0;
#X connect 9 0 11 0;
#X connect 10 0 8 0;
#X connect 12 0 13 0;
#X connect 12 0 15 0;
#X connect 13 0 12 1;
#X connect 14 0 8 0;
#X connect 15 0 14 0;
#X connect 16 0 17 0;
#X connect 17 0 19 0;
#X connect 18 0 16 0;
#X connect 20 0 21 0;
#X connect 20 0 23 0;
#X connect 21 0 20 1;
#X connect 22 0 16 0;
#X connect 23 0 22 0;
#X connect 24 0 25 0;
#X connect 25 0 27 0;
#X connect 26 0 24 0;
#X connect 28 0 29 0;
#X connect 28 0 31 0;
#X connect 29 0 28 1;
#X connect 30 0 24 0;
#X connect 31 0 30 0;
#X connect 32 0 33 0;
#X connect 33 0 35 0;
#X connect 34 0 32 0;
#X connect 36 0 37 0;
#X connect 36 0 39 0;
#X connect 37 0 36 1;
#X connect 38 0 32 0;
#X connect 39 0 38 0;
#X connect 40 0 41 0;
#X connect 41 0 43 0;
#X connect 42 0 40 0;
#X connect 44 0 45 0;
#X connect 44 0 47 0;
#X connect 45 0 44 1;
#X connect 46 0 40 0;
#X connect 47 0 46 0;
#X connect 48 0 49 0;
#X connect 49 0 51 0;
#X connect 50 0 48 0;
#X connect 52 0 53 0;
#X connect 52 0 55 0;
#X connect 53 0 52 1;
#X connect 54 0 48 0;
#X connect 55 0 54 0;
#X connect 56 0 57 0;
#X connect 57 0 59 0;
#X connect 58 0 56 0;
#X connect 60 0 61 0;
#X connect 60 0 63 0;
#X connect 61 0 60 1;
#X connect 62 0 56 0;
#X connect 63 0 62 0;
#X connect 64 0 65 0;
#X connect 65 0 67 0;
#X connect 66 0 64 0;
#X connect 68 0 69 0;
#X connect 68 0 71 0;
#X connect 69 0 68 1;
#X connect 70 0 64 0;
#X connect 71 0 70 0;
#X connect 72 0 73 0;
#X connect 73 0 75 0;
#X connect 74 0 72 0;
#X connect 76 0 77 0;
#X connect 76 0 79 0;
#X connect 77 0 76 1;
#X connect 78 0 72 0;
#X connect 79 0 78 0;
#X connect 80 0 81 0;
#X connect 81 0 83 0;
#X connect 82 0 80 0;
#X connect 84 0 85 0;
#X connect 84 0 87 0;
#X connect 85 0 84 1;
#X connect 86 0 80 0;
#X connect 87 0 86 0;
#X connect 88 0 89 0;
#X connect 89 0 91 0;
#X connect 90 0 88 0;
#X connect 92 0 93 0;
#X connect 92 0 95 0;
#X connect 93 0 92 1;
#X connect 94 0 88 0;
#X connect 95 0 94 0;
#X connect 96 0 97 0;
#X connect 97 0 99 0;
#X connect 98 0 96 0;
#X connect 100 0 101 0;
#X connect 100 0 103 0;
#X connect 101 0 100 1;
#X connect 102 0 96 0;
#X connect 103 0 102 0;
#X connect 104 0 105 0;
#X connect 105 0 107 0;
#X connect 106 0 104 0;
#X connect 108 0 109 0;
#X connect 108 0 111 0;
#X connect 109 0 108 1;
#X connect 110 0 104 0;
#X connect 111 0 110 0;
#X connect 112 0 113 0;
#X connect 113 0 115 0;
#X connect 114 0 112 0;
#X connect 116 0 117 0;
#X connect 116 0 119 0;
#X connect 117 0 116 1;
#X connect 118 0 112 0;
#X connect 119 0 118 0;
#X connect 120 0 121 0;
#X connect 121 0 123 0;
#X connect 122 0 120 0;
#X connect 124 0 125 0;
#X connect 124 0 127 0;
#X connect 125 0 124 1;
#X connect 126 0 120 0;
#X connect 127 0 126 0;
#X connect 128 0 129 0;
#X connect 129 0 131 0;
#X connect 130 0 128 0;
#X connect 132 0 133 0;
#X connect 132 0 135 0;
#X connect 133 0 132 1;
#X connect 134 0 128 0;
#X connect 135 0 134 0;
#X connect 136 0 137 0;
#X connect 137 0 139 0;
#X connect 138 0 136 0;
#X connect 140 0 141 0;
#X connect 140 0 143 0;
#X connect 141 0 140 1;
#X connect 142 0 136 0;
#X connect 143 0 142 0;
#X connect 144 0 145 0;
#X connect 145 0 147 0;
#X connect 146 0 144 0;
#X connect 148 0 149 0;
#X connect 148 0 151 0;
#X connect 149 0 148 1;
#X connect 150 0 144 0;
#X connect 151 0 150 0;
#X connect 152 0 153 0;
#X connect 153 0 155 0;
#X connect 154 0 152 0;
#X connect 156 0 157 0;
#X connect 156 0 159 0;
#X connect 157 0 156 1;
#X connect 158 0 152 0;
#X connect 159 0 158 0;
#X connect 160 0 161 0;
#X connect 161 0 163 0;
#X connect 162 0 160 0;
#X connect 164 0 165 0;
#X connect 164 0 167 0;
#X connect 165 0 164 1;
#X connect 166 0 160 0;
#X connect 167 0 166 0;
#X connect 168 0 169 0;
#X connect 169 0 171 0;
#X connect 170 0 168 0;
#X connect 172 0 173 0;
#X connect 172 0 175 0;
#X connect 173 0 172 1;
#X connect 174 0 168 0;
#X connect 175 0 174 0;
#X connect 176 0 179 0;
#X connect 176 0 180 0;
#X connect 176 0 181 0;
#X connect 176 0 182 0;
#X connect 176 0 183 0;
#X connect 176 0 184 0;
#X connect 176 0 185 0;
#X connect 176 0 186 0;
#X connect 176 0 187 0;
#X connect 176 0 188 0;
#X connect 176 0 189 0;
#X connect 176 0 190 0;
#X connect 176 0 191 0;
#X connect 176 0 192 0;
#X connect 176 0 193 0;
#X connect 176 0 194 0;
#X connect 176 0 195 0;
#X connect 176 0 196 0;
#X connect 176 0 197 0;
#X connect 176 0 198 0;
#X connect 176 0 199 0;
#X connect 176 0 200 0;
#X connect 177 0 176 0;
#X connect 178 0 177 0;
#X connect 179 0 4 0;
#X connect 180 0 12 0;
#X connect 181 0 20 0;
#X connect 182 0 28 0;
#X connect 183 0 36 0;
#X connect 184 0 44 0;
#X connect 185 0 52 0;
#X connect 186 0 60 0;
#X connect 187 0 68 0;
#X connect 188 0 76 0;
#X connect 189 0 84 0;
#X connect 190 0 92 0;
#X connect 191 0 100 0;
#X connect 192 0 108 0;
#X connect 193 0 116 0;
#X connect 194 0 124 0;
#X connect 195 0 132 0;
#X connect 196 0 140 0;
#X connect 197 0 148 0;
#X connect 198 0 156 0;
#X connect 199 0 164 0;
#X connect 200 0 172 0;
#X restore 550 68 pd random preset;
#X obj 888 19 - 12;
#X obj 130 363 sel 0;
#X floatatom -87 454 5 0 0 0 - - -;
#X msg 129 384 0;
#X obj 43 382 bpm ------;
#X obj 81 354 tgl 15 0 empty empty empty 17 7 0 10 -262144 -1 -1 0
1;
#X obj -76 244 hsl 128 15 50 500 0 0 empty empty empty -2 -8 0 10 -262144
-1 -1 4233 1;
#X msg -79 67 200;
#X obj 578 306 tgl 15 0 empty empty empty -2 7 0 10 -203875 -1 -262144
0 1;
#X obj 468 306 hsl 100 15 50 500 0 0 empty empty swift 20 7 0 10 -208037
-1 -1 0 1;
#X obj 962 28 notein 11;
#X connect 0 0 1 0;
#X connect 0 1 1 1;
#X connect 0 2 1 2;
#X connect 1 0 2 0;
#X connect 2 0 3 0;
#X connect 2 0 179 0;
#X connect 2 1 11 0;
#X connect 2 1 180 0;
#X connect 2 2 12 0;
#X connect 2 2 181 0;
#X connect 2 3 13 0;
#X connect 2 3 182 0;
#X connect 3 0 18 0;
#X connect 3 1 14 0;
#X connect 5 0 22 1;
#X connect 6 0 202 0;
#X connect 7 0 8 0;
#X connect 7 0 71 0;
#X connect 7 0 150 0;
#X connect 8 0 7 1;
#X connect 9 0 127 0;
#X connect 11 0 19 0;
#X connect 11 1 15 0;
#X connect 12 0 20 0;
#X connect 12 1 16 0;
#X connect 13 0 21 0;
#X connect 13 1 17 0;
#X connect 18 0 45 1;
#X connect 19 0 46 1;
#X connect 20 0 47 1;
#X connect 21 0 48 1;
#X connect 22 0 74 1;
#X connect 22 0 128 0;
#X connect 23 0 74 1;
#X connect 23 0 128 0;
#X connect 24 0 74 1;
#X connect 24 0 128 0;
#X connect 25 0 74 1;
#X connect 25 0 128 0;
#X connect 26 0 74 1;
#X connect 26 0 128 0;
#X connect 27 0 74 1;
#X connect 27 0 128 0;
#X connect 28 0 74 1;
#X connect 28 0 128 0;
#X connect 29 0 74 1;
#X connect 29 0 128 0;
#X connect 30 0 23 1;
#X connect 31 0 24 1;
#X connect 32 0 25 1;
#X connect 33 0 26 1;
#X connect 34 0 27 1;
#X connect 35 0 28 1;
#X connect 36 0 29 1;
#X connect 37 0 41 1;
#X connect 38 0 42 1;
#X connect 39 0 43 1;
#X connect 40 0 44 1;
#X connect 41 0 74 1;
#X connect 41 0 128 0;
#X connect 42 0 74 1;
#X connect 42 0 128 0;
#X connect 43 0 74 1;
#X connect 43 0 128 0;
#X connect 44 0 74 1;
#X connect 44 0 128 0;
#X connect 45 0 50 0;
#X connect 45 0 54 0;
#X connect 46 0 51 0;
#X connect 46 0 55 0;
#X connect 47 0 52 0;
#X connect 47 0 56 0;
#X connect 48 0 53 0;
#X connect 48 0 57 0;
#X connect 49 0 45 0;
#X connect 49 1 46 0;
#X connect 49 2 47 0;
#X connect 49 3 48 0;
#X connect 54 0 74 0;
#X connect 55 0 74 0;
#X connect 56 0 74 0;
#X connect 57 0 74 0;
#X connect 58 0 78 0;
#X connect 58 0 196 0;
#X connect 58 0 73 0;
#X connect 58 0 81 0;
#X connect 58 0 94 0;
#X connect 58 0 172 0;
#X connect 58 0 205 0;
#X connect 71 0 9 0;
#X connect 72 0 71 1;
#X connect 73 0 5 0;
#X connect 73 0 31 0;
#X connect 73 0 34 0;
#X connect 73 0 35 0;
#X connect 73 0 38 0;
#X connect 73 0 97 0;
#X connect 73 0 98 0;
#X connect 73 0 99 0;
#X connect 73 0 101 0;
#X connect 73 0 104 0;
#X connect 73 0 106 0;
#X connect 74 0 10 0;
#X connect 74 1 10 1;
#X connect 74 1 174 0;
#X connect 75 0 6 0;
#X connect 75 0 199 0;
#X connect 76 0 58 0;
#X connect 77 0 76 0;
#X connect 77 0 96 0;
#X connect 78 0 75 0;
#X connect 78 0 30 0;
#X connect 78 0 32 0;
#X connect 78 0 33 0;
#X connect 78 0 36 0;
#X connect 78 0 37 0;
#X connect 78 0 39 0;
#X connect 78 0 40 0;
#X connect 78 0 100 0;
#X connect 78 0 103 0;
#X connect 78 0 105 0;
#X connect 79 0 74 2;
#X connect 80 0 170 0;
#X connect 81 0 80 0;
#X connect 82 0 95 0;
#X connect 82 0 202 1;
#X connect 83 0 84 0;
#X connect 84 0 82 0;
#X connect 84 1 91 0;
#X connect 85 0 82 1;
#X connect 86 0 82 1;
#X connect 87 0 82 1;
#X connect 88 0 82 1;
#X connect 89 0 82 1;
#X connect 90 0 82 1;
#X connect 91 0 85 0;
#X connect 91 1 86 0;
#X connect 91 2 87 0;
#X connect 91 3 88 0;
#X connect 91 4 89 0;
#X connect 91 5 90 0;
#X connect 91 6 92 0;
#X connect 91 7 93 0;
#X connect 92 0 82 1;
#X connect 93 0 82 1;
#X connect 94 0 83 0;
#X connect 96 0 167 0;
#X connect 97 0 117 1;
#X connect 98 0 118 1;
#X connect 99 0 119 1;
#X connect 100 0 120 1;
#X connect 101 0 121 1;
#X connect 102 0 122 1;
#X connect 103 0 123 1;
#X connect 104 0 124 1;
#X connect 105 0 125 1;
#X connect 106 0 126 1;
#X connect 117 0 74 1;
#X connect 117 0 128 0;
#X connect 118 0 74 1;
#X connect 118 0 128 0;
#X connect 119 0 74 1;
#X connect 119 0 128 0;
#X connect 120 0 74 1;
#X connect 120 0 128 0;
#X connect 121 0 74 1;
#X connect 121 0 128 0;
#X connect 122 0 74 1;
#X connect 122 0 128 0;
#X connect 123 0 74 1;
#X connect 123 0 128 0;
#X connect 124 0 74 1;
#X connect 124 0 128 0;
#X connect 125 0 74 1;
#X connect 125 0 128 0;
#X connect 126 0 74 1;
#X connect 126 0 128 0;
#X connect 127 0 22 0;
#X connect 127 0 59 0;
#X connect 127 1 23 0;
#X connect 127 1 60 0;
#X connect 127 2 24 0;
#X connect 127 2 61 0;
#X connect 127 3 25 0;
#X connect 127 3 62 0;
#X connect 127 4 26 0;
#X connect 127 4 63 0;
#X connect 127 5 27 0;
#X connect 127 5 64 0;
#X connect 127 6 28 0;
#X connect 127 6 65 0;
#X connect 127 7 29 0;
#X connect 127 7 66 0;
#X connect 127 8 41 0;
#X connect 127 8 70 0;
#X connect 127 9 42 0;
#X connect 127 9 67 0;
#X connect 127 10 43 0;
#X connect 127 10 68 0;
#X connect 127 11 44 0;
#X connect 127 11 69 0;
#X connect 127 12 117 0;
#X connect 127 12 107 0;
#X connect 127 13 118 0;
#X connect 127 13 108 0;
#X connect 127 14 119 0;
#X connect 127 14 109 0;
#X connect 127 15 120 0;
#X connect 127 15 110 0;
#X connect 127 16 121 0;
#X connect 127 16 111 0;
#X connect 127 17 122 0;
#X connect 127 17 112 0;
#X connect 127 18 123 0;
#X connect 127 18 113 0;
#X connect 127 19 124 0;
#X connect 127 19 114 0;
#X connect 127 20 125 0;
#X connect 127 20 116 0;
#X connect 127 21 126 0;
#X connect 127 21 115 0;
#X connect 128 0 152 0;
#X connect 129 1 136 0;
#X connect 130 0 131 0;
#X connect 131 0 132 0;
#X connect 131 0 134 0;
#X connect 132 0 131 1;
#X connect 133 0 135 0;
#X connect 134 0 133 0;
#X connect 135 0 49 0;
#X connect 136 0 148 0;
#X connect 137 0 79 0;
#X connect 138 0 144 0;
#X connect 139 0 142 1;
#X connect 140 0 139 1;
#X connect 140 1 141 1;
#X connect 141 0 135 0;
#X connect 142 0 168 0;
#X connect 143 0 142 0;
#X connect 143 1 140 0;
#X connect 143 2 139 0;
#X connect 144 0 145 0;
#X connect 145 0 143 0;
#X connect 146 0 156 0;
#X connect 147 0 138 0;
#X connect 147 1 130 0;
#X connect 148 0 147 0;
#X connect 149 0 147 1;
#X connect 150 0 159 0;
#X connect 150 0 200 0;
#X connect 151 0 147 1;
#X connect 152 0 129 0;
#X connect 153 0 155 0;
#X connect 154 0 155 0;
#X connect 155 0 152 0;
#X connect 155 1 152 1;
#X connect 156 0 151 0;
#X connect 156 0 154 0;
#X connect 156 0 160 0;
#X connect 156 0 161 0;
#X connect 156 1 149 0;
#X connect 156 1 154 0;
#X connect 156 1 160 0;
#X connect 156 1 161 0;
#X connect 156 2 153 0;
#X connect 156 2 162 0;
#X connect 156 2 163 0;
#X connect 157 0 164 0;
#X connect 157 1 158 0;
#X connect 158 0 135 0;
#X connect 159 0 157 0;
#X connect 160 0 159 1;
#X connect 161 0 159 2;
#X connect 162 0 159 1;
#X connect 163 0 159 2;
#X connect 165 0 166 0;
#X connect 166 0 144 0;
#X connect 167 0 146 0;
#X connect 168 0 141 0;
#X connect 168 1 169 0;
#X connect 169 0 138 0;
#X connect 170 0 82 0;
#X connect 171 0 137 0;
#X connect 171 1 137 1;
#X connect 172 0 173 0;
#X connect 173 0 171 0;
#X connect 175 0 0 0;
#X connect 176 0 177 0;
#X connect 177 0 185 1;
#X connect 177 0 189 0;
#X connect 177 0 192 1;
#X connect 177 1 186 1;
#X connect 177 2 187 1;
#X connect 178 0 184 0;
#X connect 183 0 0 0;
#X connect 184 0 0 1;
#X connect 185 0 183 0;
#X connect 185 0 178 0;
#X connect 186 0 183 0;
#X connect 186 0 178 0;
#X connect 187 0 183 0;
#X connect 187 0 178 0;
#X connect 188 0 190 0;
#X connect 188 0 185 0;
#X connect 189 0 188 0;
#X connect 190 0 191 0;
#X connect 190 0 186 0;
#X connect 191 0 187 0;
#X connect 191 0 193 0;
#X connect 192 0 178 0;
#X connect 192 0 198 0;
#X connect 193 0 192 0;
#X connect 194 0 0 1;
#X connect 196 0 72 0;
#X connect 198 0 183 0;
#X connect 199 0 201 0;
#X connect 201 0 7 1;
#X connect 202 0 7 0;
#X connect 202 1 137 0;
#X connect 203 0 202 2;
#X connect 204 0 202 3;
#X connect 205 0 204 0;
#X connect 206 0 203 0;
#X connect 207 0 204 0;
#X connect 208 0 0 0;
#X connect 208 1 0 1;
#X coords 0 -1 1 1 700 230 1 100 100;
