#N canvas 93 127 946 798 24;
#X obj 372 109 expr 1000/ ($f1/60);
#X floatatom 372 161 5 0 0 0 - - -;
#X obj 452 477 tgl 20 0 \$0-metro1 empty empty 17 7 0 10 -262144 -1
-1 0 1;
#X obj 89 697 metro;
#X obj 89 735 outlet;
#X obj 165 384 +;
#X obj 165 338 random;
#X floatatom 165 433 5 0 0 0 - - -;
#X obj 165 230 metro;
#X obj 199 281 bng 15 250 50 0 empty empty empty 17 7 0 10 -262144
-1 -1;
#X obj 165 544 * 0;
#X floatatom 452 519 5 0 0 0 - - -;
#X obj 165 591 sel 0;
#X floatatom 217 633 5 0 0 0 - - -;
#X floatatom 372 672 5 0 0 0 - - -;
#X obj 452 619 sel 0;
#X obj 52 738 bng 15 250 50 0 empty empty empty 17 7 0 10 -262144 -1
-1;
#X obj 718 272 / 2;
#X obj 424 298 -;
#X obj 644 231 t b f f;
#X floatatom 681 313 5 0 0 0 - - -;
#X obj 372 251 t f f;
#X floatatom 425 344 5 0 0 0 - - -;
#X floatatom 372 75 5 0 0 0 - - -;
#X obj 195 31 metro 200;
#X floatatom 261 239 5 0 0 0 - - -;
#X obj 195 71 randomF 2;
#X obj 195 -4 tgl 20 0 empty \$0-metro1 empty 17 7 0 10 -262144 -1
-1 1 1;
#X obj 195 114 + 1;
#X obj 89 202 tgl 20 0 empty empty empty 17 7 0 10 -262144 -1 -1 1
1;
#X obj 217 186 * 1;
#X obj 195 149 t b f;
#X obj 414 204 outlet;
#X obj 195 -90 loadbang;
#X msg 195 -39 1;
#X obj 25 144 inlet triger;
#X obj 372 31 inlet metro;
#X obj 644 153 inlet swift_value;
#X obj 452 416 inlet swift_triger;
#X connect 0 0 1 0;
#X connect 1 0 21 0;
#X connect 1 0 30 0;
#X connect 1 0 32 0;
#X connect 2 0 11 0;
#X connect 3 0 4 0;
#X connect 3 0 16 0;
#X connect 5 0 7 0;
#X connect 6 0 5 0;
#X connect 7 0 10 0;
#X connect 8 0 6 0;
#X connect 8 0 9 0;
#X connect 10 0 12 0;
#X connect 11 0 10 1;
#X connect 11 0 15 0;
#X connect 12 1 13 0;
#X connect 13 0 3 1;
#X connect 14 0 3 1;
#X connect 15 0 14 0;
#X connect 17 0 18 1;
#X connect 18 0 5 1;
#X connect 18 0 22 0;
#X connect 19 0 23 0;
#X connect 19 1 20 0;
#X connect 19 2 17 0;
#X connect 20 0 6 1;
#X connect 21 0 14 0;
#X connect 21 1 18 0;
#X connect 23 0 0 0;
#X connect 24 0 26 0;
#X connect 26 0 28 0;
#X connect 27 0 24 0;
#X connect 28 0 31 0;
#X connect 29 0 3 0;
#X connect 29 0 8 0;
#X connect 30 0 8 1;
#X connect 30 0 25 0;
#X connect 31 0 30 0;
#X connect 31 1 30 1;
#X connect 33 0 34 0;
#X connect 34 0 27 0;
#X connect 35 0 29 0;
#X connect 36 0 23 0;
#X connect 37 0 19 0;
#X connect 38 0 2 0;
