#N canvas 0 0 1916 997 10;
#X obj 201 201 cnv 15 748 218 empty empty Sequencer_1 20 12 0 14 -71131
-262144 0;
#X obj 223 230 vsl 15 50 0 127 0 0 \$0-velocity1_s \$0-velocity1_r
1 5 63 0 10 -162802 -1 -262144 2400 1;
#X obj 223 304 bng 15 250 50 0 empty empty empty 17 7 0 10 -71131 -216569
-1;
#X obj 253 230 vsl 15 50 0 127 0 0 \$0-velocity2_s \$0-velocity2_r
2 5 63 0 10 -162802 -1 -262144 1900 1;
#X obj 283 230 vsl 15 50 0 127 0 0 \$0-velocity3_s \$0-velocity3_r
3 5 63 0 10 -162802 -1 -262144 0 1;
#X obj 313 230 vsl 15 50 0 127 0 0 \$0-velocity4_s \$0-velocity4_r
4 5 63 0 10 -162802 -1 -262144 2100 1;
#X obj 343 230 vsl 15 50 0 127 0 0 \$0-velocity5_s \$0-velocity5_r
5 5 63 0 10 -162802 -1 -262144 2643 1;
#X obj 373 230 vsl 15 50 0 127 0 0 \$0-velocity6_s \$0-velocity6_r
6 5 63 0 10 -162802 -1 -262144 3200 1;
#X obj 403 230 vsl 15 50 0 127 0 0 \$0-velocity7_s \$0-velocity7_r
7 5 63 0 10 -162802 -1 -262144 2000 1;
#X obj 433 230 vsl 15 50 0 127 0 0 \$0-velocity8_s \$0-velocity8_r
8 5 63 0 10 -162802 -1 -262144 0 1;
#X obj 463 230 vsl 15 50 0 127 0 0 \$0-velocity9_s \$0-velocity9_r
9 5 63 0 10 -162802 -1 -262144 2800 1;
#X obj 493 230 vsl 15 50 0 127 0 0 \$0-velocity10_s \$0-velocity10_r
10 2 63 0 10 -162802 -1 -262144 0 1;
#X obj 253 304 bng 15 250 50 0 empty empty empty 17 7 0 10 -71131 -216569
-1;
#X obj 283 304 bng 15 250 50 0 empty empty empty 17 7 0 10 -71131 -216569
-1;
#X obj 313 304 bng 15 250 50 0 empty empty empty 17 7 0 10 -71131 -216569
-1;
#X obj 343 304 bng 15 250 50 0 empty empty empty 17 7 0 10 -71131 -216569
-1;
#X obj 373 304 bng 15 250 50 0 empty empty empty 17 7 0 10 -71131 -216569
-1;
#X obj 403 304 bng 15 250 50 0 empty empty empty 17 7 0 10 -71131 -216569
-1;
#X obj 433 304 bng 15 250 50 0 empty empty empty 17 7 0 10 -71131 -216569
-1;
#X obj 463 304 bng 15 250 50 0 empty empty empty 17 7 0 10 -71131 -216569
-1;
#X obj 493 304 bng 15 250 50 0 empty empty empty 17 7 0 10 -71131 -216569
-1;
#X obj 523 304 bng 15 250 50 0 empty empty empty 17 7 0 10 -71131 -216569
-1;
#X obj 553 304 bng 15 250 50 0 empty empty empty 17 7 0 10 -71131 -216569
-1;
#X obj 583 304 bng 15 250 50 0 empty empty empty 17 7 0 10 -71131 -216569
-1;
#X obj 613 304 bng 15 250 50 0 empty empty empty 17 7 0 10 -71131 -216569
-1;
#X obj 643 304 bng 15 250 50 0 empty empty empty 17 7 0 10 -71131 -216569
-1;
#X obj 673 304 bng 15 250 50 0 empty empty empty 17 7 0 10 -71131 -216569
-1;
#X obj 703 304 bng 15 250 50 0 empty empty empty 17 7 0 10 -71131 -216569
-1;
#X obj 733 304 bng 15 250 50 0 empty empty empty 17 7 0 10 -71131 -216569
-1;
#X obj 763 304 bng 15 250 50 0 empty empty empty 17 7 0 10 -71131 -216569
-1;
#X obj 793 304 bng 15 250 50 0 empty empty empty 17 7 0 10 -71131 -216569
-1;
#X obj 823 304 bng 15 250 50 0 empty empty empty 17 7 0 10 -71131 -216569
-1;
#X obj 853 304 bng 15 250 50 0 empty empty empty 17 7 0 10 -71131 -216569
-1;
#X obj 883 304 bng 15 250 50 0 empty empty empty 17 7 0 10 -71131 -216569
-1;
#X obj 913 304 bng 15 250 50 0 empty empty empty 17 7 0 10 -71131 -216569
-1;
#X obj 782 346 bng 20 250 50 0 \$0-bang_velocity empty Random -7 -7
0 10 -162802 -1 -262144;
#X obj 523 230 vsl 15 50 0 127 0 0 \$0-velocity11_s \$0-velocity11_r
11 2 63 0 10 -162802 -1 -262144 2100 1;
#X obj 553 230 vsl 15 50 0 127 0 0 \$0-velocity12_s \$0-velocity12_r
12 2 63 0 10 -162802 -1 -262144 2700 1;
#X obj 583 230 vsl 15 50 0 127 0 0 \$0-velocity13_s \$0-velocity13_r
13 2 63 0 10 -162802 -1 -262144 2100 1;
#X obj 613 230 vsl 15 50 0 127 0 0 \$0-velocity14_s \$0-velocity14_r
14 2 63 0 10 -162802 -1 -262144 0 1;
#X obj 643 230 vsl 15 50 0 127 0 0 \$0-velocity15_s \$0-velocity15_r
15 2 63 0 10 -162802 -1 -262144 2100 1;
#X obj 673 230 vsl 15 50 0 127 0 0 \$0-velocity16_s \$0-velocity16_r
16 2 63 0 10 -162802 -1 -262144 2900 1;
#X obj 703 230 vsl 15 50 0 127 0 0 \$0-velocity17_s \$0-velocity17_r
17 2 63 0 10 -162802 -1 -262144 0 1;
#X obj 733 230 vsl 15 50 0 127 0 0 \$0-velocity18_s \$0-velocity18_r
18 2 63 0 10 -162802 -1 -262144 1500 1;
#X obj 763 230 vsl 15 50 0 127 0 0 \$0-velocity19_s \$0-velocity19_r
19 2 63 0 10 -162802 -1 -262144 2300 1;
#X obj 793 230 vsl 15 50 0 127 0 0 \$0-velocity20_s \$0-velocity20_r
20 2 63 0 10 -162802 -1 -262144 1800 1;
#X obj 823 230 vsl 15 50 0 127 0 0 \$0-velocity21_s \$0-velocity21_r
21 2 63 0 10 -162802 -1 -262144 2715 1;
#X obj 853 230 vsl 15 50 0 127 0 0 \$0-velocity22_s \$0-velocity22_r
22 2 63 0 10 -162802 -1 -262144 1487 1;
#X obj 883 230 vsl 15 50 0 127 0 0 \$0-velocity23_s \$0-velocity23_r
23 2 63 0 10 -162802 -1 -262144 0 1;
#X obj 913 230 vsl 15 50 0 127 0 0 \$0-velocity24_s \$0-velocity24_r
24 2 63 0 10 -162802 -1 -262144 1543 1;
#X obj 957 274 sel 0 1 2 3 4 5 6 7 8 9 10 11 12 13 14 15 16 17 18 19
20 21 22 23;
#X floatatom 957 236 5 0 0 0 - #0-step_count -;
#X obj 217 340 vradio 15 1 0 4 \$0-step_option empty empty 0 -8 0 10
-162802 -1 -1 0;
#X text 237 338 FORWARD;
#X text 237 354 BACKWARD;
#X text 238 384 RANDOM;
#X text 238 368 F & B;
#X obj 300 347 tgl 20 0 empty empty Play 0 -7 0 10 -162802 -1 -262144
0 1;
#X obj 351 346 nbx 3 25 -1e+037 1e+037 0 0 empty empty empty 0 -8 0
20 -162802 -1 -1 120 256;
#X obj 302 387 nbx 2 20 -1e+037 1e+037 0 0 empty empty empty 0 -8 0
15 -162802 -1 -1 14 256;
#X msg 96 328 120;
#X obj 86 151 loadbang;
#X text 365 329 Tempo;
#X text 305 370 Steps;
#X obj 455 390 hsl 130 15 0.1 3 0 0 empty empty Staccato_Legato 20
7 0 10 -162802 -1 -1 4003 1;
#X msg 58 332 1;
#X obj 864 341 vradio 15 1 0 4 empty empty empty 0 -8 0 10 -162802
-1 -1 0;
#X text 884 339 FORWARD;
#X text 884 355 BACKWARD;
#X text 885 385 RANDOM;
#X text 885 369 F & B;
#X obj 453 350 hradio 17 1 0 8 empty empty Tempo_x1_x2_x3_x4_x5_x6_x7
-8 25 0 10 -162802 -1 -262144 1;
#X obj 573 593 i;
#X obj 600 593 + 1;
#X obj 573 626 % 4;
#X obj 783 616 i;
#X obj 810 616 - 1;
#X floatatom 783 756 5 0 0 0 - - -;
#X floatatom 552 756 5 0 0 0 - - -;
#X floatatom 1282 756 5 0 0 0 - - -;
#X obj 843 480 sel 0;
#X obj 606 465 tgl 15 0 empty empty empty 17 7 0 10 -262144 -1 -1 1
1;
#X obj 816 465 tgl 15 0 empty empty empty 17 7 0 10 -262144 -1 -1 0
1;
#X obj 955 401 hradio 15 1 0 4 empty empty empty 0 -8 0 10 -262144
-1 -1 0;
#X obj 955 431 sel 0 1 2 3;
#X msg 591 448 0;
#X msg 621 448 1;
#X msg 801 448 0;
#X msg 831 448 1;
#X obj 1015 465 tgl 15 0 empty empty empty 17 7 0 10 -262144 -1 -1
0 1;
#X msg 1010 448 0;
#X msg 1040 448 1;
#X obj 1276 465 tgl 15 0 empty empty empty 17 7 0 10 -262144 -1 -1
0 1;
#X msg 1271 448 0;
#X msg 1301 448 1;
#X obj 573 558 bng 15 250 50 0 empty empty empty 17 7 0 10 -262144
-1 -1;
#X obj 573 526 spigot;
#X obj 783 588 bng 15 250 50 0 empty empty empty 17 7 0 10 -262144
-1 -1;
#X obj 783 526 spigot;
#X obj 982 558 bng 15 250 50 0 empty empty empty 17 7 0 10 -262144
-1 -1;
#X obj 982 526 spigot;
#X obj 1243 558 bng 15 250 50 0 empty empty empty 17 7 0 10 -262144
-1 -1;
#X obj 1243 526 spigot;
#X obj 982 638 UpDown;
#X msg 1064 621 0;
#X floatatom 1021 756 5 0 0 0 - - -;
#X floatatom 1341 772 5 0 0 0 - - -;
#X obj 485 464 sel 0;
#X obj 533 511 bng 15 250 50 0 empty empty empty 17 7 0 10 -262144
-1 -1;
#X floatatom 485 434 5 0 0 0 - #0-velocity_count -;
#X msg 160 316 0;
#X obj 346 387 nbx 2 20 -1e+037 1e+037 0 0 \$0-octave empty empty 0
-8 0 15 -162802 -1 -1 1 256;
#X text 390 371 Octave;
#X obj 782 380 bng 20 250 50 0 \$0-reset empty Reset -5 -7 0 10 -162802
-1 -262144;
#X obj 85 118 bng 15 250 50 0 empty \$0-reset empty 17 7 0 10 -262144
-1 -1;
#X floatatom 640 561 5 0 0 0 - #0-poly -;
#X obj 1064 480 sel 0;
#X obj 680 609 sel 0;
#X obj 1400 607 sel 0;
#X floatatom 1400 579 5 0 0 0 - #0-poly -;
#X msg 1468 624 200;
#X obj 1243 654 expr if($f2 == 200 \, ($f1*0)+200 \, $f1) \;;
#X obj 1243 710 sel 200;
#X obj 1139 621 sel 0;
#X floatatom 1139 593 5 0 0 0 - #0-poly -;
#X msg 1207 638 200;
#X obj 982 668 expr if($f2 == 200 \, ($f1*0)+200 \, $f1) \;;
#X obj 982 715 sel 200;
#X obj 856 634 sel 0;
#X obj 843 661 bng 15 250 50 0 empty empty empty 17 7 0 10 -262144
-1 -1;
#X floatatom 830 586 5 0 0 0 - - -;
#X floatatom 863 543 5 0 0 0 - #0-poly -;
#X obj 863 569 - 1;
#X obj 783 685 expr if($f1 < 0 \, (-1) \, $f1) \;;
#X obj 513 675 expr if($f2 == 200 \, ($f1*0)+200 \, $f1) \;;
#X obj 513 712 sel 200;
#X msg 738 625 200;
#X obj 640 590 t b f;
#X msg 602 564 0;
#X obj 817 348 tgl 20 0 \$0-hold empty Hold 0 -7 0 10 -162802 -1 -262144
1 1;
#X obj 1384 290 sel 0 127;
#X msg 1382 316 0;
#X msg 1412 316 1;
#X obj 1383 333 tgl 15 0 empty empty empty 17 7 0 10 -262144 -1 -1
0 1;
#X obj 294 142 inlet;
#X obj 811 373 cnv 15 40 40 empty \$0-displayNote 0 8 20 0 18 -71131
-262144 0;
#X msg 214 647 label \$1;
#X floatatom 214 552 5 0 0 0 - #0-showNote -;
#X obj 214 670 s \$0-displayNote;
#X obj 165 583 sel 0;
#X msg 165 607 0;
#X obj 512 494 delay 10;
#X obj 1384 252 expr if($f2 == $f3 \, $f1 \, 200) \;;
#X obj 1410 195 ctlin 64;
#X floatatom 1384 212 5 0 0 0 - - -;
#X floatatom 1472 212 5 0 0 0 - - -;
#X floatatom 1561 219 5 0 0 0 - #0-channel_In -;
#X obj 503 206 nbx 2 14 -1e+037 1e+037 0 0 \$0-channel_In empty ChannelIn
-60 7 0 10 -162802 -1 -262144 10 256;
#X msg 503 168 10;
#X obj 403 206 nbx 2 14 -1e+037 1e+037 0 0 \$0-channel_Out empty ChannelOut
-70 7 0 10 -162802 -1 -262144 10 256;
#X msg 403 168 10;
#X obj 391 387 nbx 2 20 -5 5 0 0 \$0-changeOctave empty empty 0 -8
0 15 -162802 -1 -1 0 256;
#X text 346 370 random;
#X obj 1243 624 random_me_2;
#X obj 632 206 nbx 2 14 -1e+037 1e+037 0 0 \$0-channel empty ChannelNumber
-85 7 0 10 -162802 -1 -262144 10 256;
#X obj 676 208 bng 12 250 50 0 empty \$0-MIDI_TEST MIDI_TEST 17 7 0
10 -71131 -162802 -262144;
#N canvas 738 197 822 589 save 0;
#X obj -282 -271 cnv 15 320 180 empty empty empty 20 12 0 14 -261234
-66577 0;
#X obj -282 -87 cnv 15 320 350 empty empty empty 20 12 0 14 -204786
-66577 0;
#X obj -272 143 textfile;
#X obj -272 53 until;
#X obj -272 -77 r \$0-load.s;
#X obj -272 183 list prepend \$0;
#X obj -272 203 list trim;
#X obj -272 -267 r \$0-save.s;
#X obj -272 -57 openpanel;
#X obj -272 80 s \$0-to.textfile;
#X obj -272 -137 s \$0-to.textfile;
#X obj -227 163 s \$0-stop.loop;
#X obj -245 33 r \$0-stop.loop;
#X obj -272 123 r \$0-to.textfile;
#X msg -253 -17 read \$1 \, rewind;
#X msg -142 0 label \$1;
#X obj -272 -37 t b s s;
#X msg -238 -207 clear;
#X obj -272 -247 savepanel;
#X msg -132 -210 write \$1;
#X msg -272 -167 write \$1;
#X obj -272 -227 t s b b s;
#X obj -142 -60 loadbang;
#X obj -142 -40 symbol no_preset_loaded;
#X obj -142 -20 makefilename PRESET_FILE:%s;
#X obj -255 -187 s \$0-get.values;
#X obj -142 20 s \$0-preset.name_r;
#X msg -272 223 \; \$1-\$2_r \$3 \;;
#X obj 173 48 bng 20 250 50 0 \$0-save.s \$0-save.r save 22 7 0 10
-261234 -1 -1;
#X obj 123 48 bng 20 250 50 0 \$0-load.s \$0-load.r load 22 7 0 10
-204786 -1 -1;
#X obj 175 -40 inlet save;
#X obj 103 -39 inlet load;
#X obj 374 -249 save.param \$0 velocity1;
#X obj 374 -229 save.param \$0 velocity2;
#X obj 374 -209 save.param \$0 velocity3;
#X obj 374 -189 save.param \$0 velocity4;
#X obj 374 -169 save.param \$0 velocity5;
#X obj 374 -149 save.param \$0 velocity6;
#X obj 374 -129 save.param \$0 velocity7;
#X obj 374 -109 save.param \$0 velocity8;
#X obj 374 -89 save.param \$0 velocity9;
#X obj 374 -69 save.param \$0 velocity10;
#X obj 374 -49 save.param \$0 velocity11;
#X obj 374 -29 save.param \$0 velocity12;
#X obj 374 -9 save.param \$0 velocity13;
#X obj 374 11 save.param \$0 velocity13;
#X obj 374 31 save.param \$0 velocity15;
#X obj 374 51 save.param \$0 velocity16;
#X obj 374 71 save.param \$0 velocity17;
#X obj 374 91 save.param \$0 velocity18;
#X obj 374 111 save.param \$0 velocity19;
#X obj 374 131 save.param \$0 velocity20;
#X obj 374 151 save.param \$0 velocity21;
#X obj 374 171 save.param \$0 velocity22;
#X obj 374 191 save.param \$0 velocity23;
#X obj 374 211 save.param \$0 velocity24;
#X obj 80 -155 bng 15 250 50 0 empty empty empty 17 7 0 10 -262144
-1 -1;
#N canvas 404 297 450 300 preset1 0;
#X obj 38 -7 until;
#X obj 38 20 s \$0-to.textfile;
#X obj 65 -27 r \$0-stop.loop;
#X msg 218 -60 label \$1;
#X obj 38 -97 t b s s;
#X obj 218 -120 loadbang;
#X obj 218 -100 symbol no_preset_loaded;
#X obj 218 -80 makefilename PRESET_FILE:%s;
#X obj 218 -40 s \$0-preset.name_r;
#X obj 38 -147 inlet;
#X msg 57 -77 read seq1_1.txt \, rewind;
#X connect 0 0 1 0;
#X connect 2 0 0 1;
#X connect 3 0 8 0;
#X connect 4 0 0 0;
#X connect 4 1 10 0;
#X connect 4 2 7 0;
#X connect 5 0 6 0;
#X connect 6 0 7 0;
#X connect 7 0 3 0;
#X connect 9 0 4 0;
#X connect 10 0 1 0;
#X restore 79 -124 pd preset1;
#N canvas 404 297 450 300 preset2 0;
#X obj 38 -7 until;
#X obj 38 20 s \$0-to.textfile;
#X obj 65 -27 r \$0-stop.loop;
#X msg 218 -60 label \$1;
#X obj 38 -97 t b s s;
#X obj 218 -120 loadbang;
#X obj 218 -100 symbol no_preset_loaded;
#X obj 218 -80 makefilename PRESET_FILE:%s;
#X obj 218 -40 s \$0-preset.name_r;
#X obj 38 -147 inlet;
#X msg 57 -77 read seq1_2.txt \, rewind;
#X connect 0 0 1 0;
#X connect 2 0 0 1;
#X connect 3 0 8 0;
#X connect 4 0 0 0;
#X connect 4 1 10 0;
#X connect 4 2 7 0;
#X connect 5 0 6 0;
#X connect 6 0 7 0;
#X connect 7 0 3 0;
#X connect 9 0 4 0;
#X connect 10 0 1 0;
#X restore 149 -124 pd preset2;
#X obj 120 -245 ctlin 59;
#X obj 120 -207 sel 0 127;
#X obj 150 -155 bng 15 250 50 0 empty empty empty 17 7 0 10 -262144
-1 -1;
#X obj 56 -205 loadbang;
#X connect 2 0 5 0;
#X connect 2 1 11 0;
#X connect 3 0 9 0;
#X connect 4 0 8 0;
#X connect 5 0 6 0;
#X connect 6 0 27 0;
#X connect 7 0 18 0;
#X connect 8 0 16 0;
#X connect 12 0 3 1;
#X connect 13 0 2 0;
#X connect 14 0 9 0;
#X connect 15 0 26 0;
#X connect 16 0 3 0;
#X connect 16 1 14 0;
#X connect 16 2 24 0;
#X connect 17 0 10 0;
#X connect 18 0 21 0;
#X connect 19 0 10 0;
#X connect 20 0 10 0;
#X connect 21 0 20 0;
#X connect 21 1 25 0;
#X connect 21 2 17 0;
#X connect 21 3 19 0;
#X connect 22 0 23 0;
#X connect 23 0 24 0;
#X connect 24 0 15 0;
#X connect 30 0 28 0;
#X connect 31 0 29 0;
#X connect 56 0 57 0;
#X connect 59 0 60 0;
#X connect 60 0 56 0;
#X connect 60 1 61 0;
#X connect 61 0 58 0;
#X connect 62 0 56 0;
#X restore 1210 236 pd save;
#X obj 1130 221 bng 15 250 50 0 empty empty empty 17 7 0 10 -262144
-1 -1;
#X obj 1169 221 bng 15 250 50 0 empty empty empty 17 7 0 10 -262144
-1 -1;
#X obj 811 206 bng 15 250 50 0 empty empty save 17 7 0 10 -162802 -1
-262144;
#X obj 858 206 bng 15 250 50 0 empty empty load 17 7 0 10 -162802 -1
-262144;
#N canvas 476 21 1397 988 sequence 0;
#X obj 34 293 i;
#X obj 74 293 i;
#X obj 114 293 i;
#X obj 154 293 i;
#X obj 194 293 i;
#X obj 234 293 i;
#X obj 274 293 i;
#X obj 314 293 i;
#X obj 354 293 i;
#X obj 394 293 i;
#X obj 434 293 i;
#X obj 474 293 i;
#X obj 514 293 i;
#X floatatom 471 310 5 0 0 0 - - #0-velocity_count;
#X floatatom 49 259 5 0 0 0 - #0-velocity1_s -;
#X floatatom 89 259 5 0 0 0 - #0-velocity2_s -;
#X floatatom 129 259 5 0 0 0 - #0-velocity3_s -;
#X floatatom 169 259 5 0 0 0 - #0-velocity4_s -;
#X floatatom 209 259 5 0 0 0 - #0-velocity5_s -;
#X floatatom 249 259 5 0 0 0 - #0-velocity6_s -;
#X floatatom 289 259 5 0 0 0 - #0-velocity7_s -;
#X floatatom 329 259 5 0 0 0 - #0-velocity8_s -;
#X floatatom 369 259 5 0 0 0 - #0-velocity9_s -;
#X floatatom 409 259 5 0 0 0 - #0-velocity10_s -;
#X floatatom 449 259 5 0 0 0 - #0-velocity11_s -;
#X floatatom 489 259 5 0 0 0 - #0-velocity12_s -;
#X floatatom 529 259 5 0 0 0 - #0-velocity13_s -;
#X obj 821 36 i;
#X obj 849 36 + 1;
#X floatatom 901 23 5 0 0 0 - - -;
#X floatatom 480 188 5 0 0 0 - - #0-step_count;
#X obj 213 -84 BPM_ME ---------;
#X floatatom 821 155 5 0 0 0 - - -;
#X floatatom 1014 171 5 0 0 0 - - -;
#X obj 981 64 i;
#X obj 1009 64 - 1;
#X obj 1131 113 UpDown;
#X msg 1153 50 0;
#X floatatom 1131 155 5 0 0 0 - - -;
#X floatatom 1185 39 5 0 0 0 - - -;
#X floatatom 1302 39 5 0 0 0 - - -;
#X floatatom 1251 155 5 0 0 0 - - -;
#X obj 1185 87 - 1;
#X obj 1251 91 random_me;
#X obj 244 -165 inlet metro;
#X obj 821 71 %;
#X floatatom 981 100 5 0 0 0 - - -;
#X obj 901 116 sel 0;
#X obj 901 143 bng 15 250 50 0 empty empty empty 17 7 0 10 -262144
-1 -1;
#X obj 901 -40 sel 0;
#X obj 996 39 - 1;
#X obj 1153 12 loadbang;
#X obj 213 -113 tgl 15 0 empty empty empty 17 7 0 10 -262144 -1 -1
0 1;
#X obj 108 -130 inlet metro_triger;
#X floatatom 306 -47 5 0 0 0 - - -;
#X obj 854 -143 tgl 15 0 empty empty empty 17 7 0 10 -262144 -1 -1
1 1;
#X obj 1014 -143 tgl 15 0 empty empty empty 17 7 0 10 -262144 -1 -1
0 1;
#X obj 1073 -198 hradio 15 1 0 4 empty \$0-step_option empty 0 -8 0
10 -262144 -1 -1 0;
#X obj 1073 -177 sel 0 1 2 3;
#X msg 839 -160 0;
#X msg 869 -160 1;
#X msg 999 -160 0;
#X msg 1029 -160 1;
#X obj 1164 -143 tgl 15 0 empty empty empty 17 7 0 10 -262144 -1 -1
0 1;
#X msg 1159 -160 0;
#X msg 1189 -160 1;
#X obj 1284 -143 tgl 15 0 empty empty empty 17 7 0 10 -262144 -1 -1
0 1;
#X msg 1279 -160 0;
#X msg 1309 -160 1;
#X obj 669 6 inlet steps;
#X obj 821 -20 bng 15 250 50 0 empty empty empty 17 7 0 10 -262144
-1 -1;
#X obj 821 -52 spigot;
#X obj 756 -67 bng 15 250 50 0 empty empty empty 17 7 0 10 -262144
-1 -1;
#X obj 981 -20 bng 15 250 50 0 empty empty empty 17 7 0 10 -262144
-1 -1;
#X obj 981 -52 spigot;
#X obj 1131 -20 bng 15 250 50 0 empty empty empty 17 7 0 10 -262144
-1 -1;
#X obj 1131 -52 spigot;
#X obj 1251 -20 bng 15 250 50 0 empty empty empty 17 7 0 10 -262144
-1 -1;
#X obj 1251 -52 spigot;
#X obj 735 -95 inlet legato;
#X floatatom 735 -26 5 0 0 0 - - -;
#X obj 306 -10 *;
#X floatatom 306 22 5 0 0 0 - - -;
#X obj 1093 -98 sel 0;
#X msg 836 -81 0;
#X obj 1093 8 bng 15 250 50 0 empty empty empty 17 7 0 10 -262144 -1
-1;
#X obj 228 529 noteout 10;
#X obj 331 93 bng 15 250 50 0 empty empty empty 17 7 0 10 -262144 -1
-1;
#X obj 220 494 makenote 50 500;
#X floatatom 45 478 5 0 0 0 - #0-NoteIn_1 -;
#X floatatom 85 478 5 0 0 0 - #0-NoteIn_2 -;
#X floatatom 125 478 5 0 0 0 - #0-NoteIn_3 -;
#X floatatom 165 478 5 0 0 0 - #0-NoteIn_4 -;
#X floatatom 263 456 5 0 0 0 - #0-velocity_count -;
#X floatatom 319 513 5 0 0 0 - #0-channel_Out -;
#X obj 554 293 i;
#X obj 594 293 i;
#X floatatom 569 259 5 0 0 0 - #0-velocity13_s -;
#X floatatom 609 259 5 0 0 0 - #0-velocity14_s -;
#X obj 1053 263 sel 0 1 2 3 4 5 6 7 8 9 10 11 12 13 14 15 16 17 18
19 20 21 22 23;
#X obj 634 293 i;
#X obj 674 293 i;
#X obj 714 293 i;
#X obj 754 293 i;
#X obj 794 293 i;
#X obj 834 293 i;
#X obj 874 293 i;
#X floatatom 649 259 5 0 0 0 - #0-velocity15_s -;
#X floatatom 689 259 5 0 0 0 - #0-velocity16_s -;
#X floatatom 729 259 5 0 0 0 - #0-velocity17_s -;
#X floatatom 769 259 5 0 0 0 - #0-velocity18_s -;
#X floatatom 809 259 5 0 0 0 - #0-velocity19_s -;
#X floatatom 849 259 5 0 0 0 - #0-velocity20_s -;
#X floatatom 889 259 5 0 0 0 - #0-velocity21_s -;
#X obj 914 293 i;
#X obj 954 293 i;
#X floatatom 929 259 5 0 0 0 - #0-velocity22_s -;
#X floatatom 969 259 5 0 0 0 - #0-velocity23_s -;
#X obj 991 293 i;
#X floatatom 1006 259 5 0 0 0 - #0-velocity24_s -;
#X connect 0 0 13 0;
#X connect 1 0 13 0;
#X connect 2 0 13 0;
#X connect 3 0 13 0;
#X connect 4 0 13 0;
#X connect 5 0 13 0;
#X connect 6 0 13 0;
#X connect 7 0 13 0;
#X connect 8 0 13 0;
#X connect 9 0 13 0;
#X connect 10 0 13 0;
#X connect 11 0 13 0;
#X connect 12 0 13 0;
#X connect 14 0 0 1;
#X connect 15 0 1 1;
#X connect 16 0 2 1;
#X connect 17 0 3 1;
#X connect 18 0 4 1;
#X connect 19 0 5 1;
#X connect 20 0 6 1;
#X connect 21 0 7 1;
#X connect 22 0 8 1;
#X connect 23 0 9 1;
#X connect 24 0 10 1;
#X connect 25 0 11 1;
#X connect 26 0 12 1;
#X connect 27 0 28 0;
#X connect 27 0 45 0;
#X connect 28 0 27 1;
#X connect 29 0 45 1;
#X connect 29 0 50 0;
#X connect 29 0 39 0;
#X connect 29 0 40 0;
#X connect 31 0 72 0;
#X connect 31 1 54 0;
#X connect 32 0 33 0;
#X connect 33 0 30 0;
#X connect 33 0 99 0;
#X connect 34 0 35 0;
#X connect 34 0 46 0;
#X connect 35 0 34 1;
#X connect 36 0 38 0;
#X connect 37 0 36 2;
#X connect 38 0 33 0;
#X connect 39 0 42 0;
#X connect 40 0 43 1;
#X connect 41 0 33 0;
#X connect 42 0 36 3;
#X connect 43 0 41 0;
#X connect 44 0 31 1;
#X connect 45 0 32 0;
#X connect 46 0 47 0;
#X connect 46 0 33 0;
#X connect 47 0 48 0;
#X connect 48 0 29 0;
#X connect 50 0 34 1;
#X connect 51 0 37 0;
#X connect 52 0 31 0;
#X connect 52 0 83 0;
#X connect 53 0 52 0;
#X connect 54 0 81 0;
#X connect 55 0 71 1;
#X connect 56 0 49 0;
#X connect 56 0 74 1;
#X connect 57 0 58 0;
#X connect 58 0 60 0;
#X connect 58 0 61 0;
#X connect 58 0 64 0;
#X connect 58 0 67 0;
#X connect 58 1 59 0;
#X connect 58 1 62 0;
#X connect 58 1 64 0;
#X connect 58 1 67 0;
#X connect 58 2 65 0;
#X connect 58 2 61 0;
#X connect 58 2 59 0;
#X connect 58 2 67 0;
#X connect 58 3 68 0;
#X connect 58 3 64 0;
#X connect 58 3 61 0;
#X connect 58 3 59 0;
#X connect 59 0 55 0;
#X connect 60 0 55 0;
#X connect 61 0 56 0;
#X connect 62 0 56 0;
#X connect 63 0 76 1;
#X connect 64 0 63 0;
#X connect 65 0 63 0;
#X connect 66 0 78 1;
#X connect 67 0 66 0;
#X connect 68 0 66 0;
#X connect 69 0 29 0;
#X connect 70 0 27 0;
#X connect 71 0 70 0;
#X connect 72 0 71 0;
#X connect 72 0 74 0;
#X connect 72 0 76 0;
#X connect 72 0 78 0;
#X connect 73 0 34 0;
#X connect 74 0 73 0;
#X connect 75 0 36 0;
#X connect 76 0 75 0;
#X connect 77 0 43 0;
#X connect 78 0 77 0;
#X connect 79 0 80 0;
#X connect 80 0 81 1;
#X connect 81 0 82 0;
#X connect 82 0 87 0;
#X connect 82 0 88 2;
#X connect 83 0 84 0;
#X connect 83 0 85 0;
#X connect 84 0 27 1;
#X connect 85 0 29 0;
#X connect 85 0 36 1;
#X connect 88 0 86 0;
#X connect 88 1 86 1;
#X connect 89 0 88 0;
#X connect 90 0 88 0;
#X connect 91 0 88 0;
#X connect 92 0 88 0;
#X connect 93 0 88 1;
#X connect 94 0 86 2;
#X connect 95 0 13 0;
#X connect 96 0 13 0;
#X connect 97 0 95 1;
#X connect 98 0 96 1;
#X connect 99 0 0 0;
#X connect 99 1 1 0;
#X connect 99 2 2 0;
#X connect 99 3 3 0;
#X connect 99 4 4 0;
#X connect 99 5 5 0;
#X connect 99 6 6 0;
#X connect 99 7 7 0;
#X connect 99 8 8 0;
#X connect 99 9 9 0;
#X connect 99 10 10 0;
#X connect 99 11 11 0;
#X connect 99 12 12 0;
#X connect 99 12 95 0;
#X connect 99 13 96 0;
#X connect 99 14 100 0;
#X connect 99 15 101 0;
#X connect 99 16 102 0;
#X connect 99 17 103 0;
#X connect 99 18 104 0;
#X connect 99 19 105 0;
#X connect 99 20 106 0;
#X connect 99 21 114 0;
#X connect 99 22 115 0;
#X connect 99 23 118 0;
#X connect 100 0 13 0;
#X connect 101 0 13 0;
#X connect 102 0 13 0;
#X connect 103 0 13 0;
#X connect 104 0 13 0;
#X connect 105 0 13 0;
#X connect 106 0 13 0;
#X connect 107 0 100 1;
#X connect 108 0 101 1;
#X connect 109 0 102 1;
#X connect 110 0 103 1;
#X connect 111 0 104 1;
#X connect 112 0 105 1;
#X connect 113 0 106 1;
#X connect 114 0 13 0;
#X connect 115 0 13 0;
#X connect 116 0 114 1;
#X connect 117 0 115 1;
#X connect 118 0 13 0;
#X connect 119 0 118 1;
#X restore 339 466 pd sequence;
#N canvas 681 582 450 300 tempo 0;
#X obj 166 186 *;
#X obj 161 104 t b f;
#X msg 135 149 1;
#X msg 165 149 2;
#X msg 195 149 3;
#X msg 225 149 4;
#X floatatom 166 211 5 0 0 0 - - -;
#X floatatom 73 170 5 0 0 0 - - -;
#X obj 161 67 inlet multi;
#X obj 73 89 inlet tempo;
#X obj 166 237 outlet;
#X obj 135 132 sel 0 1 2 3;
#X connect 0 0 6 0;
#X connect 1 0 0 0;
#X connect 1 1 11 0;
#X connect 2 0 0 1;
#X connect 3 0 0 1;
#X connect 4 0 0 1;
#X connect 5 0 0 1;
#X connect 6 0 10 0;
#X connect 7 0 0 0;
#X connect 8 0 1 0;
#X connect 9 0 7 0;
#X connect 11 0 2 0;
#X connect 11 1 3 0;
#X connect 11 2 4 0;
#X connect 11 3 5 0;
#X restore 351 437 pd tempo;
#X obj 613 353 nbx 2 14 -1e+037 1e+037 0 0 \$0-CC20_s \$0-CC20_r CC20
3 -8 0 10 -162802 -1 -262144 0 256;
#X obj 613 390 nbx 2 14 -1e+037 1e+037 0 0 \$0-CC21_s \$0-CC21_r CC21
3 -8 0 10 -162802 -1 -262144 0 256;
#X obj 653 353 nbx 2 14 -1e+037 1e+037 0 0 \$0-CC20V_0 empty V0 5 -8
0 10 -162802 -1 -262144 0 256;
#X obj 693 353 nbx 2 14 -1e+037 1e+037 0 0 \$0-CC20V_1 empty V1 5 -8
0 10 -162802 -1 -262144 0 256;
#X obj 653 390 nbx 2 14 -1e+037 1e+037 0 0 \$0-CC21V_0 empty V0 5 -8
0 10 -162802 -1 -262144 0 256;
#X obj 693 390 nbx 2 14 -1e+037 1e+037 0 0 \$0-CC21V_1 empty V1 5 -8
0 10 -162802 -1 -262144 0 256;
#N canvas 823 276 648 300 CC_value 0;
#X obj 39 87 ==;
#X floatatom 86 62 5 0 0 0 - #0-CC20_s -;
#X floatatom 63 172 5 0 0 0 - #0-CC20V_0 -;
#X obj 39 189 f;
#X obj 39 163 bng 15 250 50 0 empty empty empty 17 7 0 10 -262144 -1
-1;
#X obj 39 239 ctlout 20 10;
#X obj 239 87 ==;
#X floatatom 286 62 5 0 0 0 - #0-CC21_s -;
#X floatatom 263 172 5 0 0 0 - #0-CC21V_0 -;
#X obj 239 189 f;
#X obj 239 163 bng 15 250 50 0 empty empty empty 17 7 0 10 -262144
-1 -1;
#X obj 239 239 ctlout 21 10;
#X floatatom 179 45 5 0 0 0 - #0-step_count -;
#X obj 179 70 + 1;
#X obj 39 117 sel 0 1;
#X obj 239 117 sel 0 1;
#X floatatom 133 172 5 0 0 0 - #0-CC20V_1 -;
#X obj 109 189 f;
#X obj 109 163 bng 15 250 50 0 empty empty empty 17 7 0 10 -262144
-1 -1;
#X floatatom 333 172 5 0 0 0 - #0-CC21V_1 -;
#X obj 309 189 f;
#X obj 309 163 bng 15 250 50 0 empty empty empty 17 7 0 10 -262144
-1 -1;
#X connect 0 0 14 0;
#X connect 1 0 0 1;
#X connect 2 0 3 1;
#X connect 3 0 5 0;
#X connect 4 0 3 0;
#X connect 6 0 15 0;
#X connect 7 0 6 1;
#X connect 8 0 9 1;
#X connect 9 0 11 0;
#X connect 10 0 9 0;
#X connect 12 0 13 0;
#X connect 13 0 0 0;
#X connect 13 0 6 0;
#X connect 14 0 4 0;
#X connect 14 1 18 0;
#X connect 15 0 10 0;
#X connect 15 1 21 0;
#X connect 16 0 17 1;
#X connect 17 0 5 0;
#X connect 18 0 17 0;
#X connect 19 0 20 1;
#X connect 20 0 11 0;
#X connect 21 0 20 0;
#X restore 1080 362 pd CC_value;
#N canvas 0 0 1916 997 arpeggiator 0;
#X msg 213 662 set;
#X obj 173 634 t b b b;
#X obj 108 716 t b a;
#X obj 108 679 prepent;
#X obj 102 619 bng 15 250 50 0 empty empty empty 17 7 0 10 -262144
-1 -1;
#X obj 183 507 sel 0;
#X obj 45 619 sel 0;
#X msg 108 748;
#X floatatom 218 491 5 0 0 0 - - -;
#X msg 173 662 add2;
#X floatatom 477 809 5 0 0 0 - - -;
#X floatatom 517 809 5 0 0 0 - - -;
#X floatatom 597 809 5 0 0 0 - - -;
#X floatatom 557 809 5 0 0 0 - - -;
#X obj 477 846 outlet;
#X obj 517 846 outlet;
#X obj 557 846 outlet;
#X obj 597 846 outlet;
#X floatatom 146 842 5 0 0 0 - - #0-poly;
#X msg 487 558 0;
#X floatatom 487 586 5 0 0 0 - - #0-showNote;
#X obj 184 -164 notein;
#X floatatom 33 32 5 0 0 0 - - -;
#X floatatom 302 -147 5 0 0 0 - - -;
#X obj 33 58 sel 200;
#X obj 184 2 expr if($f3 == $f4 \, $f1 \, 200) \; if ($f3 == $f4 \,
$f2 \, 200) \;;
#X floatatom 243 -147 5 0 0 0 - - -;
#X floatatom 93 32 5 0 0 0 - - -;
#X obj 93 58 sel 200;
#X floatatom 361 -145 5 0 0 0 - #0-channel_In -;
#X obj 199 -59 * 12;
#X obj 184 -29 +;
#X floatatom 199 -87 5 0 0 0 - - -;
#X obj 184 -124 t f b;
#X floatatom 137 -103 5 0 0 0 - #0-changeOctave -;
#X obj 112 788 bng 15 250 50 0 \$0-MIDI_TEST empty empty 17 7 0 10
-262144 -1 -1;
#X obj 88 117 pack f f f;
#N canvas 1019 134 450 569 note 0;
#X obj 181 61 unpack f f;
#X floatatom 158 89 5 0 0 0 - - -;
#X floatatom 237 89 5 0 0 0 - - -;
#X obj 238 118 sel 0;
#X obj 158 121 stripnote;
#X obj 179 425 f;
#X msg 238 369 0;
#X obj 181 29 inlet;
#X obj 158 386 t b f;
#X obj 284 78 outlet;
#X obj 270 325 * 12;
#X obj 321 218 * 2;
#X obj 270 298 -;
#X obj 321 244 + 1;
#X obj 270 246 bng 15 250 50 0 empty empty empty 17 7 0 10 -262144
-1 -1;
#X obj 258 170 r \$0-octave;
#X obj 258 201 t f f;
#X obj 270 270 random_me;
#X floatatom 179 458 5 0 0 0 - - -;
#X obj 179 491 outlet;
#X obj 158 229 t f b;
#X obj 158 342 +;
#X connect 0 0 1 0;
#X connect 0 1 2 0;
#X connect 0 1 9 0;
#X connect 1 0 4 0;
#X connect 2 0 3 0;
#X connect 2 0 4 1;
#X connect 3 0 6 0;
#X connect 4 0 20 0;
#X connect 5 0 18 0;
#X connect 6 0 8 0;
#X connect 7 0 0 0;
#X connect 8 0 5 0;
#X connect 8 1 5 1;
#X connect 10 0 21 1;
#X connect 11 0 13 0;
#X connect 12 0 10 0;
#X connect 13 0 17 1;
#X connect 14 0 17 0;
#X connect 15 0 16 0;
#X connect 16 0 11 0;
#X connect 16 1 12 1;
#X connect 17 0 12 0;
#X connect 18 0 19 0;
#X connect 20 0 21 0;
#X connect 20 1 14 0;
#X connect 21 0 8 0;
#X restore 88 266 pd note;
#X obj 45 283 f;
#X obj 45 309 f;
#X obj 45 335 f;
#X obj 45 359 f;
#X obj 45 446 f;
#X obj 45 237 t b b;
#X msg 183 45 clear;
#X obj 146 784 length;
#X msg 304 767 bang;
#X floatatom 426 283 5 0 0 0 - - -;
#X floatatom 407 309 5 0 0 0 - - -;
#X floatatom 388 335 5 0 0 0 - - -;
#X floatatom 370 359 5 0 0 0 - - -;
#X obj 597 541 loadbang;
#X obj 630 75 stripnote;
#X obj 814 91 tgl 15 0 empty \$0-hold empty 17 7 0 10 -262144 -1 -1
1 1;
#X obj 675 602 t f b;
#X obj 630 202 sel 2000;
#X text 655 175 pedal on;
#X text 316 82 pedal off;
#X obj 174 619 bng 15 250 50 0 empty empty empty 17 7 0 10 -262144
-1 -1;
#X obj 630 134 expr if( $f3 == 1 \, $f1 \, 2000) \;;
#X obj 218 134 bng 15 250 50 0 empty empty empty 17 7 0 10 -262144
-1 -1;
#X obj 229 222 bng 15 250 50 0 empty empty empty 17 7 0 10 -262144
-1 -1;
#X obj 229 160 spigot 0;
#X obj 283 106 sel 0 1;
#X msg 319 132 0;
#X msg 283 132 1;
#X obj 183 543 bng 15 250 50 0 empty empty empty 17 7 0 10 -262144
-1 -1;
#X obj 230 543 tgl 15 0 empty \$0-hold empty 17 7 0 10 -262144 -1 -1
1 1;
#X obj 185 589 spigot 0;
#X obj 304 612 spigot 0;
#X obj 358 558 sel 0 1;
#X msg 394 584 0;
#X msg 358 584 1;
#X obj 304 733 bng 15 250 50 0 empty empty empty 17 7 0 10 -262144
-1 -1;
#X obj 489 765 unpack f f f f f f;
#X floatatom 677 809 5 0 0 0 - - -;
#X floatatom 637 809 5 0 0 0 - - -;
#X obj 637 846 outlet;
#X obj 677 846 outlet;
#X obj 88 215 route 1 2 3 4 5 6;
#X floatatom 351 384 5 0 0 0 - - -;
#X floatatom 333 407 5 0 0 0 - - -;
#X obj 218 454 expr if($f1 == 0 && $f2 == 0 && $f3 == 0 && $f4 == 0
&& $f5 == 0 && $f6 == 0 \, 0 \, 4) \;;
#X obj 333 437 bondo 6 --------;
#X obj 45 384 f;
#X obj 45 407 f;
#X obj 136 593 bng 15 250 50 0 empty empty empty 17 7 0 10 -262144
-1 -1;
#X obj 146 815 expr if($f1 > 6 \, 6 \, $f1) \;;
#X obj 778 377 * 12;
#X obj 829 270 * 2;
#X obj 778 350 -;
#X obj 829 296 + 1;
#X obj 778 298 bng 15 250 50 0 empty empty empty 17 7 0 10 -262144
-1 -1;
#X obj 766 222 r \$0-octave;
#X obj 766 253 t f f;
#X obj 778 322 random_me;
#X obj 675 281 t f b;
#X obj 675 394 +;
#X obj 88 75 poly 6 1;
#N canvas 1019 134 450 569 note 0;
#X obj 181 61 unpack f f;
#X floatatom 158 89 5 0 0 0 - - -;
#X floatatom 237 89 5 0 0 0 - - -;
#X obj 238 118 sel 0;
#X obj 158 121 stripnote;
#X obj 179 425 f;
#X msg 238 369 0;
#X obj 181 29 inlet;
#X obj 158 386 t b f;
#X obj 284 78 outlet;
#X obj 270 325 * 12;
#X obj 321 218 * 2;
#X obj 270 298 -;
#X obj 321 244 + 1;
#X obj 270 246 bng 15 250 50 0 empty empty empty 17 7 0 10 -262144
-1 -1;
#X obj 258 170 r \$0-octave;
#X obj 258 201 t f f;
#X obj 270 270 random_me;
#X floatatom 179 458 5 0 0 0 - - -;
#X obj 179 491 outlet;
#X obj 158 229 t f b;
#X obj 158 342 +;
#X connect 0 0 1 0;
#X connect 0 1 2 0;
#X connect 0 1 9 0;
#X connect 1 0 4 0;
#X connect 2 0 3 0;
#X connect 2 0 4 1;
#X connect 3 0 6 0;
#X connect 4 0 20 0;
#X connect 5 0 18 0;
#X connect 6 0 8 0;
#X connect 7 0 0 0;
#X connect 8 0 5 0;
#X connect 8 1 5 1;
#X connect 10 0 21 1;
#X connect 11 0 13 0;
#X connect 12 0 10 0;
#X connect 13 0 17 1;
#X connect 14 0 17 0;
#X connect 15 0 16 0;
#X connect 16 0 11 0;
#X connect 16 1 12 1;
#X connect 17 0 12 0;
#X connect 18 0 19 0;
#X connect 20 0 21 0;
#X connect 20 1 14 0;
#X connect 21 0 8 0;
#X restore 104 292 pd note;
#N canvas 1019 134 450 569 note 0;
#X obj 181 61 unpack f f;
#X floatatom 158 89 5 0 0 0 - - -;
#X floatatom 237 89 5 0 0 0 - - -;
#X obj 238 118 sel 0;
#X obj 158 121 stripnote;
#X obj 179 425 f;
#X msg 238 369 0;
#X obj 181 29 inlet;
#X obj 158 386 t b f;
#X obj 284 78 outlet;
#X obj 270 325 * 12;
#X obj 321 218 * 2;
#X obj 270 298 -;
#X obj 321 244 + 1;
#X obj 270 246 bng 15 250 50 0 empty empty empty 17 7 0 10 -262144
-1 -1;
#X obj 258 170 r \$0-octave;
#X obj 258 201 t f f;
#X obj 270 270 random_me;
#X floatatom 179 458 5 0 0 0 - - -;
#X obj 179 491 outlet;
#X obj 158 229 t f b;
#X obj 158 342 +;
#X connect 0 0 1 0;
#X connect 0 1 2 0;
#X connect 0 1 9 0;
#X connect 1 0 4 0;
#X connect 2 0 3 0;
#X connect 2 0 4 1;
#X connect 3 0 6 0;
#X connect 4 0 20 0;
#X connect 5 0 18 0;
#X connect 6 0 8 0;
#X connect 7 0 0 0;
#X connect 8 0 5 0;
#X connect 8 1 5 1;
#X connect 10 0 21 1;
#X connect 11 0 13 0;
#X connect 12 0 10 0;
#X connect 13 0 17 1;
#X connect 14 0 17 0;
#X connect 15 0 16 0;
#X connect 16 0 11 0;
#X connect 16 1 12 1;
#X connect 17 0 12 0;
#X connect 18 0 19 0;
#X connect 20 0 21 0;
#X connect 20 1 14 0;
#X connect 21 0 8 0;
#X restore 121 318 pd note;
#N canvas 1019 134 450 569 note 0;
#X obj 181 61 unpack f f;
#X floatatom 158 89 5 0 0 0 - - -;
#X floatatom 237 89 5 0 0 0 - - -;
#X obj 238 118 sel 0;
#X obj 158 121 stripnote;
#X obj 179 425 f;
#X msg 238 369 0;
#X obj 181 29 inlet;
#X obj 158 386 t b f;
#X obj 284 78 outlet;
#X obj 270 325 * 12;
#X obj 321 218 * 2;
#X obj 270 298 -;
#X obj 321 244 + 1;
#X obj 270 246 bng 15 250 50 0 empty empty empty 17 7 0 10 -262144
-1 -1;
#X obj 258 170 r \$0-octave;
#X obj 258 201 t f f;
#X obj 270 270 random_me;
#X floatatom 179 458 5 0 0 0 - - -;
#X obj 179 491 outlet;
#X obj 158 229 t f b;
#X obj 158 342 +;
#X connect 0 0 1 0;
#X connect 0 1 2 0;
#X connect 0 1 9 0;
#X connect 1 0 4 0;
#X connect 2 0 3 0;
#X connect 2 0 4 1;
#X connect 3 0 6 0;
#X connect 4 0 20 0;
#X connect 5 0 18 0;
#X connect 6 0 8 0;
#X connect 7 0 0 0;
#X connect 8 0 5 0;
#X connect 8 1 5 1;
#X connect 10 0 21 1;
#X connect 11 0 13 0;
#X connect 12 0 10 0;
#X connect 13 0 17 1;
#X connect 14 0 17 0;
#X connect 15 0 16 0;
#X connect 16 0 11 0;
#X connect 16 1 12 1;
#X connect 17 0 12 0;
#X connect 18 0 19 0;
#X connect 20 0 21 0;
#X connect 20 1 14 0;
#X connect 21 0 8 0;
#X restore 137 342 pd note;
#N canvas 1019 134 450 569 note 0;
#X obj 181 61 unpack f f;
#X floatatom 158 89 5 0 0 0 - - -;
#X floatatom 237 89 5 0 0 0 - - -;
#X obj 238 118 sel 0;
#X obj 158 121 stripnote;
#X obj 179 425 f;
#X msg 238 369 0;
#X obj 181 29 inlet;
#X obj 158 386 t b f;
#X obj 284 78 outlet;
#X obj 270 325 * 12;
#X obj 321 218 * 2;
#X obj 270 298 -;
#X obj 321 244 + 1;
#X obj 270 246 bng 15 250 50 0 empty empty empty 17 7 0 10 -262144
-1 -1;
#X obj 258 170 r \$0-octave;
#X obj 258 201 t f f;
#X obj 270 270 random_me;
#X floatatom 179 458 5 0 0 0 - - -;
#X obj 179 491 outlet;
#X obj 158 229 t f b;
#X obj 158 342 +;
#X connect 0 0 1 0;
#X connect 0 1 2 0;
#X connect 0 1 9 0;
#X connect 1 0 4 0;
#X connect 2 0 3 0;
#X connect 2 0 4 1;
#X connect 3 0 6 0;
#X connect 4 0 20 0;
#X connect 5 0 18 0;
#X connect 6 0 8 0;
#X connect 7 0 0 0;
#X connect 8 0 5 0;
#X connect 8 1 5 1;
#X connect 10 0 21 1;
#X connect 11 0 13 0;
#X connect 12 0 10 0;
#X connect 13 0 17 1;
#X connect 14 0 17 0;
#X connect 15 0 16 0;
#X connect 16 0 11 0;
#X connect 16 1 12 1;
#X connect 17 0 12 0;
#X connect 18 0 19 0;
#X connect 20 0 21 0;
#X connect 20 1 14 0;
#X connect 21 0 8 0;
#X restore 154 367 pd note;
#N canvas 1019 134 450 569 note 0;
#X obj 181 61 unpack f f;
#X floatatom 158 89 5 0 0 0 - - -;
#X floatatom 237 89 5 0 0 0 - - -;
#X obj 238 118 sel 0;
#X obj 158 121 stripnote;
#X obj 179 425 f;
#X msg 238 369 0;
#X obj 181 29 inlet;
#X obj 158 386 t b f;
#X obj 284 78 outlet;
#X obj 270 325 * 12;
#X obj 321 218 * 2;
#X obj 270 298 -;
#X obj 321 244 + 1;
#X obj 270 246 bng 15 250 50 0 empty empty empty 17 7 0 10 -262144
-1 -1;
#X obj 258 170 r \$0-octave;
#X obj 258 201 t f f;
#X obj 270 270 random_me;
#X floatatom 179 458 5 0 0 0 - - -;
#X obj 179 491 outlet;
#X obj 158 229 t f b;
#X obj 158 342 +;
#X connect 0 0 1 0;
#X connect 0 1 2 0;
#X connect 0 1 9 0;
#X connect 1 0 4 0;
#X connect 2 0 3 0;
#X connect 2 0 4 1;
#X connect 3 0 6 0;
#X connect 4 0 20 0;
#X connect 5 0 18 0;
#X connect 6 0 8 0;
#X connect 7 0 0 0;
#X connect 8 0 5 0;
#X connect 8 1 5 1;
#X connect 10 0 21 1;
#X connect 11 0 13 0;
#X connect 12 0 10 0;
#X connect 13 0 17 1;
#X connect 14 0 17 0;
#X connect 15 0 16 0;
#X connect 16 0 11 0;
#X connect 16 1 12 1;
#X connect 17 0 12 0;
#X connect 18 0 19 0;
#X connect 20 0 21 0;
#X connect 20 1 14 0;
#X connect 21 0 8 0;
#X restore 170 390 pd note;
#X connect 0 0 3 1;
#X connect 1 0 9 0;
#X connect 1 1 3 0;
#X connect 1 2 0 0;
#X connect 2 0 7 0;
#X connect 2 1 7 0;
#X connect 3 0 2 0;
#X connect 4 0 1 0;
#X connect 5 0 44 0;
#X connect 5 0 66 0;
#X connect 6 1 3 0;
#X connect 7 0 35 0;
#X connect 7 0 45 0;
#X connect 7 0 74 0;
#X connect 8 0 5 0;
#X connect 9 0 3 1;
#X connect 10 0 14 0;
#X connect 11 0 15 0;
#X connect 12 0 17 0;
#X connect 13 0 16 0;
#X connect 19 0 20 0;
#X connect 21 0 33 0;
#X connect 21 1 26 0;
#X connect 21 2 23 0;
#X connect 22 0 24 0;
#X connect 23 0 25 2;
#X connect 24 1 52 0;
#X connect 24 1 98 0;
#X connect 24 1 60 0;
#X connect 25 0 22 0;
#X connect 25 1 27 0;
#X connect 26 0 25 1;
#X connect 27 0 28 0;
#X connect 28 1 52 1;
#X connect 28 1 98 1;
#X connect 29 0 25 3;
#X connect 30 0 31 1;
#X connect 31 0 25 0;
#X connect 32 0 30 0;
#X connect 33 0 31 0;
#X connect 33 1 32 0;
#X connect 34 0 32 0;
#X connect 36 0 79 0;
#X connect 37 0 38 1;
#X connect 37 1 47 0;
#X connect 38 0 42 0;
#X connect 39 0 42 0;
#X connect 40 0 42 0;
#X connect 41 0 42 0;
#X connect 42 0 6 0;
#X connect 43 0 38 0;
#X connect 43 0 39 0;
#X connect 43 0 40 0;
#X connect 43 0 41 0;
#X connect 43 0 84 0;
#X connect 43 0 85 0;
#X connect 43 1 4 0;
#X connect 44 0 98 0;
#X connect 45 0 87 0;
#X connect 46 0 45 0;
#X connect 47 0 83 5;
#X connect 48 0 83 4;
#X connect 49 0 83 3;
#X connect 50 0 83 2;
#X connect 51 0 19 0;
#X connect 52 0 59 0;
#X connect 53 0 59 2;
#X connect 53 0 63 0;
#X connect 54 0 6 0;
#X connect 54 1 58 0;
#X connect 55 1 96 0;
#X connect 58 0 9 0;
#X connect 59 0 55 0;
#X connect 60 0 62 0;
#X connect 61 0 43 0;
#X connect 62 0 61 0;
#X connect 63 0 65 0;
#X connect 63 1 64 0;
#X connect 64 0 62 1;
#X connect 65 0 62 1;
#X connect 66 0 68 0;
#X connect 66 0 19 0;
#X connect 66 0 69 0;
#X connect 67 0 68 1;
#X connect 67 0 70 0;
#X connect 68 0 4 0;
#X connect 68 0 86 0;
#X connect 69 0 46 0;
#X connect 70 0 72 0;
#X connect 70 1 71 0;
#X connect 71 0 69 1;
#X connect 72 0 69 1;
#X connect 72 0 73 0;
#X connect 73 0 46 0;
#X connect 74 0 10 0;
#X connect 74 1 11 0;
#X connect 74 2 13 0;
#X connect 74 3 12 0;
#X connect 74 4 76 0;
#X connect 74 5 75 0;
#X connect 75 0 78 0;
#X connect 76 0 77 0;
#X connect 79 0 37 0;
#X connect 79 1 99 0;
#X connect 79 2 100 0;
#X connect 79 3 101 0;
#X connect 79 4 102 0;
#X connect 79 5 103 0;
#X connect 80 0 83 1;
#X connect 81 0 83 0;
#X connect 82 0 8 0;
#X connect 83 0 82 0;
#X connect 83 1 82 1;
#X connect 83 2 82 2;
#X connect 83 3 82 3;
#X connect 83 4 82 4;
#X connect 83 5 82 5;
#X connect 84 0 42 0;
#X connect 85 0 42 0;
#X connect 87 0 18 0;
#X connect 88 0 97 1;
#X connect 89 0 91 0;
#X connect 90 0 88 0;
#X connect 91 0 95 1;
#X connect 92 0 95 0;
#X connect 93 0 94 0;
#X connect 94 0 89 0;
#X connect 94 1 90 1;
#X connect 95 0 90 0;
#X connect 96 0 97 0;
#X connect 96 1 92 0;
#X connect 97 0 54 0;
#X connect 98 0 36 0;
#X connect 98 1 36 1;
#X connect 98 2 36 2;
#X connect 99 0 39 1;
#X connect 99 1 48 0;
#X connect 100 0 40 1;
#X connect 100 1 49 0;
#X connect 101 0 41 1;
#X connect 101 1 50 0;
#X connect 102 0 84 1;
#X connect 102 1 80 0;
#X connect 103 0 85 1;
#X connect 103 1 81 0;
#X restore 1171 838 pd arpeggiator;
#X obj 1341 855 i;
#X obj 1371 855 i;
#X obj 1401 855 i;
#X obj 1431 855 i;
#X obj 1341 882 bng 15 250 50 0 empty empty empty 17 7 0 10 -262144
-1 -1;
#X obj 1371 882 bng 15 250 50 0 empty empty empty 17 7 0 10 -262144
-1 -1;
#X obj 1401 882 bng 15 250 50 0 empty empty empty 17 7 0 10 -262144
-1 -1;
#X obj 1431 882 bng 15 250 50 0 empty empty empty 17 7 0 10 -262144
-1 -1;
#X floatatom 1341 905 5 0 0 0 - - #0-NoteIn_1;
#X floatatom 1371 905 5 0 0 0 - - #0-NoteIn_2;
#X floatatom 1401 905 5 0 0 0 - - #0-NoteIn_3;
#X floatatom 1431 905 5 0 0 0 - - #0-NoteIn_4;
#X floatatom 1275 872 5 0 0 0 - - #0-showNote;
#X obj 1461 855 i;
#X obj 1461 882 bng 15 250 50 0 empty empty empty 17 7 0 10 -262144
-1 -1;
#X floatatom 1461 905 5 0 0 0 - - #0-NoteIn_4;
#X obj 1491 855 i;
#X obj 1491 882 bng 15 250 50 0 empty empty empty 17 7 0 10 -262144
-1 -1;
#X floatatom 1491 905 5 0 0 0 - - #0-NoteIn_4;
#X obj 1341 818 sel 0 1 2 3 4 5;
#N canvas 0 0 1916 988 random 0;
#X obj -123 -180 bng 15 250 50 0 empty \$0-bang_velocity empty 17 7
0 10 -262144 -1 -1;
#X obj -113 -121 i;
#X obj -82 -121 + 1;
#X msg -113 -68 seed \$1;
#X obj -113 -93 % 100;
#X obj -53 -180 bng 15 250 50 0 empty \$0-bang_velocity empty 17 7
0 10 -262144 -1 -1;
#X obj -43 -121 i;
#X obj -12 -121 + 1;
#X msg -43 -68 seed \$1;
#X obj -43 -93 % 100;
#X obj 17 -180 bng 15 250 50 0 empty \$0-bang_velocity empty 17 7 0
10 -262144 -1 -1;
#X obj 27 -121 i;
#X obj 58 -121 + 1;
#X msg 27 -68 seed \$1;
#X obj 27 -93 % 100;
#X obj 87 -180 bng 15 250 50 0 empty \$0-bang_velocity empty 17 7 0
10 -262144 -1 -1;
#X obj 97 -121 i;
#X obj 128 -121 + 1;
#X msg 97 -68 seed \$1;
#X obj 97 -93 % 100;
#X obj 157 -180 bng 15 250 50 0 empty \$0-bang_velocity empty 17 7
0 10 -262144 -1 -1;
#X obj 167 -121 i;
#X obj 198 -121 + 1;
#X msg 167 -68 seed \$1;
#X obj 167 -93 % 100;
#X obj 227 -180 bng 15 250 50 0 empty \$0-bang_velocity empty 17 7
0 10 -262144 -1 -1;
#X obj 237 -121 i;
#X obj 268 -121 + 1;
#X msg 237 -68 seed \$1;
#X obj 237 -93 % 100;
#X obj 297 -180 bng 15 250 50 0 empty \$0-bang_velocity empty 17 7
0 10 -262144 -1 -1;
#X obj 307 -121 i;
#X obj 338 -121 + 1;
#X msg 307 -68 seed \$1;
#X obj 307 -93 % 100;
#X obj 367 -180 bng 15 250 50 0 empty \$0-bang_velocity empty 17 7
0 10 -262144 -1 -1;
#X obj 377 -121 i;
#X obj 408 -121 + 1;
#X msg 377 -68 seed \$1;
#X obj 377 -93 % 100;
#X obj 437 -180 bng 15 250 50 0 empty \$0-bang_velocity empty 17 7
0 10 -262144 -1 -1;
#X obj 447 -121 i;
#X obj 478 -121 + 1;
#X msg 447 -68 seed \$1;
#X obj 447 -93 % 100;
#X obj 507 -180 bng 15 250 50 0 empty \$0-bang_velocity empty 17 7
0 10 -262144 -1 -1;
#X obj 517 -121 i;
#X obj 548 -121 + 1;
#X msg 517 -68 seed \$1;
#X obj 517 -93 % 100;
#X obj 577 -180 bng 15 250 50 0 empty \$0-bang_velocity empty 17 7
0 10 -262144 -1 -1;
#X obj 587 -121 i;
#X obj 618 -121 + 1;
#X msg 587 -68 seed \$1;
#X obj 587 -93 % 100;
#X obj 647 -180 bng 15 250 50 0 empty \$0-bang_velocity empty 17 7
0 10 -262144 -1 -1;
#X obj 657 -121 i;
#X obj 688 -121 + 1;
#X msg 657 -68 seed \$1;
#X obj 657 -93 % 100;
#X obj 717 -180 bng 15 250 50 0 empty \$0-bang_velocity empty 17 7
0 10 -262144 -1 -1;
#X obj 727 -121 i;
#X obj 758 -121 + 1;
#X msg 727 -68 seed \$1;
#X obj 727 -93 % 100;
#X obj 787 -180 bng 15 250 50 0 empty \$0-bang_velocity empty 17 7
0 10 -262144 -1 -1;
#X obj 797 -121 i;
#X obj 828 -121 + 1;
#X msg 797 -68 seed \$1;
#X obj 797 -93 % 100;
#X obj 857 -180 bng 15 250 50 0 empty \$0-bang_velocity empty 17 7
0 10 -262144 -1 -1;
#X obj 867 -121 i;
#X obj 898 -121 + 1;
#X msg 867 -68 seed \$1;
#X obj 867 -93 % 100;
#X obj 927 -180 bng 15 250 50 0 empty \$0-bang_velocity empty 17 7
0 10 -262144 -1 -1;
#X obj 937 -121 i;
#X obj 968 -121 + 1;
#X msg 937 -68 seed \$1;
#X obj 937 -93 % 100;
#X obj 997 -180 bng 15 250 50 0 empty \$0-bang_velocity empty 17 7
0 10 -262144 -1 -1;
#X obj 1007 -121 i;
#X obj 1038 -121 + 1;
#X msg 1007 -68 seed \$1;
#X obj 1007 -93 % 100;
#X obj 1067 -180 bng 15 250 50 0 empty \$0-bang_velocity empty 17 7
0 10 -262144 -1 -1;
#X obj 1077 -121 i;
#X obj 1108 -121 + 1;
#X msg 1077 -68 seed \$1;
#X obj 1077 -93 % 100;
#X obj 1137 -180 bng 15 250 50 0 empty \$0-bang_velocity empty 17 7
0 10 -262144 -1 -1;
#X obj 1147 -121 i;
#X obj 1178 -121 + 1;
#X msg 1147 -68 seed \$1;
#X obj 1147 -93 % 100;
#X obj 1207 -180 bng 15 250 50 0 empty \$0-bang_velocity empty 17 7
0 10 -262144 -1 -1;
#X obj 1217 -121 i;
#X obj 1248 -121 + 1;
#X msg 1217 -68 seed \$1;
#X obj 1217 -93 % 100;
#X obj 1277 -180 bng 15 250 50 0 empty \$0-bang_velocity empty 17 7
0 10 -262144 -1 -1;
#X obj 1287 -121 i;
#X obj 1318 -121 + 1;
#X msg 1287 -68 seed \$1;
#X obj 1287 -93 % 100;
#X obj 1347 -180 bng 15 250 50 0 empty \$0-bang_velocity empty 17 7
0 10 -262144 -1 -1;
#X obj 1357 -121 i;
#X obj 1388 -121 + 1;
#X msg 1357 -68 seed \$1;
#X obj 1357 -93 % 100;
#X obj 1589 -165 tgl 15 0 empty empty empty 17 7 0 10 -262144 -1 -1
1 1;
#X msg 1589 -200 1;
#X obj 1589 -234 loadbang;
#X obj -113 -150 metro 200;
#X obj -43 -150 metro 80;
#X obj 27 -150 metro 108;
#X obj 97 -150 metro 350;
#X obj 167 -150 metro 300;
#X obj 237 -150 metro 900;
#X obj 307 -150 metro 204;
#X obj 377 -150 metro 133;
#X obj 447 -150 metro 758;
#X obj 517 -150 metro 124;
#X obj 587 -150 metro 985;
#X obj 657 -150 metro 422;
#X obj 727 -150 metro 377;
#X obj 797 -150 metro 111;
#X obj 867 -150 metro 555;
#X obj 937 -150 metro 854;
#X obj 1007 -150 metro 304;
#X obj 1077 -150 metro 375;
#X obj 1147 -150 metro 305;
#X obj 1217 -150 metro 116;
#X obj 1287 -150 metro 714;
#X obj 1357 -150 metro 632;
#X floatatom -123 14 5 0 0 0 - - #0-velocity1_r;
#X floatatom -53 14 5 0 0 0 - - #0-velocity2_r;
#X floatatom 17 14 5 0 0 0 - - #0-velocity3_r;
#X floatatom 87 14 5 0 0 0 - - #0-velocity4_r;
#X floatatom 157 14 5 0 0 0 - - #0-velocity5_r;
#X floatatom 227 14 5 0 0 0 - - #0-velocity6_r;
#X floatatom 297 14 5 0 0 0 - - #0-velocity7_r;
#X floatatom 367 14 5 0 0 0 - - #0-velocity8_r;
#X floatatom 437 14 5 0 0 0 - - #0-velocity9_r;
#X floatatom 507 14 5 0 0 0 - - #0-velocity10_r;
#X floatatom 577 14 5 0 0 0 - - #0-velocity11_r;
#X floatatom 647 14 5 0 0 0 - - #0-velocity12_r;
#X floatatom 717 14 5 0 0 0 - - #0-velocity13_r;
#X floatatom 787 14 5 0 0 0 - - #0-velocity14_r;
#X floatatom 857 14 5 0 0 0 - - #0-velocity15_r;
#X floatatom 927 14 5 0 0 0 - - #0-velocity16_r;
#X floatatom 997 14 5 0 0 0 - - #0-velocity17_r;
#X floatatom 1067 14 5 0 0 0 - - #0-velocity18_r;
#X floatatom 1137 14 5 0 0 0 - - #0-velocity19_r;
#X floatatom 1207 14 5 0 0 0 - - #0-velocity20_r;
#X floatatom 1277 14 5 0 0 0 - - #0-velocity21_r;
#X floatatom 1347 14 5 0 0 0 - - #0-velocity22_r;
#X obj 1417 -180 bng 15 250 50 0 empty \$0-bang_velocity empty 17 7
0 10 -262144 -1 -1;
#X obj 1427 -121 i;
#X obj 1458 -121 + 1;
#X msg 1427 -68 seed \$1;
#X obj 1427 -93 % 100;
#X floatatom 1417 14 5 0 0 0 - - #0-velocity23_r;
#X obj 1496 -180 bng 15 250 50 0 empty \$0-bang_velocity empty 17 7
0 10 -262144 -1 -1;
#X obj 1506 -121 i;
#X obj 1537 -121 + 1;
#X msg 1506 -68 seed \$1;
#X obj 1506 -93 % 100;
#X floatatom 1496 14 5 0 0 0 - - #0-velocity24_r;
#X obj 1427 -150 metro 1050;
#X obj 1506 -150 metro 1130;
#X obj -123 -13 * 20;
#X obj -123 -42 random 6;
#X obj -53 -42 random 6;
#X obj -53 -13 * 20;
#X obj 17 -42 random 6;
#X obj 17 -13 * 20;
#X obj 87 -42 random 6;
#X obj 157 -42 random 6;
#X obj 227 -42 random 6;
#X obj 297 -42 random 6;
#X obj 367 -42 random 6;
#X obj 437 -42 random 6;
#X obj 507 -42 random 6;
#X obj 577 -42 random 6;
#X obj 647 -42 random 6;
#X obj 717 -42 random 6;
#X obj 787 -42 random 6;
#X obj 857 -42 random 6;
#X obj 927 -42 random 6;
#X obj 997 -42 random 6;
#X obj 1067 -42 random 6;
#X obj 1137 -42 random 6;
#X obj 1207 -42 random 6;
#X obj 1277 -42 random 6;
#X obj 1347 -42 random 6;
#X obj 1417 -42 random 6;
#X obj 1496 -42 random 6;
#X obj 87 -13 * 20;
#X obj 157 -13 * 20;
#X obj 227 -13 * 20;
#X obj 297 -13 * 20;
#X obj 367 -13 * 20;
#X obj 437 -13 * 20;
#X obj 507 -13 * 20;
#X obj 577 -13 * 20;
#X obj 647 -13 * 20;
#X obj 717 -13 * 20;
#X obj 787 -13 * 20;
#X obj 857 -13 * 20;
#X obj 927 -13 * 20;
#X obj 997 -13 * 20;
#X obj 1067 -13 * 20;
#X obj 1137 -13 * 20;
#X obj 1207 -13 * 20;
#X obj 1277 -13 * 20;
#X obj 1347 -13 * 20;
#X obj 1417 -13 * 20;
#X obj 1496 -13 * 20;
#X connect 0 0 172 0;
#X connect 1 0 2 0;
#X connect 1 0 4 0;
#X connect 2 0 1 1;
#X connect 3 0 172 0;
#X connect 4 0 3 0;
#X connect 5 0 173 0;
#X connect 6 0 7 0;
#X connect 6 0 9 0;
#X connect 7 0 6 1;
#X connect 8 0 173 0;
#X connect 9 0 8 0;
#X connect 10 0 175 0;
#X connect 11 0 12 0;
#X connect 11 0 14 0;
#X connect 12 0 11 1;
#X connect 13 0 175 0;
#X connect 14 0 13 0;
#X connect 15 0 177 0;
#X connect 16 0 17 0;
#X connect 16 0 19 0;
#X connect 17 0 16 1;
#X connect 18 0 177 0;
#X connect 19 0 18 0;
#X connect 20 0 178 0;
#X connect 21 0 22 0;
#X connect 21 0 24 0;
#X connect 22 0 21 1;
#X connect 23 0 178 0;
#X connect 24 0 23 0;
#X connect 25 0 179 0;
#X connect 26 0 27 0;
#X connect 26 0 29 0;
#X connect 27 0 26 1;
#X connect 28 0 179 0;
#X connect 29 0 28 0;
#X connect 30 0 180 0;
#X connect 31 0 32 0;
#X connect 31 0 34 0;
#X connect 32 0 31 1;
#X connect 33 0 180 0;
#X connect 34 0 33 0;
#X connect 35 0 181 0;
#X connect 36 0 37 0;
#X connect 36 0 39 0;
#X connect 37 0 36 1;
#X connect 38 0 181 0;
#X connect 39 0 38 0;
#X connect 40 0 182 0;
#X connect 41 0 42 0;
#X connect 41 0 44 0;
#X connect 42 0 41 1;
#X connect 43 0 182 0;
#X connect 44 0 43 0;
#X connect 45 0 183 0;
#X connect 46 0 47 0;
#X connect 46 0 49 0;
#X connect 47 0 46 1;
#X connect 48 0 183 0;
#X connect 49 0 48 0;
#X connect 50 0 184 0;
#X connect 51 0 52 0;
#X connect 51 0 54 0;
#X connect 52 0 51 1;
#X connect 53 0 184 0;
#X connect 54 0 53 0;
#X connect 55 0 185 0;
#X connect 56 0 57 0;
#X connect 56 0 59 0;
#X connect 57 0 56 1;
#X connect 58 0 185 0;
#X connect 59 0 58 0;
#X connect 60 0 186 0;
#X connect 61 0 62 0;
#X connect 61 0 64 0;
#X connect 62 0 61 1;
#X connect 63 0 186 0;
#X connect 64 0 63 0;
#X connect 65 0 187 0;
#X connect 66 0 67 0;
#X connect 66 0 69 0;
#X connect 67 0 66 1;
#X connect 68 0 187 0;
#X connect 69 0 68 0;
#X connect 70 0 188 0;
#X connect 71 0 72 0;
#X connect 71 0 74 0;
#X connect 72 0 71 1;
#X connect 73 0 188 0;
#X connect 74 0 73 0;
#X connect 75 0 189 0;
#X connect 76 0 77 0;
#X connect 76 0 79 0;
#X connect 77 0 76 1;
#X connect 78 0 189 0;
#X connect 79 0 78 0;
#X connect 80 0 190 0;
#X connect 81 0 82 0;
#X connect 81 0 84 0;
#X connect 82 0 81 1;
#X connect 83 0 190 0;
#X connect 84 0 83 0;
#X connect 85 0 191 0;
#X connect 86 0 87 0;
#X connect 86 0 89 0;
#X connect 87 0 86 1;
#X connect 88 0 191 0;
#X connect 89 0 88 0;
#X connect 90 0 192 0;
#X connect 91 0 92 0;
#X connect 91 0 94 0;
#X connect 92 0 91 1;
#X connect 93 0 192 0;
#X connect 94 0 93 0;
#X connect 95 0 193 0;
#X connect 96 0 97 0;
#X connect 96 0 99 0;
#X connect 97 0 96 1;
#X connect 98 0 193 0;
#X connect 99 0 98 0;
#X connect 100 0 194 0;
#X connect 101 0 102 0;
#X connect 101 0 104 0;
#X connect 102 0 101 1;
#X connect 103 0 194 0;
#X connect 104 0 103 0;
#X connect 105 0 195 0;
#X connect 106 0 107 0;
#X connect 106 0 109 0;
#X connect 107 0 106 1;
#X connect 108 0 195 0;
#X connect 109 0 108 0;
#X connect 110 0 113 0;
#X connect 110 0 114 0;
#X connect 110 0 115 0;
#X connect 110 0 116 0;
#X connect 110 0 117 0;
#X connect 110 0 118 0;
#X connect 110 0 119 0;
#X connect 110 0 120 0;
#X connect 110 0 121 0;
#X connect 110 0 122 0;
#X connect 110 0 123 0;
#X connect 110 0 124 0;
#X connect 110 0 125 0;
#X connect 110 0 126 0;
#X connect 110 0 127 0;
#X connect 110 0 128 0;
#X connect 110 0 129 0;
#X connect 110 0 130 0;
#X connect 110 0 131 0;
#X connect 110 0 132 0;
#X connect 110 0 133 0;
#X connect 110 0 134 0;
#X connect 110 0 170 0;
#X connect 110 0 169 0;
#X connect 111 0 110 0;
#X connect 112 0 111 0;
#X connect 113 0 1 0;
#X connect 114 0 6 0;
#X connect 115 0 11 0;
#X connect 116 0 16 0;
#X connect 117 0 21 0;
#X connect 118 0 26 0;
#X connect 119 0 31 0;
#X connect 120 0 36 0;
#X connect 121 0 41 0;
#X connect 122 0 46 0;
#X connect 123 0 51 0;
#X connect 124 0 56 0;
#X connect 125 0 61 0;
#X connect 126 0 66 0;
#X connect 127 0 71 0;
#X connect 128 0 76 0;
#X connect 129 0 81 0;
#X connect 130 0 86 0;
#X connect 131 0 91 0;
#X connect 132 0 96 0;
#X connect 133 0 101 0;
#X connect 134 0 106 0;
#X connect 157 0 196 0;
#X connect 158 0 159 0;
#X connect 158 0 161 0;
#X connect 159 0 158 1;
#X connect 160 0 196 0;
#X connect 161 0 160 0;
#X connect 163 0 197 0;
#X connect 164 0 165 0;
#X connect 164 0 167 0;
#X connect 165 0 164 1;
#X connect 166 0 197 0;
#X connect 167 0 166 0;
#X connect 169 0 158 0;
#X connect 170 0 164 0;
#X connect 171 0 135 0;
#X connect 172 0 171 0;
#X connect 173 0 174 0;
#X connect 174 0 136 0;
#X connect 175 0 176 0;
#X connect 176 0 137 0;
#X connect 177 0 198 0;
#X connect 178 0 199 0;
#X connect 179 0 200 0;
#X connect 180 0 201 0;
#X connect 181 0 202 0;
#X connect 182 0 203 0;
#X connect 183 0 204 0;
#X connect 184 0 205 0;
#X connect 185 0 206 0;
#X connect 186 0 207 0;
#X connect 187 0 208 0;
#X connect 188 0 209 0;
#X connect 189 0 210 0;
#X connect 190 0 211 0;
#X connect 191 0 212 0;
#X connect 192 0 213 0;
#X connect 193 0 214 0;
#X connect 194 0 215 0;
#X connect 195 0 216 0;
#X connect 196 0 217 0;
#X connect 197 0 218 0;
#X connect 198 0 138 0;
#X connect 199 0 139 0;
#X connect 200 0 140 0;
#X connect 201 0 141 0;
#X connect 202 0 142 0;
#X connect 203 0 143 0;
#X connect 204 0 144 0;
#X connect 205 0 145 0;
#X connect 206 0 146 0;
#X connect 207 0 147 0;
#X connect 208 0 148 0;
#X connect 209 0 149 0;
#X connect 210 0 150 0;
#X connect 211 0 151 0;
#X connect 212 0 152 0;
#X connect 213 0 153 0;
#X connect 214 0 154 0;
#X connect 215 0 155 0;
#X connect 216 0 156 0;
#X connect 217 0 162 0;
#X connect 218 0 168 0;
#X restore 783 97 pd random preset;
#X obj 214 581 notoname2;
#X symbolatom 314 598 10 0 0 0 - - -;
#X obj 214 624 makefilename %s;
#X msg 124 316 14;
#X msg 632 168 8;
#N canvas 731 153 887 486 midi 1;
#X obj 45 69 notein;
#X floatatom 82 145 5 0 0 0 - - -;
#X floatatom 163 86 5 0 0 0 - - -;
#X obj 82 171 sel 200;
#X obj 45 115 expr if($f3 == $f4 \, $f1 \, 200) \; if ($f3 == $f4 \,
$f2 \, 200) \;;
#X floatatom 104 86 5 0 0 0 - - -;
#X floatatom 142 145 5 0 0 0 - - -;
#X obj 142 171 sel 200;
#X obj 121 305 noteout;
#X floatatom 207 289 5 0 0 0 - #0-channel -;
#X floatatom 222 88 5 0 0 0 - #0-channel -;
#X floatatom 546 108 5 0 0 0 - - -;
#X obj 546 131 sel 64 59;
#X obj 672 91 ctlin;
#X obj 597 173 stripnote;
#X obj 699 139 sel 0;
#X msg 671 156 0;
#X msg 641 156 127;
#X floatatom 597 196 5 0 0 0 - - -;
#X floatatom 721 108 5 0 0 0 - - -;
#X obj 656 212 ctlout;
#X obj 672 115 t f f;
#X floatatom 273 250 5 0 0 0 - - -;
#X floatatom 284 306 5 0 0 0 - - -;
#X obj 265 208 expr if($f1<40 && $f1>0 \, 60 \, $f1);
#X obj 265 273 expr if($f1<90 && $f1>70 \, 80 \, $f1);
#X connect 0 0 4 0;
#X connect 0 1 5 0;
#X connect 0 2 2 0;
#X connect 1 0 3 0;
#X connect 2 0 4 2;
#X connect 3 1 8 0;
#X connect 4 0 1 0;
#X connect 4 1 6 0;
#X connect 5 0 4 1;
#X connect 6 0 7 0;
#X connect 7 1 24 0;
#X connect 9 0 8 2;
#X connect 10 0 4 3;
#X connect 11 0 12 0;
#X connect 12 2 14 0;
#X connect 13 0 21 0;
#X connect 13 1 11 0;
#X connect 13 2 19 0;
#X connect 14 0 18 0;
#X connect 15 0 17 0;
#X connect 15 1 16 0;
#X connect 16 0 14 1;
#X connect 17 0 14 1;
#X connect 18 0 20 0;
#X connect 19 0 20 2;
#X connect 21 0 20 1;
#X connect 21 1 15 0;
#X connect 24 0 22 0;
#X connect 24 0 25 0;
#X connect 25 0 23 0;
#X connect 25 0 8 1;
#X restore 1614 275 pd midi;
#X connect 50 0 2 0;
#X connect 50 1 12 0;
#X connect 50 2 13 0;
#X connect 50 3 14 0;
#X connect 50 4 15 0;
#X connect 50 5 16 0;
#X connect 50 6 17 0;
#X connect 50 7 18 0;
#X connect 50 8 19 0;
#X connect 50 9 20 0;
#X connect 50 10 21 0;
#X connect 50 11 22 0;
#X connect 50 12 23 0;
#X connect 50 13 24 0;
#X connect 50 14 25 0;
#X connect 50 15 26 0;
#X connect 50 16 27 0;
#X connect 50 17 28 0;
#X connect 50 18 29 0;
#X connect 50 19 30 0;
#X connect 50 20 31 0;
#X connect 50 21 32 0;
#X connect 50 22 33 0;
#X connect 50 23 34 0;
#X connect 51 0 50 0;
#X connect 57 0 171 0;
#X connect 58 0 172 0;
#X connect 59 0 171 2;
#X connect 60 0 58 0;
#X connect 61 0 60 0;
#X connect 61 0 205 0;
#X connect 61 0 65 0;
#X connect 61 0 110 0;
#X connect 61 0 158 0;
#X connect 61 0 160 0;
#X connect 61 0 206 0;
#X connect 64 0 171 3;
#X connect 65 0 64 0;
#X connect 65 0 71 0;
#X connect 65 0 111 0;
#X connect 65 0 139 0;
#X connect 66 0 83 0;
#X connect 71 0 172 1;
#X connect 72 0 73 0;
#X connect 72 0 74 0;
#X connect 73 0 72 1;
#X connect 74 0 134 0;
#X connect 75 0 76 0;
#X connect 75 0 128 0;
#X connect 75 0 133 0;
#X connect 76 0 75 1;
#X connect 77 0 106 0;
#X connect 78 0 106 0;
#X connect 79 0 106 0;
#X connect 81 0 96 1;
#X connect 82 0 80 0;
#X connect 82 0 98 1;
#X connect 83 0 84 0;
#X connect 84 0 86 0;
#X connect 84 0 87 0;
#X connect 84 0 90 0;
#X connect 84 0 93 0;
#X connect 84 1 85 0;
#X connect 84 1 88 0;
#X connect 84 1 90 0;
#X connect 84 1 93 0;
#X connect 84 2 91 0;
#X connect 84 2 87 0;
#X connect 84 2 85 0;
#X connect 84 2 93 0;
#X connect 84 3 94 0;
#X connect 84 3 90 0;
#X connect 84 3 87 0;
#X connect 84 3 85 0;
#X connect 85 0 81 0;
#X connect 86 0 81 0;
#X connect 87 0 82 0;
#X connect 88 0 82 0;
#X connect 89 0 100 1;
#X connect 89 0 116 0;
#X connect 90 0 89 0;
#X connect 91 0 89 0;
#X connect 92 0 102 1;
#X connect 93 0 92 0;
#X connect 94 0 92 0;
#X connect 95 0 72 0;
#X connect 96 0 95 0;
#X connect 97 0 75 0;
#X connect 98 0 97 0;
#X connect 99 0 103 0;
#X connect 100 0 99 0;
#X connect 101 0 163 0;
#X connect 102 0 101 0;
#X connect 103 0 126 0;
#X connect 104 0 103 1;
#X connect 104 0 103 2;
#X connect 105 0 106 0;
#X connect 106 0 200 0;
#X connect 107 1 151 0;
#X connect 108 0 96 0;
#X connect 108 0 98 0;
#X connect 108 0 100 0;
#X connect 108 0 102 0;
#X connect 109 0 107 0;
#X connect 110 0 66 0;
#X connect 110 0 52 0;
#X connect 110 0 57 0;
#X connect 110 0 161 0;
#X connect 114 0 61 0;
#X connect 115 0 137 0;
#X connect 116 0 104 0;
#X connect 117 0 136 0;
#X connect 117 1 74 1;
#X connect 117 1 134 1;
#X connect 118 0 120 0;
#X connect 118 1 121 1;
#X connect 118 1 163 1;
#X connect 119 0 118 0;
#X connect 120 0 121 1;
#X connect 121 0 122 0;
#X connect 122 1 79 0;
#X connect 123 0 125 0;
#X connect 123 1 126 1;
#X connect 123 1 103 3;
#X connect 124 0 123 0;
#X connect 125 0 126 1;
#X connect 126 0 127 0;
#X connect 127 1 105 0;
#X connect 128 0 129 0;
#X connect 129 0 130 0;
#X connect 130 0 75 1;
#X connect 131 0 132 0;
#X connect 132 0 130 0;
#X connect 133 0 77 0;
#X connect 134 0 135 0;
#X connect 135 1 78 0;
#X connect 136 0 134 1;
#X connect 137 0 138 0;
#X connect 137 1 117 0;
#X connect 138 0 72 1;
#X connect 140 0 141 0;
#X connect 140 1 142 0;
#X connect 141 0 143 0;
#X connect 142 0 143 0;
#X connect 143 0 139 0;
#X connect 144 0 57 0;
#X connect 146 0 148 0;
#X connect 147 0 202 0;
#X connect 147 0 149 0;
#X connect 149 0 150 0;
#X connect 150 0 204 0;
#X connect 151 0 108 0;
#X connect 152 0 140 0;
#X connect 153 0 154 0;
#X connect 153 1 155 0;
#X connect 154 0 152 0;
#X connect 155 0 152 1;
#X connect 156 0 152 2;
#X connect 158 0 157 0;
#X connect 160 0 159 0;
#X connect 163 0 121 0;
#X connect 167 0 166 0;
#X connect 168 0 166 1;
#X connect 169 0 168 0;
#X connect 170 0 167 0;
#X connect 172 0 171 1;
#X connect 180 0 181 1;
#X connect 180 1 182 1;
#X connect 180 2 183 1;
#X connect 180 3 184 1;
#X connect 180 4 194 1;
#X connect 180 5 197 1;
#X connect 181 0 185 0;
#X connect 181 0 189 0;
#X connect 181 0 193 0;
#X connect 182 0 186 0;
#X connect 182 0 190 0;
#X connect 182 0 193 0;
#X connect 183 0 187 0;
#X connect 183 0 191 0;
#X connect 183 0 193 0;
#X connect 184 0 188 0;
#X connect 184 0 192 0;
#X connect 184 0 193 0;
#X connect 194 0 195 0;
#X connect 194 0 196 0;
#X connect 194 0 193 0;
#X connect 197 0 198 0;
#X connect 197 0 199 0;
#X connect 197 0 193 0;
#X connect 200 0 181 0;
#X connect 200 1 182 0;
#X connect 200 2 183 0;
#X connect 200 3 184 0;
#X connect 200 4 194 0;
#X connect 200 5 197 0;
#X connect 202 0 203 0;
#X connect 202 0 204 0;
#X connect 204 0 146 0;
#X connect 205 0 59 0;
#X connect 206 0 164 0;
#X coords 0 -1 1 1 750 220 1 200 200;
