#N canvas 338 247 1068 559 12;
#X obj 455 19 tgl 15 0 empty empty global_metronome 17 7 0 10 -262144
-1 -1 1 1;
#X obj 455 39 metro 1 120 permin;
#X obj 455 64 s metro;
#X obj 857 140 midilooper 1;
#X obj 857 115 r metro;
#X msg 927 115 1;
#X obj 927 78 bng 15 250 50 0 empty empty rec/start/stop 17 7 0 10
-262144 -1 -1;
#X msg 967 115 -1;
#X obj 967 96 bng 15 250 50 0 empty empty clear 17 7 0 10 -262144 -1
-1;
#X floatatom 857 165 5 0 0 0 status - -;
#X obj 888 187 s notes;
#X obj 1153 340 unpack f f;
#X obj 1153 315 r notes;
#X obj 1028 115 r metro;
#X msg 1098 115 1;
#X obj 1098 78 bng 15 250 50 0 empty empty rec/start/stop 17 7 0 10
-262144 -1 -1;
#X msg 1138 115 -1;
#X obj 1138 96 bng 15 250 50 0 empty empty clear 17 7 0 10 -262144
-1 -1;
#X floatatom 1028 165 5 0 0 0 status - -;
#X obj 1059 187 s notes;
#X floatatom 696 42 5 0 0 0 - - -;
#X floatatom 754 46 5 0 0 0 - - -;
#X text 1152 241 Looper output is sent to external synthesizer.;
#X obj 696 17 notein;
#X floatatom 1097 360 5 0 0 0 - - -;
#X floatatom 1253 360 5 0 0 0 - - -;
#X obj 1153 365 noteout;
#X obj 704 77 noteout;
#X obj 1332 -64 ctlin 64 10;
#X obj 1329 9 ctlout 64 10;
#X floatatom 1332 -27 5 0 0 0 - - -;
#X floatatom 927 10 5 0 0 0 - - -;
#X obj 927 42 sel 127;
#X floatatom 1018 9 5 0 0 0 - - -;
#X obj 1018 -21 ctlin 61 10;
#X obj 926 -22 ctlin 60 10;
#X floatatom 1128 8 5 0 0 0 - - -;
#X obj 1128 -32 ctlin 60 11;
#X floatatom 1228 8 5 0 0 0 - - -;
#X obj 1228 -32 ctlin 61 11;
#X obj 1018 42 sel 127;
#X obj 1098 42 sel 127;
#X obj 1168 42 sel 127;
#X obj 456 -49 loadbang;
#X msg 456 -14 1;
#X floatatom 967 195 5 0 0 0 - - -;
#X floatatom 1131 195 5 0 0 0 - - -;
#X obj 101 101 cnv 15 398 148 empty empty MIDI_LOOP 20 12 0 14 -71442
-262144 0;
#X obj 125 214 hsl 150 20 0 1 0 0 empty empty empty -2 -8 0 10 -187756
-1 -1 7516 1;
#X obj 315 214 hsl 150 20 0 1 0 0 empty empty empty -2 -8 0 10 -187756
-1 -1 0 1;
#X obj 158 182 tgl 20 0 empty empty Record -7 -7 0 10 -187756 -1 -262144
0 1;
#X msg 625 162 0;
#X msg 663 162 1;
#X msg 1177 162 0;
#X msg 1212 162 1;
#X obj 358 182 tgl 20 0 empty empty Record -7 -7 0 10 -187756 -1 -262144
0 1;
#X obj 208 182 tgl 20 0 empty empty Pause -7 -7 0 10 -187756 -1 -262144
0 1;
#X msg 700 162 1;
#X msg 740 162 0;
#X obj 719 142 sel 0 1 2 3;
#X obj 418 182 tgl 20 0 empty empty Pause -7 -7 0 10 -187756 -1 -262144
0 1;
#X obj 1239 142 sel 0 1 2 3;
#X msg 1245 162 0;
#X msg 1283 162 1;
#X obj 529 319 midiparse;
#X obj 1028 140 midilooper 1;
#X text 120 8 works on channel 1 only;
#X connect 0 0 1 0;
#X connect 1 0 2 0;
#X connect 3 0 9 0;
#X connect 3 1 10 0;
#X connect 3 4 45 0;
#X connect 4 0 3 0;
#X connect 5 0 3 1;
#X connect 6 0 5 0;
#X connect 7 0 3 1;
#X connect 8 0 7 0;
#X connect 9 0 59 0;
#X connect 11 0 24 0;
#X connect 11 0 26 0;
#X connect 11 1 25 0;
#X connect 11 1 26 1;
#X connect 12 0 11 0;
#X connect 13 0 65 0;
#X connect 14 0 65 1;
#X connect 15 0 14 0;
#X connect 16 0 65 1;
#X connect 17 0 16 0;
#X connect 18 0 61 0;
#X connect 20 0 27 0;
#X connect 21 0 27 1;
#X connect 23 0 20 0;
#X connect 23 1 21 0;
#X connect 28 0 30 0;
#X connect 30 0 29 0;
#X connect 31 0 32 0;
#X connect 32 0 6 0;
#X connect 33 0 40 0;
#X connect 34 0 33 0;
#X connect 35 0 31 0;
#X connect 36 0 41 0;
#X connect 37 0 36 0;
#X connect 38 0 42 0;
#X connect 39 0 38 0;
#X connect 40 0 8 0;
#X connect 41 0 15 0;
#X connect 42 0 17 0;
#X connect 43 0 44 0;
#X connect 44 0 0 0;
#X connect 45 0 48 0;
#X connect 46 0 49 0;
#X connect 51 0 50 0;
#X connect 52 0 50 0;
#X connect 53 0 55 0;
#X connect 54 0 55 0;
#X connect 57 0 56 0;
#X connect 58 0 56 0;
#X connect 59 0 51 0;
#X connect 59 0 58 0;
#X connect 59 1 52 0;
#X connect 59 1 58 0;
#X connect 59 2 51 0;
#X connect 59 2 58 0;
#X connect 59 3 51 0;
#X connect 59 3 57 0;
#X connect 61 0 53 0;
#X connect 61 0 62 0;
#X connect 61 1 54 0;
#X connect 61 1 62 0;
#X connect 61 2 53 0;
#X connect 61 2 62 0;
#X connect 61 3 53 0;
#X connect 61 3 63 0;
#X connect 62 0 60 0;
#X connect 63 0 60 0;
#X connect 65 0 18 0;
#X connect 65 1 19 0;
#X connect 65 4 46 0;
#X coords 0 -1 1 1 400 150 1 100 100;
